<?xml version="1.0" encoding="UTF-8"?>
<svg id="Calque_1" data-name="Calque 1" xmlns="http://www.w3.org/2000/svg" version="1.1" viewBox="0 0 980.5 980.1">
  <defs>
    <style>
      .cls-1 {
        fill: #fff;
        stroke-width: 0px;
      }
    </style>
  </defs>
  <path class="cls-1" d="M226.7,423.6v-26c0-82.2-.1-164.3,0-246.5,0-40.3,14.2-75.2,41.9-104.4,22.4-23.6,49.9-38.2,82-44.3,8.7-1.6,17.4-2.4,26.2-2.4,99.6,0,199.1,0,298.7,0,14.1,0,27.2,3.3,39.6,9.8,10.1,5.3,19.4,11.8,28.3,18.8,13.8,10.9,26.8,22.8,39.3,35.2,21,20.9,41.8,42.1,62.8,63.1,13.1,13.1,26.3,26,39.4,39,18.8,18.6,37.6,37.1,55.1,56.9,8.4,9.6,16.4,19.4,23.4,30.1,6.4,9.8,11.8,20,14.8,31.3,1.5,5.6,2.2,11.3,2.2,17.1,0,176.2,0,352.5,0,528.7,0,36.6-12.2,68.9-35.7,96.7-22.3,26.4-50.5,43.1-84.3,50.3-9.6,2.1-19.4,3.1-29.3,3.1-151.3,0-302.6,0-454,0-35.6,0-67.4-11.5-94.9-34-27.9-22.8-45.4-52.1-52.7-87.4-2-9.5-2.8-19.1-2.9-28.8,0-6.1,0-12.2,0-18.2v-2.7c-.9,0-1.6-.2-2.3-.2-8.6,0-17.3,0-25.9,0-49.5,0-99,.3-148.5.2-16.7,0-30.5-6.6-40.6-20C3.2,780.9,0,771.5,0,761.3c0-96.5,0-193,0-289.4,0-20,12.7-37.6,30.7-44.7,6-2.4,12.3-3.5,18.7-3.5,47.8,0,95.5,0,143.2,0,10.5,0,20.9,0,31.4,0,.8,0,1.6,0,2.6-.1h0ZM302.3,423.7h386.3c32.7,0,65.4-.2,98.1,0,19.2.2,33.6,9.1,43.1,25.7,4.3,7.5,5.7,15.7,5.7,24.2,0,95,0,190.1,0,285.1s0,2.2,0,3.4c-.6,14.9-6.8,27-18.4,36.2-9.4,7.5-20.4,10.7-32.4,10.7-159.3,0-318.6,0-478,0s-1.8,0-2.6,0c-.6,0-1.2.1-1.8.2,0,.6-.1,1-.1,1.4,0,6.2-.2,12.5,0,18.7.2,4.8.5,9.6,1.4,14.3,7.1,35.8,37.9,61.1,74.3,61.1,150.5,0,301,0,451.6,0,4.8,0,9.8-.5,14.5-1.4,35.1-6.5,61.2-37.8,61.2-73.4,0-163.5,0-327,0-490.6,0-2.4-.2-4.8-.5-7.2-1.4-9.8-6.3-17.3-15-22.2-2-1.1-4.1-2.1-6.3-2.9-7.9-3-16.2-4.2-24.6-4.7-8-.5-16-.6-24-.7-39,0-77.9,0-116.8,0s-18.5-2.8-25.8-9.3c-8.7-7.7-13-17.4-13-29,0-41.5,0-83,0-124.6,0-10-.3-20-1.9-29.9-.9-5.8-2.3-11.4-4.8-16.8-3.7-7.7-9.3-13.3-17.5-16-1.5-.5-3.1-.8-4.7-.8-22.9,0-45.8,0-68.6,0-21.4,0-42.9,0-64.3,0-28.9,0-57.7,0-86.6,0-13.4,0-26.7,0-40.1,0s-10.9,0-16.3.2c-20.4.9-37.6,8.9-51.6,23.8-14,14.8-20.5,32.7-20.5,53,0,81.7,0,163.4,0,245,0,1.5.4,3,.3,4.5,0,6.4-.2,12.8-.3,19.2,0,.7,0,1.4.1,2.5h0ZM555.8,492.4v244h3c29.7,0,59.3,0,89,0,7.8,0,15.5-.4,23.2-1.5,11.1-1.7,21.7-4.7,31.6-10.1,13-7,23.3-16.8,29.7-30.3,5.2-11,6.9-22.7,6.2-34.8-1-16-7.8-29-20.2-39.1-9.7-7.9-20.8-12.3-33-14.4-1.5-.2-2.9-.5-4.4-.7.7-.7,1.3-1,2.1-1.2,8.8-2.7,16.9-6.8,24.1-12.5,14.1-11.3,22.1-25.6,21.5-44.2-.5-15-6.2-27.4-17.9-37-8.4-6.9-18.1-11.1-28.5-13.8-12.4-3.3-25-4.4-37.8-4.4h-88.7ZM359.4,492.5c-2.5,5.1-90.6,241.9-90.7,243.7h57.1c6.1-18.6,12.2-37.1,18.2-55.6h90.5c6.2,18.6,12.4,37,18.5,55.5h57.9c-29.8-81.4-59.5-162.6-89.2-243.7h-62.3ZM202,736.2v-201.3h70.8v-42.4c-3.8-.5-193.2-.3-194.8.2v42.2h70.8v156.7c0,7.4,0,14.9,0,22.3,0,7.4-.1,14.8,0,22.2h53.2Z"/>
  <path class="cls-1" d="M608.7,697.3v-66.4c.6,0,1.2-.2,1.8-.2,10.5,0,21.1-.1,31.6,0,7.5.1,15,1.2,22,4.2,7.2,3.1,13,7.9,16.2,15.2,7,16.2.2,34.8-15.7,42.5-5.8,2.8-12.1,4.4-18.5,4.5-12,.3-24,.2-36,.3-.5,0-.9-.1-1.5-.2h0Z"/>
  <path class="cls-1" d="M608.8,531.3c.6,0,1.1-.1,1.6-.1,8.9,0,17.8,0,26.6.2,5.7.1,11.3,1,16.7,2.8,2,.7,3.9,1.4,5.8,2.3,8.5,4.3,12.8,11.3,13.3,20.7.2,3.8-.1,7.7-1.1,11.4-2.3,8.6-7.8,14.5-15.7,18.4-5.2,2.5-10.7,4-16.4,4.2-10,.3-20,.2-30,.2-.2,0-.5,0-.8-.2v-59.8h0Z"/>
  <path class="cls-1" d="M355.7,640.1c.3-.9.5-1.8.8-2.6,9.2-27.6,18.4-55.2,27.6-82.8,2-6.1,3.4-12.3,4.1-18.7,0-.7,0-1.8,1.5-1.3.3,2.4.6,4.8.9,7.3.6,5.2,1.9,10.4,3.5,15.4,8.9,26.6,17.8,53.2,26.7,79.8.3.9.5,1.8.9,2.9h-66Z"/>
</svg>