<?xml version="1.0" encoding="UTF-8"?>
<svg id="Calque_1" data-name="Calque 1" xmlns="http://www.w3.org/2000/svg" version="1.1" viewBox="0 0 979.7 979.2">
  <defs>
    <style>
      .cls-1 {
        fill: #fff;
        stroke-width: 0px;
      }
    </style>
  </defs>
  <path class="cls-1" d="M979.7,567.3v264.2c0,11.6-1.5,23.2-4.4,34.4-2.5,10.3-6.2,20.2-11,29.6-5.7,11.5-12.8,22.2-21.3,31.8-8.8,10.1-18.8,19-29.9,26.5-13.1,8.8-27.5,15.5-42.7,19.8-10,2.8-20.3,4.6-30.7,5.4-2.4.2-4.8,0-7.2,0h-458.6c-12.4,0-24.8-1.8-36.7-5.2-15.2-4.1-29.6-10.7-42.7-19.3-6.3-4.2-12.2-8.8-17.8-13.8-27.7-24.7-45.3-58.8-49.3-95.7-.7-6.4-1-12.9-.9-19.4,0-4.6,0-9.1,0-13.7s-.3-4.3-4.2-4.3c-7.6,0-15.2-.1-22.8,0-48.5,1-96.9.2-145.4.4-5,0-9.9-.3-14.8-1.1-9.5-1.6-18.2-6.1-25-12.9-7.9-7.6-12.9-17.7-14.1-28.6-.2-1.4-.2-2.9-.2-4.3v-290.9c0-12.2,4.6-22.8,13-31.6,7.8-8.3,18.3-13.5,29.7-14.7,1.8-.2,3.7-.3,5.5-.3h172.9c1.1,0,2.2,0,3.4,0,1.5-.2,2-.7,2.1-2.1,0-1.2.1-2.4,0-3.6V149.5c.2-34.8,12.6-68.5,34.9-95.2,11.6-13.9,25.6-25.6,41.4-34.6,17-9.7,35.8-16,55.2-18.4,5.8-.8,11.6-1.2,17.5-1.2C476,0,576.6,0,677.1,0c11.1,0,22,2.5,32.1,7.1,11.3,5.3,22,11.9,31.6,19.8,7.9,6.3,15.6,13,23.2,19.7,5.5,4.8,10.7,9.9,15.9,15,10.8,10.5,21.5,21.1,32.1,31.7,22.8,22.8,45.5,45.7,68.2,68.6,6.6,6.6,13.4,13.1,20,19.6,11.3,11.2,22.3,22.7,33.1,34.4,8.4,9.1,16.4,18.6,23.8,28.6,6.7,8.8,12.3,18.4,16.7,28.5,2.9,6.6,4.8,13.6,5.6,20.8.2,2.2.3,4.3.2,6.5,0,89,0,178,0,267.1ZM547.3,423.9h238.3c9.7-.1,19.3,2.6,27.5,7.9,6.8,4.4,12.4,10.5,16.2,17.7,3.7,7,5.5,14.7,5.4,22.6v290.2c-.2,5-1.2,10-3,14.8-5.4,14-16.9,24.7-31.2,29-6.1,1.7-12.4,2.5-18.7,2.3-157.7,0-315.5,0-473.2,0h-3.6c-.5,0-1,0-1.4,0-1.1,0-2,.9-2,2,0,.8,0,1.6,0,2.4v16.1c-.1,13.2,3.3,26.2,9.9,37.6,7.3,12.9,18.2,23.3,31.4,30,11.2,5.7,23.6,8.6,36.1,8.4h447.6c3.8,0,7.5-.2,11.2-.6,19.3-2.3,35.6-10.5,48.5-25,12.6-13.9,19.4-32,19.2-50.7,0-162.7,0-325.4,0-488.1,0-2.9-.2-5.8-.6-8.6-1.3-8.9-5.3-16.1-13-21.2-4.2-2.7-8.8-4.6-13.6-5.8-10.5-2.8-21.3-3.6-32.1-3.7-42.6-.2-85.1,0-127.7-.1-2.5,0-5-.2-7.4-.5-19.1-2.7-31.9-19.8-31.7-36.3.2-22.6.2-45.1,0-67.7-.1-21.3.6-42.6-.4-63.8-.2-4.8-.2-9.6-.5-14.4-.3-7-1.5-14-3.6-20.7-2-5.9-4.6-11.4-9.4-15.7-5.1-4.6-10.8-7.5-17.9-7.4-18.1.2-36.2.4-54.2.5-71.9,0-143.8,0-215.8,0-3.2,0-6.4.2-9.6.5-19,2.1-36.4,11.6-48.6,26.3-11.9,14.1-17.8,30.5-17.8,49v244.5c0,2.1.3,4.2.2,6.2,0,5.7-.2,11.4-.2,17v2.6c.1,1.9.6,2.4,2.5,2.5,1.2,0,2.4,0,3.6,0h239.7ZM295,485.1c.7,1.4,1.1,2.3,1.6,3.2,9.4,15.7,18.8,31.5,28.2,47.2,15.5,25.9,31,51.7,46.5,77.6,1.4,2.4,1.5,4.2,0,6.5-7,10.4-13.8,21-20.6,31.5-8.9,13.7-17.9,27.3-26.8,41-7.5,11.5-15.1,23-22.7,34.5-3.1,4.7-6.2,9.5-9.3,14.2-1.1,1.7-2.3,3.5-3.3,5.3-.8,1.4-.5,2,1.2,2.2.6,0,1.3,0,1.9,0h62.6c1.4,0,2.7-.7,3.3-2,1.1-2.1,2.3-4.2,3.5-6.3l17.4-31.2c5.9-10.6,11.9-21.2,17.7-31.9,3.8-6.9,8.2-13.6,10.9-21.1,1.1-3.1,2.2-6.2,3.3-9.3.2-.5.4-.9.9-1.8.3,1.2.5,2,.7,2.8,1.3,4.7,2.4,9.5,4.7,13.8,5.3,9.7,10.7,19.5,16.1,29.2l19.1,34.6c3.6,6.6,7.3,13.1,10.9,19.8,1,2.3,3.4,3.7,5.9,3.4,4.1-.2,8.1,0,12.2,0h48.2c1.2,0,2.4.3,3.7-.8-.4-.8-.7-1.5-1.2-2.2-8.7-14-17.4-27.9-26.1-41.8l-34.7-55.3c-6.2-9.8-12.2-19.7-18.5-29.4-1.7-2.6-1.6-4.6,0-7.2,4.5-6.9,8.7-14,13.1-21,9.4-15.1,18.8-30.3,28.3-45.4l26.1-41.7c3.3-5.2,6.5-10.5,9.7-15.7.5-.9.9-1.9,1.2-2.9-1.6-.1-2.8-.2-4-.2h-57.6c-1.6-.1-3.2.8-3.8,2.3-6.2,11.3-12.5,22.5-18.8,33.8-6.4,11.5-12.7,22.9-19.1,34.4-2.1,3.9-4.4,7.8-6.2,11.9-2.3,5.1-4.1,10.4-6.2,15.6-.4,1-.9,1.9-1.3,2.9h-.5c-.3-1.1-.7-2-1-3-2-5.1-3.8-10.2-6-15.2-2.9-6.3-6-12.5-9.1-18.8-10.2-20.4-20.4-40.8-30.5-61.2-.7-1.8-2.6-2.9-4.5-2.8-21.3,0-42.5,0-63.8,0-.9,0-1.7.2-3.1.4ZM133,639.8v104.2c0,4.1.2,4.3,4.4,4.3h49.2c.6,0,1.3,0,1.9,0,1.9-.2,2.4-.7,2.6-2.5.1-1.2,0-2.4,0-3.6v-205.2c0-1.1,0-2.2,0-3.3.1-1.6.7-2.1,2.3-2.2,1,0,1.9,0,2.9,0h67.2c3.5,0,3.9-.4,3.9-3.8,0,0,0-.2,0-.2v-38.4c0-.7,0-1.4-.1-2.2,0-1-.8-1.8-1.9-1.9-1,0-2.1-.1-3.1-.1H60.7c-4.4,0-4.6.2-4.6,4.6v37.2c0,.9,0,1.8,0,2.6,0,1.1.9,2,2,2,1,0,2.1.1,3.1.1h66.5c1,0,1.9,0,2.9,0,1.5.2,2,.6,2.1,2.1,0,1,.1,2.1,0,3.1v103.2ZM696.5,639.8c0-34.4,0-68.8,0-103.2,0-1,0-2.1,0-3.1.2-1.5.6-2,2.1-2.1,1,0,1.9,0,2.9,0h66.7c4.3,0,4.5-.2,4.5-4.4,0-12.6,0-25.1,0-37.7,0-4.3-.2-4.5-4.5-4.5h-202.3c-4.3,0-4.5.2-4.5,4.5v37.4c0,.7,0,1.4,0,2.2.2,1.7.7,2.3,2.4,2.5,1,0,2.1,0,3.1,0h68.4c2.2.1,2.7.6,2.8,2.7,0,1.1,0,2.2,0,3.4v206.4c0,4.3.2,4.5,4.5,4.5h49.9c3.2,0,3.7-.5,3.7-3.8v-104.6Z"/>
</svg>