<?xml version="1.0" encoding="UTF-8"?>
<svg id="Calque_1" data-name="Calque 1" xmlns="http://www.w3.org/2000/svg" version="1.1" viewBox="0 0 981.4 983">
  <defs>
    <style>
      .cls-1 {
        display: none;
      }

      .cls-1, .cls-2 {
        fill: #fff;
        stroke-width: 0px;
      }
    </style>
  </defs>
  <path class="cls-1" d="M.4,983.5V.5h981.6v983H.4ZM227.5,425.7h-3c-10.4,0-20.8-.1-31.2-.1H50.3c-2.6,0-5.3.2-7.9.6-23.8,3.5-41.7,24-41.6,47.8.1,96.3,0,192.6.1,289,0,13.8,5.3,25.4,15.3,34.8,9.7,9.1,21.5,13.3,34.8,13.3h67.9c26.8,0,53.6-.2,80.4-.3h26.2c.7,0,1.4,0,2.2.2v21.4c.1,9.6.9,19.2,2.9,28.6,7.3,34.9,24.5,64,52,86.7,27.6,22.8,59.6,34.5,95.5,34.5,151.4,0,302.7,0,454.1,0s18.1-.9,26.9-2.6c31.6-6.2,58.7-20.8,80.8-44.1,27.5-29,41.7-63.7,41.7-103.8,0-175.9,0-351.8,0-527.8s0-2.2,0-3.4c-.2-2.4-.3-4.8-.7-7.2-1.4-9.3-4.7-17.9-9-26.2-6.2-11.9-14.1-22.6-22.7-33-12.5-15.1-26-29.3-39.9-43.2-16.9-16.9-34.1-33.6-51-50.5-24-24-47.9-48.3-71.9-72.3-12.6-12.6-25.7-24.7-39.6-35.9-9.5-7.7-19.5-14.8-30.4-20.5-12.6-6.4-25.8-9.7-40-9.7-99.4,0-198.9,0-298.3,0s-17.7.7-26.5,2.4c-32,6-59.4,20.5-81.9,44-27.9,29.2-42.1,64.2-42.2,104.6-.2,89.7-.1,179.4-.1,269,0,1.1,0,2.2,0,3.6Z"/>
  <path class="cls-2" d="M227.5,425.7v-3.6c0-89.7-.1-179.4.1-269,.1-40.4,14.3-75.4,42.2-104.6,22.4-23.5,49.9-38.1,81.9-44,8.7-1.6,17.6-2.4,26.5-2.4,99.3,0,198.8,0,298.2-.1,14.2,0,27.3,3.3,39.8,9.8,10.9,5.7,20.8,12.8,30.4,20.5,13.9,11.2,27,23.3,39.6,35.9,24.1,24,47.9,48.3,71.9,72.3,16.9,16.9,34.1,33.6,51,50.5,13.9,13.9,27.4,28,39.9,43.2,8.5,10.3,16.4,21.1,22.7,33,4.3,8.3,7.6,16.9,9,26.2.4,2.4.5,4.8.7,7.2,0,1.1,0,2.2,0,3.4v527.8c0,40.1-14.2,74.7-41.7,103.8-22.1,23.4-49.2,37.9-80.8,44.1-8.9,1.7-17.9,2.6-26.9,2.6h-454.1c-35.9,0-67.8-11.7-95.5-34.5-27.5-22.7-44.8-51.8-52-86.7-2-9.4-2.8-19-2.9-28.6v-21.4c-.8,0-1.5-.2-2.2-.2h-26.2c-26.8,0-53.6.2-80.4.3H50.8c-13.3,0-25-4.2-34.8-13.3-10-9.4-15.3-21-15.3-34.8,0-96.3,0-192.6-.1-289,0-23.8,17.8-44.3,41.6-47.8,2.6-.4,5.3-.6,7.9-.6h143c10.4,0,20.8,0,31.2.1,1.1,0,2,0,3.2,0ZM303.2,811c-.1.8-.2,1.4-.2,1.9v18.2c0,8.1,1.2,16.1,3.8,23.8,10.4,31,39.1,51.7,72,51.7h451.4c5,0,9.9-.5,14.8-1.4,34.9-6.5,61.1-37.8,61.1-73.3v-490.8c0-1.2,0-2.4,0-3.6-.9-12.5-6.7-21.8-18.3-27.1-6.2-2.8-12.7-4.3-19.4-5.2-9.5-1.3-19.1-1.6-28.7-1.6h-120.7c-7,0-13.7-1.3-19.8-5-12.5-7.5-19.1-18.6-19.1-33.3,0-41.6,0-83.2,0-124.8s-.3-19.8-1.9-29.7c-.9-5.9-2.3-11.6-4.9-17-3.7-7.7-9.4-13.3-17.6-15.9-1.5-.5-3.1-.7-4.7-.7h-50.4c-35.8,0-71.5,0-107.3,0-38.1,0-76.2,0-114.2,0-3.3,0-6.7.2-10,.6-19.5,2.5-35.6,11.4-48.3,26.4-12.1,14.4-17.7,31.2-17.7,50v244.8c0,1.5.4,3,.3,4.5-.1,6.3-.2,12.6-.4,19v2.9h485.1c18.5.7,32.6,8.8,42.2,24.6,4.7,7.7,6.4,16.3,6.4,25.3v285.4c0,1,0,2.1,0,3.1-.6,15.1-6.9,27.3-18.7,36.6-9.3,7.4-20.2,10.5-32,10.5h-478.8c-1.2,0-2.4,0-3.8,0ZM613.2,750.3h64.8c31-87.6,62.1-175.1,93.2-262.8h-59.8c-.4,1.1-.7,2.1-1,3.1-16.9,54-33.9,108-50.7,162-4.7,15.2-10.3,30.1-12.2,46,0,.3-.3.5-.6,1.1-.2-.9-.4-1.3-.5-1.7-.2-1.6-.4-3.2-.6-4.8-1.2-8.2-3.5-16.1-5.9-23.9-18.7-59.7-37.3-119.4-55.9-179.2-.3-.9-.6-1.8-.9-2.7h-61.7c30.5,87.7,61.2,175.3,91.8,262.9ZM479.3,493c-.9-.4-1.6-.7-2.4-.9-4.4-1.3-8.8-2.8-13.3-3.9-16.2-3.9-32.7-5.2-49.2-5.3-13.6-.1-27.2,1.1-40.4,4.3-14,3.4-27,8.9-38.5,17.7-9.7,7.4-17,16.6-21.4,28-3.1,8.1-4.5,16.5-4.7,25.1-.4,14.7,3.2,28.3,11.6,40.6,5.6,8.2,12.7,15,20.7,20.8,9.9,7.3,20.9,12.6,32.2,17.4,10.1,4.3,20.1,8.8,29.9,13.5,4.9,2.4,9.5,5.3,14,8.3,5,3.4,8.7,8,11.2,13.5,4.4,9.8,2.1,20.2-5.9,27.3-2.5,2.2-5.3,4.1-8.4,5.5-4,1.9-8.2,3.1-12.6,3.8-15.3,2.5-30.4,1.8-45.5-1.7-16.1-3.8-30.6-11.1-43.7-21.2-.7-.5-1.4-1-2.3-1.6v56c.8.4,1.6.8,2.4,1.2,9.7,4.5,19.9,7.5,30.3,9.6,10.3,2,20.7,3.1,31.2,3.5,17.2.8,34.4,0,51.3-3.6,11.9-2.5,23.2-6.6,33.6-13,14-8.8,23.9-20.8,28.6-36.8,3.3-11.1,4-22.5,2.6-34-1.8-15.4-8.1-28.6-19-39.7-4.4-4.4-9.4-8.2-14.6-11.7-10-6.7-20.8-12-31.7-16.9-9.5-4.2-18.9-8.5-28.3-13-5.3-2.5-10.5-5.5-15.2-9.1-4-3-7.2-6.6-9.4-11-5-9.9-2.7-20.9,5.9-27.9,1.6-1.3,3.4-2.4,5.2-3.5,5.1-2.9,10.7-4.7,16.5-5.6,13.3-2.3,26.6-1.6,39.8.7,13.6,2.4,26.3,7.3,38,14.8.5.3,1.1.5,1.7.8-.2-17.3-.2-34.5-.2-52ZM261,492.9c-.6-.2-1.4-.6-2.1-.8-4.4-1.3-8.7-2.8-13.1-3.8-18.2-4.4-36.8-5.6-55.5-5.2-12.7.3-25.1,2-37.5,5.1-46.3,11.7-91.2,51.9-98.6,114.3-1.2,10.4-1.6,20.9-1.1,31.4.6,12.8,2.5,25.3,6.4,37.5,11.2,34.6,33.4,59.2,67,73.3,16.8,7.1,34.5,9.9,52.6,10.4,15.8.4,31.5-.5,47.1-3.2,11.4-2,22.4-5.1,33-9.8,1.5-.7,2.1-1.5,2.1-3.2-.1-15.6,0-31.2-.1-46.8,0-.7-.1-1.4-.2-2.3-1.1.6-1.9,1-2.8,1.4-25.7,13.6-52.9,18.4-81.5,13.6-26.2-4.5-44.7-19.5-55.8-43.6-5.3-11.5-7.4-23.7-7.8-36.3-.3-11.6.7-23,3.9-34.2,9.3-32.4,36.1-54.8,69.5-58.2,9.1-.9,18.2-.9,27.3,0,15.8,1.6,30.7,5.9,44.7,13.4.8.4,1.5.8,2.3,1.1.5-2.1.6-51.3.2-54.1Z"/>
  <path class="cls-1" d="M303.2,811h482.7c11.8,0,22.6-3.1,32-10.5,11.8-9.3,18.1-21.5,18.7-36.6,0-1,0-2.1,0-3.1v-285.4c0-9-1.7-17.5-6.4-25.3-9.6-15.8-23.7-24-42.2-24.6h-485.1v-2.9c.1-6.3.3-12.6.4-19,0-1.5-.3-3-.3-4.5v-244.8c0-18.8,5.5-35.6,17.7-50,12.6-15,28.8-23.8,48.3-26.4,3.3-.4,6.7-.6,10-.6,38.1,0,76.2,0,114.2,0s71.5,0,107.3,0h50.4c1.6,0,3.2.3,4.7.7,8.3,2.6,13.9,8.2,17.6,15.9,2.6,5.4,4,11.1,4.9,17,1.5,9.8,1.8,19.7,1.9,29.7v124.8c0,14.6,6.6,25.8,19.1,33.3,6.1,3.6,12.8,5,19.8,5h120.7c9.6,0,19.2.2,28.7,1.6,6.7.9,13.2,2.4,19.4,5.2,11.6,5.3,17.4,14.6,18.3,27.1,0,1.2,0,2.4,0,3.6v490.8c0,35.5-26.1,66.9-61.1,73.3-4.9.9-9.8,1.4-14.8,1.4h-451.4c-32.9,0-61.7-20.7-72-51.7-2.6-7.7-3.8-15.7-3.8-23.8v-18.2c-.1-.4,0-.9,0-1.8Z"/>
  <path class="cls-1" d="M613.2,750.3c-30.7-87.6-61.3-175.1-92-262.9h61.7c.3.9.7,1.8.9,2.7,18.6,59.7,37.3,119.5,55.9,179.2,2.5,7.9,4.7,15.8,5.9,23.9.2,1.6.4,3.2.6,4.8,0,.4.2.8.5,1.7.4-.7.6-.9.6-1.1,1.9-15.9,7.5-30.9,12.2-46,16.9-54,33.8-108,50.7-162,.3-1,.7-2,1-3.1h59.8c-31.1,87.7-62.1,175.2-93.2,262.8-21.4,0-42.8,0-64.6,0Z"/>
  <path class="cls-1" d="M479.3,493v52.3c-.7-.3-1.2-.5-1.7-.8-11.7-7.4-24.4-12.3-38-14.8-13.2-2.4-26.5-3-39.8-.7-5.8,1-11.4,2.7-16.5,5.6-1.8,1-3.6,2.2-5.2,3.5-8.6,7-10.9,18-5.9,27.9,2.2,4.4,5.5,8.1,9.4,11,4.8,3.6,9.9,6.5,15.2,9.1,9.4,4.5,18.8,8.8,28.3,13,11,4.9,21.7,10.2,31.7,16.9,5.2,3.5,10.1,7.3,14.6,11.7,10.9,11,17.2,24.3,19,39.7,1.4,11.5.7,22.8-2.6,34-4.7,16-14.6,28.1-28.6,36.8-10.4,6.5-21.7,10.5-33.6,13-16.9,3.6-34.1,4.3-51.3,3.6-10.5-.5-20.9-1.5-31.2-3.5-10.5-2.1-20.6-5.1-30.3-9.6-.8-.4-1.6-.8-2.4-1.2v-56c.9.7,1.6,1.1,2.3,1.6,13.1,10.1,27.5,17.4,43.7,21.2,15,3.5,30.2,4.3,45.5,1.7,4.4-.7,8.6-2,12.6-3.8,3.1-1.4,5.9-3.2,8.4-5.5,8-7.1,10.3-17.5,5.9-27.3-2.5-5.5-6.2-10.2-11.2-13.5-4.5-3-9.1-6-14-8.3-9.9-4.8-19.9-9.2-29.9-13.5-11.3-4.8-22.2-10.2-32.2-17.4-8-5.8-15.1-12.6-20.7-20.8-8.3-12.3-11.9-25.9-11.6-40.6.2-8.6,1.6-17,4.7-25.1,4.4-11.4,11.7-20.6,21.4-28,11.5-8.8,24.5-14.3,38.5-17.7,13.3-3.2,26.8-4.4,40.4-4.3,16.6.1,33.1,1.3,49.2,5.3,4.5,1.1,8.9,2.6,13.3,3.9,1-.1,1.7.2,2.6.6Z"/>
  <path class="cls-1" d="M261,492.9c.5,2.9.4,52-.1,53.9-.8-.4-1.6-.7-2.3-1.1-14-7.5-28.9-11.9-44.7-13.4-9.1-.9-18.2-.9-27.3,0-33.4,3.4-60.2,25.8-69.5,58.2-3.2,11.2-4.2,22.6-3.9,34.2.4,12.6,2.5,24.9,7.8,36.3,11.1,24.1,29.6,39.1,55.8,43.6,28.6,4.9,55.9,0,81.5-13.6.8-.4,1.7-.9,2.8-1.4.1,1,.2,1.6.2,2.3,0,15.6,0,31.2.1,46.8,0,1.7-.6,2.5-2.1,3.2-10.6,4.7-21.6,7.8-33,9.8-15.6,2.7-31.3,3.7-47.1,3.2-18.1-.5-35.8-3.3-52.6-10.4-33.6-14.1-55.8-38.8-67-73.3-3.9-12.2-5.7-24.7-6.4-37.5-.5-10.5,0-20.9,1.1-31.4,7.4-62.4,52.3-102.5,98.6-114.3,12.3-3.1,24.8-4.9,37.5-5.1,18.7-.4,37.3.8,55.5,5.2,4.4,1.1,8.7,2.5,13.1,3.8.6.4,1.3.7,2,1Z"/>
</svg>