<svg id="Calque_1" data-name="Calque 1" xmlns="http://www.w3.org/2000/svg" viewBox="0 0 620.79 402.6"><title>Numeric 5</title><path d="M234.8,50.39H86L71,150.59a208.51,208.51,0,0,1,31.8-2.4c30,0,60,6.6,84,21,30.6,17.4,55.8,51,55.8,100.2,0,76.2-60.6,133.2-145.2,133.2-42.6,0-78.6-12-97.2-24l13.2-40.2C29.6,348,61.4,360,96.8,360c49.8,0,92.4-32.41,92.4-84.61C188.6,225,155,189,77,189c-22.2,0-39.6,2.4-54,4.2L48.2,6H234.8Z" transform="translate(-0.2 0.01)"/><path d="M262,364.79c0-22.2,15-37.8,36-37.8s35.4,15.6,35.4,37.8c0,21.6-13.8,37.8-36,37.8C276.39,402.59,262,386.39,262,364.79Z" transform="translate(-0.2 0.01)"/><path d="M582.58,43.19a190.69,190.69,0,0,0-39.6,2.4c-82.8,13.8-126.6,74.4-135.6,138.6h1.8c18.6-24.6,51-45,94.2-45,69,0,117.61,49.8,117.61,126,0,71.4-48.61,137.4-129.61,137.4-83.4,0-138-64.8-138-166.2,0-76.8,27.6-137.4,66-175.8C451.78,28.79,495,9,544.18,3a253.6,253.6,0,0,1,38.4-3Zm-15,225c0-55.8-31.8-89.4-80.4-89.4-31.8,0-61.2,19.8-75.6,48-3.6,6-6,13.8-6,23.4,1.2,64.2,30.6,111.6,85.8,111.6C537,361.79,567.58,324,567.58,268.19Z" transform="translate(-0.2 0.01)"/></svg>