<svg id="Calque_1" data-name="Calque 1" xmlns="http://www.w3.org/2000/svg" viewBox="0 0 654.37 495.61"><title>Numeric and curve 5</title><path d="M0,0H24.78V291.33l.72.25c.56-.95,1.18-1.87,1.68-2.86Q58.34,227.07,89.47,165.4c.68-1.35,1.49-2.63,2.22-3.91l74.21,30.76c.58-1.16,1.11-2.07,1.51-3q14.91-35.49,29.78-71c3-7.19,5.83-14.46,8.77-21.67,1.49-3.66,1.6-3.7,5.24-2.21q34.13,13.95,68.24,27.9c3.3,1.35,6.62,2.65,10.22,4.09L332.29,24.18c8,3.18,15.56,6.27,23.39,9.73-17.5,42-34.81,83.54-52.28,125.45L221.64,126c-.78,1.69-1.51,3.17-2.15,4.69l-38,90.56c0,.11-.09.22-.14.33-1.6,3.78-1.61,3.79-5.54,2.16q-11-4.53-21.93-9.09l-47.2-19.5c-.88-.37-1.79-.67-3.15-1.17-22.27,44.09-44.5,88.12-67,132.64h234.6c.81,2.79,1,20,.34,25.17H.3C-.48,349.36-.83,6.81,0,0Z" transform="translate(0.48)"/><path d="M436.85,297.67H353.22L344.79,354a117.8,117.8,0,0,1,17.88-1.35c16.86,0,33.72,3.71,47.21,11.8,17.19,9.78,31.36,28.67,31.36,56.32,0,42.83-34.06,74.86-81.61,74.86-23.94,0-44.17-6.74-54.63-13.49l7.42-22.59c9.11,5.4,27,12.14,46.87,12.14,28,0,51.94-18.21,51.94-47.55-.34-28.32-19.23-48.56-63.06-48.56a227,227,0,0,0-30.35,2.36L332,272.71H436.85Z" transform="translate(0.48)"/><path d="M452.13,474.37c0-12.48,8.44-21.25,20.24-21.25s19.89,8.77,19.89,21.25c0,12.14-7.75,21.24-20.23,21.24C460.23,495.61,452.13,486.51,452.13,474.37Z" transform="translate(0.48)"/><path d="M632.32,293.62A106.93,106.93,0,0,0,610.06,295c-46.54,7.75-71.15,41.81-76.21,77.9h1c10.45-13.83,28.66-25.3,52.94-25.3,38.78,0,66.1,28,66.1,70.82,0,40.13-27.32,77.22-72.84,77.22-46.87,0-77.56-36.42-77.56-93.41C503.5,359,519,325,540.59,303.4c18.21-17.87,42.49-29,70.14-32.37a142.49,142.49,0,0,1,21.59-1.69Zm-8.43,126.46c0-31.37-17.88-50.25-45.19-50.25-17.87,0-34.4,11.13-42.49,27A25.27,25.27,0,0,0,532.84,410c.67,36.08,17.2,62.72,48.22,62.72C606.69,472.68,623.89,451.44,623.89,420.08Z" transform="translate(0.48)"/></svg>