<?xml version="1.0" encoding="UTF-8"?>
<svg id="Calque_1" data-name="Calque 1" xmlns="http://www.w3.org/2000/svg" version="1.1" viewBox="0 0 36 32">
  <defs>
    <style>
      .cls-1 {
        fill: #fff;
        stroke-width: 0px;
      }
    </style>
  </defs>
  <path class="cls-1" d="M2.2,32H0V0h0,2.2v32h0c0,0,0,0,0,0ZM0,31.9v-2.2h36.2v2.3H-.1c0-.1.1-.1.1-.1ZM2.1,31.9l-1.8-1s0,0,0-.2L8.3,14.7h.2l1.8,1h0c0,.1-8,16.1-8,16.1h-.3,0ZM7.5,16.7l.8-1.9h.2l8.6,3.5s.1.1,0,.2l-.7,1.9h-.2l-8.6-3.4s0-.1,0-.2h0ZM16.2,20.4l-1.9-.8h0c0-.1,4.5-11.1,4.5-11.1h.2l1.9.8v.2l-4.5,10.9h-.2ZM18,10.4l.8-1.8s.1-.1.2,0l9.3,3.7s.1.1,0,.2l-.7,1.9h-.1l-9.5-3.7h0v-.3ZM27.4,14.4l-1.9-.7v-.2l4.5-11.2h.2l1.9.8h0c0,0-4.6,11.3-4.6,11.3h-.2,0Z"/>
</svg>