<?xml version="1.0" encoding="UTF-8"?>
<svg id="Calque_1" data-name="Calque 1" xmlns="http://www.w3.org/2000/svg" version="1.1" xmlns:inkscape="http://www.inkscape.org/namespaces/inkscape" xmlns:sodipodi="http://sodipodi.sourceforge.net/DTD/sodipodi-0.dtd" xmlns:svg="http://www.w3.org/2000/svg" viewBox="0 0 500 500">
  <defs>
    <style>
      .cls-1 {
        fill: #3e4072;
        stroke-width: 0px;
      }
    </style>
  </defs>
  <sodipodi:namedview id="namedview35" bordercolor="#666666" borderopacity="1.0" inkscape:current-layer="Calque_1" inkscape:cx="55.183284" inkscape:cy="251.26789" inkscape:deskcolor="#d1d1d1" inkscape:pagecheckerboard="0" inkscape:pageopacity="0.0" inkscape:showpageshadow="2" inkscape:window-height="894" inkscape:window-maximized="1" inkscape:window-width="1920" inkscape:window-x="-8" inkscape:window-y="-8" inkscape:zoom="1.3591072" pagecolor="#ffffff" showgrid="false"/>
  <path id="path28" class="cls-1" d="M165.7,61.8c2.1-6.1,4.1-12,6.1-17.7,3.5-10.3,7.5-13.2,18.6-13.2h44.4c0-5.4-.2-10.4.1-15.3.4-6.8,4-11.6,10.2-14.3,5.8-2.5,11.6-1.8,15.8,2.7,2.6,3.1,4.3,6.8,5,10.8.8,5,.2,10.2.2,15.9h45.2c8.7,0,14.6,4.3,17.5,12.4,1.6,4.6,3.4,9.1,4.5,13.7,1,4.1,3.1,4.9,7.1,4.9,23.2-.2,46.4.3,69.7-.3,12.6-.3,21,6.5,21,20.5-.3,131.4-.3,262.7,0,394.1.1,19.5-8.6,23.9-24.2,23.9-105.5-.3-211-.3-316.5,0-11.2,0-20.4-6-20.4-20.1.3-133.6.4-267.1.2-400.7,0-11,6.9-17.5,18-17.6,25.6.3,51.3.3,77.5.3ZM399,467.9V94h-55.4c1.5,5.1,2.9,9.8,4.4,14.6,4.3,13.4-2.1,22.5-16.3,22.5-54.7.1-109.3.1-164,0-13.9,0-20.5-8.9-16.5-22.2,1.4-4.9,3-9.8,4.6-14.8h-53.2v373.8h296.4ZM313.1,100c-3.8-12.2-7.4-23.6-11.2-34.9-.4-1.1-2.8-2.1-4.2-2.1-31.6,0-63.1,0-94.7,0s-4.1.8-4.8,3.6c-2.1,8.2-4.6,16.2-7,24.4-.8,2.9-1.6,5.9-2.4,9.1h124.3Z"/>
  <path id="path30" class="cls-1" d="M250.8,427.6h-94.4c-12.4,0-19-6.6-18.7-18.8,1-55.7,44.7-101.9,102.3-108.1,64.5-7,123.7,45.1,123.9,109.1,0,11.1-6.6,17.8-17.7,17.8h-95.4ZM329.1,395.4c-4.8-29.3-34.1-64.4-80.6-63.5-36.4.8-73.1,31.5-75.6,63.5h156.2Z"/>
  <path id="path32" class="cls-1" d="M305.7,222.8c-.1,29.5-24.8,53.9-54.7,54-30.4.1-55-24-55.2-54s24.3-54.3,54.7-54.5c30.4-.2,55,24,55.2,54,0,.2,0,.3,0,.5h0ZM273.4,222.6c0-12.9-9.5-22.3-22.4-22.3s-22.5,9.3-22.6,22.2c-.1,12.8,9.6,22.4,22.4,22.4s22.6-9.5,22.6-22.3h0Z"/>
  <path id="path28-2" data-name="path28" class="cls-1" d="M165.1,62.5c2.1-6.1,4.1-12,6.1-17.7,3.5-10.3,7.5-13.2,18.6-13.2h44.4c0-5.4-.2-10.4.1-15.3.4-6.8,4-11.6,10.2-14.3,5.8-2.5,11.6-1.8,15.8,2.7,2.6,3.1,4.3,6.8,5,10.8.8,5,.2,10.2.2,15.9h45.2c8.7,0,14.6,4.3,17.5,12.4,1.6,4.6,3.4,9.1,4.5,13.7,1,4.1,3.1,4.9,7.1,4.9,23.2-.2,46.4.3,69.7-.3,12.6-.3,21,6.5,21,20.5-.3,131.4-.3,262.7,0,394.1.1,19.5-8.6,23.9-24.2,23.9-105.5-.3-211-.3-316.5,0-11.2,0-20.4-6-20.4-20.1.3-133.6.4-267.1.2-400.7,0-11,6.9-17.5,18-17.6,25.6.3,51.3.3,77.5.3ZM398.4,468.5V94.7h-55.4c1.5,5.1,2.9,9.8,4.4,14.6,4.3,13.4-2.1,22.5-16.3,22.5-54.7.1-109.3.1-164,0-13.9,0-20.5-8.9-16.5-22.2,1.4-4.9,3-9.8,4.6-14.8h-53.2v373.8h296.4ZM312.5,100.7c-3.8-12.2-7.4-23.6-11.2-34.9-.4-1.1-2.8-2.1-4.2-2.1-31.6,0-63.1,0-94.7,0s-4.1.8-4.8,3.6c-2.1,8.2-4.6,16.2-7,24.4-.8,2.9-1.6,5.9-2.4,9.1h124.3Z"/>
</svg>