<?xml version="1.0" encoding="utf-8"?>
<!-- Generator: Adobe Illustrator 26.5.2, SVG Export Plug-In . SVG Version: 6.00 Build 0)  -->
<svg version="1.1"
	 id="Calque_1" xmlns:inkscape="http://www.inkscape.org/namespaces/inkscape" xmlns:svg="http://www.w3.org/2000/svg" xmlns:sodipodi="http://sodipodi.sourceforge.net/DTD/sodipodi-0.dtd"
	 xmlns="http://www.w3.org/2000/svg" xmlns:xlink="http://www.w3.org/1999/xlink" x="0px" y="0px" viewBox="0 0 500 500"
	 style="enable-background:new 0 0 500 500;" xml:space="preserve">
<style type="text/css">
	.st0{fill:#193D8A;}
	.st1{fill:#3E4072;}
</style>
<sodipodi:namedview  bordercolor="#666666" borderopacity="1.0" id="namedview6508" inkscape:current-layer="Calque_1" inkscape:cx="281.09804" inkscape:cy="512.71709" inkscape:deskcolor="#d1d1d1" inkscape:pagecheckerboard="0" inkscape:pageopacity="0.0" inkscape:showpageshadow="2" inkscape:window-height="894" inkscape:window-maximized="1" inkscape:window-width="1920" inkscape:window-x="-8" inkscape:window-y="-8" inkscape:zoom="0.69726562" pagecolor="#ffffff" showgrid="false">
	</sodipodi:namedview>
<path id="path6505" class="st0" d="M0,6.1h64.3V496H0V6.1L0,6.1z M85.2,6.1h30.2V496H85.2V6.1L85.2,6.1z M154.8,6.1h38V496h-38
	L154.8,6.1L154.8,6.1z M258.1,6.1h65.6V496h-65.6V6.1L258.1,6.1z M357.5,6.1h25V496h-25V6.1L357.5,6.1z M413.4,6.1H500V496h-86.6
	V6.1L413.4,6.1z"/>
<path id="path6512" class="st1" d="M0,6.1h64.3V496H0V6.1L0,6.1z M85.2,6.1h30.2V496H85.2V6.1L85.2,6.1z M154.8,6.1h38V496h-38
	L154.8,6.1L154.8,6.1z M258.1,6.1h65.6V496h-65.6V6.1L258.1,6.1z M357.5,6.1h25V496h-25V6.1L357.5,6.1z M413.4,6.1H500V496h-86.6
	V6.1L413.4,6.1z"/>
</svg>
