<?xml version="1.0" encoding="UTF-8"?>
<svg id="Calque_1" data-name="Calque 1" xmlns="http://www.w3.org/2000/svg" version="1.1" xmlns:inkscape="http://www.inkscape.org/namespaces/inkscape" xmlns:sodipodi="http://sodipodi.sourceforge.net/DTD/sodipodi-0.dtd" xmlns:svg="http://www.w3.org/2000/svg" viewBox="0 0 500 500">
  <defs>
    <style>
      .cls-1 {
        fill: #888;
        stroke-width: 0px;
      }
    </style>
  </defs>
  <sodipodi:namedview id="namedview8843" bordercolor="#666666" borderopacity="1.0" inkscape:current-layer="Calque_1" inkscape:cx="159.77563" inkscape:cy="250.52539" inkscape:deskcolor="#d1d1d1" inkscape:pagecheckerboard="0" inkscape:pageopacity="0.0" inkscape:showpageshadow="2" inkscape:window-height="894" inkscape:window-maximized="1" inkscape:window-width="1920" inkscape:window-x="-8" inkscape:window-y="-8" inkscape:zoom="1.4270011" pagecolor="#ffffff" showgrid="false"/>
  <path id="path8836" class="cls-1" d="M299,474.8c-6.8-1.9-13.7-3.7-20.5-5.6-7.7-2.1-11.3-7.8-9.9-15.6,2.1-11,4.1-22.1,6-33.1.1-.8-.2-1.5-.8-2-13.5-7.3-25.5-16.9-35.6-28.4-.1-.1-.3-.2-.5-.3l-27.6,13.1c-1.6.8-3.2,1.6-4.9,2.3-6,3-13.3.6-16.6-5.2-3.2-5.5-6.4-11.1-9.6-16.6-3.6-6.3-2.1-13.2,3.9-17.3,9.3-6.4,18.6-12.8,27.9-19.2,1.2-.8,1.5-1.5,1.1-3-4.4-13.9-6.4-28.4-5.7-43,.1-1.5-.5-2-1.7-2.4-10.7-3.7-21.3-7.5-31.9-11.2-7.2-2.5-10.4-9-8.1-16.4,1.7-5.8,3.3-11.6,4.9-17.4,2-7.4,7.6-11.1,15.1-9.8,10.8,1.9,21.6,3.8,32.3,5.9,2,.4,3,.2,4-1.8,6.5-12.6,15.2-23.9,25.6-33.4.5-.5,1-1,1.7-1.6-2.6-5.6-5.3-11.2-8-16.9-2.5-5.2-5-10.4-7.4-15.6-3.1-6.1-.7-13.5,5.3-16.8,5.5-3.2,10.9-6.4,16.4-9.5,6.4-3.7,13.3-2.1,17.4,3.9,6.4,9.3,12.8,18.6,19.2,27.9.8,1.1,1.4,1.4,2.8,1,13.8-4.4,28.3-6.4,42.8-5.7,1.5.1,2.2-.3,2.8-1.8,3.6-10.5,7.4-21,11.1-31.5,2.6-7.3,8.7-10.6,16.2-8.6,6.1,1.6,12.2,3.3,18.3,5,7.1,2,10.7,8,9.4,15.2-2.2,11.6-4.4,23.2-6.6,34.9,14.1,7.1,26.7,16.9,37.2,28.7,3.7-1.7,7.3-3.3,10.9-5l21.5-10c6.5-3,13.3-.9,16.9,5.3,3.1,5.4,6.2,10.8,9.4,16.3,3.7,6.4,2.2,13.3-3.8,17.5-9.2,6.3-18.3,12.7-27.5,19-.6.4-1.2.8-1.7,1.2,1.3,4.9,2.6,9.8,3.7,14.6,2.1,9.9,3,20,2.5,30-.1,1.6.5,2.2,1.9,2.7,10.6,3.7,21.2,7.4,31.7,11.2,6.9,2.4,10.3,8.6,8.4,15.8-1.7,6.3-3.3,12.5-5,18.8-1.6,6.6-8.1,10.7-14.7,9.3-11.1-2-22.2-4.1-33.3-6.1-1.4-.3-2.3,0-3.1,1.4-6.7,12.9-15.6,24.5-26.3,34.2-1,.9-1.3,1.6-.6,2.9,4.9,10.2,9.7,20.4,14.6,30.5,3.1,6.4,1.1,13.3-5.1,17-5.6,3.3-11.3,6.6-17,9.8-5.8,3.5-13.4,1.8-17.1-3.9-6.5-9.3-12.9-18.7-19.4-28.1-.7-1-1.3-1.4-2.6-1-14,4.5-28.7,6.5-43.4,5.8h-1.6c-3.2,9.1-6.4,18.1-9.6,27.1-.8,2.2-1.5,4.5-2.3,6.7-1.8,4.9-5.2,7.8-10.4,8.6-.3.1-.5.2-.7.4l-2.3-.2ZM331.4,374.9c37.9.1,68.7-30.6,68.8-68.5.1-37.9-30.6-68.7-68.5-68.8-37.3-.2-68.6,29.5-68.9,67.7-.6,37.8,29.6,69,67.4,69.6h1.2Z"/>
  <path id="path8838" class="cls-1" d="M0,149c1.5-4.1,4.5-6.1,8.8-6.9,7.7-1.4,15.3-3.2,23.1-4.8.6-8.6,2.5-17,5.6-25,.4-1.4,1-2.7,1.7-4,1.3-2.1.7-3.4-1.1-5-5.5-4.8-10.9-9.8-16.3-14.8-3.8-3.5-4.3-8.1-1.2-12.2,2.7-3.6,5.4-7.1,8.1-10.6,3.2-4.1,7.8-4.9,12.2-2.1l20.8,13.5c3.3-2.4,6.4-5,9.9-7,5.5-3.1,11.2-5.8,16.9-8.5,1.3-.6,2-1.1,1.9-2.8-.5-7.8-.8-15.7-1.2-23.5-.3-5,2.6-8.7,7.6-9.4,5-.7,9.8-1.2,14.8-1.7,4.4-.4,8.3,2.7,9,7,1.5,7.5,3,15,4.3,22.4.3,1.8.9,2.5,3,2.7,9.5.8,18.8,3.4,27.5,7.4,1.3.6,2,.6,3.1-.6,5.2-5.8,10.5-11.5,15.7-17.2,3.6-3.9,8.1-4.4,12.3-1.2,3.6,2.7,7.2,5.4,10.7,8.1,4.4,3.3,5.2,7.9,2.2,12.5-4.2,6.4-8.3,12.8-12.5,19.2-.8,1.2-.9,1.9.1,3.1,6.1,7.4,10.8,15.8,14.1,24.8.3.7.5,1.3.8,2.2,3.6-.2,7.2-.3,10.7-.5,5-.3,9.9-.6,14.9-.8,5-.2,8.6,2.9,9.2,8,.5,4,1,8,1.6,12,1,6.7-1.4,10.2-8.1,11.6-7.2,1.5-14.5,3.2-21.7,4.6-1.1.1-2,1-2,2.2h0c-.8,9.9-3.3,19.4-7.5,28.3-.6,1.4-.4,2.1.7,3.1,5.7,5.1,11.4,10.4,17.1,15.6,4.1,3.7,4.5,8.2,1.1,12.7-2.5,3.3-5.1,6.6-7.6,9.9-3.7,4.8-8.1,5.6-13.2,2.3l-20.8-13.4c-8.4,7.2-18.1,12.8-28.6,16.4.2,3.9.3,7.8.5,11.6.2,4.5.5,8.9.7,13.4.2,5.7-2.7,9-8.4,9.7-3.9.5-7.8,1-11.8,1.6-5.9.8-9.7-1.8-10.9-7.7-1.6-7.5-3.2-14.9-4.8-22.4-.2-1-.4-1.7-1.7-1.8-10.3-.8-20.3-3.5-29.7-7.8-.3-.1-.5-.2-.9-.3-5.6,6.2-11.3,12.3-16.9,18.5-2.1,2.3-4.6,3.5-7.6,3.1s-3-.8-4.3-1.7c-3.9-2.7-7.6-5.7-11.4-8.6-3.7-2.7-4.6-7.9-2-11.7,4.2-6.5,8.4-13,12.7-19.5.8-1.2,1-1.9,0-3.2-6.3-7.4-11.2-16-14.5-25.1-.6-1.5-1.2-2.1-2.9-2-7.4.5-14.8.8-22.2,1.2-6.6.4-10-2.5-10.7-9.2C.5,161.3,0,157.9-.4,154.5v-5.5h.4ZM84.3,143.9c0,19.3,15.7,35,35,35s35-15.7,35-35-15.7-35-35-35h0c-19.4.1-34.9,15.7-34.9,35h0Z"/>
  <path id="path8840" class="cls-1" d="M376.1,306.4c.1,24.1-19.9,44.6-43.7,44.7-25.4.1-45.5-19.4-45.6-44.2-.1-24.6,19.6-45,43.7-45.1,25.4,0,45.5,19.6,45.6,44.6Z"/>
</svg>