<?xml version="1.0" encoding="utf-8"?>
<!-- Generator: Adobe Illustrator 26.5.2, SVG Export Plug-In . SVG Version: 6.00 Build 0)  -->
<svg version="1.1"
	 id="Calque_1" xmlns:svg="http://www.w3.org/2000/svg" xmlns:inkscape="http://www.inkscape.org/namespaces/inkscape" xmlns:sodipodi="http://sodipodi.sourceforge.net/DTD/sodipodi-0.dtd"
	 xmlns="http://www.w3.org/2000/svg" xmlns:xlink="http://www.w3.org/1999/xlink" x="0px" y="0px" viewBox="0 0 500 500"
	 style="enable-background:new 0 0 500 500;" xml:space="preserve">
<style type="text/css">
	.st0{fill:#FFFFFF;}
</style>
<sodipodi:namedview  bordercolor="#666666" borderopacity="1.0" id="namedview8843" inkscape:current-layer="Calque_1" inkscape:cx="159.77563" inkscape:cy="250.52539" inkscape:deskcolor="#d1d1d1" inkscape:pagecheckerboard="0" inkscape:pageopacity="0.0" inkscape:showpageshadow="2" inkscape:window-height="894" inkscape:window-maximized="1" inkscape:window-width="1920" inkscape:window-x="-8" inkscape:window-y="-8" inkscape:zoom="1.4270011" pagecolor="#ffffff" showgrid="false">
	</sodipodi:namedview>
<path id="path8836" class="st0" d="M299,474.8c-6.8-1.9-13.7-3.7-20.5-5.6c-7.7-2.1-11.3-7.8-9.9-15.6c2.1-11,4.1-22.1,6-33.1
	c0.1-0.8-0.2-1.5-0.8-2c-13.5-7.3-25.5-16.9-35.6-28.4c-0.1-0.1-0.3-0.2-0.5-0.3l-27.6,13.1c-1.6,0.8-3.2,1.6-4.9,2.3
	c-6,3-13.3,0.6-16.6-5.2c-3.2-5.5-6.4-11.1-9.6-16.6c-3.6-6.3-2.1-13.2,3.9-17.3c9.3-6.4,18.6-12.8,27.9-19.2c1.2-0.8,1.5-1.5,1.1-3
	c-4.4-13.9-6.4-28.4-5.7-43c0.1-1.5-0.5-2-1.7-2.4c-10.7-3.7-21.3-7.5-31.9-11.2c-7.2-2.5-10.4-9-8.1-16.4
	c1.7-5.8,3.3-11.6,4.9-17.4c2-7.4,7.6-11.1,15.1-9.8c10.8,1.9,21.6,3.8,32.3,5.9c2,0.4,3,0.2,4-1.8c6.5-12.6,15.2-23.9,25.6-33.4
	c0.5-0.5,1-1,1.7-1.6c-2.6-5.6-5.3-11.2-8-16.9c-2.5-5.2-5-10.4-7.4-15.6c-3.1-6.1-0.7-13.5,5.3-16.8c5.5-3.2,10.9-6.4,16.4-9.5
	c6.4-3.7,13.3-2.1,17.4,3.9c6.4,9.3,12.8,18.6,19.2,27.9c0.8,1.1,1.4,1.4,2.8,1c13.8-4.4,28.3-6.4,42.8-5.7c1.5,0.1,2.2-0.3,2.8-1.8
	c3.6-10.5,7.4-21,11.1-31.5c2.6-7.3,8.7-10.6,16.2-8.6c6.1,1.6,12.2,3.3,18.3,5c7.1,2,10.7,8,9.4,15.2c-2.2,11.6-4.4,23.2-6.6,34.9
	c14.1,7.1,26.7,16.9,37.2,28.7c3.7-1.7,7.3-3.3,10.9-5l21.5-10c6.5-3,13.3-0.9,16.9,5.3c3.1,5.4,6.2,10.8,9.4,16.3
	c3.7,6.4,2.2,13.3-3.8,17.5c-9.2,6.3-18.3,12.7-27.5,19c-0.6,0.4-1.2,0.8-1.7,1.2c1.3,4.9,2.6,9.8,3.7,14.6c2.1,9.9,3,20,2.5,30
	c-0.1,1.6,0.5,2.2,1.9,2.7c10.6,3.7,21.2,7.4,31.7,11.2c6.9,2.4,10.3,8.6,8.4,15.8c-1.7,6.3-3.3,12.5-5,18.8
	c-1.6,6.6-8.1,10.7-14.7,9.3c-11.1-2-22.2-4.1-33.3-6.1c-1.4-0.3-2.3,0-3.1,1.4c-6.7,12.9-15.6,24.5-26.3,34.2
	c-1,0.9-1.3,1.6-0.6,2.9c4.9,10.2,9.7,20.4,14.6,30.5c3.1,6.4,1.1,13.3-5.1,17c-5.6,3.3-11.3,6.6-17,9.8c-5.8,3.5-13.4,1.8-17.1-3.9
	c-6.5-9.3-12.9-18.7-19.4-28.1c-0.7-1-1.3-1.4-2.6-1c-14,4.5-28.7,6.5-43.4,5.8c-0.5,0-1,0-1.6,0c-3.2,9.1-6.4,18.1-9.6,27.1
	c-0.8,2.2-1.5,4.5-2.3,6.7c-1.8,4.9-5.2,7.8-10.4,8.6c-0.3,0.1-0.5,0.2-0.7,0.4L299,474.8z M331.4,374.9
	c37.9,0.1,68.7-30.6,68.8-68.5c0.1-37.9-30.6-68.7-68.5-68.8c-37.3-0.2-68.6,29.5-68.9,67.7c-0.6,37.8,29.6,69,67.4,69.6
	C330.6,374.9,331,374.9,331.4,374.9L331.4,374.9z"/>
<path id="path8838" class="st0" d="M0,149c1.5-4.1,4.5-6.1,8.8-6.9c7.7-1.4,15.3-3.2,23.1-4.8c0.6-8.6,2.5-17,5.6-25
	c0.4-1.4,1-2.7,1.7-4c1.3-2.1,0.7-3.4-1.1-5c-5.5-4.8-10.9-9.8-16.3-14.8c-3.8-3.5-4.3-8.1-1.2-12.2c2.7-3.6,5.4-7.1,8.1-10.6
	c3.2-4.1,7.8-4.9,12.2-2.1l20.8,13.5c3.3-2.4,6.4-5,9.9-7c5.5-3.1,11.2-5.8,16.9-8.5c1.3-0.6,2-1.1,1.9-2.8
	c-0.5-7.8-0.8-15.7-1.2-23.5c-0.3-5,2.6-8.7,7.6-9.4c5-0.7,9.8-1.2,14.8-1.7c4.4-0.4,8.3,2.7,9,7c1.5,7.5,3,15,4.3,22.4
	c0.3,1.8,0.9,2.5,3,2.7c9.5,0.8,18.8,3.4,27.5,7.4c1.3,0.6,2,0.6,3.1-0.6c5.2-5.8,10.5-11.5,15.7-17.2c3.6-3.9,8.1-4.4,12.3-1.2
	c3.6,2.7,7.2,5.4,10.7,8.1c4.4,3.3,5.2,7.9,2.2,12.5c-4.2,6.4-8.3,12.8-12.5,19.2c-0.8,1.2-0.9,1.9,0.1,3.1
	c6.1,7.4,10.8,15.8,14.1,24.8c0.3,0.7,0.5,1.3,0.8,2.2c3.6-0.2,7.2-0.3,10.7-0.5c5-0.3,9.9-0.6,14.9-0.8c5-0.2,8.6,2.9,9.2,8
	c0.5,4,1,8,1.6,12c1,6.7-1.4,10.2-8.1,11.6c-7.2,1.5-14.5,3.2-21.7,4.6c-1.1,0.1-2,1-2,2.2v0.1c-0.8,9.8-3.3,19.3-7.5,28.2
	c-0.6,1.4-0.4,2.1,0.7,3.1c5.7,5.1,11.4,10.4,17.1,15.6c4.1,3.7,4.5,8.2,1.1,12.7c-2.5,3.3-5.1,6.6-7.6,9.9
	c-3.7,4.8-8.1,5.6-13.2,2.3l-20.8-13.4c-8.4,7.2-18.1,12.8-28.6,16.4c0.2,3.9,0.3,7.8,0.5,11.6c0.2,4.5,0.5,8.9,0.7,13.4
	c0.2,5.7-2.7,9-8.4,9.7c-3.9,0.5-7.8,1-11.8,1.6c-5.9,0.8-9.7-1.8-10.9-7.7c-1.6-7.5-3.2-14.9-4.8-22.4c-0.2-1-0.4-1.7-1.7-1.8
	c-10.3-0.8-20.3-3.5-29.7-7.8c-0.3-0.1-0.5-0.2-0.9-0.3c-5.6,6.2-11.3,12.3-16.9,18.5c-2.1,2.3-4.6,3.5-7.6,3.1
	c-1.5-0.2-3-0.8-4.3-1.7c-3.9-2.7-7.6-5.7-11.4-8.6c-3.7-2.7-4.6-7.9-2-11.7c4.2-6.5,8.4-13,12.7-19.5c0.8-1.2,1-1.9-0.1-3.2
	c-6.3-7.4-11.2-16-14.5-25.1c-0.6-1.5-1.2-2.1-2.9-2c-7.4,0.5-14.8,0.8-22.2,1.2c-6.6,0.4-10-2.5-10.7-9.2
	c-0.3-3.4-0.8-6.8-1.2-10.2V149H0z M84.3,143.9c0,19.3,15.7,35,35,35s35-15.7,35-35s-15.7-35-35-35h-0.1
	C99.8,109,84.3,124.6,84.3,143.9L84.3,143.9z"/>
<path id="path8840" class="st0" d="M376.1,306.4c0.1,24.1-19.9,44.6-43.7,44.7c-25.4,0.1-45.5-19.4-45.6-44.2
	c-0.1-24.6,19.6-45,43.7-45.1C355.9,261.8,376,281.4,376.1,306.4z"/>
</svg>
