<?xml version="1.0" encoding="utf-8"?>
<!-- Generator: Adobe Illustrator 26.5.2, SVG Export Plug-In . SVG Version: 6.00 Build 0)  -->
<svg version="1.1"
	 id="svg12761" xmlns:inkscape="http://www.inkscape.org/namespaces/inkscape" xmlns:svg="http://www.w3.org/2000/svg" xmlns:sodipodi="http://sodipodi.sourceforge.net/DTD/sodipodi-0.dtd"
	 xmlns="http://www.w3.org/2000/svg" xmlns:xlink="http://www.w3.org/1999/xlink" x="0px" y="0px" viewBox="0 0 500 500"
	 style="enable-background:new 0 0 500 500;" xml:space="preserve">
<style type="text/css">
	.st0{fill:#3E4072;}
</style>
<sodipodi:namedview  bordercolor="#666666" borderopacity="1.0" id="namedview12763" inkscape:current-layer="svg12761" inkscape:cx="246.97112" inkscape:cy="467.15437" inkscape:deskcolor="#d1d1d1" inkscape:pagecheckerboard="0" inkscape:pageopacity="0.0" inkscape:showpageshadow="2" inkscape:window-height="894" inkscape:window-maximized="1" inkscape:window-width="1920" inkscape:window-x="-8" inkscape:window-y="-8" inkscape:zoom="0.76527166" pagecolor="#ffffff" showgrid="false">
	</sodipodi:namedview>
<g id="g12759">
	<path id="path12757" class="st0" d="M450.6,0H124.6c-5.9,0-10.7,4.8-10.7,10.7v151.5L42.6,269.8c-2.3,3.5-3.6,7.6-3.6,11.8v30.3
		c0,5.9,4.8,10.7,10.7,10.7h25.8v63.6H49.7c-5.9,0-10.7,4.8-10.7,10.7v92.3c0,5.9,4.8,10.7,10.7,10.7h400.9
		c5.9,0,10.7-4.8,10.7-10.7V10.7C461.3,4.8,456.5,0,450.6,0z M200.9,126.9c0,5.9-4.8,10.7-10.7,10.7h-26.2
		c-5.9,0-10.7-4.8-10.7-10.7V49.5c0-5.9,4.8-10.7,10.7-10.7h26.2c5.9,0,10.7,4.8,10.7,10.7V126.9z M274.7,126.9
		c0,5.9-4.8,10.7-10.7,10.7h-26.2c-5.9,0-10.7-4.8-10.7-10.7V49.5c0-5.9,4.8-10.7,10.7-10.7H264c5.9,0,10.7,4.8,10.7,10.7V126.9z
		 M348.5,126.9c0,5.9-4.8,10.7-10.7,10.7h-26.2c-5.9,0-10.7-4.8-10.7-10.7V49.5c0-5.9,4.8-10.7,10.7-10.7h26.2
		c5.9,0,10.7,4.8,10.7,10.7V126.9z M422.3,126.9c0,5.9-4.8,10.7-10.7,10.7h-26.2c-5.9,0-10.7-4.8-10.7-10.7V49.5
		c0-5.9,4.8-10.7,10.7-10.7h26.2c5.9,0,10.7,4.8,10.7,10.7V126.9z"/>
</g>
</svg>
