<?xml version="1.0" encoding="utf-8"?>
<!-- Generator: Adobe Illustrator 26.5.2, SVG Export Plug-In . SVG Version: 6.00 Build 0)  -->
<svg version="1.1"
	 id="Capa_1" xmlns:inkscape="http://www.inkscape.org/namespaces/inkscape" xmlns:svg="http://www.w3.org/2000/svg" xmlns:sodipodi="http://sodipodi.sourceforge.net/DTD/sodipodi-0.dtd"
	 xmlns="http://www.w3.org/2000/svg" xmlns:xlink="http://www.w3.org/1999/xlink" x="0px" y="0px" viewBox="0 0 500 500"
	 style="enable-background:new 0 0 500 500;" xml:space="preserve">
<style type="text/css">
	.st0{fill:#3E4072;}
</style>
<sodipodi:namedview  bordercolor="#666666" borderopacity="1.0" id="namedview15971" inkscape:current-layer="Capa_1" inkscape:cx="131.507" inkscape:cy="121.16947" inkscape:deskcolor="#d1d1d1" inkscape:pagecheckerboard="0" inkscape:pageopacity="0.0" inkscape:showpageshadow="2" inkscape:window-height="894" inkscape:window-maximized="1" inkscape:window-width="1920" inkscape:window-x="-8" inkscape:window-y="-8" inkscape:zoom="2.9504132" pagecolor="#ffffff" showgrid="false">
	</sodipodi:namedview>
<g id="g15968">
	<path id="path15960" class="st0" d="M452.5,339.4v-21.8h21.2c14.5,0,26.3-8.9,26.3-19.8v-96.6c0-10.9-11.9-19.8-26.3-19.8h-21.3
		v-21.8c0-16.3-17.8-29.6-39.5-29.6H43c-21.7,0-39.5,13.3-39.5,29.6v179.7C3.5,355.7,21.3,369,43,369h369.9
		C434.7,369,452.5,355.8,452.5,339.4z M43,159.6h369.9v179.7H43V159.6z"/>
	<rect id="rect15962" x="70.5" y="184.4" class="st0" width="78.6" height="130.3"/>
	<rect id="rect15964" x="188.8" y="184.4" class="st0" width="78.6" height="130.3"/>
	<rect id="rect15966" x="307.2" y="184.4" class="st0" width="78.6" height="130.3"/>
</g>
</svg>
