<?xml version="1.0" encoding="UTF-8"?>
<svg id="Calque_1" data-name="Calque 1" xmlns="http://www.w3.org/2000/svg" version="1.1" viewBox="0 0 1024 1024">
  <defs>
    <style>
      .cls-1 {
        fill: #3e4072;
        stroke-width: 0px;
      }
    </style>
  </defs>
  <path class="cls-1" d="M556,558l-74,74-90-90,74-74c16.3-16.6,16.1-43.2-.5-59.5s-43.2-16.1-59.5.5h0l-73,74-38-37c-9.7-9.5-25.3-9.5-35,0l-54,53c-9.9,9.6-10.2,25.4-.7,35.3.2.2.4.4.7.7l8,8-120,121c-5.8,5.3-8.8,13.1-8,21l19,126L7,909c-9.5,9.7-9.5,25.3,0,35l73,73c9,9,25,9,35,0l98-98,126,19h3c7,0,14-3,18-8l121-120,8,8c10,9,26,9,36,0l53-54c10-10,10-26,0-35l-37-38,74-73c16.6-16.3,16.8-42.9.5-59.5s-42.9-16.8-59.5-.5h0ZM1017,80L944,7c-9.7-9.5-25.3-9.5-35,0l-98,98-126-19h-3c-7,0-14,3-18,8l-121,120-8-8c-9.6-9.9-25.4-10.2-35.3-.7-.2.2-.4.4-.7.7l-53,54c-9.5,9.7-9.5,25.3,0,35l283,283c9,10,25,10,35,0l54-53c9-10,9-26,0-36l-8-8,120-121c5.8-5.3,8.8-13.1,8-21l-19-126,98-98c9-10,9-26,0-35Z"/>
</svg>