<svg xmlns="http://www.w3.org/2000/svg" width="1024" height="1024"><path d="M513 0C230.8 0 0 230.7 0 513s230.7 511 513 511 511-228.5 511-511S795.5 0 513 0zm0 931.3C282.5 931.3 95 743.7 95 513.1S282.4 94.9 513 94.9 931.3 282.4 931.3 513 743.7 931.3 513.1 931.3z"/><path d="M582 696.3l-43 19.4L595 429c6.5-30.2-25.9-62.5-60.4-43.1L429 444c-19.4 10.8-25.9 36.6-15 56s36.6 26 56 15.1l25.8-12.9L442 776.1c-4.3 23.7 15.1 49.6 41 49.6 6.5 0 13-2.2 17.2-4.3l114.3-49.6c21.6-8.7 30.2-32.4 21.6-54s-32.4-30.1-54-21.5zM554 308.3c32.4 0 58.2-25.9 58.2-58.2s-25.8-58.2-58.2-58.2-58.2 25.8-58.2 58.2 25.9 58.2 58.2 58.2z"/></svg>