<?xml version="1.0" encoding="UTF-8"?>
<svg id="Calque_1" data-name="Calque 1" xmlns="http://www.w3.org/2000/svg" version="1.1" viewBox="0 0 1024 1024">
  <defs>
    <style>
      .cls-1 {
        fill: #3e4072;
        stroke-width: 0px;
      }
    </style>
  </defs>
  <path class="cls-1" d="M512,0h-10C364,0,240,57,151,148,52.9,243.5-1.7,375.1,0,512v6c0,139,58,265,151,355,94.2,98.2,224.9,152.9,361,151h5c142,0,270-58,361-152h1c96.6-94.8,149.2-225.7,145-361v-9c0-139-57-264-149-353v-1C779.5,50.8,648.2-2.7,512,0ZM512,92h7c114,0,216,47,289,123,81.1,77.3,126.1,185,124,297v11c0,111-46,211-121,282-78,81.4-186.2,127-299,126h-4c-115,0-218-48-292-124v-1c-80.2-76.6-125.1-183.1-124-294v-2c0-116,48-221,126-295,76.4-80.4,183.1-125,294-123Z"/>
  <path class="cls-1" d="M906,544c0,14-11,25-25,25h-88c-9,0-16-4-21-11l-48-75-74,345c-6,12-18,21-32,22h-3c-12,0-38-14-40-26l-79-450-59,303c-2,11-23,20-34,21-13-1-23-9-27-21l-79-233-39,108c-4,10-11,23-22,23h-92c-13.2-.5-23.6-11.7-23.1-24.9,0-.4,0-.7,0-1.1,0-14,11-32,25-32h66l63-167c4-10,14-18,26-18s20,7,24,17l75,213,64-346c2-12,23-19,34-19s34,4,36,15l82,510,61-323c2-10,10-18,20-20l8-1c9,0,17,4,23,10l79,124,74,6c14,0,25,11,25,26Z"/>
</svg>