<?xml version="1.0" encoding="UTF-8"?>
<svg xmlns="http://www.w3.org/2000/svg" viewBox="0 0 270.63 43.42">
  <defs>
    <style>
      .cls-1 {
        fill: #fff;
      }

      .cls-2 {
        fill: none;
        stroke: #83cee6;
        stroke-miterlimit: 10;
        stroke-width: 2.23px;
      }

      .cls-3 {
        fill: #4f5183;
      }

      .cls-4 {
        fill: #83cee6;
      }
    </style>
  </defs>
  <g id="logo_Blanc" data-name="logo Blanc">
    <g>
      <path class="cls-1" d="M73.59,23.88h-12.3l-1.78,5.06h-5.72L63.27,2.57h8.13l9.63,26.37h-5.62l-1.82-5.06Zm-1.25-3.69l-4.93-13.73-4.85,13.73h9.78Z"/>
      <path class="cls-1" d="M110.01,25.4l-2.24,3.01-2.72-1.74c-1.77,1.66-5.14,2.49-10.11,2.49-5.45,0-8.94-.76-10.49-2.27s-2.32-4.94-2.32-10.29c0-6.22,.73-10.15,2.2-11.8,1.47-1.65,4.98-2.47,10.52-2.47s8.94,.78,10.46,2.33c1.51,1.55,2.27,5.13,2.27,10.73,0,3.98-.19,6.68-.56,8.11l2.99,1.89Zm-16.23-5.85l2.26-3.01,5.89,3.69c.11-.95,.17-1.59,.17-1.91v-5.93c0-2.46-.43-4.03-1.3-4.72-.86-.69-2.82-1.03-5.87-1.03-3.63,0-5.76,.43-6.37,1.29-.61,.86-.92,3.85-.92,8.96,0,3.86,.37,6.16,1.12,6.9,.75,.73,3.07,1.1,6.99,1.1,1.99,0,3.55-.39,4.68-1.18l-6.64-4.15Z"/>
      <path class="cls-1" d="M130.46,2.57h5.41V20.11c0,3.67-.76,6.1-2.29,7.28-1.53,1.19-4.64,1.78-9.35,1.78-4.97,0-8.23-.56-9.78-1.68s-2.32-3.48-2.32-7.09V2.57h5.41V20.4c0,1.94,.38,3.18,1.13,3.7,.75,.52,2.52,.78,5.31,.78s4.65-.26,5.38-.79c.73-.53,1.1-1.82,1.1-3.88V2.57Z"/>
      <path class="cls-1" d="M158.12,23.88h-12.3l-1.78,5.06h-5.72l9.48-26.37h8.13l9.63,26.37h-5.62l-1.82-5.06Zm-1.25-3.69l-4.93-13.73-4.85,13.73h9.78Z"/>
      <path class="cls-1" d="M168.02,28.94V2.57h14.06c3.5,0,5.9,.56,7.23,1.68,1.32,1.12,1.98,3.15,1.98,6.08,0,2.67-.33,4.49-.99,5.47-.66,.98-2.02,1.65-4.06,2.03v.17c3.16,.18,4.74,1.89,4.74,5.12v5.81h-5.41v-4.81c0-2.72-1.45-4.08-4.34-4.08h-7.79v8.89h-5.41Zm5.41-13.1h7.77c1.85,0,3.08-.31,3.69-.92,.61-.61,.91-1.84,.91-3.68s-.26-3.09-.78-3.64c-.52-.55-1.67-.82-3.44-.82h-8.15V15.84Z"/>
      <path class="cls-1" d="M200.44,6.78v6.8h13.37v3.69h-13.37v7.46h14.23v4.21h-19.64V2.57h19.51V6.78h-14.1Z"/>
      <path class="cls-1" d="M235.96,23.88h-12.3l-1.78,5.06h-5.72l9.48-26.37h8.13l9.63,26.37h-5.62l-1.82-5.06Zm-1.25-3.69l-4.93-13.73-4.85,13.73h9.78Z"/>
      <path class="cls-1" d="M245.86,28.94V2.57h14.02c3.98,0,6.77,.8,8.37,2.41,1.59,1.61,2.39,4.43,2.39,8.46,0,6.58-.64,10.81-1.92,12.68-1.28,1.87-4.17,2.81-8.67,2.81h-14.18Zm5.41-4.21h7.71c2.59,0,4.26-.55,5.02-1.65,.76-1.1,1.14-3.53,1.14-7.29s-.34-6.36-1.02-7.42c-.68-1.06-2.28-1.58-4.8-1.58h-8.04V24.73Z"/>
    </g>
    <polygon class="cls-4" points="65.7 33.65 63.42 40.4 61.66 40.4 60.57 36.65 60.24 35.51 60.09 34.93 59.93 34.36 59.9 34.36 59.74 34.93 59.58 35.51 59.25 36.65 58.15 40.4 56.35 40.4 54.15 33.65 55.4 33.65 56.55 37.39 56.91 38.57 57.07 39.15 57.24 39.73 57.28 39.73 57.44 39.15 57.61 38.57 57.95 37.39 59.06 33.65 60.79 33.65 61.9 37.4 62.23 38.57 62.4 39.15 62.56 39.73 62.58 39.73 62.77 39.15 62.93 38.57 63.29 37.39 64.43 33.65 65.7 33.65"/>
    <path class="cls-4" d="M68.04,35.54h-1.18c0-.79,.21-1.32,.64-1.59,.43-.28,1.26-.41,2.51-.41,1.35,0,2.27,.16,2.74,.5,.47,.34,.71,.97,.71,1.9v4.46h-1.19l.09-.72h-.03c-.45,.55-1.37,.83-2.76,.83-2.05,0-3.07-.69-3.07-2.06,0-.82,.23-1.38,.69-1.69,.46-.31,1.29-.46,2.49-.46,1.42,0,2.28,.23,2.56,.69h.02v-.82c0-.78-.13-1.29-.38-1.51-.26-.23-.81-.34-1.67-.34-1.46,0-2.19,.34-2.19,1.03,0,.03,0,.1,0,.2m1.91,1.52c-.91,0-1.5,.08-1.78,.24-.27,.16-.41,.5-.41,1.03s.13,.91,.41,1.09c.27,.17,.82,.26,1.65,.26,1.68,0,2.51-.43,2.51-1.28,0-.53-.16-.89-.49-1.07-.32-.18-.96-.27-1.9-.27"/>
    <path class="cls-4" d="M79.96,33.65v.82h-3.12v4.14c0,.72,.39,1.08,1.16,1.08s1.14-.32,1.14-.97v-.33s.03-.38,.03-.38h1.1v.5c0,1.33-.75,2-2.27,2s-2.34-.55-2.34-1.66v-4.38h-1.13v-.82h1.13v-1.63h1.18v1.63h3.12Z"/>
    <path class="cls-4" d="M86.97,38.36h1.21v.25c.01,.7-.25,1.2-.76,1.48-.51,.28-1.41,.42-2.7,.42-1.49,0-2.47-.23-2.94-.68-.47-.46-.7-1.42-.7-2.87,0-1.35,.24-2.25,.71-2.71,.47-.46,1.39-.7,2.76-.7,1.5,0,2.47,.2,2.94,.6,.47,.4,.69,1.24,.69,2.53v.54h-5.84c0,1.06,.13,1.74,.41,2.03,.28,.29,.92,.44,1.93,.44,.95,0,1.58-.07,1.87-.21,.28-.14,.42-.44,.42-.9v-.22Zm0-1.91v-.32c0-.74-.15-1.21-.44-1.43-.29-.22-.91-.33-1.87-.33s-1.58,.13-1.87,.39c-.28,.25-.43,.81-.43,1.69h4.61Z"/>
    <path class="cls-4" d="M90.18,33.65h1.18l-.11,.78,.02,.03c.47-.64,1.24-.96,2.32-.96,1.5,0,2.24,.64,2.24,1.93v.47h-1.18l.03-.17c.01-.18,.02-.3,.02-.37,0-.69-.45-1.03-1.36-1.03-1.32,0-1.99,.68-1.99,2.04v4.05h-1.18v-6.76Z"/>
    <path class="cls-4" d="M101.34,33.65h1.19l-.03,1.02,.03,.02c.46-.76,1.34-1.14,2.65-1.14,1.38,0,2.21,.38,2.51,1.14h.03c.51-.76,1.43-1.14,2.79-1.14,1.92,0,2.87,.81,2.87,2.44v4.41h-1.19v-4.51c0-.59-.13-.99-.38-1.2-.26-.21-.74-.32-1.45-.32-.94,0-1.57,.15-1.91,.44-.34,.3-.5,.86-.5,1.69v3.9h-1.19v-4.73c-.01-.87-.61-1.31-1.81-1.31-1.62,0-2.43,.73-2.43,2.2v3.83h-1.19v-6.76Z"/>
    <path class="cls-4" d="M119.05,33.55c1.5,0,2.48,.22,2.92,.65,.45,.43,.67,1.38,.67,2.83s-.22,2.4-.67,2.82c-.44,.44-1.42,.66-2.92,.66s-2.46-.21-2.91-.66c-.45-.43-.67-1.37-.67-2.82s.22-2.4,.67-2.83c.45-.43,1.42-.65,2.91-.65m0,.82c-1.05,0-1.71,.14-1.96,.43-.25,.29-.38,1.03-.38,2.23s.13,1.95,.38,2.23c.25,.29,.9,.43,1.96,.43s1.71-.14,1.97-.43c.25-.28,.38-1.03,.38-2.23s-.13-1.95-.38-2.23c-.25-.28-.91-.43-1.97-.43"/>
    <path class="cls-4" d="M124.5,33.65h1.15l-.03,.92,.03,.02c.36-.7,1.26-1.04,2.7-1.04,1.16,0,1.94,.17,2.36,.51,.41,.34,.62,.99,.62,1.95v4.39h-1.19v-4.56c0-.58-.13-.97-.39-1.17-.27-.2-.78-.3-1.54-.3-1.67,0-2.5,.65-2.5,1.97v4.06h-1.19v-6.76Z"/>
    <path class="cls-4" d="M134.65,31.86h-1.19v-1.11h1.19v1.11Zm0,8.54h-1.19v-6.76h1.19v6.76Z"/>
    <path class="cls-4" d="M141.04,33.65v.82h-3.13v4.14c0,.72,.39,1.08,1.16,1.08s1.15-.32,1.15-.97v-.33s.03-.38,.03-.38h1.1v.5c0,1.33-.75,2-2.27,2s-2.35-.55-2.35-1.66v-4.38h-1.12v-.82h1.12v-1.63h1.18v1.63h3.13Z"/>
    <path class="cls-4" d="M145.75,33.55c1.5,0,2.47,.22,2.92,.65,.44,.43,.67,1.38,.67,2.83s-.23,2.4-.67,2.82c-.45,.44-1.42,.66-2.92,.66s-2.47-.21-2.92-.66c-.45-.43-.67-1.37-.67-2.82s.22-2.4,.67-2.83c.44-.43,1.42-.65,2.92-.65m0,.82c-1.06,0-1.71,.14-1.96,.43-.25,.29-.38,1.03-.38,2.23s.12,1.95,.38,2.23c.25,.29,.9,.43,1.96,.43s1.71-.14,1.97-.43c.25-.28,.37-1.03,.37-2.23s-.13-1.95-.37-2.23c-.25-.28-.91-.43-1.97-.43"/>
    <path class="cls-4" d="M151.31,33.65h1.19l-.12,.78,.03,.03c.47-.64,1.24-.96,2.32-.96,1.5,0,2.24,.64,2.24,1.93v.47h-1.18l.03-.17c.02-.18,.03-.3,.03-.37,0-.69-.45-1.03-1.36-1.03-1.32,0-1.99,.68-1.99,2.04v4.05h-1.19v-6.76Z"/>
    <path class="cls-4" d="M159.31,31.86h-1.19v-1.11h1.19v1.11Zm0,8.54h-1.19v-6.76h1.19v6.76Z"/>
    <path class="cls-4" d="M161.39,33.65h1.15l-.04,.92,.04,.02c.36-.7,1.26-1.04,2.7-1.04,1.15,0,1.95,.17,2.36,.51,.41,.34,.62,.99,.62,1.95v4.39h-1.19v-4.56c0-.58-.13-.97-.4-1.17-.27-.2-.78-.3-1.53-.3-1.67,0-2.51,.65-2.51,1.97v4.06h-1.19v-6.76Z"/>
    <path class="cls-4" d="M177.16,33.65v7.2c0,.98-.26,1.65-.77,2.02-.51,.37-1.45,.55-2.81,.55-1.21,0-2.04-.15-2.48-.47-.44-.3-.66-.89-.66-1.75h1.15c0,.58,.13,.96,.39,1.13,.26,.18,.82,.26,1.69,.26s1.52-.11,1.82-.34c.32-.22,.47-.67,.47-1.33v-1.35h-.03c-.31,.62-1.19,.93-2.65,.93-1.2,0-2.03-.25-2.48-.74-.45-.49-.68-1.4-.68-2.7s.24-2.28,.7-2.78c.46-.5,1.31-.75,2.57-.75,1.33,0,2.2,.34,2.61,1.02h.02s-.06-.92-.06-.92h1.19Zm-3.55,.72c-.93,0-1.54,.16-1.81,.49-.28,.33-.42,1.04-.42,2.15s.13,1.84,.42,2.17c.28,.33,.88,.5,1.81,.5s1.57-.18,1.87-.54c.3-.37,.46-1.13,.46-2.28,0-1.02-.15-1.69-.46-2.01-.3-.32-.92-.48-1.87-.48"/>
    <path class="cls-4" d="M184.77,31.86h-1.19v-1.11h1.19v1.11Zm0,8.54h-1.19v-6.76h1.19v6.76Z"/>
    <path class="cls-4" d="M186.85,33.65h1.15l-.04,.92,.04,.02c.36-.7,1.26-1.04,2.7-1.04,1.16,0,1.94,.17,2.35,.51,.42,.34,.62,.99,.62,1.95v4.39h-1.19v-4.56c0-.58-.13-.97-.4-1.17-.26-.2-.78-.3-1.54-.3-1.67,0-2.5,.65-2.5,1.97v4.06h-1.19v-6.76Z"/>
    <path class="cls-4" d="M202.11,35.41h-1.19c0-.47-.11-.76-.34-.88-.22-.12-.82-.17-1.77-.17-.88,0-1.44,.06-1.67,.18-.24,.12-.36,.41-.36,.87,0,.7,.39,1.05,1.19,1.09l.96,.04,1.21,.04c1.47,.06,2.21,.7,2.21,1.92,0,.76-.25,1.28-.73,1.56-.48,.29-1.38,.43-2.67,.43s-2.24-.13-2.75-.4c-.5-.27-.75-.76-.75-1.48v-.37h1.24v.32c.01,.45,.15,.73,.42,.89,.28,.15,.81,.22,1.6,.22,.98,0,1.63-.07,1.94-.23,.31-.16,.46-.48,.46-.98,0-.71-.38-1.07-1.16-1.07-1.8,0-2.99-.13-3.56-.38-.57-.25-.85-.79-.85-1.58s.22-1.26,.67-1.52c.45-.25,1.35-.38,2.69-.38,2.15,0,3.23,.54,3.23,1.62v.25Z"/>
    <path class="cls-4" d="M208.36,33.65v.82h-3.12v4.14c0,.72,.39,1.08,1.16,1.08s1.14-.32,1.14-.97v-.33s.03-.38,.03-.38h1.11v.5c0,1.33-.75,2-2.27,2s-2.35-.55-2.35-1.66v-4.38h-1.12v-.82h1.12v-1.63h1.19v1.63h3.12Z"/>
    <path class="cls-4" d="M209.83,33.65h1.19l-.12,.78,.03,.03c.47-.64,1.24-.96,2.33-.96,1.49,0,2.24,.64,2.24,1.93v.47h-1.18l.02-.17c.02-.18,.03-.3,.03-.37,0-.69-.45-1.03-1.36-1.03-1.32,0-1.98,.68-1.98,2.04v4.05h-1.19v-6.76Z"/>
    <path class="cls-4" d="M223.27,33.65v6.76h-1.19l.09-.88-.02-.02c-.41,.66-1.29,1-2.65,1-1.9,0-2.84-.79-2.84-2.36v-4.5h1.19v4.5c0,.61,.12,1.03,.36,1.23,.24,.21,.72,.31,1.44,.31,.93,0,1.58-.16,1.92-.46,.35-.31,.52-.88,.52-1.7v-3.88h1.19Z"/>
    <path class="cls-4" d="M225.47,33.65h1.19l-.03,1.02,.03,.02c.46-.76,1.34-1.14,2.65-1.14,1.38,0,2.21,.38,2.51,1.14h.03c.51-.76,1.44-1.14,2.79-1.14,1.91,0,2.87,.81,2.87,2.44v4.41h-1.19v-4.51c0-.59-.12-.99-.39-1.2-.25-.21-.73-.32-1.44-.32-.94,0-1.58,.15-1.91,.44-.34,.3-.5,.86-.5,1.69v3.9h-1.19v-4.41l-.02-.31c0-.87-.59-1.31-1.79-1.31-1.62,0-2.43,.73-2.43,2.2v3.83h-1.19v-6.76Z"/>
    <path class="cls-4" d="M245.48,38.36h1.21v.25c0,.7-.25,1.2-.76,1.48-.51,.28-1.41,.42-2.69,.42-1.49,0-2.48-.23-2.95-.68-.46-.46-.69-1.42-.69-2.87,0-1.35,.23-2.25,.7-2.71,.47-.46,1.39-.7,2.76-.7,1.49,0,2.47,.2,2.94,.6,.47,.4,.7,1.24,.7,2.53v.54h-5.84c0,1.06,.13,1.74,.41,2.03,.28,.29,.92,.44,1.93,.44s1.58-.07,1.86-.21c.28-.14,.43-.44,.43-.9v-.22Zm0-1.91v-.32c-.01-.74-.15-1.21-.45-1.43-.29-.22-.91-.33-1.87-.33s-1.58,.13-1.87,.39c-.29,.25-.42,.81-.42,1.69h4.61Z"/>
    <path class="cls-4" d="M248.57,33.65h1.15l-.03,.92,.03,.02c.36-.7,1.26-1.04,2.7-1.04,1.16,0,1.95,.17,2.36,.51,.41,.34,.62,.99,.62,1.95v4.39h-1.19v-4.56c0-.58-.13-.97-.4-1.17-.26-.2-.78-.3-1.54-.3-1.66,0-2.5,.65-2.5,1.97v4.06h-1.19v-6.76Z"/>
    <path class="cls-4" d="M261.84,33.65v.82h-3.12v4.14c0,.72,.38,1.08,1.15,1.08s1.15-.32,1.15-.97v-.33s.03-.38,.03-.38h1.11v.5c0,1.33-.75,2-2.27,2s-2.35-.55-2.35-1.66v-4.38h-1.12v-.82h1.12v-1.63h1.19v1.63h3.12Z"/>
    <path class="cls-4" d="M269.49,35.41h-1.19c0-.47-.12-.76-.34-.88-.24-.12-.82-.17-1.77-.17-.88,0-1.45,.06-1.68,.18-.24,.12-.36,.41-.36,.87,0,.7,.4,1.05,1.2,1.09l.96,.04,1.21,.04c1.47,.06,2.21,.7,2.21,1.92,0,.76-.24,1.28-.73,1.56-.48,.29-1.38,.43-2.68,.43s-2.24-.13-2.74-.4c-.5-.27-.75-.76-.75-1.48v-.37h1.24v.32c0,.45,.14,.73,.41,.89,.28,.15,.81,.22,1.61,.22,.98,0,1.63-.07,1.93-.23,.32-.16,.47-.48,.47-.98,0-.71-.39-1.07-1.16-1.07-1.81,0-3-.13-3.57-.38-.57-.25-.85-.79-.85-1.58s.22-1.26,.67-1.52c.45-.25,1.35-.38,2.68-.38,2.15,0,3.23,.54,3.23,1.62v.25Z"/>
    <path class="cls-1" d="M28.07,40.35c16.1-.14,18.15-1.75,18.15-1.75,0,0,1.34-.27,1.42-1.75,.04-.78,.03-18.22,.03-18.22,0,0-1.53-2.11-1.53-4.63s1.52-4.57,1.52-4.57l-.02-6.88s-29.18,.26-27.79-1.18C21.25-.06,7.71,2.55,7.71,2.55V37.67c0,.77,4.27,2.83,20.36,2.68m11.83-20.03c1.78,0,3.23,2.02,3.23,4.52s-1.45,4.51-3.23,4.51-3.23-2.02-3.23-4.51,1.45-4.52,3.23-4.52m-14.61-9.6c2.24,0,4.05,2.15,4.05,4.81s-1.82,4.81-4.05,4.81-4.42-2.15-4.42-4.81,2.18-4.81,4.42-4.81m-13.98,8.24c1.19,0,2.81,2.27,2.81,5.06s-1.62,5.06-2.81,5.06-2.16-2.27-2.16-5.06,.97-5.06,2.16-5.06"/>
    <path class="cls-2" d="M.31,4.43C30.02-4.07,35.28,8.65,53.92,1.03"/>
  </g>
  <g id="logo_purple" data-name="logo purple">
    <g>
      <path class="cls-3" d="M73.59,23.88h-12.3l-1.78,5.06h-5.72L63.27,2.57h8.13l9.63,26.37h-5.62l-1.82-5.06Zm-1.25-3.69l-4.93-13.73-4.85,13.73h9.78Z"/>
      <path class="cls-3" d="M110.01,25.4l-2.24,3.01-2.72-1.74c-1.77,1.66-5.14,2.49-10.11,2.49-5.45,0-8.94-.76-10.49-2.27s-2.32-4.94-2.32-10.29c0-6.22,.73-10.15,2.2-11.8,1.47-1.65,4.98-2.47,10.52-2.47s8.94,.78,10.46,2.33c1.51,1.55,2.27,5.13,2.27,10.73,0,3.98-.19,6.68-.56,8.11l2.99,1.89Zm-16.23-5.85l2.26-3.01,5.89,3.69c.11-.95,.17-1.59,.17-1.91v-5.93c0-2.46-.43-4.03-1.3-4.72-.86-.69-2.82-1.03-5.87-1.03-3.63,0-5.76,.43-6.37,1.29-.61,.86-.92,3.85-.92,8.96,0,3.86,.37,6.16,1.12,6.9,.75,.73,3.07,1.1,6.99,1.1,1.99,0,3.55-.39,4.68-1.18l-6.64-4.15Z"/>
      <path class="cls-3" d="M130.46,2.57h5.41V20.11c0,3.67-.76,6.1-2.29,7.28-1.53,1.19-4.64,1.78-9.35,1.78-4.97,0-8.23-.56-9.78-1.68s-2.32-3.48-2.32-7.09V2.57h5.41V20.4c0,1.94,.38,3.18,1.13,3.7,.75,.52,2.52,.78,5.31,.78s4.65-.26,5.38-.79c.73-.53,1.1-1.82,1.1-3.88V2.57Z"/>
      <path class="cls-3" d="M158.12,23.88h-12.3l-1.78,5.06h-5.72l9.48-26.37h8.13l9.63,26.37h-5.62l-1.82-5.06Zm-1.25-3.69l-4.93-13.73-4.85,13.73h9.78Z"/>
      <path class="cls-3" d="M168.02,28.94V2.57h14.06c3.5,0,5.9,.56,7.23,1.68,1.32,1.12,1.98,3.15,1.98,6.08,0,2.67-.33,4.49-.99,5.47-.66,.98-2.02,1.65-4.06,2.03v.17c3.16,.18,4.74,1.89,4.74,5.12v5.81h-5.41v-4.81c0-2.72-1.45-4.08-4.34-4.08h-7.79v8.89h-5.41Zm5.41-13.1h7.77c1.85,0,3.08-.31,3.69-.92,.61-.61,.91-1.84,.91-3.68s-.26-3.09-.78-3.64c-.52-.55-1.67-.82-3.44-.82h-8.15V15.84Z"/>
      <path class="cls-3" d="M200.44,6.78v6.8h13.37v3.69h-13.37v7.46h14.23v4.21h-19.64V2.57h19.51V6.78h-14.1Z"/>
      <path class="cls-3" d="M235.95,23.88h-12.3l-1.78,5.06h-5.72l9.48-26.37h8.13l9.63,26.37h-5.62l-1.82-5.06Zm-1.25-3.69l-4.93-13.73-4.85,13.73h9.78Z"/>
      <path class="cls-3" d="M245.86,28.94V2.57h14.02c3.98,0,6.77,.8,8.37,2.41,1.59,1.61,2.39,4.43,2.39,8.46,0,6.58-.64,10.81-1.92,12.68-1.28,1.87-4.17,2.81-8.67,2.81h-14.18Zm5.41-4.21h7.71c2.59,0,4.26-.55,5.02-1.65,.76-1.1,1.14-3.53,1.14-7.29s-.34-6.36-1.02-7.42c-.68-1.06-2.28-1.58-4.8-1.58h-8.04V24.73Z"/>
    </g>
    <polygon class="cls-4" points="65.7 33.65 63.42 40.4 61.66 40.4 60.57 36.65 60.24 35.51 60.09 34.93 59.93 34.36 59.9 34.36 59.74 34.93 59.58 35.51 59.25 36.65 58.15 40.4 56.35 40.4 54.15 33.65 55.4 33.65 56.55 37.39 56.91 38.57 57.07 39.15 57.24 39.73 57.28 39.73 57.44 39.15 57.61 38.57 57.95 37.39 59.06 33.65 60.79 33.65 61.9 37.4 62.23 38.57 62.4 39.15 62.56 39.73 62.58 39.73 62.77 39.15 62.93 38.57 63.29 37.39 64.43 33.65 65.7 33.65"/>
    <path class="cls-4" d="M68.04,35.54h-1.18c0-.79,.21-1.32,.64-1.59,.43-.28,1.26-.41,2.51-.41,1.35,0,2.27,.16,2.74,.5,.47,.34,.71,.97,.71,1.9v4.46h-1.19l.09-.72h-.03c-.45,.55-1.37,.83-2.76,.83-2.05,0-3.07-.69-3.07-2.06,0-.82,.23-1.38,.69-1.69,.46-.31,1.29-.46,2.49-.46,1.42,0,2.28,.23,2.56,.69h.02v-.82c0-.78-.13-1.29-.38-1.51-.26-.23-.81-.34-1.67-.34-1.46,0-2.19,.34-2.19,1.03,0,.03,0,.1,0,.2m1.91,1.52c-.91,0-1.5,.08-1.78,.24-.27,.16-.41,.5-.41,1.03s.13,.91,.41,1.09c.27,.17,.82,.26,1.65,.26,1.68,0,2.51-.43,2.51-1.28,0-.53-.16-.89-.49-1.07-.32-.18-.96-.27-1.9-.27"/>
    <path class="cls-4" d="M79.96,33.65v.82h-3.12v4.14c0,.72,.39,1.08,1.16,1.08s1.14-.32,1.14-.97v-.33s.03-.38,.03-.38h1.1v.5c0,1.33-.75,2-2.27,2s-2.34-.55-2.34-1.66v-4.38h-1.13v-.82h1.13v-1.63h1.18v1.63h3.12Z"/>
    <path class="cls-4" d="M86.97,38.36h1.21v.25c.01,.7-.25,1.2-.76,1.48-.51,.28-1.41,.42-2.7,.42-1.49,0-2.47-.23-2.94-.68-.47-.46-.7-1.42-.7-2.87,0-1.35,.24-2.25,.71-2.71,.47-.46,1.39-.7,2.76-.7,1.5,0,2.47,.2,2.94,.6,.47,.4,.69,1.24,.69,2.53v.54h-5.84c0,1.06,.13,1.74,.41,2.03,.28,.29,.92,.44,1.93,.44,.95,0,1.58-.07,1.87-.21,.28-.14,.42-.44,.42-.9v-.22Zm0-1.91v-.32c0-.74-.15-1.21-.44-1.43-.29-.22-.91-.33-1.87-.33s-1.58,.13-1.87,.39c-.28,.25-.43,.81-.43,1.69h4.61Z"/>
    <path class="cls-4" d="M90.18,33.65h1.18l-.11,.78,.02,.03c.47-.64,1.24-.96,2.32-.96,1.5,0,2.24,.64,2.24,1.93v.47h-1.18l.03-.17c.01-.18,.02-.3,.02-.37,0-.69-.45-1.03-1.36-1.03-1.32,0-1.99,.68-1.99,2.04v4.05h-1.18v-6.76Z"/>
    <path class="cls-4" d="M101.34,33.65h1.19l-.03,1.02,.03,.02c.46-.76,1.34-1.14,2.65-1.14,1.38,0,2.21,.38,2.51,1.14h.03c.51-.76,1.43-1.14,2.79-1.14,1.92,0,2.87,.81,2.87,2.44v4.41h-1.19v-4.51c0-.59-.13-.99-.38-1.2-.26-.21-.74-.32-1.45-.32-.94,0-1.57,.15-1.91,.44-.34,.3-.5,.86-.5,1.69v3.9h-1.19v-4.73c-.01-.87-.61-1.31-1.81-1.31-1.62,0-2.43,.73-2.43,2.2v3.83h-1.19v-6.76Z"/>
    <path class="cls-4" d="M119.05,33.55c1.5,0,2.48,.22,2.92,.65,.45,.43,.67,1.38,.67,2.83s-.22,2.4-.67,2.82c-.44,.44-1.42,.66-2.92,.66s-2.46-.21-2.91-.66c-.45-.43-.67-1.37-.67-2.82s.22-2.4,.67-2.83c.45-.43,1.42-.65,2.91-.65m0,.82c-1.05,0-1.71,.14-1.96,.43-.25,.29-.38,1.03-.38,2.23s.13,1.95,.38,2.23c.25,.29,.9,.43,1.96,.43s1.71-.14,1.97-.43c.25-.28,.38-1.03,.38-2.23s-.13-1.95-.38-2.23c-.25-.28-.91-.43-1.97-.43"/>
    <path class="cls-4" d="M124.5,33.65h1.15l-.03,.92,.03,.02c.36-.7,1.26-1.04,2.7-1.04,1.16,0,1.94,.17,2.36,.51,.41,.34,.62,.99,.62,1.95v4.39h-1.19v-4.56c0-.58-.13-.97-.39-1.17-.27-.2-.78-.3-1.54-.3-1.67,0-2.5,.65-2.5,1.97v4.06h-1.19v-6.76Z"/>
    <path class="cls-4" d="M134.65,31.86h-1.19v-1.11h1.19v1.11Zm0,8.54h-1.19v-6.76h1.19v6.76Z"/>
    <path class="cls-4" d="M141.04,33.65v.82h-3.13v4.14c0,.72,.39,1.08,1.16,1.08s1.15-.32,1.15-.97v-.33s.03-.38,.03-.38h1.1v.5c0,1.33-.75,2-2.27,2s-2.35-.55-2.35-1.66v-4.38h-1.12v-.82h1.12v-1.63h1.18v1.63h3.13Z"/>
    <path class="cls-4" d="M145.75,33.55c1.5,0,2.47,.22,2.92,.65,.44,.43,.67,1.38,.67,2.83s-.23,2.4-.67,2.82c-.45,.44-1.42,.66-2.92,.66s-2.47-.21-2.92-.66c-.45-.43-.67-1.37-.67-2.82s.22-2.4,.67-2.83c.44-.43,1.42-.65,2.92-.65m0,.82c-1.06,0-1.71,.14-1.96,.43-.25,.29-.38,1.03-.38,2.23s.12,1.95,.38,2.23c.25,.29,.9,.43,1.96,.43s1.71-.14,1.97-.43c.25-.28,.37-1.03,.37-2.23s-.13-1.95-.37-2.23c-.25-.28-.91-.43-1.97-.43"/>
    <path class="cls-4" d="M151.31,33.65h1.19l-.12,.78,.03,.03c.47-.64,1.24-.96,2.32-.96,1.5,0,2.24,.64,2.24,1.93v.47h-1.18l.03-.17c.02-.18,.03-.3,.03-.37,0-.69-.45-1.03-1.36-1.03-1.32,0-1.99,.68-1.99,2.04v4.05h-1.19v-6.76Z"/>
    <path class="cls-4" d="M159.31,31.86h-1.19v-1.11h1.19v1.11Zm0,8.54h-1.19v-6.76h1.19v6.76Z"/>
    <path class="cls-4" d="M161.39,33.65h1.15l-.04,.92,.04,.02c.36-.7,1.26-1.04,2.7-1.04,1.15,0,1.95,.17,2.36,.51,.41,.34,.62,.99,.62,1.95v4.39h-1.19v-4.56c0-.58-.13-.97-.4-1.17-.27-.2-.78-.3-1.53-.3-1.67,0-2.51,.65-2.51,1.97v4.06h-1.19v-6.76Z"/>
    <path class="cls-4" d="M177.16,33.65v7.2c0,.98-.26,1.65-.77,2.02-.51,.37-1.45,.55-2.81,.55-1.21,0-2.04-.15-2.48-.47-.44-.3-.66-.89-.66-1.75h1.15c0,.58,.13,.96,.39,1.13,.26,.18,.82,.26,1.69,.26s1.52-.11,1.82-.34c.32-.22,.47-.67,.47-1.33v-1.35h-.03c-.31,.62-1.19,.93-2.65,.93-1.2,0-2.03-.25-2.48-.74-.45-.49-.68-1.4-.68-2.7s.24-2.28,.7-2.78c.46-.5,1.31-.75,2.57-.75,1.33,0,2.2,.34,2.61,1.02h.02s-.06-.92-.06-.92h1.19Zm-3.55,.72c-.93,0-1.54,.16-1.81,.49-.28,.33-.42,1.04-.42,2.15s.13,1.84,.42,2.17c.28,.33,.88,.5,1.81,.5s1.57-.18,1.87-.54c.3-.37,.46-1.13,.46-2.28,0-1.02-.15-1.69-.46-2.01-.3-.32-.92-.48-1.87-.48"/>
    <path class="cls-4" d="M184.77,31.86h-1.19v-1.11h1.19v1.11Zm0,8.54h-1.19v-6.76h1.19v6.76Z"/>
    <path class="cls-4" d="M186.85,33.65h1.15l-.04,.92,.04,.02c.36-.7,1.26-1.04,2.7-1.04,1.16,0,1.94,.17,2.35,.51,.42,.34,.62,.99,.62,1.95v4.39h-1.19v-4.56c0-.58-.13-.97-.4-1.17-.26-.2-.78-.3-1.54-.3-1.67,0-2.5,.65-2.5,1.97v4.06h-1.19v-6.76Z"/>
    <path class="cls-4" d="M202.11,35.41h-1.19c0-.47-.11-.76-.34-.88-.22-.12-.82-.17-1.77-.17-.88,0-1.44,.06-1.67,.18-.24,.12-.36,.41-.36,.87,0,.7,.39,1.05,1.19,1.09l.96,.04,1.21,.04c1.47,.06,2.21,.7,2.21,1.92,0,.76-.25,1.28-.73,1.56-.48,.29-1.38,.43-2.67,.43s-2.24-.13-2.75-.4c-.5-.27-.75-.76-.75-1.48v-.37h1.24v.32c.01,.45,.15,.73,.42,.89,.28,.15,.81,.22,1.6,.22,.98,0,1.63-.07,1.94-.23,.31-.16,.46-.48,.46-.98,0-.71-.38-1.07-1.16-1.07-1.8,0-2.99-.13-3.56-.38-.57-.25-.85-.79-.85-1.58s.22-1.26,.67-1.52c.45-.25,1.35-.38,2.69-.38,2.15,0,3.23,.54,3.23,1.62v.25Z"/>
    <path class="cls-4" d="M208.36,33.65v.82h-3.12v4.14c0,.72,.39,1.08,1.16,1.08s1.14-.32,1.14-.97v-.33s.03-.38,.03-.38h1.11v.5c0,1.33-.75,2-2.27,2s-2.35-.55-2.35-1.66v-4.38h-1.12v-.82h1.12v-1.63h1.19v1.63h3.12Z"/>
    <path class="cls-4" d="M209.83,33.65h1.19l-.12,.78,.03,.03c.47-.64,1.24-.96,2.33-.96,1.49,0,2.24,.64,2.24,1.93v.47h-1.18l.02-.17c.02-.18,.03-.3,.03-.37,0-.69-.45-1.03-1.36-1.03-1.32,0-1.98,.68-1.98,2.04v4.05h-1.19v-6.76Z"/>
    <path class="cls-4" d="M223.27,33.65v6.76h-1.19l.09-.88-.02-.02c-.41,.66-1.29,1-2.65,1-1.9,0-2.84-.79-2.84-2.36v-4.5h1.19v4.5c0,.61,.12,1.03,.36,1.23,.24,.21,.72,.31,1.44,.31,.93,0,1.58-.16,1.92-.46,.35-.31,.52-.88,.52-1.7v-3.88h1.19Z"/>
    <path class="cls-4" d="M225.47,33.65h1.19l-.03,1.02,.03,.02c.46-.76,1.34-1.14,2.65-1.14,1.38,0,2.21,.38,2.51,1.14h.03c.51-.76,1.44-1.14,2.79-1.14,1.91,0,2.87,.81,2.87,2.44v4.41h-1.19v-4.51c0-.59-.12-.99-.39-1.2-.25-.21-.73-.32-1.44-.32-.94,0-1.58,.15-1.91,.44-.34,.3-.5,.86-.5,1.69v3.9h-1.19v-4.41l-.02-.31c0-.87-.59-1.31-1.79-1.31-1.62,0-2.43,.73-2.43,2.2v3.83h-1.19v-6.76Z"/>
    <path class="cls-4" d="M245.48,38.36h1.21v.25c0,.7-.25,1.2-.76,1.48-.51,.28-1.41,.42-2.69,.42-1.49,0-2.48-.23-2.95-.68-.46-.46-.69-1.42-.69-2.87,0-1.35,.23-2.25,.7-2.71,.47-.46,1.39-.7,2.76-.7,1.49,0,2.47,.2,2.94,.6,.47,.4,.7,1.24,.7,2.53v.54h-5.84c0,1.06,.13,1.74,.41,2.03,.28,.29,.92,.44,1.93,.44s1.58-.07,1.86-.21c.28-.14,.43-.44,.43-.9v-.22Zm0-1.91v-.32c-.01-.74-.15-1.21-.45-1.43-.29-.22-.91-.33-1.87-.33s-1.58,.13-1.87,.39c-.29,.25-.42,.81-.42,1.69h4.61Z"/>
    <path class="cls-4" d="M248.57,33.65h1.15l-.03,.92,.03,.02c.36-.7,1.26-1.04,2.7-1.04,1.16,0,1.95,.17,2.36,.51,.41,.34,.62,.99,.62,1.95v4.39h-1.19v-4.56c0-.58-.13-.97-.4-1.17-.26-.2-.78-.3-1.54-.3-1.66,0-2.5,.65-2.5,1.97v4.06h-1.19v-6.76Z"/>
    <path class="cls-4" d="M261.84,33.65v.82h-3.12v4.14c0,.72,.38,1.08,1.15,1.08s1.15-.32,1.15-.97v-.33s.03-.38,.03-.38h1.11v.5c0,1.33-.75,2-2.27,2s-2.35-.55-2.35-1.66v-4.38h-1.12v-.82h1.12v-1.63h1.19v1.63h3.12Z"/>
    <path class="cls-4" d="M269.49,35.41h-1.19c0-.47-.12-.76-.34-.88-.24-.12-.82-.17-1.77-.17-.88,0-1.45,.06-1.68,.18-.24,.12-.36,.41-.36,.87,0,.7,.4,1.05,1.2,1.09l.96,.04,1.21,.04c1.47,.06,2.21,.7,2.21,1.92,0,.76-.24,1.28-.73,1.56-.48,.29-1.38,.43-2.68,.43s-2.24-.13-2.74-.4c-.5-.27-.75-.76-.75-1.48v-.37h1.24v.32c0,.45,.14,.73,.41,.89,.28,.15,.81,.22,1.61,.22,.98,0,1.63-.07,1.93-.23,.32-.16,.47-.48,.47-.98,0-.71-.39-1.07-1.16-1.07-1.81,0-3-.13-3.57-.38-.57-.25-.85-.79-.85-1.58s.22-1.26,.67-1.52c.45-.25,1.35-.38,2.68-.38,2.15,0,3.23,.54,3.23,1.62v.25Z"/>
    <path class="cls-3" d="M28.07,40.35c16.1-.14,18.15-1.75,18.15-1.75,0,0,1.34-.27,1.42-1.75,.04-.78,.03-18.22,.03-18.22,0,0-1.53-2.11-1.53-4.63s1.52-4.57,1.52-4.57l-.02-6.88s-29.18,.26-27.79-1.18C21.25-.06,7.71,2.55,7.71,2.55V37.67c0,.77,4.27,2.83,20.36,2.68m11.83-20.03c1.78,0,3.23,2.02,3.23,4.52s-1.45,4.51-3.23,4.51-3.23-2.02-3.23-4.51,1.45-4.52,3.23-4.52m-14.61-9.6c2.24,0,4.05,2.15,4.05,4.81s-1.82,4.81-4.05,4.81-4.42-2.15-4.42-4.81,2.18-4.81,4.42-4.81m-13.98,8.24c1.19,0,2.81,2.27,2.81,5.06s-1.62,5.06-2.81,5.06-2.16-2.27-2.16-5.06,.97-5.06,2.16-5.06"/>
    <path class="cls-2" d="M.31,4.43C30.02-4.07,35.28,8.65,53.92,1.03"/>
  </g>
</svg>