<?xml version="1.0" encoding="UTF-8"?>
<svg id="Layer_1" data-name="Layer 1" xmlns="http://www.w3.org/2000/svg" viewBox="0 0 679.49 118.33">
  <defs>
    <style>
      .cls-1 {
        fill: #fff;
      }

      .cls-2 {
        fill: #7fd2ea;
      }

      .cls-3 {
        fill: none;
        stroke: #7fd2ea;
        stroke-miterlimit: 10;
        stroke-width: 5.78px;
      }
    </style>
  </defs>
  <g>
    <path class="cls-1" d="M180.97,66.92h-31.13l-4.49,13.85h-14.48L154.86,8.62h20.56l24.37,72.15h-14.22l-4.6-13.85Zm-3.17-10.1l-12.47-37.58-12.26,37.58h24.74Z"/>
    <path class="cls-1" d="M273.09,71.1l-5.66,8.25-6.87-4.76c-4.48,4.55-13,6.82-25.58,6.82-13.78,0-22.62-2.07-26.53-6.21-3.91-4.14-5.87-13.52-5.87-28.15,0-17.02,1.86-27.78,5.58-32.29,3.72-4.51,12.59-6.77,26.61-6.77s22.63,2.12,26.45,6.37c3.82,4.25,5.73,14.03,5.73,29.36,0,10.89-.48,18.29-1.43,22.2l7.56,5.18Zm-41.07-16.02l5.71-8.25,14.9,10.1c.28-2.61,.42-4.35,.42-5.23v-16.23c0-6.73-1.09-11.04-3.28-12.92-2.19-1.88-7.14-2.83-14.85-2.83-9.2,0-14.57,1.18-16.12,3.54-1.55,2.36-2.33,10.54-2.33,24.52,0,10.57,.94,16.86,2.83,18.87,1.88,2.01,7.78,3.01,17.68,3.01,5.04,0,8.98-1.07,11.84-3.22l-16.81-11.36Z"/>
    <path class="cls-1" d="M324.84,8.62h13.69V56.61c0,10.04-1.93,16.68-5.79,19.93-3.86,3.24-11.74,4.86-23.65,4.86-12.58,0-20.82-1.53-24.74-4.6-3.91-3.07-5.87-9.53-5.87-19.4V8.62h13.69V57.41c0,5.32,.95,8.69,2.85,10.12,1.9,1.43,6.38,2.14,13.42,2.14s11.76-.72,13.61-2.17c1.85-1.44,2.77-4.99,2.77-10.62V8.62Z"/>
    <path class="cls-1" d="M394.82,66.92h-31.13l-4.49,13.85h-14.48l24-72.15h20.56l24.37,72.15h-14.22l-4.6-13.85Zm-3.17-10.1l-12.47-37.58-12.26,37.58h24.74Z"/>
    <path class="cls-1" d="M419.87,80.77V8.62h35.57c8.84,0,14.94,1.53,18.29,4.6,3.35,3.07,5.02,8.62,5.02,16.65,0,7.29-.84,12.28-2.51,14.96-1.67,2.68-5.1,4.53-10.28,5.55v.48c8,.49,12,5.16,12,14.01v15.91h-13.69v-13.16c0-7.43-3.67-11.15-10.99-11.15h-19.71v24.31h-13.69Zm13.69-35.84h19.66c4.69,0,7.8-.84,9.33-2.51,1.53-1.67,2.3-5.03,2.3-10.07s-.66-8.47-1.98-9.96c-1.32-1.5-4.22-2.25-8.69-2.25h-20.61v24.79Z"/>
    <path class="cls-1" d="M501.9,20.14v18.6h33.83v10.1h-33.83v20.4h35.99v11.52h-49.68V8.62h49.37v11.52h-35.68Z"/>
    <path class="cls-1" d="M591.75,66.92h-31.13l-4.49,13.85h-14.48l24-72.15h20.56l24.37,72.15h-14.22l-4.6-13.85Zm-3.17-10.1l-12.47-37.58-12.26,37.58h24.74Z"/>
    <path class="cls-1" d="M616.81,80.77V8.62h35.46c10.08,0,17.13,2.2,21.17,6.61,4.03,4.41,6.05,12.12,6.05,23.15,0,18.01-1.62,29.57-4.86,34.7-3.24,5.13-10.55,7.69-21.93,7.69h-35.89Zm13.69-11.52h19.5c6.55,0,10.79-1.51,12.71-4.52,1.92-3.01,2.88-9.66,2.88-19.95s-.86-17.41-2.59-20.3c-1.73-2.89-5.78-4.33-12.16-4.33h-20.35v49.1Z"/>
  </g>
  <g>
    <path class="cls-2" d="M163.25,91.6l-5.76,18.49h-4.47l-2.75-10.27-.84-3.13-.39-1.57-.41-1.57h-.06l-.41,1.57-.41,1.57-.84,3.13-2.77,10.27h-4.55l-5.56-18.49h3.16l2.9,10.23,.9,3.21,.43,1.61,.43,1.61h.09l.41-1.61,.43-1.61,.86-3.19,2.81-10.25h4.38l2.79,10.27,.86,3.19,.41,1.59,.41,1.61h.06l.45-1.61,.43-1.61,.9-3.21,2.88-10.23h3.22Z"/>
    <path class="cls-2" d="M169.16,96.78h-2.99c0-2.15,.54-3.6,1.62-4.34,1.08-.74,3.2-1.11,6.35-1.11,3.42,0,5.74,.46,6.94,1.36,1.2,.91,1.8,2.64,1.8,5.19v12.21h-3.01l.24-1.99-.06-.02c-1.15,1.52-3.47,2.28-6.98,2.28-5.19,0-7.78-1.88-7.78-5.63,0-2.23,.58-3.77,1.74-4.62,1.16-.85,3.26-1.28,6.29-1.28,3.61,0,5.77,.64,6.49,1.92l.06-.02v-2.24c0-2.12-.32-3.49-.97-4.11-.64-.63-2.06-.94-4.23-.94-3.7,0-5.54,.94-5.54,2.8,0,.09,0,.27,.02,.54Zm4.83,4.16c-2.31,0-3.81,.22-4.5,.66-.69,.44-1.04,1.38-1.04,2.83s.34,2.49,1.03,2.97,2.08,.73,4.19,.73c4.24,0,6.36-1.16,6.36-3.48,0-1.46-.41-2.44-1.24-2.94-.82-.5-2.42-.75-4.8-.75Z"/>
    <path class="cls-2" d="M199.35,91.6v2.24h-7.91v11.32c0,1.97,.97,2.96,2.92,2.96s2.9-.88,2.9-2.65l.02-.91,.04-1.03h2.79l.02,1.37c0,3.64-1.92,5.45-5.76,5.45s-5.95-1.51-5.95-4.54v-11.97h-2.84v-2.24h2.84v-4.45h3.01v4.45h7.91Z"/>
    <path class="cls-2" d="M217.07,104.5h3.07l.02,.68c0,1.92-.65,3.27-1.94,4.03-1.3,.77-3.57,1.15-6.82,1.15-3.78,0-6.26-.62-7.44-1.87-1.18-1.24-1.77-3.86-1.77-7.84,0-3.69,.59-6.16,1.78-7.43,1.19-1.26,3.52-1.9,6.98-1.9,3.78,0,6.26,.55,7.43,1.64,1.17,1.1,1.76,3.4,1.76,6.93v1.45h-14.78c0,2.91,.35,4.77,1.04,5.57,.69,.8,2.32,1.2,4.87,1.2s3.99-.19,4.72-.57c.72-.38,1.08-1.2,1.08-2.47v-.58Zm0-5.26l-.02-.87c0-2-.37-3.3-1.1-3.9-.73-.6-2.31-.9-4.73-.9s-4.01,.35-4.74,1.05c-.72,.7-1.08,2.24-1.08,4.61h11.67Z"/>
    <path class="cls-2" d="M225.19,91.6h3.01l-.3,2.13,.06,.06c1.19-1.74,3.15-2.61,5.89-2.61,3.78,0,5.67,1.75,5.67,5.26l-.02,1.28h-2.96l.06-.46c.04-.49,.06-.82,.06-.99,0-1.9-1.15-2.84-3.44-2.84-3.35,0-5.03,1.86-5.03,5.59v11.08h-3.01v-18.49Z"/>
    <path class="cls-2" d="M253.42,91.6h3.01l-.06,2.79,.06,.06c1.16-2.08,3.39-3.12,6.7-3.12,3.48,0,5.59,1.04,6.34,3.12h.09c1.29-2.08,3.64-3.12,7.07-3.12,4.84,0,7.26,2.22,7.26,6.67v12.09h-3.01v-12.34c0-1.63-.32-2.73-.97-3.31-.64-.58-1.86-.87-3.65-.87-2.38,0-3.99,.4-4.83,1.21-.85,.81-1.27,2.34-1.27,4.61v10.7h-3.01v-12.09l-.04-.85c0-2.39-1.51-3.58-4.53-3.58-4.1,0-6.14,2.01-6.14,6.02v10.5h-3.01v-18.49Z"/>
    <path class="cls-2" d="M298.24,91.32c3.79,0,6.26,.59,7.39,1.78,1.13,1.19,1.7,3.77,1.7,7.74s-.57,6.55-1.7,7.74c-1.13,1.19-3.6,1.78-7.39,1.78s-6.24-.59-7.37-1.78c-1.13-1.19-1.7-3.77-1.7-7.74s.57-6.55,1.7-7.74c1.13-1.19,3.59-1.78,7.37-1.78Zm0,2.24c-2.66,0-4.31,.39-4.95,1.17-.64,.78-.96,2.81-.96,6.1s.32,5.32,.96,6.1c.64,.78,2.29,1.17,4.95,1.17s4.34-.39,4.97-1.17c.64-.78,.96-2.81,.96-6.1s-.32-5.32-.96-6.1c-.64-.78-2.3-1.17-4.97-1.17Z"/>
    <path class="cls-2" d="M312.01,91.6h2.9l-.09,2.51,.09,.06c.92-1.9,3.19-2.84,6.83-2.84,2.94,0,4.92,.46,5.96,1.39,1.04,.93,1.56,2.71,1.56,5.34v12.03h-3.01v-12.5c0-1.59-.34-2.65-1.01-3.2-.67-.55-1.97-.82-3.89-.82-4.23,0-6.34,1.8-6.34,5.4v11.12h-3.01v-18.49Z"/>
    <path class="cls-2" d="M337.71,83.68v3.04h-3.01v-3.04h3.01Zm0,7.91v18.49h-3.01v-18.49h3.01Z"/>
    <path class="cls-2" d="M353.86,91.6v2.24h-7.91v11.32c0,1.97,.97,2.96,2.92,2.96s2.9-.88,2.9-2.65l.02-.91,.04-1.03h2.79l.02,1.37c0,3.64-1.92,5.45-5.76,5.45s-5.95-1.51-5.95-4.54v-11.97h-2.84v-2.24h2.84v-4.45h3.01v4.45h7.91Z"/>
    <path class="cls-2" d="M365.79,91.32c3.79,0,6.26,.59,7.39,1.78,1.13,1.19,1.7,3.77,1.7,7.74s-.57,6.55-1.7,7.74c-1.13,1.19-3.6,1.78-7.39,1.78s-6.24-.59-7.37-1.78c-1.13-1.19-1.7-3.77-1.7-7.74s.57-6.55,1.7-7.74c1.13-1.19,3.59-1.78,7.37-1.78Zm0,2.24c-2.66,0-4.31,.39-4.95,1.17-.64,.78-.96,2.81-.96,6.1s.32,5.32,.96,6.1c.64,.78,2.29,1.17,4.95,1.17s4.34-.39,4.97-1.17c.64-.78,.96-2.81,.96-6.1s-.32-5.32-.96-6.1c-.64-.78-2.3-1.17-4.97-1.17Z"/>
    <path class="cls-2" d="M379.86,91.6h3.01l-.3,2.13,.06,.06c1.19-1.74,3.15-2.61,5.89-2.61,3.78,0,5.67,1.75,5.67,5.26l-.02,1.28h-2.96l.06-.46c.04-.49,.06-.82,.06-.99,0-1.9-1.15-2.84-3.44-2.84-3.35,0-5.03,1.86-5.03,5.59v11.08h-3.01v-18.49Z"/>
    <path class="cls-2" d="M400.1,83.68v3.04h-3.01v-3.04h3.01Zm0,7.91v18.49h-3.01v-18.49h3.01Z"/>
    <path class="cls-2" d="M405.36,91.6h2.9l-.09,2.51,.09,.06c.92-1.9,3.19-2.84,6.83-2.84,2.94,0,4.92,.46,5.96,1.39,1.04,.93,1.56,2.71,1.56,5.34v12.03h-3.01v-12.5c0-1.59-.34-2.65-1.01-3.2-.67-.55-1.97-.82-3.89-.82-4.23,0-6.34,1.8-6.34,5.4v11.12h-3.01v-18.49Z"/>
    <path class="cls-2" d="M445.24,91.6v19.69c0,2.68-.64,4.53-1.93,5.53-1.29,1.01-3.65,1.51-7.09,1.51-3.07,0-5.16-.43-6.27-1.28-1.12-.85-1.68-2.44-1.68-4.78h2.9c0,1.59,.33,2.62,.98,3.09,.65,.48,2.08,.72,4.29,.72s3.83-.31,4.62-.93c.79-.62,1.18-1.83,1.18-3.64v-3.71l-.06-.02c-.77,1.72-3.01,2.57-6.7,2.57-3.04,0-5.13-.67-6.27-2.02-1.15-1.35-1.72-3.81-1.72-7.38s.58-6.23,1.75-7.59c1.17-1.36,3.33-2.04,6.5-2.04,3.37,0,5.56,.93,6.6,2.79l.06-.02-.15-2.5h3.01Zm-8.96,1.97c-2.36,0-3.9,.45-4.6,1.34-.7,.9-1.05,2.86-1.05,5.89s.35,5.04,1.05,5.95c.7,.91,2.23,1.36,4.6,1.36s3.97-.5,4.73-1.5c.76-1,1.14-3.08,1.14-6.24,0-2.79-.38-4.62-1.14-5.49-.76-.88-2.33-1.32-4.73-1.32Z"/>
    <path class="cls-2" d="M464.51,83.68v3.04h-3.01v-3.04h3.01Zm0,7.91v18.49h-3.01v-18.49h3.01Z"/>
    <path class="cls-2" d="M469.77,91.6h2.9l-.09,2.51,.09,.06c.92-1.9,3.19-2.84,6.83-2.84,2.94,0,4.92,.46,5.96,1.39,1.04,.93,1.56,2.71,1.56,5.34v12.03h-3.01v-12.5c0-1.59-.34-2.65-1.01-3.2-.67-.55-1.97-.82-3.89-.82-4.23,0-6.34,1.8-6.34,5.4v11.12h-3.01v-18.49Z"/>
    <path class="cls-2" d="M508.38,96.43h-3.01c0-1.29-.29-2.09-.87-2.4-.58-.31-2.07-.46-4.48-.46-2.23,0-3.65,.17-4.25,.49-.6,.33-.9,1.12-.9,2.37,0,1.9,1.01,2.89,3.03,2.98l2.43,.12,3.07,.13c3.72,.17,5.59,1.92,5.59,5.26,0,2.08-.62,3.5-1.85,4.28-1.23,.77-3.49,1.16-6.77,1.16s-5.68-.37-6.95-1.1c-1.27-.74-1.9-2.08-1.9-4.04l.02-1.01h3.12l.02,.87c0,1.21,.34,2.02,1.03,2.43,.69,.41,2.04,.61,4.06,.61,2.48,0,4.11-.21,4.89-.64,.78-.42,1.17-1.32,1.17-2.67,0-1.95-.98-2.92-2.94-2.92-4.57,0-7.57-.35-9.01-1.04-1.44-.7-2.16-2.14-2.16-4.33,0-2.08,.57-3.46,1.71-4.15,1.14-.69,3.41-1.04,6.8-1.04,5.44,0,8.16,1.48,8.16,4.43v.68Z"/>
    <path class="cls-2" d="M524.19,91.6v2.24h-7.91v11.32c0,1.97,.97,2.96,2.92,2.96s2.9-.88,2.9-2.65l.02-.91,.04-1.03h2.79l.02,1.37c0,3.64-1.92,5.45-5.76,5.45s-5.95-1.51-5.95-4.54v-11.97h-2.84v-2.24h2.84v-4.45h3.01v4.45h7.91Z"/>
    <path class="cls-2" d="M527.93,91.6h3.01l-.3,2.13,.06,.06c1.19-1.74,3.15-2.61,5.89-2.61,3.78,0,5.67,1.75,5.67,5.26l-.02,1.28h-2.96l.06-.46c.04-.49,.06-.82,.06-.99,0-1.9-1.15-2.84-3.44-2.84-3.35,0-5.03,1.86-5.03,5.59v11.08h-3.01v-18.49Z"/>
    <path class="cls-2" d="M561.92,91.6v18.49h-3.01l.21-2.42-.06-.06c-1.05,1.83-3.28,2.75-6.7,2.75-4.8,0-7.2-2.15-7.2-6.46v-12.3h3.01v12.3c0,1.68,.31,2.8,.92,3.37,.62,.57,1.83,.85,3.63,.85,2.36,0,3.99-.42,4.87-1.27,.88-.85,1.32-2.4,1.32-4.65v-10.6h3.01Z"/>
    <path class="cls-2" d="M567.48,91.6h3.01l-.06,2.79,.06,.06c1.16-2.08,3.39-3.12,6.7-3.12,3.48,0,5.59,1.04,6.34,3.12h.09c1.29-2.08,3.64-3.12,7.07-3.12,4.84,0,7.26,2.22,7.26,6.67v12.09h-3.01v-12.34c0-1.63-.32-2.73-.97-3.31-.64-.58-1.86-.87-3.65-.87-2.38,0-3.99,.4-4.83,1.21-.85,.81-1.27,2.34-1.27,4.61v10.7h-3.01v-12.09l-.04-.85c0-2.39-1.51-3.58-4.53-3.58-4.1,0-6.14,2.01-6.14,6.02v10.5h-3.01v-18.49Z"/>
    <path class="cls-2" d="M618.1,104.5h3.07l.02,.68c0,1.92-.65,3.27-1.94,4.03-1.3,.77-3.57,1.15-6.82,1.15-3.78,0-6.26-.62-7.44-1.87-1.18-1.24-1.77-3.86-1.77-7.84,0-3.69,.59-6.16,1.78-7.43,1.19-1.26,3.52-1.9,6.98-1.9,3.78,0,6.26,.55,7.43,1.64,1.17,1.1,1.76,3.4,1.76,6.93v1.45h-14.78c0,2.91,.35,4.77,1.04,5.57,.69,.8,2.32,1.2,4.87,1.2s3.99-.19,4.72-.57c.72-.38,1.08-1.2,1.08-2.47v-.58Zm0-5.26l-.02-.87c0-2-.37-3.3-1.1-3.9s-2.31-.9-4.73-.9-4.01,.35-4.74,1.05c-.72,.7-1.08,2.24-1.08,4.61h11.67Z"/>
    <path class="cls-2" d="M625.92,91.6h2.9l-.09,2.51,.09,.06c.92-1.9,3.19-2.84,6.83-2.84,2.94,0,4.92,.46,5.96,1.39,1.04,.93,1.56,2.71,1.56,5.34v12.03h-3.01v-12.5c0-1.59-.34-2.65-1.01-3.2-.67-.55-1.97-.82-3.89-.82-4.23,0-6.34,1.8-6.34,5.4v11.12h-3.01v-18.49Z"/>
    <path class="cls-2" d="M659.5,91.6v2.24h-7.91v11.32c0,1.97,.97,2.96,2.92,2.96s2.9-.88,2.9-2.65l.02-.91,.04-1.03h2.79l.02,1.37c0,3.64-1.92,5.45-5.76,5.45s-5.95-1.51-5.95-4.54v-11.97h-2.84v-2.24h2.84v-4.45h3.01v4.45h7.91Z"/>
    <path class="cls-2" d="M678.86,96.43h-3.01c0-1.29-.29-2.09-.87-2.4-.58-.31-2.07-.46-4.48-.46-2.23,0-3.65,.17-4.25,.49-.6,.33-.9,1.12-.9,2.37,0,1.9,1.01,2.89,3.03,2.98l2.43,.12,3.07,.13c3.72,.17,5.59,1.92,5.59,5.26,0,2.08-.62,3.5-1.85,4.28-1.23,.77-3.49,1.16-6.77,1.16s-5.68-.37-6.95-1.1c-1.27-.74-1.9-2.08-1.9-4.04l.02-1.01h3.12l.02,.87c0,1.21,.34,2.02,1.03,2.43,.69,.41,2.04,.61,4.06,.61,2.48,0,4.11-.21,4.89-.64,.78-.42,1.17-1.32,1.17-2.67,0-1.95-.98-2.92-2.94-2.92-4.57,0-7.57-.35-9.01-1.04-1.44-.7-2.16-2.14-2.16-4.33,0-2.08,.57-3.46,1.71-4.15,1.14-.69,3.41-1.04,6.8-1.04,5.44,0,8.16,1.48,8.16,4.43v.68Z"/>
  </g>
  <g>
    <path class="cls-1" d="M70.26,108.9c40.23-.39,45.35-4.73,45.35-4.73,0,0,3.35-.74,3.55-4.73,.1-2.13,.07-49.25,.07-49.25,0,0-3.82-5.69-3.82-12.51s3.78-12.34,3.78-12.34l-.04-18.58s-72.92,.7-69.44-3.18c3.48-3.89-30.34,3.18-30.34,3.18V101.65c0,2.07,10.65,7.64,50.87,7.25Zm29.56-54.13c4.45,0,8.06,5.46,8.06,12.2s-3.61,12.2-8.06,12.2-8.06-5.46-8.06-12.2,3.61-12.2,8.06-12.2ZM63.3,28.82c5.59,0,10.13,5.83,10.13,13.01s-4.54,13.01-10.13,13.01-11.03-5.83-11.03-13.01,5.44-13.01,11.03-13.01ZM28.38,51.07c2.98,0,7.02,6.12,7.02,13.68s-4.04,13.68-7.02,13.68-5.4-6.12-5.4-13.68,2.42-13.68,5.4-13.68Z"/>
    <path class="cls-3" d="M.85,11.82C75.11-11.14,88.26,23.22,134.82,2.64"/>
  </g>
</svg>