<?xml version="1.0" encoding="utf-8"?>
<!-- Generator: Adobe Illustrator 26.5.2, SVG Export Plug-In . SVG Version: 6.00 Build 0)  -->
<svg version="1.1" id="Calque_1" xmlns="http://www.w3.org/2000/svg" xmlns:xlink="http://www.w3.org/1999/xlink" x="0px" y="0px"
	 viewBox="0 0 143.4 46.4" style="enable-background:new 0 0 143.4 46.4;" xml:space="preserve">
<style type="text/css">
	.st0{fill:#FFFFFF;}
	.st1{fill:#13100D;}
</style>
<g id="Calque_2_00000102540233334867835640000014173170345010391231_">
	<g id="Calque_1-2">
		<path class="st0" d="M33,33.8V15.3c0-0.5,0-1.2-0.1-2s-0.2-1.8-0.3-3.1h8.8l0.1,3.4c0.7-1.2,1.8-2.2,3.1-2.9
			C46,10,47.5,9.7,49,9.7c2.9,0,5,0.8,6.5,2.2s2.2,3.7,2.2,6.6v15.2h-8.7v-12c0-2.6-0.3-4.4-0.8-5.2c-0.6-0.9-1.7-1.4-2.8-1.3
			c-1.1-0.1-2.2,0.4-2.9,1.3c-0.7,1.1-1.1,2.4-1,3.7v13.6L33,33.8z"/>
		<path class="st0" d="M62.1,33.8V0h8.6v20.6l7.6-10.4h9.3L80,20.8l8.4,12.9h-10L70.7,21v12.8H62.1z"/>
		<path class="st0" d="M112.3,26.2c-0.3,2.5-1.6,4.7-3.7,6.1c-2.5,1.5-5.5,2.3-8.4,2.1c-4,0-7-1-9-3.1s-3.1-5.1-3.1-9
			c0-4,1.1-7.1,3.2-9.3s5.2-3.3,9.1-3.3s6.9,1.1,9,3.2s3,5.3,3,9.5c0,0.4,0,0.7,0,1c0,0.2,0,0.4-0.1,0.6H96c-0.1,1.5,0.3,3,1.1,4.2
			c0.8,1,2.1,1.5,3.4,1.4c0.9,0,1.8-0.3,2.6-0.9c0.7-0.7,1.2-1.6,1.3-2.6L112.3,26.2z M96.1,19.2h8.3c0-1.3-0.5-2.5-1.2-3.6
			c-0.7-0.8-1.7-1.3-2.7-1.2c-1.1-0.1-2.2,0.4-3,1.2C96.7,16.6,96.2,17.8,96.1,19.2L96.1,19.2z"/>
		<rect x="112.7" y="31.3" class="st0" width="30.7" height="2.7"/>
		<rect y="31" class="st0" width="30.7" height="2.7"/>
		<path class="st1" d="M36.2,46.4H35c-0.5,0-1.1-0.1-1.5-0.5C33.2,45.5,33,45,33,44.4v-3.8c0-0.5,0.2-1.1,0.5-1.5
			c0.4-0.4,0.9-0.5,1.5-0.5h1.3c0.5,0,1.1,0.2,1.5,0.5c0.4,0.4,0.6,0.9,0.5,1.4V41c0,0.2-0.1,0.3-0.2,0.3h-1c-0.1,0-0.2-0.1-0.3-0.2
			c0,0,0,0,0-0.1v-0.3c0-0.2,0-0.4-0.2-0.5C36.4,40,36.2,40,36,40h-0.8c-0.3-0.1-0.6,0.1-0.7,0.5c0,0.1,0,0.2,0,0.2v3.7
			c0,0.2,0,0.4,0.2,0.5c0.2,0.1,0.3,0.2,0.5,0.2H36c0.2,0,0.4,0,0.5-0.2c0.1-0.2,0.2-0.4,0.2-0.5v-0.8c0-0.1,0-0.1-0.1-0.1h-0.7
			c-0.2,0-0.2-0.1-0.2-0.3v-0.8c0-0.1,0.1-0.2,0.2-0.2c0,0,0,0,0.1,0h2.1c0.2,0,0.3,0.1,0.3,0.3v2c0,0.5-0.2,1.1-0.5,1.4
			C37.3,46.2,36.8,46.4,36.2,46.4z"/>
		<path class="st1" d="M52.8,46.4h-1c-0.1,0-0.2-0.1-0.2-0.2c0,0,0,0,0-0.1v-7.2c0-0.1,0.1-0.2,0.2-0.2c0,0,0,0,0.1,0h2.9
			c0.5,0,1.1,0.2,1.5,0.5c0.4,0.4,0.6,0.9,0.5,1.5v0.9c0.1,0.8-0.4,1.5-1.1,1.8l0,0l1.3,2.7c0.1,0.2,0,0.3-0.2,0.3h-1
			c-0.1,0-0.2,0-0.3,0c-0.1,0-0.1-0.1-0.2-0.2L54,43.5h-0.8c-0.1,0-0.1,0-0.1,0.1v2.5C53.1,46.3,53,46.4,52.8,46.4z M53.2,42.3h1.2
			c0.2,0,0.4,0,0.6-0.2c0.1-0.1,0.2-0.3,0.2-0.5v-0.9c0-0.2,0-0.4-0.2-0.5C54.8,40,54.6,40,54.4,40h-1.2c-0.1,0-0.1,0-0.1,0.1v2.1
			C53.1,42.3,53.1,42.3,53.2,42.3z"/>
		<path class="st1" d="M73.2,46.4h-1.3c-0.5,0-1.1-0.1-1.5-0.5c-0.4-0.4-0.6-0.9-0.5-1.5v-3.8c0-0.5,0.2-1.1,0.5-1.5
			c0.4-0.4,0.9-0.5,1.5-0.5h1.3c0.5,0,1.1,0.1,1.5,0.5c0.4,0.4,0.5,0.9,0.5,1.5v3.8c0,0.5-0.2,1.1-0.5,1.5
			C74.3,46.2,73.7,46.4,73.2,46.4z M72.1,45H73c0.3,0.1,0.6-0.1,0.7-0.4c0-0.1,0-0.2,0-0.3v-3.7c0-0.2,0-0.4-0.2-0.5
			C73.4,40,73.2,40,73,40h-0.9c-0.2,0-0.4,0-0.5,0.2c-0.1,0.2-0.2,0.3-0.2,0.5v3.7c0,0.2,0,0.4,0.2,0.5C71.7,45,71.9,45.1,72.1,45z"
			/>
		<path class="st1" d="M92.5,38.7h1c0.2,0,0.3,0.1,0.3,0.2v5.5c0,0.5-0.2,1-0.5,1.4c-0.4,0.4-0.9,0.5-1.5,0.5h-1.3
			c-0.5,0-1.1-0.1-1.5-0.5c-0.4-0.4-0.5-0.9-0.5-1.5v-5.5c0-0.1,0.1-0.2,0.2-0.2c0,0,0,0,0.1,0h1c0.1,0,0.2,0.1,0.2,0.2
			c0,0,0,0,0,0.1v5.4c0,0.2,0,0.4,0.2,0.5c0.2,0.1,0.3,0.2,0.5,0.2h0.8c0.2,0,0.4,0,0.5-0.2c0.1-0.2,0.2-0.4,0.2-0.5v-5.4
			C92.2,38.7,92.3,38.7,92.5,38.7z"/>
		<path class="st1" d="M108.4,46.4h-1c-0.1,0-0.2-0.1-0.2-0.2c0,0,0,0,0-0.1v-7.2c0-0.1,0.1-0.2,0.2-0.2c0,0,0,0,0.1,0h2.9
			c0.5,0,1.1,0.2,1.4,0.5c0.4,0.4,0.6,0.9,0.5,1.4v1.2c0,0.5-0.2,1.1-0.5,1.5c-0.4,0.4-0.9,0.5-1.4,0.5h-1.5c-0.1,0-0.1,0-0.1,0.1
			v2.3C108.7,46.3,108.6,46.4,108.4,46.4z M108.8,42.4h1.3c0.2,0,0.4,0,0.5-0.2c0.1-0.2,0.2-0.3,0.2-0.5v-1c0-0.2,0-0.4-0.2-0.5
			c-0.2-0.1-0.3-0.2-0.5-0.2h-1.3c-0.1,0-0.1,0-0.1,0.1v2.2C108.7,42.3,108.7,42.4,108.8,42.4C108.8,42.4,108.8,42.4,108.8,42.4
			L108.8,42.4z"/>
	</g>
</g>
</svg>
