<?xml version="1.0" encoding="utf-8"?>
<!-- Generator: Adobe Illustrator 26.5.2, SVG Export Plug-In . SVG Version: 6.00 Build 0)  -->
<svg version="1.1" id="a" xmlns="http://www.w3.org/2000/svg" xmlns:xlink="http://www.w3.org/1999/xlink" x="0px" y="0px"
	 viewBox="0 0 1218.3 626.7" style="enable-background:new 0 0 1218.3 626.7;" xml:space="preserve">
<path d="M410.3,427.7c0,42.6-7.9,87.1-34.6,124.7c-12.9,17.8-30.7,33.7-50.5,44.5s-41.6,19.8-64.4,23.8l-16.8,3
	c-5.9,1-10.9,1-16.8,2c-10.9,1-22.8,1-34.6,1c-23.8-1-46.5-5-69.3-11.9c-23.8-7.9-44.6-19.8-63.4-35.6
	c-18.8-16.8-33.7-36.6-43.6-59.4C7.3,498,1.4,474.2,0.4,450.4c-1-11.9,0-23.8,1-35.6c0-5.9,1-11.9,3-17.8l4-17.8
	C24.2,337.6,45,298,71.7,262.3c23.8-35.6,49.5-69.3,72.3-104.9c23.8-33.7,42.6-71.3,56.4-109.9L216.2,0l10.9,47.5
	c8.9,33.7,22.8,64.3,41.6,94.1c17.8,29.7,38.6,59.4,58.4,89.1c19.8,29.7,38.6,60.4,54.5,93.1c4,7.9,6.9,16.8,10.9,24.8
	c4,7.9,5.9,16.8,8.9,25.7s4,17.8,5.9,26.7S409.3,417.8,410.3,427.7L410.3,427.7z M405.3,427.7c-1-8.9-1-17.8-2-26.7
	c-1-8.9-3-17.8-5.9-25.7s-5-16.8-8.9-24.8s-6.9-16.8-11.9-23.8c-17.8-30.7-37.6-60.4-60.4-87.1c-21.8-27.7-44.5-55.4-65.3-85.1
	c-21.8-29.7-38.6-63.4-49.5-99h25.7c-12.9,41.6-31.7,82.2-54.4,118.8c-21.8,37.6-45.5,73.3-68.3,108.9
	C81.6,316.8,63.8,353.4,50.9,392c-5,17.8-5.9,36.6-4,55.4s6.9,36.6,14.8,53.5c15.8,32.7,43.6,57.4,78.2,69.3
	c17.8,6.9,36.6,10.9,55.4,13.9c19.8,2,39.6,3,59.4,2s38.6-5,57.4-11.9s35.6-17.8,49.5-31.7c13.9-14.8,24.8-32.7,31.7-51.5
	C401.4,469.2,405.3,448.5,405.3,427.7L405.3,427.7z M155.8,356.4c14.9,0,28.7,6.9,38.6,17.8c11.9,12.9,17.8,28.7,16.8,45.5
	c1,16.8-5.9,33.7-16.8,46.5c-9.9,11.9-24.8,18.8-40.6,18.8c-14.9,0-28.7-6.9-36.6-18.8v61.4H82.6V359.4h34.7v13.9
	C128.1,362.3,142,356.4,155.8,356.4L155.8,356.4L155.8,356.4z M116.2,423.7c0,10.9,3,20.8,9.9,28.7c5.9,6.9,14.9,11.9,23.8,10.9
	c9.9,0,18.8-4,24.8-10.9c6.9-7.9,10.9-18.8,10.9-28.7c1-10.9-3-21.8-9.9-30.7c-5.9-7.9-14.9-11.9-24.8-11.9s-18.8,4-24.8,11.9
	C119.2,401.9,116.2,412.8,116.2,423.7L116.2,423.7z M325.1,300h38.6v176.2h-38.6v-69.3h-69.3v69.3h-39.6V300h39.6v73.3h69.3V300z"/>
<path d="M1077.2,161.1c-5.9-0.6-12-0.6-17.8-1.9c-8.2-1.9-16.1-5.3-23.2-9.9c-13.6-8.7-24.1-20.7-34.7-32.7
	c-6.5-7.4-13.5-14.5-22.4-19c-3.8-1.9-8.2-3-12.3-4.1c-3.5-0.9-7.2-1.7-10.8-1.6c-10.2,0.3-19.5,3.5-27.7,9.5
	c-7.7,5.6-13.8,12.9-20.2,19.8c-8.4,9-17.3,17.7-26.8,25.4c-6.6,5.4-14.6,8.6-23,11.2c-9.5,2.9-19,3.2-28.6,2.6
	c-9.5-0.6-18.4-3.6-27-7.8c-12.9-6.4-22.5-16.6-32.3-26.6c-5.9-6.1-11.4-12.5-17.3-18.6c-6-6.2-13.2-10.7-21.4-13.2
	c-6.4-2-13.1-3.4-20-2.2c-13.2,2.3-24.2,8.6-33.3,18.4c-9.4,10.1-18.8,20.1-28.5,29.8c-5.8,5.8-12.9,9.9-20.3,13.5
	c-12.5,6.2-25.8,7.8-39.5,6.8c-9.5-0.7-18.4-3.6-27-7.8c-12.9-6.3-22.5-16.6-32.3-26.6c-6.7-6.8-12.9-14.1-19.7-20.8
	c-5.2-5.1-11.6-8.8-18.6-10.9c-5-1.5-10.3-2.4-15.5-2.4c-7.7,0-12.2-5.2-13.8-10.7c-1.9-6.5,1.2-14.1,6.7-17.2
	c1.3-0.7,2.8-1.4,4.2-1.3c6.7,0.3,13.7,0,20.2,1.6c9.8,2.4,18.8,6.8,27.1,12.7c9.6,6.8,17.1,15.8,25.4,24c5.2,5.1,9.7,10.8,14.8,16
	c6.7,6.7,14.7,11.9,23.9,14c5.8,1.3,11.7,2.3,18,1c5.6-1.1,11-2.3,16.1-5c7.4-3.8,13.4-9.2,19.1-15.1c9.4-9.9,18.5-20.1,28.4-29.5
	c6-5.7,13.3-9.9,21.2-13.2c12.8-5.3,26.1-6.2,39.5-5c5.9,0.5,11.8,2.6,17.4,4.8c5.7,2.3,11.3,5.1,16.2,8.8c6.8,5.2,13,11.2,19,17.2
	c7.5,7.5,14.3,15.6,21.8,23c6.5,6.3,14.2,11.2,23.1,13.1c5.8,1.2,11.7,2.2,18,0.9c5.8-1.1,11.4-2.4,16.6-5.3
	c8.9-5,16.2-11.7,22.5-19.7c3.4-4.3,7.4-8.1,11.4-11.9c6.4-6.1,12.8-12.4,19.7-17.8c8-6.3,17.3-9.6,27.3-11.9
	c7.9-1.8,15.7-1.7,23.4-1.2c6.3,0.4,12.5,2.5,18.7,4.1c6.6,1.7,12.5,5,17.6,9.2c6.8,5.5,13.2,11.5,19.4,17.7
	c6.1,6.1,11.8,12.7,17.7,19c7.4,7.8,15.9,14.1,26.4,16.7c5.7,1.4,11.8,3,18,1.1c3.1-0.9,6.4-1.2,9.6-2c8.2-2.2,15-7,20.9-12.8
	c10.1-10,19.7-20.6,29.6-30.8c7.7-7.9,16.7-13.9,27.2-17.8c9.5-3.6,19.1-5,29.2-4.6c6.5,0.3,12.4,6.5,12.9,13
	c0.5,7.4-2.4,12.5-8.9,15.7c-1.1,0.6-2.5,0.9-3.7,0.9c-9.9-0.3-19.2,2.2-27.6,7.4c-7.6,4.6-13.9,10.9-19.7,17.7
	c-9.4,11-19.2,21.5-31.4,29.6c-6.9,4.6-14.2,7.7-22.2,9.9C1091,159.9,1084.2,160.9,1077.2,161.1L1077.2,161.1z"/>
<path d="M1084.2,248.2c-5.9-0.6-12-0.6-17.8-1.9c-8.2-1.9-16.1-5.3-23.2-9.9c-13.6-8.7-24.1-20.7-34.7-32.7
	c-6.5-7.4-13.5-14.5-22.4-19c-3.8-1.9-8.2-3-12.3-4.1c-3.5-0.9-7.2-1.7-10.8-1.6c-10.2,0.3-19.5,3.5-27.7,9.5
	c-7.7,5.6-13.8,12.9-20.2,19.8c-8.4,9-17.3,17.7-26.8,25.4c-6.6,5.4-14.6,8.6-23,11.2c-9.5,2.9-19,3.2-28.6,2.6
	c-9.5-0.6-18.4-3.6-27-7.8c-12.9-6.4-22.5-16.6-32.3-26.6c-5.9-6.1-11.4-12.5-17.3-18.6c-6-6.2-13.2-10.7-21.4-13.2
	c-6.4-2-13.1-3.4-20-2.2c-13.2,2.4-24.2,8.6-33.3,18.4c-9.4,10.1-18.8,20.1-28.5,29.8c-5.8,5.8-12.9,9.9-20.3,13.5
	c-12.5,6.2-25.8,7.8-39.5,6.8c-9.5-0.7-18.4-3.6-27-7.8c-12.9-6.3-22.5-16.6-32.3-26.6c-6.7-6.9-12.9-14.1-19.7-20.8
	c-5.2-5.1-11.6-8.8-18.6-10.9c-5-1.5-10.3-2.4-15.5-2.4c-7.7,0-12.2-5.2-13.8-10.7c-1.9-6.5,1.2-14.1,6.7-17.2
	c1.3-0.7,2.8-1.4,4.2-1.4c6.7,0.3,13.7,0,20.2,1.6c9.8,2.4,18.8,6.9,27.1,12.7c9.6,6.8,17.1,15.8,25.4,23.9
	c5.2,5.1,9.7,10.9,14.8,16c6.7,6.7,14.7,11.9,23.9,14c5.8,1.3,11.7,2.3,18,1c5.6-1.1,11-2.3,16.1-5c7.4-3.8,13.4-9.2,19.1-15.1
	c9.4-9.9,18.5-20.1,28.4-29.5c6-5.7,13.3-9.9,21.2-13.2c12.8-5.4,26.1-6.2,39.5-5c5.9,0.5,11.8,2.6,17.4,4.8
	c5.7,2.3,11.3,5.1,16.2,8.8c6.8,5.2,13,11.2,19,17.2c7.5,7.5,14.3,15.6,21.8,23c6.5,6.3,14.2,11.2,23.1,13.1
	c5.8,1.2,11.7,2.2,18,0.9c5.8-1.1,11.4-2.4,16.6-5.3c8.9-5,16.2-11.7,22.5-19.7c3.4-4.3,7.4-8.1,11.4-11.9
	c6.4-6.1,12.8-12.4,19.7-17.8c8-6.3,17.3-9.6,27.3-11.9c7.9-1.8,15.7-1.7,23.4-1.2c6.3,0.4,12.5,2.5,18.7,4.1
	c6.6,1.7,12.5,5,17.6,9.2c6.8,5.5,13.2,11.5,19.4,17.7c6.1,6.1,11.8,12.7,17.7,19c7.4,7.8,15.9,14.1,26.4,16.7
	c5.7,1.4,11.8,3,18,1.1c3.1-0.9,6.4-1.2,9.6-2c8.2-2.2,15-7,20.9-12.8c10.1-10,19.7-20.6,29.6-30.8c7.7-7.9,16.7-13.9,27.2-17.8
	c9.5-3.6,19.1-5.1,29.2-4.6c6.5,0.3,12.4,6.5,12.9,13c0.5,7.4-2.4,12.5-8.9,15.7c-1.1,0.6-2.5,0.9-3.7,0.9
	c-9.9-0.3-19.2,2.2-27.6,7.4c-7.6,4.6-13.9,10.9-19.7,17.6c-9.4,11-19.2,21.5-31.4,29.6c-6.9,4.6-14.2,7.7-22.2,9.9
	C1098,247,1091.2,248.1,1084.2,248.2L1084.2,248.2z"/>
<g>
	<path d="M620.8,548.1c-16.7-9.4-29.6-22.5-38.8-39.3c-9.2-16.8-13.8-35.9-13.8-57.3s4.6-40.4,13.8-57.1
		c9.2-16.7,22.1-29.8,38.8-39.2c16.7-9.4,35.7-14.1,57-14.1s40.1,4.7,56.7,14.1c16.7,9.4,29.6,22.5,38.9,39.2
		c9.3,16.8,13.9,35.8,13.9,57.1s-4.7,40.4-13.9,57.3c-9.3,16.8-22.2,30-38.8,39.3s-35.5,14.1-56.9,14.1S637.4,557.5,620.8,548.1z
		 M720,525.1c12.5-7.5,22.3-17.6,29.3-30.5c7-12.9,10.5-27.2,10.5-43.1s-3.5-30.2-10.5-43.1c-7-12.9-16.7-23-29.1-30.4
		s-26.5-11-42.4-11s-30,3.7-42.4,11c-12.4,7.4-22.1,17.5-29.1,30.4c-7,12.9-10.5,27.2-10.5,43.1s3.5,30.2,10.5,43.1
		c7,12.9,16.7,23,29.3,30.5c12.5,7.5,26.6,11.2,42.2,11.2S707.5,532.5,720,525.1z"/>
	<path d="M968.1,546.5c0,3.7-1.2,6.8-3.7,9.2c-2.5,2.5-5.8,3.7-10.1,3.7c-5.3,0-9.5-2.3-12.4-6.9l-47.5-76.2h-40.3v68.7
		c0,4-1.3,7.5-4,10.2c-2.7,2.8-6.1,4.1-10.3,4.1s-7.5-1.4-10.2-4.1s-4.1-6.2-4.1-10.2V358.2c0-4.2,1.4-7.7,4.1-10.4s6.2-4,10.2-4
		h49.7c13.6,0,25.8,2.9,36.6,8.6c10.8,5.7,19.1,13.7,25.1,24c6,10.3,9,22.1,9,35.3s-3.3,24.7-9.9,34.8c-6.6,10.1-15.6,17.8-27,22.9
		l42.2,67.9C967.2,540.3,968.1,543.3,968.1,546.5L968.1,546.5z M889.4,449.9c12.5,0,22.8-3.5,30.9-10.6c8.1-7.1,12.1-16.2,12.1-27.5
		c0-12.1-4-22.1-12.1-29.8c-8.1-7.7-18.4-11.6-30.9-11.6h-35.3v79.5H889.4z"/>
	<path d="M997.1,555.3c-2.8-2.8-4.1-6.2-4.1-10.2V358.2c0-4.2,1.4-7.7,4.1-10.4s6.2-4,10.2-4h55.2c13.6,0,25.8,3,36.6,9.1
		c10.8,6.1,19.1,14.5,25.1,25.4c6,10.9,9,23.2,9,37s-3,25.4-9,35.9c-6,10.5-14.3,18.7-25.1,24.6c-10.8,5.9-23,8.8-36.6,8.8h-40.8
		v60.4c0,4-1.3,7.5-4,10.2c-2.7,2.8-6.1,4.1-10.3,4.1S999.8,558,997.1,555.3L997.1,555.3z M1062.5,458.1c12.5,0,22.8-4,30.9-12
		c8.1-8,12.1-18.3,12.1-30.8s-4.1-23.8-12.1-32.3c-8.1-8.5-18.4-12.7-30.9-12.7h-40.8v87.8L1062.5,458.1L1062.5,458.1z"/>
</g>
</svg>
