<?xml version="1.0" encoding="utf-8"?>
<!-- Generator: Adobe Illustrator 22.1.0, SVG Export Plug-In . SVG Version: 6.00 Build 0)  -->
<svg version="1.1" id="Calque_1" xmlns="http://www.w3.org/2000/svg" xmlns:xlink="http://www.w3.org/1999/xlink" x="0px" y="0px"
	 viewBox="0 0 400.7 342" style="enable-background:new 0 0 400.7 342;" xml:space="preserve">
<path d="M48.4,189.9H20c-10.5,0-19.7-7.9-20-18.4C-0.3,160.7,8.5,152,18.9,152h28.4c10.5,0,19.7,7.9,20,18.4
	C67.6,181.2,59.1,189.9,48.4,189.9z M86.3,113.9H20c-10.5,0-19.7-7.9-20-18.4C-0.3,84.7,8.5,76,18.9,76h66.3
	c10.5,0,19.7,7.9,20,18.4C105.7,104.9,97,113.9,86.3,113.9L86.3,113.9z M143.4,37.8H20c-10.5,0-19.7-7.9-20-18.4
	C-0.3,8.6,8.5-0.1,18.9-0.1h123.4c10.5,0,19.7,7.9,20,18.4C162.8,28.9,154.1,37.8,143.4,37.8L143.4,37.8z M86.3,265.9H20
	c-10.5,0-19.7-7.9-20-18.4C-0.3,236.7,8.5,228,18.9,228h66.3c10.5,0,19.7,7.9,20,18.4C105.7,257.2,97,265.9,86.3,265.9z M86.3,342
	H20C9.5,342,0.3,334,0,323.5c-0.3-10.8,8.4-19.5,18.9-19.5h66.3c10.5,0,19.7,7.9,20,18.4C105.7,333.2,97,342,86.3,342z M381.7,189.9
	h-28.4c-10.5,0-19.7-7.9-20-18.4c-0.3-10.8,8.4-19.5,18.9-19.5h28.4c10.5,0,19.7,7.9,20,18.4C401.2,181.2,392.5,189.9,381.7,189.9z
	 M381.7,113.9h-66.3c-10.5,0-19.7-7.9-20-18.4c-0.3-10.8,8.4-19.5,18.9-19.5h66.3c10.5,0,19.7,7.9,20,18.4
	C401.2,104.9,392.5,113.9,381.7,113.9L381.7,113.9z M381.7,37.8h-66.3c-10.5,0-19.7-7.9-20-18.4c-0.3-10.8,8.4-19.5,18.9-19.5h66.3
	c10.5,0,19.7,7.9,20,18.4C401.2,28.9,392.5,37.8,381.7,37.8z M381.7,265.9h-66.3c-10.5,0-19.7-7.9-20-18.4
	c-0.3-10.8,8.4-19.5,18.9-19.5h66.3c10.5,0,19.7,7.9,20,18.4C401.2,257.2,392.5,265.9,381.7,265.9z M381.7,342H258.3
	c-10.5,0-19.7-7.9-20-18.4c-0.3-10.8,8.4-19.5,18.9-19.5h123.4c10.5,0,19.7,7.9,20,18.4C401.2,333.2,392.5,342,381.7,342z
	 M257.5,0.2l-56.8,170.8h-98v-0.3L257.5,0.2C257.3-0.1,257.5-0.1,257.5,0.2L257.5,0.2z M298.2,170.9L143.6,341.7h-0.3l56.8-170.8
	H298.2C298.2,170.9,298.5,170.9,298.2,170.9L298.2,170.9z"/>
</svg>
