<?xml version="1.0" encoding="utf-8"?>
<!-- Generator: Adobe Illustrator 22.1.0, SVG Export Plug-In . SVG Version: 6.00 Build 0)  -->
<svg version="1.1" id="Calque_1" xmlns="http://www.w3.org/2000/svg" xmlns:xlink="http://www.w3.org/1999/xlink" x="0px" y="0px"
	 viewBox="0 0 64 64" style="enable-background:new 0 0 64 64;" xml:space="preserve">
<title>Sensors</title>
<path d="M51.6,43.6c0,4.3-0.8,8.8-3.5,12.6C46.8,58,45,59.6,43,60.7c-2,1.1-4.2,2-6.5,2.4l-1.7,0.3c-0.6,0.1-1.1,0.1-1.7,0.2
	c-1.1,0.1-2.3,0.1-3.5,0.1c-2.4-0.1-4.7-0.5-7-1.2c-2.4-0.8-4.5-2-6.4-3.6c-1.9-1.7-3.4-3.7-4.4-6c-0.9-2.2-1.5-4.6-1.6-7
	c-0.1-1.2,0-2.4,0.1-3.6c0-0.6,0.1-1.2,0.3-1.8l0.4-1.8c1.6-4.2,3.7-8.2,6.4-11.8c2.4-3.6,5-7,7.3-10.6c2.4-3.4,4.3-7.2,5.7-11.1
	L32,0.4l1.1,4.8c0.9,3.4,2.3,6.5,4.2,9.5c1.8,3,3.9,6,5.9,9c2,3,3.9,6.1,5.5,9.4c0.4,0.8,0.7,1.7,1.1,2.5s0.6,1.7,0.9,2.6
	s0.4,1.8,0.6,2.7S51.5,42.6,51.6,43.6z M51.1,43.6c-0.1-0.9-0.1-1.8-0.2-2.7s-0.3-1.8-0.6-2.6s-0.5-1.7-0.9-2.5s-0.7-1.7-1.2-2.4
	c-1.8-3.1-3.8-6.1-6.1-8.8c-2.2-2.8-4.5-5.6-6.6-8.6c-2.2-3-3.9-6.4-5-10h2.6c-1.3,4.2-3.2,8.3-5.5,12c-2.2,3.8-4.6,7.4-6.9,11
	c-2.3,3.4-4.1,7.1-5.4,11c-0.5,1.8-0.6,3.7-0.4,5.6c0.2,1.9,0.7,3.7,1.5,5.4c1.6,3.3,4.4,5.8,7.9,7c1.8,0.7,3.7,1.1,5.6,1.4
	c2,0.2,4,0.3,6,0.2c2-0.1,3.9-0.5,5.8-1.2c1.9-0.7,3.6-1.8,5-3.2c1.4-1.5,2.5-3.3,3.2-5.2C50.7,47.8,51.1,45.7,51.1,43.6z
	 M25.9,36.4c1.5,0,2.9,0.7,3.9,1.8c1.2,1.3,1.8,2.9,1.7,4.6c0.1,1.7-0.6,3.4-1.7,4.7c-1,1.2-2.5,1.9-4.1,1.9c-1.5,0-2.9-0.7-3.7-1.9
	v6.2h-3.5V36.7h3.5v1.4C23.1,37,24.5,36.4,25.9,36.4L25.9,36.4z M21.9,43.2c0,1.1,0.3,2.1,1,2.9c0.6,0.7,1.5,1.2,2.4,1.1
	c1,0,1.9-0.4,2.5-1.1c0.7-0.8,1.1-1.9,1.1-2.9c0.1-1.1-0.3-2.2-1-3.1c-0.6-0.8-1.5-1.2-2.5-1.2c-1,0-1.9,0.4-2.5,1.2
	C22.2,41,21.9,42.1,21.9,43.2L21.9,43.2z M43,30.7h3.9v17.8H43v-7h-7v7h-4V30.7h4v7.4h7L43,30.7z"/>
</svg>
