<svg id="Calque_1" data-name="Calque 1" xmlns="http://www.w3.org/2000/svg" viewBox="0 0 755.81 612.64"><title>PAR test 2</title><path d="M614.68,526.79c-5.93-.59-12-.59-17.77-1.91A73.47,73.47,0,0,1,573.67,515c-13.61-8.69-24.12-20.68-34.65-32.68-6.51-7.42-13.49-14.52-22.43-19a58.34,58.34,0,0,0-12.34-4.07,41.19,41.19,0,0,0-10.8-1.59,48.25,48.25,0,0,0-27.68,9.52c-7.68,5.64-13.76,12.87-20.21,19.82a269,269,0,0,1-26.85,25.45c-6.57,5.35-14.64,8.64-22.95,11.18-9.45,2.89-19,3.25-28.64,2.6s-18.41-3.56-27-7.79c-12.93-6.36-22.55-16.58-32.33-26.64-5.86-6.14-11.43-12.54-17.31-18.63A49.88,49.88,0,0,0,269.12,460c-6.4-2-13.13-3.42-20-2.19a58.48,58.48,0,0,0-33.28,18.38c-9.37,10.06-18.79,20.08-28.52,29.79-5.79,5.79-12.89,9.88-20.25,13.53-12.53,6.22-25.85,7.79-39.51,6.78a73.35,73.35,0,0,1-27-7.81C87.62,512.11,78,501.88,68.22,491.82,61.57,485,55.33,477.69,48.5,471a44.87,44.87,0,0,0-18.63-10.93,54.24,54.24,0,0,0-15.49-2.39c-7.72,0-12.2-5.22-13.81-10.66-1.92-6.5,1.24-14.12,6.69-17.21a8.52,8.52,0,0,1,4.21-1.35c6.74.31,13.7,0,20.16,1.56a80.13,80.13,0,0,1,27.1,12.73c9.65,6.78,17.09,15.8,25.38,23.93,5.18,5.09,9.68,10.85,14.83,16,6.73,6.69,14.67,11.94,23.93,14,5.76,1.27,11.73,2.31,18,1,5.6-1.15,11-2.32,16.09-5,7.37-3.82,13.43-9.17,19.08-15.14,9.37-9.91,18.52-20.07,28.38-29.48,6-5.74,13.35-9.91,21.18-13.19,12.78-5.35,26.1-6.25,39.54-5,5.91.53,11.84,2.58,17.4,4.84a69.72,69.72,0,0,1,16.17,8.76,196.14,196.14,0,0,1,19,17.22c7.45,7.46,14.26,15.59,21.8,23,6.47,6.33,14.22,11.24,23.11,13.09,5.77,1.2,11.73,2.18,18,.94,5.84-1.15,11.43-2.45,16.6-5.34a74.85,74.85,0,0,0,22.5-19.71,111.72,111.72,0,0,1,11.37-11.86c6.48-6.13,12.84-12.41,19.74-17.88,8-6.28,17.33-9.61,27.3-11.91,7.88-1.82,15.68-1.71,23.43-1.21,6.31.4,12.53,2.53,18.73,4.11a45.94,45.94,0,0,1,17.64,9.17c6.77,5.53,13.22,11.5,19.43,17.66s11.78,12.7,17.72,19c7.35,7.83,15.92,14.12,26.37,16.74,5.73,1.43,11.8,3,18,1.15,3.1-.94,6.41-1.16,9.55-2,8.21-2.2,15-7,20.89-12.82,10.09-10,19.65-20.6,29.6-30.79a74,74,0,0,1,56.38-22.46c6.49.27,12.43,6.5,12.91,13,.54,7.37-2.37,12.53-8.88,15.74a8.16,8.16,0,0,1-3.71.87,49,49,0,0,0-27.57,7.38c-7.6,4.64-13.93,10.85-19.7,17.65-9.37,11-19.23,21.52-31.37,29.63a74.63,74.63,0,0,1-22.21,9.86A84.08,84.08,0,0,1,614.68,526.79Z" transform="translate(0 -1.28)"/><path d="M621.68,613.92c-5.93-.59-12-.59-17.77-1.9a73.39,73.39,0,0,1-23.24-9.86c-13.61-8.69-24.12-20.68-34.65-32.68-6.51-7.42-13.49-14.52-22.43-19-3.82-1.94-8.14-3-12.34-4.06a40.78,40.78,0,0,0-10.8-1.59,48.16,48.16,0,0,0-27.68,9.53c-7.68,5.64-13.77,12.86-20.21,19.81a270.15,270.15,0,0,1-26.85,25.45c-6.57,5.35-14.64,8.64-22.95,11.18-9.45,2.89-19,3.25-28.64,2.6s-18.41-3.56-27-7.79C334.19,599.25,324.57,589,314.79,579c-5.9-6.07-11.42-12.51-17.3-18.6a50,50,0,0,0-21.36-13.23c-6.4-2-13.13-3.41-20-2.19a58.41,58.41,0,0,0-33.28,18.39c-9.37,10-18.79,20.07-28.52,29.79-5.79,5.78-12.89,9.87-20.26,13.53-12.52,6.22-25.84,7.79-39.5,6.77a73.53,73.53,0,0,1-27-7.8C94.63,599.28,85,589.05,75.23,579c-6.66-6.85-12.9-14.13-19.73-20.81a45.15,45.15,0,0,0-18.63-10.93,55,55,0,0,0-15.49-2.38c-7.72,0-12.2-5.22-13.81-10.66-1.92-6.5,1.24-14.12,6.69-17.2a8.29,8.29,0,0,1,4.21-1.35c6.74.3,13.7,0,20.16,1.55a80.29,80.29,0,0,1,27.1,12.68c9.64,6.78,17.08,15.81,25.38,24,5.17,5.09,9.68,10.86,14.83,16,6.73,6.69,14.67,12,23.93,14,5.76,1.28,11.73,2.31,18,1,5.6-1.16,11-2.33,16.09-5,7.37-3.82,13.43-9.17,19.08-15.14,9.37-9.91,18.52-20.07,28.38-29.47,6-5.75,13.35-9.92,21.18-13.2,12.78-5.34,26.1-6.24,39.54-5,5.91.53,11.84,2.59,17.4,4.84a69.65,69.65,0,0,1,16.16,8.76,196.14,196.14,0,0,1,19,17.22c7.45,7.47,14.26,15.59,21.8,23,6.47,6.33,14.22,11.25,23.11,13.09,5.77,1.2,11.73,2.18,18,.94,5.84-1.15,11.43-2.45,16.6-5.33a74.88,74.88,0,0,0,22.5-19.72A111.72,111.72,0,0,1,438.08,548c6.43-6.09,12.75-12.35,19.69-17.83,8-6.28,17.33-9.61,27.3-11.91,7.88-1.82,15.67-1.7,23.43-1.21,6.31.41,12.53,2.53,18.73,4.11a46,46,0,0,1,17.7,9.05c6.77,5.53,13.22,11.51,19.43,17.67s11.78,12.69,17.72,19c7.35,7.83,15.92,14.13,26.37,16.74,5.73,1.43,11.8,3,18,1.15,3.1-.94,6.41-1.16,9.55-2,8.21-2.21,15-7,20.89-12.83,10.09-10,19.65-20.6,29.6-30.79a74,74,0,0,1,56.35-22.48c6.49.27,12.43,6.51,12.91,13,.54,7.37-2.37,12.53-8.88,15.73a8.27,8.27,0,0,1-3.71.88,48.93,48.93,0,0,0-27.57,7.39c-7.6,4.64-13.93,10.85-19.7,17.65-9.37,11-19.23,21.52-31.37,29.63a74.66,74.66,0,0,1-22.21,9.87A83.84,83.84,0,0,1,621.68,613.92Z" transform="translate(0 -1.28)"/><path d="M525.59,368a21.53,21.53,0,0,1-15.32-6.25L402.41,253.89a21.57,21.57,0,0,1,30.42-30.42L540.69,331.33A21.59,21.59,0,0,1,525.59,368Zm21.57-107.86a21.53,21.53,0,0,1-15.32-6.25L445.56,167.6A21.57,21.57,0,0,1,476,137.19l86.29,86.28a21.59,21.59,0,0,1-15.1,36.67Zm0-129.43a21.53,21.53,0,0,1-15.32-6.25L445.56,38.17A21.57,21.57,0,0,1,476,7.76L562.26,94a21.59,21.59,0,0,1-15.1,36.67ZM417.73,389.57a21.53,21.53,0,0,1-15.32-6.25L316.13,297a21.57,21.57,0,0,1,30.41-30.41l86.29,86.28a21.59,21.59,0,0,1-15.1,36.67Zm-129.43,0A21.54,21.54,0,0,1,273,383.32L186.7,297a21.57,21.57,0,0,1,30.41-30.41L303.4,352.9a21.59,21.59,0,0,1-15.1,36.67Zm0-345.14a64.72,64.72,0,1,1-64.72,64.71A64.71,64.71,0,0,1,288.3,44.43Zm0-43.15A107.87,107.87,0,1,0,396.18,109.14,107.88,107.88,0,0,0,288.3,1.28Z" transform="translate(0 -1.28)"/></svg>