<?xml version="1.0" encoding="UTF-8"?><svg id="a" xmlns="http://www.w3.org/2000/svg" viewBox="0 0 783.96 851.19"><path d="M642.83,98.31c-5.93-.59-12-.59-17.76-1.91-8.25-1.88-16.07-5.27-23.25-9.85-13.61-8.69-24.12-20.68-34.65-32.68-6.51-7.42-13.49-14.52-22.43-19.04-3.83-1.94-8.15-3.01-12.35-4.06-3.52-.88-7.21-1.69-10.8-1.58-10.15,.29-19.46,3.48-27.68,9.52-7.68,5.64-13.76,12.86-20.21,19.81-8.38,9.03-17.31,17.68-26.85,25.45-6.56,5.35-14.63,8.64-22.95,11.18-9.45,2.89-19.03,3.25-28.64,2.6-9.47-.64-18.4-3.56-27.01-7.79-12.93-6.36-22.55-16.58-32.33-26.64-5.9-6.07-11.42-12.51-17.3-18.59-5.98-6.19-13.21-10.73-21.36-13.23-6.4-1.96-13.13-3.42-19.98-2.2-13.17,2.35-24.16,8.6-33.28,18.39-9.37,10.05-18.79,20.08-28.52,29.79-5.8,5.79-12.9,9.88-20.26,13.53-12.53,6.22-25.84,7.79-39.5,6.78-9.47-.7-18.4-3.59-27.01-7.81-12.94-6.34-22.55-16.57-32.34-26.63-6.67-6.85-12.9-14.14-19.73-20.81-5.23-5.11-11.64-8.84-18.64-10.93-4.97-1.48-10.31-2.39-15.48-2.38-7.72,.02-12.2-5.22-13.81-10.66-1.92-6.5,1.23-14.12,6.68-17.2C36.67,.64,38.23-.06,39.62,0c6.74,.3,13.7-.03,20.16,1.56,9.75,2.39,18.77,6.85,27.1,12.72,9.64,6.79,17.08,15.81,25.37,23.95,5.18,5.09,9.68,10.85,14.83,15.97,6.73,6.69,14.67,11.94,23.93,14,5.76,1.28,11.73,2.31,18.02,1.02,5.6-1.15,10.98-2.33,16.09-4.97,7.37-3.82,13.43-9.17,19.08-15.14,9.38-9.91,18.52-20.07,28.38-29.48,6.02-5.74,13.35-9.91,21.18-13.19,12.78-5.35,26.1-6.25,39.54-5.04,5.91,.53,11.84,2.59,17.4,4.84,5.66,2.3,11.35,5.07,16.17,8.76,6.77,5.18,12.97,11.18,19.01,17.22,7.46,7.46,14.26,15.59,21.8,22.96,6.47,6.33,14.22,11.24,23.11,13.09,5.78,1.2,11.74,2.18,18.03,.94,5.84-1.15,11.42-2.45,16.59-5.33,8.9-4.96,16.22-11.68,22.51-19.71,3.36-4.29,7.39-8.09,11.37-11.86,6.43-6.09,12.75-12.36,19.69-17.83,7.96-6.28,17.33-9.61,27.3-11.92,7.88-1.82,15.67-1.7,23.43-1.21,6.31,.4,12.53,2.53,18.73,4.11,6.57,1.67,12.48,4.96,17.64,9.17,6.77,5.53,13.22,11.5,19.43,17.66,6.14,6.09,11.78,12.7,17.71,19.01,7.36,7.83,15.92,14.12,26.37,16.73,5.73,1.43,11.8,3.01,17.97,1.15,3.1-.94,6.41-1.16,9.55-2,8.21-2.2,15.02-6.99,20.9-12.83,10.09-10.03,19.65-20.6,29.59-30.79,7.73-7.92,16.7-13.9,27.21-17.83,9.5-3.55,19.13-5.05,29.17-4.63,6.49,.27,12.43,6.51,12.91,13.04,.54,7.37-2.37,12.53-8.88,15.73-1.12,.55-2.48,.91-3.71,.87-9.95-.32-19.19,2.25-27.57,7.37-7.6,4.64-13.93,10.86-19.7,17.65-9.36,11.02-19.23,21.52-31.37,29.63-6.86,4.58-14.24,7.7-22.21,9.86-6.81,1.84-13.57,2.92-20.63,3.05Z"/><path d="M649.83,185.44c-5.93-.59-12-.59-17.76-1.91-8.25-1.88-16.07-5.27-23.25-9.85-13.61-8.69-24.12-20.68-34.65-32.68-6.51-7.42-13.49-14.52-22.43-19.04-3.83-1.94-8.15-3.01-12.35-4.06-3.52-.88-7.21-1.69-10.8-1.58-10.15,.29-19.46,3.48-27.68,9.52-7.68,5.64-13.76,12.86-20.21,19.81-8.38,9.03-17.31,17.68-26.85,25.45-6.56,5.35-14.63,8.64-22.95,11.18-9.45,2.89-19.03,3.25-28.64,2.6-9.47-.64-18.4-3.56-27.01-7.79-12.93-6.36-22.55-16.58-32.33-26.64-5.9-6.07-11.42-12.51-17.3-18.59-5.98-6.19-13.21-10.73-21.36-13.23-6.4-1.96-13.13-3.42-19.98-2.2-13.17,2.35-24.16,8.6-33.28,18.39-9.37,10.05-18.79,20.08-28.52,29.79-5.8,5.79-12.9,9.88-20.26,13.53-12.53,6.22-25.84,7.79-39.5,6.78-9.47-.7-18.4-3.59-27.01-7.81-12.94-6.34-22.55-16.57-32.34-26.63-6.67-6.85-12.9-14.14-19.73-20.81-5.23-5.11-11.64-8.84-18.64-10.93-4.97-1.48-10.31-2.39-15.48-2.38-7.72,.02-12.2-5.22-13.81-10.66-1.92-6.5,1.23-14.12,6.68-17.2,1.27-.72,2.82-1.41,4.21-1.35,6.74,.3,13.7-.03,20.16,1.56,9.75,2.39,18.77,6.85,27.1,12.72,9.64,6.79,17.08,15.81,25.37,23.95,5.18,5.09,9.68,10.85,14.83,15.97,6.73,6.69,14.67,11.94,23.93,14,5.76,1.28,11.73,2.31,18.02,1.02,5.6-1.15,10.98-2.33,16.09-4.97,7.37-3.82,13.43-9.17,19.08-15.14,9.38-9.91,18.52-20.07,28.38-29.48,6.02-5.74,13.35-9.91,21.18-13.19,12.78-5.35,26.1-6.25,39.54-5.04,5.91,.53,11.84,2.59,17.4,4.84,5.66,2.3,11.35,5.07,16.17,8.76,6.77,5.18,12.97,11.18,19.01,17.22,7.46,7.46,14.26,15.59,21.8,22.96,6.47,6.33,14.22,11.24,23.11,13.09,5.78,1.2,11.74,2.18,18.03,.94,5.84-1.15,11.42-2.45,16.59-5.33,8.9-4.96,16.22-11.68,22.51-19.71,3.36-4.29,7.39-8.09,11.37-11.86,6.43-6.09,12.75-12.36,19.69-17.83,7.96-6.28,17.33-9.61,27.3-11.92,7.88-1.82,15.67-1.7,23.43-1.21,6.31,.4,12.53,2.53,18.73,4.11,6.57,1.67,12.48,4.96,17.64,9.17,6.77,5.53,13.22,11.5,19.43,17.66,6.14,6.09,11.78,12.7,17.71,19.01,7.36,7.83,15.92,14.12,26.37,16.73,5.73,1.43,11.8,3.01,17.97,1.15,3.1-.94,6.41-1.16,9.55-2,8.21-2.2,15.02-6.99,20.9-12.83,10.09-10.03,19.65-20.6,29.59-30.79,7.73-7.92,16.7-13.9,27.21-17.83,9.5-3.55,19.13-5.05,29.17-4.63,6.49,.27,12.43,6.51,12.91,13.04,.54,7.37-2.37,12.53-8.88,15.73-1.12,.55-2.48,.91-3.71,.87-9.95-.32-19.19,2.25-27.57,7.37-7.6,4.64-13.93,10.86-19.7,17.65-9.36,11.02-19.23,21.52-31.37,29.63-6.86,4.58-14.24,7.7-22.21,9.86-6.81,1.84-13.57,2.92-20.63,3.05Z"/><g><path d="M163.93,535.4c-2.9-2.9-4.35-6.65-4.35-11.25v-203.1c0-4.6,1.45-8.35,4.35-11.25,2.9-2.9,6.55-4.35,10.95-4.35,2.2,0,4.4,.55,6.6,1.65,2.2,1.1,4,2.45,5.4,4.05l130.8,174v-164.1c0-4.6,1.5-8.35,4.5-11.25,3-2.9,6.7-4.35,11.1-4.35s8.05,1.45,10.95,4.35c2.9,2.9,4.35,6.65,4.35,11.25v203.1c0,4.6-1.45,8.35-4.35,11.25-2.9,2.9-6.55,4.35-10.95,4.35-2.2,0-4.45-.45-6.75-1.35-2.3-.9-4.05-2.25-5.25-4.05l-130.8-174v163.8c0,4.4-1.45,8.1-4.35,11.1-2.9,3-6.65,4.5-11.25,4.5s-8.05-1.45-10.95-4.35Z"/><path d="M447.43,527.45c-18.1-10.2-32.15-24.45-42.15-42.75-10-18.3-15-39.05-15-62.25s5-43.9,15-62.1c10-18.2,24.05-32.4,42.15-42.6,18.1-10.2,38.75-15.3,61.95-15.3s43.55,5.1,61.65,15.3c18.1,10.2,32.2,24.4,42.3,42.6,10.1,18.2,15.15,38.9,15.15,62.1s-5.05,43.95-15.15,62.25c-10.1,18.3-24.15,32.55-42.15,42.75-18,10.2-38.6,15.3-61.8,15.3s-43.85-5.1-61.95-15.3Zm107.85-25.05c13.6-8.1,24.2-19.15,31.8-33.15,7.6-14,11.4-29.6,11.4-46.8s-3.8-32.8-11.4-46.8c-7.6-14-18.15-25-31.65-33-13.5-8-28.85-12-46.05-12s-32.55,4-46.05,12c-13.5,8-24.05,19-31.65,33-7.6,14-11.4,29.6-11.4,46.8s3.8,32.8,11.4,46.8c7.6,14,18.2,25.05,31.8,33.15,13.6,8.1,28.9,12.15,45.9,12.15s32.3-4.05,45.9-12.15Z"/></g><path d="M654.69,642.15c-7.02-3.78-12.51-8.94-16.47-15.48-3.96-6.54-5.94-13.89-5.94-22.05,0-2.64,.78-4.86,2.34-6.66,1.56-1.8,3.54-2.7,5.94-2.7s4.38,.9,5.94,2.7c1.56,1.8,2.34,4.02,2.34,6.66,0,4.92,1.26,9.45,3.78,13.59,2.52,4.14,5.97,7.44,10.35,9.9,4.38,2.46,9.21,3.69,14.49,3.69,8.04,0,14.46-2.22,19.26-6.66,4.8-4.44,7.2-10.56,7.2-18.36,0-4.92-1.08-9.45-3.24-13.59-2.16-4.14-5.13-7.38-8.91-9.72-3.78-2.34-7.95-3.51-12.51-3.51-2.64,0-4.83-.9-6.57-2.7-1.74-1.8-2.61-4.02-2.61-6.66s.87-4.83,2.61-6.57,3.93-2.61,6.57-2.61c3.36,0,6.63-.87,9.81-2.61,3.18-1.74,5.76-4.11,7.74-7.11,1.98-3,2.97-6.3,2.97-9.9,0-5.28-1.92-9.72-5.76-13.32-3.84-3.6-8.76-5.4-14.76-5.4-4.56,0-8.73,.9-12.51,2.7-3.78,1.8-6.78,4.2-9,7.2-2.22,3-3.33,6.36-3.33,10.08,0,2.76-.78,5.07-2.34,6.93-1.56,1.86-3.54,2.79-5.94,2.79s-4.38-.87-5.94-2.61c-1.56-1.74-2.34-3.93-2.34-6.57,0-6.84,1.8-13.05,5.4-18.63,3.6-5.58,8.52-9.96,14.76-13.14,6.24-3.18,13.2-4.77,20.88-4.77,6.96,0,13.32,1.53,19.08,4.59,5.76,3.06,10.29,7.23,13.59,12.51,3.3,5.28,4.95,11.16,4.95,17.64s-2.04,12.09-6.12,16.83c-4.08,4.74-9.18,8.49-15.3,11.25,9.12,3.12,15.9,7.89,20.34,14.31,4.44,6.42,6.66,14.01,6.66,22.77,0,7.68-1.98,14.64-5.94,20.88-3.96,6.24-9.27,11.13-15.93,14.67-6.66,3.54-13.89,5.31-21.69,5.31-8.88,0-16.83-1.89-23.85-5.67Z"/><path d="M650.4,300.26c-1.74-1.68-2.61-3.84-2.61-6.48s.87-4.83,2.61-6.57c1.74-1.74,3.93-2.61,6.57-2.61h40.14c2.64,0,4.8,.87,6.48,2.61,1.68,1.74,2.52,3.93,2.52,6.57s-.84,4.8-2.52,6.48c-1.68,1.68-3.84,2.52-6.48,2.52h-40.14c-2.64,0-4.83-.84-6.57-2.52Z"/></svg>