<?xml version="1.0" encoding="utf-8"?>
<!-- Generator: Adobe Illustrator 22.0.1, SVG Export Plug-In . SVG Version: 6.00 Build 0)  -->
<svg version="1.1" id="Calque_1" xmlns="http://www.w3.org/2000/svg" xmlns:xlink="http://www.w3.org/1999/xlink" x="0px" y="0px"
	 viewBox="0 0 777 768" style="enable-background:new 0 0 777 768;" xml:space="preserve">
<style type="text/css">
	.st0{fill:none;}
	.st1{display:none;enable-background:new    ;}
	.st2{font-family:'Comfortaa-Bold';}
	.st3{font-size:400px;}
	.st4{letter-spacing:-20;}
	.st5{display:none;}
	.st6{font-size:300px;}
	.st7{letter-spacing:-21;}
</style>
<g>
	<path d="M621.7,137.1c-5.9-0.6-12-0.6-17.8-1.9c-8.3-1.9-16.1-5.3-23.2-9.9c-13.6-8.7-24.1-20.7-34.6-32.7
		c-6.5-7.4-13.5-14.5-22.4-19c-3.8-1.9-8.1-3-12.3-4.1c-3.5-0.9-7.2-1.7-10.8-1.6c-10.1,0.3-19.5,3.5-27.7,9.5
		c-7.7,5.6-13.8,12.9-20.2,19.8c-8.4,9-17.3,17.7-26.9,25.5c-6.6,5.4-14.6,8.6-22.9,11.2c-9.5,2.9-19,3.3-28.6,2.6
		c-9.5-0.6-18.4-3.6-27-7.8c-12.9-6.4-22.6-16.6-32.3-26.6c-5.9-6.1-11.4-12.5-17.3-18.6c-6-6.2-13.2-10.7-21.4-13.2
		c-6.4-2-13.1-3.4-20-2.2c-13.2,2.3-24.2,8.6-33.3,18.4c-9.4,10.1-18.8,20.1-28.5,29.8c-5.8,5.8-12.9,9.9-20.3,13.5
		c-12.5,6.2-25.8,7.8-39.5,6.8c-9.5-0.7-18.4-3.6-27-7.8c-12.9-6.3-22.6-16.6-32.3-26.6c-6.8-6.9-13-14.2-19.8-20.9
		C50.4,76.2,44,72.5,37,70.4C32,68.9,26.6,68,21.5,68c-7.7,0-12.2-5.2-13.8-10.7c-1.9-6.5,1.2-14.1,6.7-17.2
		c1.3-0.7,2.8-1.4,4.2-1.4c6.7,0.3,13.7,0,20.2,1.6c9.7,2.4,18.8,6.9,27.1,12.7c9.6,6.8,17.1,15.8,25.4,24c5.2,5.1,9.7,10.9,14.8,16
		c6.7,6.7,14.7,11.9,23.9,14c5.8,1.3,11.7,2.3,18,1c5.6-1.2,11-2.3,16.1-5c7.4-3.8,13.4-9.2,19.1-15.1c9.4-9.9,18.5-20.1,28.4-29.5
		c6-5.7,13.3-9.9,21.2-13.2c12.8-5.3,26.1-6.2,39.5-5c5.9,0.5,11.8,2.6,17.4,4.8c5.7,2.3,11.3,5.1,16.2,8.8c6.8,5.2,13,11.2,19,17.2
		c7.5,7.5,14.3,15.6,21.8,23c6.5,6.3,14.2,11.2,23.1,13.1c5.8,1.2,11.7,2.2,18,0.9c5.8-1.2,11.4-2.5,16.6-5.3
		c8.9-5,16.2-11.7,22.5-19.7c3.4-4.3,7.4-8.1,11.4-11.9c6.4-6.1,12.8-12.4,19.7-17.8c8-6.3,17.3-9.6,27.3-11.9
		c7.9-1.8,15.7-1.7,23.4-1.2c6.3,0.4,12.5,2.5,18.7,4.1c6.6,1.7,12.5,5,17.6,9.2c6.8,5.5,13.2,11.5,19.4,17.7
		c6.1,6.1,11.8,12.7,17.7,19c7.4,7.8,15.9,14.1,26.4,16.7c5.7,1.4,11.8,3,18,1.1c3.1-0.9,6.4-1.2,9.6-2c8.2-2.2,15-7,20.9-12.8
		c10.1-10,19.7-20.6,29.6-30.8c7.7-7.9,16.7-13.9,27.2-17.8c9.5-3.5,19.1-5.1,29.2-4.6c6.5,0.3,12.4,6.5,12.9,13
		c0.5,7.4-2.4,12.5-8.9,15.7c-1.1,0.6-2.5,0.9-3.7,0.9c-9.9-0.3-19.2,2.3-27.6,7.4c-7.6,4.6-13.9,10.9-19.7,17.7
		c-9.4,11-19.2,21.5-31.4,29.6c-6.9,4.6-14.2,7.7-22.2,9.9C635.6,135.9,628.8,137,621.7,137.1z"/>
</g>
<rect x="159.9" y="344.5" class="st0" width="662.1" height="545.7"/>
<text transform="matrix(1 0 0 1 159.9148 656.8847)" class="st1 st2 st3 st4">Cl</text>
<rect x="547.5" y="104.3" class="st0" width="262.8" height="480.3"/>
<text transform="matrix(1 0 0 1 547.4779 416.7158)" class="st1 st2 st3">-</text>
<path class="st5" d="M94.8,216.7c0-16.1-13.1-29.4-29.4-29.4c-16.1,0-29.4,13.1-29.4,29.4l0,0c0,16.1,13.1,29.4,29.4,29.4
	C81.6,246.1,94.8,233.1,94.8,216.7L94.8,216.7z"/>
<path class="st5" d="M135,720.9c0-16.1-13.1-29.4-29.4-29.4c-16.1,0-29.4,13.1-29.4,29.4l0,0c0,16.1,13.1,29.4,29.4,29.4
	C121.7,750.3,135,737.3,135,720.9L135,720.9z"/>
<path class="st5" d="M719.7,556.6c0-16.1-13.1-29.4-29.4-29.4c-16.1,0-29.4,13.1-29.4,29.4l0,0c0,16.1,13.1,29.4,29.4,29.4
	C706.4,585.9,719.7,572.9,719.7,556.6L719.7,556.6z"/>
<g>
	<path d="M628.7,224.2c-5.9-0.6-12-0.6-17.8-1.9c-8.3-1.9-16.1-5.3-23.2-9.9c-13.6-8.7-24.1-20.7-34.6-32.7
		c-6.5-7.4-13.5-14.5-22.4-19c-3.8-1.9-8.1-3-12.3-4.1c-3.5-0.9-7.2-1.7-10.8-1.6c-10.1,0.3-19.5,3.5-27.7,9.5
		c-7.7,5.6-13.8,12.9-20.2,19.8c-8.4,9-17.3,17.7-26.9,25.5c-6.6,5.4-14.6,8.6-22.9,11.2c-9.5,2.9-19,3.3-28.6,2.6
		c-9.5-0.6-18.4-3.6-27-7.8c-12.9-6.4-22.6-16.6-32.3-26.6c-5.9-6.1-11.4-12.5-17.3-18.6c-6-6.2-13.2-10.7-21.4-13.2
		c-6.4-2-13.1-3.4-20-2.2c-13.2,2.3-24.2,8.6-33.3,18.4c-9.4,10.1-18.8,20.1-28.5,29.8c-5.8,5.8-12.9,9.9-20.3,13.5
		c-12.5,6.2-25.8,7.8-39.5,6.8c-9.5-0.7-18.4-3.6-27-7.8c-12.9-6.3-22.6-16.6-32.3-26.6c-6.7-6.9-12.9-14.1-19.7-20.8
		c-5.2-5.1-11.6-8.8-18.6-10.9c-5-1.5-10.3-2.4-15.5-2.4c-7.7,0-12.2-5.2-13.8-10.7c-1.9-6.5,1.2-14.1,6.7-17.2
		c1.3-0.7,2.8-1.4,4.2-1.4c6.7,0.3,13.7,0,20.2,1.6c9.7,2.4,18.8,6.9,27.1,12.7c9.6,6.8,17.1,15.8,25.4,24c5.2,5.1,9.7,10.9,14.8,16
		c6.7,6.7,14.7,11.9,23.9,14c5.8,1.3,11.7,2.3,18,1c5.6-1.2,11-2.3,16.1-5c7.4-3.8,13.4-9.2,19.1-15.1c9.4-9.9,18.5-20.1,28.4-29.5
		c6-5.7,13.3-9.9,21.2-13.2c12.8-5.3,26.1-6.2,39.5-5c5.9,0.5,11.8,2.6,17.4,4.8c5.7,2.3,11.3,5.1,16.2,8.8c6.8,5.2,13,11.2,19,17.2
		c7.5,7.5,14.3,15.6,21.8,23c6.5,6.3,14.2,11.2,23.1,13.1c5.8,1.2,11.7,2.2,18,0.9c5.8-1.2,11.4-2.5,16.6-5.3
		c8.9-5,16.2-11.7,22.5-19.7c3.4-4.3,7.4-8.1,11.4-11.9c6.4-6.1,12.8-12.4,19.7-17.8c8-6.3,17.3-9.6,27.3-11.9
		c7.9-1.8,15.7-1.7,23.4-1.2c6.3,0.4,12.5,2.5,18.7,4.1c6.6,1.7,12.5,5,17.6,9.2c6.8,5.5,13.2,11.5,19.4,17.7
		c6.1,6.1,11.8,12.7,17.7,19c7.4,7.8,15.9,14.1,26.4,16.7c5.7,1.4,11.8,3,18,1.1c3.1-0.9,6.4-1.2,9.6-2c8.2-2.2,15-7,20.9-12.8
		c10.1-10,19.7-20.6,29.6-30.8c7.7-7.9,16.7-13.9,27.2-17.8c9.5-3.5,19.1-5.1,29.2-4.6c6.5,0.3,12.4,6.5,12.9,13
		c0.5,7.4-2.4,12.5-8.9,15.7c-1.1,0.6-2.5,0.9-3.7,0.9c-9.9-0.3-19.2,2.3-27.6,7.4c-7.6,4.6-13.9,10.9-19.7,17.7
		c-9.4,11-19.2,21.5-31.4,29.6c-6.9,4.6-14.2,7.7-22.2,9.9C642.6,223,635.8,224.1,628.7,224.2z"/>
</g>
<rect x="10.1" y="337.2" class="st0" width="1363.3" height="545.7"/>
<text transform="matrix(1 0 0 1 10.0775 571.5217)" class="st1 st2 st6 st7">Chl-a</text>
<rect x="14.1" y="356.2" class="st0" width="842.5" height="310.9"/>
<text transform="matrix(1 0 0 1 14.0775 590.5041)" class="st1 st2 st6 st7">Chl-a</text>
<rect x="125" y="334.5" class="st0" width="512.9" height="545.7"/>
<text transform="matrix(1 0 0 1 125.0232 646.8634)" class="st1 st2 st3 st4">PE</text>
<rect x="125" y="334.5" class="st0" width="563.3" height="545.7"/>
<text transform="matrix(1 0 0 1 125.0232 646.8634)" class="st1 st2 st3 st4">PC</text>
<g>
	<path d="M18.8,604c-3.1-3.1-4.6-6.8-4.6-11.3V385.2c0-4.7,1.5-8.5,4.6-11.6c3.1-2.9,6.8-4.5,11.3-4.5c4.7,0,8.5,1.5,11.6,4.5
		c2.9,2.9,4.5,6.8,4.5,11.6v207.5c0,4.5-1.5,8.3-4.5,11.3c-2.9,3.1-6.8,4.6-11.6,4.6C25.7,608.6,21.9,607.1,18.8,604z"/>
	<path d="M121.7,598.2c-16.3-9-27.5-20.7-33.6-35.2c-1.1-2.5-1.5-4.5-1.5-6.1c0-3.1,1.2-5.8,3.4-8.1c2.2-2.4,5.3-3.9,9.2-4.7
		c0.6-0.2,1.7-0.4,3.1-0.4c3.3,0,6.4,0.9,9.3,2.9c2.9,1.9,5.2,4.6,6.6,7.8c3.7,8,11,14.7,21.8,20.3s22.7,8.3,35.8,8.3
		c15.3,0,28.3-3.5,38.9-10.6s15.9-16.7,15.9-29c0-11.7-4.5-21.6-13.4-29.8c-9-8.3-22.6-13.3-41-15.2c-25.3-2.5-45.3-9.9-59.8-22.3
		c-14.5-12.4-21.8-27.8-21.8-46.4c0-13.1,3.8-24.4,11.2-33.8c7.4-9.5,17.7-16.7,30.6-21.8c13-5,27.6-7.5,43.7-7.5
		c17.6,0,32.4,3.5,44.4,10.7s22.3,17.3,30.6,30.6c2.5,3.9,3.7,7.5,3.7,11.1c0,4.5-2,8.1-6.1,11.1c-2.2,1.4-5,2.1-8,2.1
		c-3.1,0-5.9-0.8-8.6-2.4c-2.7-1.5-4.7-3.7-6.1-6.2c-5.5-9.2-12.4-16.1-20.6-21c-8.3-4.8-18.7-7.2-31.5-7.2
		c-15.6,0-28.1,3.1-37.7,9.1c-9.5,6-14.4,14.7-14.4,26.2c0,10.6,4.2,19.6,12.8,26.6c8.6,7.2,23.9,11.9,46,14.1
		c24.5,2.5,43.5,9.9,57,22.2c13.4,12.4,20.3,28.6,20.3,48.9c0,14.7-4,27.3-11.9,37.8c-8,10.5-18.5,18.4-31.7,23.6
		c-13.2,5.2-27.3,7.8-42.4,7.8C155.9,611.7,137.9,607.2,121.7,598.2z"/>
	<path d="M307.5,604c-3.1-3.1-4.6-6.8-4.6-11.3V385.2c0-4.7,1.5-8.5,4.6-11.6c3.1-2.9,6.8-4.5,11.3-4.5h138.5
		c4.7,0,8.5,1.4,11.3,4.1s4.2,6.4,4.2,10.8c0,4.2-1.4,7.8-4.2,10.4c-2.8,2.7-6.6,4-11.3,4H334.7v74.5h87.9c4.5,0,8.3,1.4,11.2,4.1
		c2.9,2.7,4.5,6.2,4.5,10.6c0,4.2-1.5,7.8-4.5,10.6c-2.9,2.7-6.7,4.1-11.2,4.1h-87.9v76.6h122.6c4.7,0,8.5,1.3,11.3,4
		c2.8,2.7,4.2,6.1,4.2,10.4c0,4.5-1.4,8.1-4.2,10.8s-6.6,4.1-11.3,4.1H318.9C314.3,608.6,310.6,607.1,307.5,604z"/>
	<path d="M494.7,536c-2.9-2.8-4.5-6.5-4.5-11.1c0-4.5,1.5-8.3,4.5-11.2c2.9-2.9,6.7-4.5,11.2-4.5h68.4c4.5,0,8.1,1.5,11.1,4.5
		c2.8,2.9,4.2,6.7,4.2,11.2c0,4.5-1.4,8.1-4.2,11.1c-2.8,2.8-6.5,4.2-11.1,4.2h-68.4C501.3,540.2,497.6,538.8,494.7,536z"/>
	<path d="M649.4,598.4c-11.9-6.8-21.3-16.1-28.1-28.1s-10.1-25.1-10.1-39.8c0-4.5,1.4-8.3,4.2-11.2c2.8-2.9,6.5-4.5,11.1-4.5
		c4.5,0,8.3,1.5,11.3,4.5c3.1,2.9,4.6,6.7,4.6,11.2c0,8.8,2,16.7,6.1,23.9c4.1,7.2,9.7,12.7,16.7,16.9c7.1,4.1,15,6.1,23.8,6.1
		s16.7-2,23.9-6.1c7.2-4.1,12.7-9.7,16.9-16.9c4.1-7.2,6.1-15.1,6.1-23.9s-2-16.7-6.1-23.9c-4.1-7.2-9.7-12.7-16.9-16.9
		c-7.2-4.1-15.1-6.1-23.9-6.1h-51.3c-4.5,0-8.1-1.5-11.1-4.5c-2.8-2.9-4.2-6.7-4.2-11.2v-82.7c0-4.5,1.4-8.3,4.2-11.3
		c2.8-3.1,6.5-4.6,11.1-4.6h102.3c4.2,0,8,1.5,11.1,4.7c3.1,3.2,4.6,6.8,4.6,11.2c0,4.1-1.5,7.7-4.5,10.7s-6.7,4.6-11.2,4.6h-86.8
		v51.7H689c14.5,0,27.7,3.4,39.7,10.3c11.9,6.8,21.3,16.3,28.2,28.2c6.8,11.9,10.3,25.2,10.3,39.7c0,14.5-3.4,27.7-10.3,39.7
		c-6.8,11.9-16.3,21.3-28.2,28.2c-11.9,6.8-25.2,10.3-39.7,10.3C674.5,608.6,661.3,605.2,649.4,598.4z"/>
</g>
</svg>
