<?xml version="1.0" encoding="utf-8"?>
<!-- Generator: Adobe Illustrator 22.0.1, SVG Export Plug-In . SVG Version: 6.00 Build 0)  -->
<svg version="1.1" id="Calque_1" xmlns="http://www.w3.org/2000/svg" xmlns:xlink="http://www.w3.org/1999/xlink" x="0px" y="0px"
	 viewBox="0 0 471.2 451.9" style="enable-background:new 0 0 471.2 451.9;" xml:space="preserve">
<g>
	<path d="M263.4-0.1c-0.7,11.8-2,23.4-2.1,35c-0.2,22.8,7.1,43.8,17.4,63.8c10.7,20.7,25,38.9,39,57.3c15,19.7,30.5,39.1,42.2,61.1
		c12.7,23.8,19.3,49.1,15.6,76c-5.3,38.6-20.4,72.7-53.2,95.9c-42.9,30.3-88.4,30.5-134.4,7.1c-11-5.6-21.3-13.1-30.7-21.2
		c-11.5-10.1-18.6-23.8-25.1-37.5c-17-36.1-19.8-73.9-12.7-112.7c8.3-45.3,28.1-85.7,53.4-123.7c24.5-36.8,54-69.2,87.2-98.4
		C261.2,1.6,262.4,0.7,263.4-0.1z M252.8,363.6c-2.3-5.4-4.2-9.5-5.7-13.7c-5.8-17-3.4-27.8,7.8-38.2c6.7-6.2,14.3-11.3,21.1-17.5
		c7.8-7.1,16.1-13.9,20.3-24.2c7.7-18.7,4.8-36.9-3.2-54.5c-8.7-19.2-25-31.1-42.7-41.3c-4.9-2.8-10.2-5.1-15.3-7.7
		c-0.4,1.1-0.7,1.5-0.6,1.7c0.7,1.5,1.5,3,2.1,4.5c5.1,12,9.4,24.6,1.3,36.6c-4.5,6.7-11.5,11.7-17.5,17.4
		c-8.3,7.9-18.2,14.6-24.7,23.8c-14.5,20.3-12.1,42.8-2.1,64C205.3,339.3,228,351.8,252.8,363.6z"/>
	<path d="M39,400.1c5.6-2.7,31.8-11.7,39.9-12.4c15.4-1.3,30.9-2.1,46.4-2.9c1.6-0.1,3.8,1,4.9,2.3c9.3,10.9,20.6,19.2,32.4,27.1
		c22.2,14.8,47.4,21.9,73.3,25.5c14.5,2,29.6,1.8,44.1-2.6c11.4-3.5,23.1-6.2,34.1-10.6c16.4-6.6,30.4-17,42.5-29.9
		c3.6-3.9,7.2-7.9,10.9-11.7c0.9-0.9,2.5-1.8,3.8-1.7c27.5,2.6,55,5.2,82.5,8.3c5,0.6,9.7,3.3,14.4,5.3c1.3,0.6,2.2,2.3,3.2,3.5
		c-1.4,1.1-2.6,2.7-4.1,3.1c-13.5,3.1-27,5.8-40.5,8.9c-7,1.6-14,3.7-20.9,5.6c-0.1,0.6-0.2,1.2-0.3,1.8c1.8,1.7,3.6,3.6,5.5,5.2
		c3,2.5,2.4,5-0.9,5.8c-5.7,1.5-11.7,2.8-17.6,3.2c-16.6,1.1-33.3,1.1-49.9,2.6c-8.9,0.8-18,2.2-26.2,5.5
		c-22.5,8.9-45.7,10.2-69.3,7.8c-29-2.9-58-5.7-87.2-3.6c-17.1,1.2-34.3-0.1-51-4.9c-1.4-0.4-3-0.6-4.3-1.3
		c-18.1-10.1-38.2-9.3-57.9-10.7c-10.1-0.7-20.6-0.4-30.4-1.2c-5.3-0.5-15.1-0.1-15.1-7.3C1.1,406.3,36,401.3,39,400.1"/>
</g>
</svg>
