<svg id="Calque_1" data-name="Calque 1" xmlns="http://www.w3.org/2000/svg" viewBox="0 0 755.81 593.69"><title>Depth3</title><path d="M614.67,98.32c-5.93-.59-12-.59-17.77-1.91a73.47,73.47,0,0,1-23.24-9.85C560.05,77.87,549.54,65.88,539,53.88c-6.51-7.42-13.49-14.52-22.43-19a58.34,58.34,0,0,0-12.34-4.07,41.13,41.13,0,0,0-10.8-1.59,48.27,48.27,0,0,0-27.68,9.52c-7.67,5.64-13.75,12.87-20.2,19.82A266.84,266.84,0,0,1,418.7,84c-6.57,5.35-14.64,8.64-22.95,11.18-9.45,2.89-19,3.25-28.64,2.6s-18.41-3.56-27-7.79c-12.93-6.36-22.55-16.58-32.33-26.64-5.86-6.14-11.43-12.54-17.31-18.63A49.82,49.82,0,0,0,269.11,31.5c-6.4-2-13.13-3.42-20-2.19a58.51,58.51,0,0,0-33.28,18.38C206.46,57.75,197,67.77,187.31,77.48c-5.79,5.79-12.89,9.88-20.25,13.53-12.53,6.22-25.85,7.79-39.51,6.78a73.35,73.35,0,0,1-27-7.81C87.61,83.64,78,73.41,68.21,63.35,61.56,56.5,55.32,49.22,48.49,42.54A44.81,44.81,0,0,0,29.86,31.61a54.24,54.24,0,0,0-15.49-2.39C6.65,29.22,2.17,24,.56,18.56-1.36,12.06,1.8,4.44,7.25,1.35A8.51,8.51,0,0,1,11.46,0c6.74.3,13.7,0,20.16,1.55a80,80,0,0,1,27.1,12.73c9.65,6.78,17.09,15.8,25.38,23.93,5.18,5.09,9.68,10.85,14.83,16,6.73,6.69,14.67,11.94,23.93,14,5.76,1.27,11.73,2.31,18,1,5.6-1.15,11-2.32,16.09-5C164.32,60.4,170.38,55,176,49.08c9.37-9.91,18.52-20.07,28.38-29.48,6-5.74,13.35-9.91,21.18-13.19,12.78-5.35,26.1-6.25,39.54-5C271,1.94,277,4,282.53,6.25A69.72,69.72,0,0,1,298.7,15a196.14,196.14,0,0,1,19,17.22c7.45,7.46,14.26,15.59,21.8,23,6.47,6.33,14.22,11.24,23.11,13.09,5.77,1.2,11.73,2.18,18,.94,5.84-1.15,11.43-2.45,16.6-5.34a74.85,74.85,0,0,0,22.5-19.71,113.75,113.75,0,0,1,11.37-11.86c6.48-6.13,12.84-12.41,19.74-17.88,8-6.28,17.33-9.61,27.3-11.91C486,.74,493.8.85,501.55,1.35c6.31.4,12.53,2.53,18.73,4.11a45.86,45.86,0,0,1,17.64,9.17c6.77,5.53,13.22,11.5,19.43,17.66s11.78,12.7,17.72,19C582.42,59.12,591,65.41,601.44,68c5.73,1.43,11.8,3,18,1.15,3.1-.94,6.41-1.16,9.55-2,8.21-2.2,15-7,20.89-12.82,10.09-10,19.65-20.6,29.6-30.79A74,74,0,0,1,735.86,1.11c6.49.27,12.43,6.5,12.91,13,.54,7.37-2.37,12.53-8.88,15.74a8.1,8.1,0,0,1-3.71.87,49,49,0,0,0-27.57,7.38C701,42.74,694.68,49,688.91,55.75c-9.37,11-19.23,21.52-31.37,29.63a74.52,74.52,0,0,1-22.21,9.86A83.94,83.94,0,0,1,614.67,98.32Z" transform="translate(0 -0.01)"/><path d="M621.67,185.45c-5.93-.59-12-.59-17.77-1.9a73.49,73.49,0,0,1-23.24-9.86C567.05,165,556.54,153,546,141c-6.51-7.42-13.49-14.52-22.43-19-3.82-1.94-8.14-3-12.34-4.06a40.66,40.66,0,0,0-10.8-1.59,48.21,48.21,0,0,0-27.68,9.53c-7.68,5.64-13.77,12.86-20.21,19.81a270.15,270.15,0,0,1-26.85,25.45c-6.57,5.35-14.64,8.64-22.95,11.18-9.45,2.89-19,3.25-28.64,2.6s-18.41-3.56-27-7.79c-12.93-6.36-22.55-16.57-32.33-26.64-5.9-6.07-11.42-12.51-17.3-18.6a50,50,0,0,0-21.36-13.23c-6.4-2-13.13-3.41-20-2.19a58.44,58.44,0,0,0-33.28,18.39c-9.37,10-18.79,20.07-28.52,29.79-5.79,5.78-12.89,9.87-20.26,13.53-12.52,6.22-25.84,7.79-39.5,6.77a73.58,73.58,0,0,1-27-7.8C94.62,170.81,85,160.58,75.22,150.52c-6.66-6.85-12.9-14.13-19.73-20.81a45.08,45.08,0,0,0-18.63-10.93,54.94,54.94,0,0,0-15.49-2.38c-7.72,0-12.2-5.22-13.81-10.66-1.92-6.5,1.24-14.12,6.69-17.2a8.32,8.32,0,0,1,4.21-1.35c6.74.3,13.7,0,20.16,1.55a80.2,80.2,0,0,1,27.1,12.68c9.64,6.78,17.08,15.81,25.38,24,5.17,5.09,9.68,10.86,14.83,16,6.73,6.69,14.67,12,23.93,14,5.76,1.28,11.73,2.31,18,1,5.6-1.16,11-2.33,16.09-5,7.37-3.82,13.43-9.17,19.08-15.14,9.37-9.91,18.52-20.07,28.38-29.47,6-5.75,13.35-9.92,21.18-13.2,12.78-5.34,26.1-6.24,39.54-5,5.91.53,11.84,2.59,17.4,4.84a69.65,69.65,0,0,1,16.16,8.76,196.14,196.14,0,0,1,19,17.22c7.45,7.47,14.26,15.59,21.8,23,6.47,6.33,14.22,11.25,23.11,13.09,5.77,1.2,11.73,2.18,18,.94,5.84-1.15,11.43-2.45,16.6-5.33a74.88,74.88,0,0,0,22.5-19.72,113.75,113.75,0,0,1,11.37-11.86c6.43-6.09,12.75-12.35,19.69-17.83,8-6.28,17.33-9.61,27.3-11.91,7.88-1.82,15.67-1.7,23.43-1.21,6.31.41,12.53,2.53,18.73,4.11a46.1,46.1,0,0,1,17.7,9c6.77,5.53,13.22,11.51,19.43,17.67s11.78,12.69,17.72,19c7.35,7.83,15.92,14.13,26.37,16.74,5.73,1.43,11.8,3,18,1.15,3.1-.94,6.41-1.16,9.55-2,8.21-2.21,15-7,20.89-12.83,10.09-10,19.65-20.6,29.6-30.79a74,74,0,0,1,56.35-22.48c6.49.27,12.43,6.51,12.91,13,.54,7.37-2.37,12.53-8.88,15.73a8.23,8.23,0,0,1-3.71.88,49,49,0,0,0-27.57,7.39c-7.6,4.64-13.93,10.85-19.7,17.65-9.37,11-19.23,21.52-31.37,29.63a74.54,74.54,0,0,1-22.21,9.87A83.76,83.76,0,0,1,621.67,185.45Z" transform="translate(0 -0.01)"/><path d="M688.62,300.38Q708,321.08,708,358.14V462a18.28,18.28,0,0,1-5.09,13.25A18.62,18.62,0,0,1,671,462V358.09q0-22.15-11.08-33.6T630.31,313q-18.88,0-31.06,13.08t-12.11,33.42V462a18.31,18.31,0,0,1-5.08,13.25A18.62,18.62,0,0,1,550,462V358.09q0-22.15-11.08-33.6T509.34,313q-19.26,0-31.42,13.08t-12.11,33.42V462a18.32,18.32,0,0,1-5.09,13.25,18.62,18.62,0,0,1-32-13.25V300.38A17.81,17.81,0,0,1,434,286.94a18.53,18.53,0,0,1,31.79,12.71,66.51,66.51,0,0,1,22.52-14.71,75.1,75.1,0,0,1,28.34-5.27,72.54,72.54,0,0,1,33.24,7.45,63.77,63.77,0,0,1,24.21,21.25,75.86,75.86,0,0,1,27.25-21.07,84.89,84.89,0,0,1,36.33-7.63Q669.19,279.67,688.62,300.38Z" transform="translate(0 -0.01)"/><rect x="160.25" y="223.77" width="30" height="353.4" transform="translate(-1.99 0.87) rotate(-0.29)"/><rect x="175.13" y="206.04" width="30" height="76.05" transform="translate(-116.25 201.13) rotate(-44.1)"/><rect x="118.68" y="229.84" width="76.06" height="30" transform="translate(-126.21 178.05) rotate(-44.1)"/><rect x="155.68" y="540.96" width="76.05" height="30" transform="translate(-332.31 291.53) rotate(-44.1)"/><rect x="145.29" y="517.93" width="30" height="76.05" transform="translate(-341.74 268.3) rotate(-44.11)"/><rect x="294.33" y="227.06" width="65.55" height="30"/><rect x="294.48" y="293.18" width="25" height="30"/><rect x="294.33" y="359.29" width="65.55" height="30"/><rect x="294.33" y="423.61" width="25" height="30"/><rect x="294.33" y="489.25" width="65.55" height="30"/><rect x="294.33" y="557.94" width="25" height="30"/></svg>