<svg width="35" height="32" xmlns="http://www.w3.org/2000/svg" xmlns:xlink="http://www.w3.org/1999/xlink" xml:space="preserve" overflow="hidden"><g transform="translate(-268 -16)"><path d="M5.11228 30.0695C2.68463 29.8207 0.740871 28.205 0.166764 25.9551 0.00273384 25.3154 0.016403 25.8621 0.00546768 18.4808 0 14.0519 0.00820152 11.6462 0.0273384 11.4603 0.194103 9.77075 1.18102 8.25893 2.70377 7.3595 3.37903 6.96309 4.18278 6.69791 5.04394 6.58582 5.28998 6.55575 13.3685 6.50381 13.3685 6.53388 13.3685 6.54208 12.7998 7.11619 12.1027 7.81332L10.8397 9.07635 8.14958 9.07635C5.23531 9.07635 5.18063 9.07909 4.653 9.22945 4.31674 9.32513 3.80277 9.58758 3.53759 9.79809 3.03183 10.1972 2.6983 10.7413 2.57254 11.3646 2.51513 11.638 2.51513 11.6899 2.51513 18.2949 2.51513 25.5368 2.50693 25.1759 2.66823 25.6598 3.01816 26.7178 3.96407 27.4314 5.22164 27.5845 5.41301 27.6063 7.22007 27.6118 12.0426 27.6063L18.6038 27.5981 18.8225 27.5352C20.0035 27.1908 20.8455 26.2476 21.0369 25.0529 21.0779 24.8096 21.0779 24.5335 21.0533 22.3765 21.0396 21.056 21.0314 19.968 21.0369 19.9625 21.0424 19.957 21.6192 20.5038 22.3191 21.1763L23.5903 22.4038 23.593 23.5384C23.593 25.165 23.5548 25.5806 23.3306 26.2968 22.6881 28.3581 20.8483 29.8508 18.6749 30.0723 18.3277 30.1051 5.45948 30.1051 5.11228 30.0695Z" stroke="#000000" stroke-width="0.00273054" fill="#FFFFFF" transform="matrix(1 0 0 -1.06314 268.003 48)"/><path d="M13.2455 21.652 11.8239 20.2304 12.1519 19.8969C12.3324 19.711 13.5434 18.4944 14.8448 17.1877L17.2095 14.8174 14.5495 12.1574 11.8922 9.5001 13.322 8.0703 14.7491 6.64323 14.9678 6.86194C15.0881 6.98223 15.2002 7.07518 15.2166 7.06971 15.233 7.06425 16.3402 8.15505 17.677 9.49463L20.1074 11.9332 17.6606 9.5001 15.2138 7.06698 17.6469 9.50557 20.0773 11.9442 20.1402 11.8867C20.173 11.8567 20.1949 11.8184 20.1839 11.802 20.1757 11.7856 20.1812 11.7829 20.1976 11.7938 20.214 11.8047 21.3021 10.7413 22.8221 9.22945L25.4138 6.64597 26.8409 8.07303 28.2679 9.5001 25.6106 12.1574 22.9506 14.8174 25.4247 17.2861 27.8988 19.752 25.4439 17.2915 22.9916 14.8311 23.1064 14.7217 23.224 14.6124 23.1228 14.7217 23.0189 14.8311 25.4657 17.2779C26.8108 18.6229 27.9043 19.7274 27.8988 19.7356 27.8906 19.7411 27.9836 19.8532 28.1039 19.9844L28.3199 20.2195 26.8928 21.6466 25.4657 23.0736 22.7729 20.3808 20.0801 17.688 17.3872 20.3808C15.9055 21.8625 14.6889 23.0736 14.6807 23.0736 14.6725 23.0736 14.0273 22.4339 13.2455 21.652Z" stroke="#000000" stroke-width="0.00273054" fill="#FFFFFF" transform="matrix(1 0 0 -1.06314 268.003 48)"/><path d="M26.8326 8.00469 25.8758 7.03964 26.8409 7.99649C27.7348 8.88498 27.8141 8.967 27.795 8.967 27.7922 8.967 27.3575 8.53232 26.8326 8.00469Z" stroke="#000000" stroke-width="0.00273054" fill="#FFFFFF" transform="matrix(1 0 0 -1.06314 268.003 48)"/></g></svg>