<svg width="25" height="20" xmlns="http://www.w3.org/2000/svg" xmlns:xlink="http://www.w3.org/1999/xlink" xml:space="preserve" overflow="hidden"><g transform="translate(-398 -20)"><path d="M12.9171 11.4583 13.7504 11.4583 13.7504 10.4167 14.7921 10.4167 14.7921 9.58333 13.7504 9.58333 13.7504 8.54167 12.9171 8.54167 12.9171 9.58333 11.8754 9.58333 11.8754 10.4167 12.9171 10.4167 12.9171 11.4583Z" fill="#FFFFFF" transform="matrix(1.25 0 0 1 398 20)"/><path d="M3.54208 9.58333 6.45875 9.58333 6.45875 10.4167 3.54208 10.4167Z" fill="#FFFFFF" transform="matrix(1.25 0 0 1 398 20)"/><path d="M18.3333 8.125 17.5 8.125 17.5 5.83333C17.5 5.3731 17.1269 5 16.6667 5L1.66667 5C1.20643 5 0.833333 5.3731 0.833333 5.83333L0.833333 14.1667C0.833333 14.6269 1.20643 15 1.66667 15L16.6667 15C17.1269 15 17.5 14.6269 17.5 14.1667L17.5 11.875 18.3333 11.875C18.7936 11.875 19.1667 11.5019 19.1667 11.0417L19.1667 8.95833C19.1667 8.4981 18.7936 8.125 18.3333 8.125ZM16.25 13.75 2.08333 13.75 2.08333 6.25 16.25 6.25Z" fill="#FFFFFF" transform="matrix(1.25 0 0 1 398 20)"/></g></svg>