<svg width="25" height="24" xmlns="http://www.w3.org/2000/svg" xmlns:xlink="http://www.w3.org/1999/xlink" xml:space="preserve" overflow="hidden"><defs><clipPath id="clip0"><rect x="500" y="18" width="25" height="24"/></clipPath></defs><g clip-path="url(#clip0)" transform="translate(-500 -18)"><path d="M11.8012 21.0863C11.8012 21.9328 11.8012 22.7794 11.8012 23.6259 11.8033 23.6571 11.8011 23.6884 11.7948 23.719 11.7684 23.814 11.7012 23.8641 11.601 23.8594 11.4017 23.8496 11.2026 23.8387 11.0041 23.8223 10.8167 23.8067 10.6297 23.786 10.4433 23.7627 10.2262 23.7356 10.0549 23.623 9.91596 23.4599 9.78674 23.3092 9.71451 23.118 9.71192 22.9195 9.70575 22.6801 9.70693 22.4406 9.70551 22.2012 9.70361 21.8433 9.53212 21.573 9.2649 21.3537 9.16728 21.2735 9.05303 21.2238 8.93236 21.1834 8.83023 21.1492 8.73261 21.1017 8.63261 21.0611 8.47489 20.997 8.3167 20.9338 8.15875 20.8699 8.05352 20.8271 7.94877 20.7832 7.84355 20.7404 7.6989 20.6815 7.5571 20.6124 7.40817 20.5678 7.26883 20.5243 7.12171 20.5118 6.97706 20.5312 6.79963 20.5566 6.63194 20.6046 6.48372 20.7067 6.4279 20.7461 6.37562 20.7902 6.32743 20.8385 6.16947 20.9946 6.01223 21.1518 5.85737 21.3112 5.63362 21.5421 5.35999 21.6129 5.05263 21.5561 4.91159 21.5291 4.78207 21.46 4.68114 21.3578 4.32818 21.0094 3.97481 20.6618 3.62107 20.3148 3.29423 19.9925 2.97001 19.668 2.64152 19.3476 2.46625 19.1826 2.3767 18.946 2.39876 18.7063 2.41128 18.505 2.49855 18.3156 2.64342 18.1752 2.80113 18.0184 2.95695 17.86 3.113 17.7015 3.19367 17.6211 3.26103 17.5283 3.31252 17.4267 3.41228 17.2263 3.4377 17.0149 3.41893 16.7956 3.40594 16.6739 3.37129 16.5555 3.31656 16.446 3.25005 16.3047 3.19566 16.1576 3.13462 16.0137 3.07167 15.8648 3.00659 15.7166 2.94317 15.5676 2.88189 15.4251 2.81681 15.2826 2.76242 15.1353 2.67857 14.9099 2.56669 14.7056 2.37216 14.5565 2.17288 14.4038 1.95436 14.3059 1.69664 14.3102 1.46862 14.3142 1.24059 14.3085 1.01257 14.3121 0.727539 14.3166 0.503315 14.1971 0.315908 13.9905 0.182894 13.8437 0.129451 13.6655 0.107599 13.4769 0.0389541 12.8853-0.0213772 12.2922 0.00593812 11.6955 0.0237525 11.3119 0.0418044 10.9261 0.099523 10.5461 0.127551 10.3606 0.219711 10.2043 0.355337 10.0744 0.52303 9.91382 0.721126 9.82783 0.955563 9.82902 1.17219 9.82902 1.38881 9.83045 1.60519 9.82665 2.03274 9.81905 2.35577 9.62261 2.57905 9.26371 2.63391 9.17535 2.66622 9.07369 2.70612 8.97559 2.77192 8.81527 2.83557 8.65422 2.89994 8.49342 2.94412 8.38273 2.98783 8.27157 3.03224 8.16088 3.07666 8.0502 3.12132 7.94545 3.16312 7.8369 3.22013 7.68845 3.27998 7.54071 3.32796 7.3894 3.36692 7.26541 3.36003 7.13406 3.34008 7.00746 3.31157 6.82623 3.251 6.65426 3.13723 6.50652 3.09823 6.45745 3.05609 6.41097 3.0111 6.36733 2.8503 6.20582 2.68712 6.04667 2.52727 5.88421 2.38309 5.73839 2.30023 5.54291 2.29568 5.3379 2.28282 5.11265 2.36734 4.89275 2.52774 4.73411 2.76622 4.49309 3.00445 4.25177 3.24245 4.01013 3.66691 3.58021 4.09256 3.15124 4.51487 2.71942 4.61511 2.61681 4.72865 2.53819 4.86499 2.50066 4.94489 2.4799 5.02707 2.46914 5.10964 2.4686 5.32322 2.461 5.53027 2.54287 5.68089 2.69448 5.83765 2.8503 5.99513 3.00232 6.14952 3.15908 6.26135 3.27765 6.39892 3.36891 6.55165 3.42582 6.77041 3.50231 6.99559 3.53318 7.22195 3.45955 7.34855 3.41822 7.47159 3.36454 7.5951 3.31537 7.75044 3.25243 7.90388 3.18759 8.05899 3.1225 8.20815 3.05956 8.3566 2.99495 8.50553 2.93248 8.61028 2.8883 8.71455 2.8427 8.82097 2.80351 9.04733 2.71966 9.24281 2.59639 9.38984 2.39971 9.53687 2.20304 9.61715 1.99402 9.61715 1.75175 9.61715 1.55223 9.6105 1.35247 9.61477 1.15318 9.61399 1.0394 9.62584 0.925872 9.65017 0.814711 9.69803 0.630707 9.80783 0.468815 9.96109 0.356287 10.0884 0.259783 10.2391 0.1988 10.3977 0.179569 10.8914 0.108693 11.3896 0.0740011 11.8884 0.0757705 12.2185 0.0776707 12.5496 0.0757705 12.8784 0.1209 13.0506 0.144653 13.223 0.163417 13.3957 0.181944 13.5179 0.197224 13.6336 0.245416 13.7306 0.321371 13.9764 0.504741 14.1052 0.752004 14.1085 1.06031 14.1109 1.28263 14.1073 1.50496 14.1109 1.72728 14.1175 2.12727 14.3054 2.42869 14.6349 2.64104 14.7432 2.7123 14.8705 2.75196 14.9912 2.80327 15.1451 2.86906 15.2999 2.93201 15.4553 2.99567 15.6049 3.05718 15.7555 3.11704 15.9051 3.1788 16.0548 3.24055 16.2094 3.30445 16.3605 3.36882 16.4999 3.42763 16.6506 3.45511 16.8018 3.44934 17.0994 3.4415 17.3574 3.34293 17.5678 3.12749 17.7213 2.97049 17.878 2.81681 18.0305 2.65933 18.1255 2.56031 18.2438 2.48679 18.3747 2.44556 18.4843 2.41287 18.5992 2.402 18.7129 2.41349 18.9076 2.42922 19.0897 2.51615 19.2243 2.65767 19.8807 3.31497 20.539 3.97047 21.1991 4.62414 21.2915 4.71582 21.3708 4.81677 21.4105 4.94004 21.4558 5.06952 21.4707 5.20766 21.4542 5.34384 21.4255 5.54763 21.3309 5.71271 21.1858 5.85475 21.0328 6.00416 20.883 6.15641 20.7345 6.30961 20.4922 6.55783 20.402 6.86067 20.4274 7.20057 20.4378 7.3343 20.4906 7.45924 20.5431 7.58275 20.6091 7.7369 20.672 7.89153 20.7364 8.04687 20.8008 8.20221 20.8661 8.35565 20.9298 8.51052 21.0086 8.70244 21.0846 8.89531 21.1647 9.08652 21.2381 9.26205 21.3613 9.39839 21.5112 9.51193 21.6457 9.61337 21.8008 9.68401 21.9656 9.71881 22.0244 9.72976 22.0842 9.73453 22.144 9.73306 22.3777 9.73306 22.6114 9.73092 22.8452 9.73306 23.2041 9.73544 23.4587 9.9074 23.629 10.2178 23.6767 10.3056 23.7066 10.4019 23.7171 10.5012 23.7451 10.7587 23.7646 11.0171 23.7867 11.2755 23.7967 11.3986 23.7938 11.3988 23.6846 11.4513 23.6737 11.4547 23.6635 11.4597 23.6542 11.4663 23.5808 11.5392 23.4903 11.5425 23.3929 11.5425 21.7684 11.5408 20.1438 11.5413 18.5191 11.5442 18.4241 11.5442 18.3718 11.4991 18.3153 11.4451 18.3024 11.4265 18.2962 11.4041 18.2975 11.3815 18.2859 11.11 18.2305 10.8444 18.1756 10.5798 18.131 10.3538 18.0675 10.132 17.9856 9.91667 17.9298 9.77415 17.8795 9.62879 17.8229 9.48651 17.726 9.2468 17.6119 9.01438 17.4816 8.79104 17.3349 8.53404 17.1699 8.28796 16.9878 8.05471 16.7052 7.68937 16.3841 7.35563 16.0299 7.05924 15.7132 6.79797 15.3812 6.55854 15.0185 6.36543 14.818 6.25855 14.6147 6.15594 14.4076 6.06401 14.247 5.99276 14.0788 5.93741 13.9121 5.88112 13.7615 5.83029 13.6092 5.78326 13.4556 5.7424 13.3432 5.71271 13.2278 5.69252 13.113 5.67328 12.9363 5.64359 12.7589 5.61794 12.5815 5.59134 12.5366 5.58445 12.4912 5.57899 12.4458 5.57614 12.1044 5.55417 11.7619 5.55417 11.4204 5.57614 11.2081 5.59063 10.9969 5.62839 10.7862 5.6607 10.6599 5.67994 10.5342 5.70606 10.4095 5.73433 10.3126 5.75618 10.2169 5.78397 10.1217 5.81271 9.98579 5.85404 9.85016 5.89632 9.7162 5.94288 9.60884 5.9804 9.50243 6.02031 9.3991 6.06781 9.23402 6.14358 9.06965 6.22149 8.9098 6.30819 8.73759 6.40154 8.568 6.50058 8.40292 6.60581 7.94894 6.89666 7.53546 7.24632 7.17325 7.64569 6.91939 7.92303 6.69049 8.22219 6.48918 8.53974 6.33398 8.78128 6.1961 9.03353 6.0766 9.29459 5.98824 9.49102 5.9177 9.69553 5.83908 9.89624 5.7253 10.1863 5.6607 10.4901 5.59775 10.7934 5.54645 11.0416 5.52436 11.2948 5.50559 11.5478 5.47801 11.8659 5.48184 12.1859 5.51699 12.5033 5.54075 12.7012 5.55927 12.9 5.58825 13.0971 5.60702 13.2233 5.63932 13.348 5.67067 13.4722 5.70891 13.6235 5.74834 13.775 5.7949 13.9235 5.83551 14.0534 5.88373 14.1814 5.93456 14.3078 5.98848 14.4422 6.04501 14.576 6.10819 14.7061 6.18491 14.8643 6.26615 15.0208 6.35213 15.1743 6.57234 15.5602 6.834 15.921 7.1324 16.2503 7.31339 16.4596 7.51206 16.6529 7.72621 16.8282 7.9198 16.9821 8.11338 17.137 8.31551 17.2795 8.53527 17.4367 8.76866 17.574 9.01289 17.6897 9.18319 17.7683 9.35136 17.8512 9.5238 17.9246 9.64114 17.9747 9.7637 18.0125 9.8846 18.054 9.95444 18.0778 10.0257 18.0975 10.0958 18.1203 10.3134 18.1876 10.5353 18.2403 10.7599 18.2783 11.0618 18.3376 11.3682 18.3707 11.6758 18.3771 11.7622 18.3771 11.8017 18.422 11.8017 18.5127 11.8017 18.7977 11.8017 19.0828 11.8017 19.3678Z" fill="#FFFFFF" transform="matrix(1.00582 0 0 1 500 17.9245)"/><path d="M14.7227 22.7739C14.5988 22.6639 14.4788 22.5634 14.3653 22.4559 13.7218 21.8461 13.2394 21.1281 12.9375 20.2944 12.6667 19.5464 12.5411 18.7742 12.594 17.9778 12.6703 16.8377 13.0282 15.794 13.7118 14.87 14.4634 13.8546 15.4356 13.1411 16.6391 12.7525 17.2503 12.5551 17.8785 12.4489 18.5227 12.4675 19.611 12.4998 20.6222 12.7926 21.5421 13.3819 22.4867 13.9871 23.2028 14.7953 23.6905 15.8063 23.9373 16.3151 24.0886 16.8536 24.1829 17.4094 24.2442 17.7664 24.2667 18.129 24.2496 18.4908 24.2007 19.5177 23.9238 20.4763 23.3734 21.3495 23.0409 21.8765 22.6402 22.3437 22.1535 22.7352 22.1423 22.744 22.1323 22.7542 22.1179 22.7672 22.1245 22.791 22.1304 22.8148 22.1385 22.8385 22.2257 23.0915 22.3143 23.3442 22.3998 23.5986 22.429 23.6846 22.4554 23.7706 22.4235 23.8651 22.3917 23.9596 22.3369 24.0252 22.2411 24.0489 22.1807 24.0646 22.1187 24.0734 22.0563 24.0746 21.7285 24.0772 21.4008 24.0772 21.0732 24.0746 21.0079 24.0736 20.943 24.0632 20.8806 24.0437 20.797 24.0178 20.7454 23.952 20.7143 23.8715 20.6863 23.7976 20.6606 23.7233 20.6317 23.6432 19.9127 23.9164 19.1794 24.077 18.416 24.0765 17.6526 24.076 16.9248 23.9164 16.207 23.6435 16.1833 23.7081 16.1595 23.7677 16.1391 23.8287 16.0793 24.0112 15.9785 24.0705 15.7847 24.0746 15.5113 24.0803 15.2384 24.0774 14.9641 24.0746 14.8562 24.0746 14.7479 24.0701 14.6408 24.0601 14.4543 24.0428 14.3627 23.8373 14.4121 23.6915 14.4805 23.4893 14.5472 23.2865 14.6154 23.0843 14.651 22.9801 14.6869 22.8782 14.7227 22.7739ZM14.2971 18.2894C14.2776 20.5326 16.1498 22.4038 18.416 22.4057 20.6872 22.4076 22.5473 20.5333 22.5468 18.288 22.5468 16.0375 20.6792 14.1691 18.4139 14.1717 16.1567 14.1736 14.2772 16.0389 14.2971 18.2894Z" fill="#FFFFFF" transform="matrix(1.00582 0 0 1 500 17.9245)"/><path d="M24.8544 13.9282C24.8389 14.3306 24.6772 14.776 24.3318 15.1484 24.2751 15.2099 24.2131 15.2584 24.1247 15.2752 24.0518 15.2895 23.976 15.2752 23.9133 15.2353 23.8751 15.2106 23.8399 15.1813 23.8088 15.1482 23.328 14.6696 22.8477 14.1906 22.3677 13.7111 22.0974 13.4419 21.8268 13.1727 21.5559 12.9035 21.4988 12.8516 21.4588 12.7835 21.4414 12.7083 21.4257 12.6325 21.4403 12.5536 21.4822 12.4886 21.5103 12.4457 21.5444 12.4071 21.5834 12.3739 21.853 12.1293 22.1861 11.9657 22.5444 11.9021 23.0537 11.8071 23.5257 11.9052 23.9584 12.1817 24.3411 12.4259 24.6107 12.7648 24.7501 13.2 24.828 13.4346 24.8632 13.6812 24.8544 13.9282Z" fill="#FFFFFF" transform="matrix(1.00582 0 0 1 500 17.9245)"/><path d="M11.9713 13.8199C11.9979 12.8829 12.6024 12.1929 13.3337 11.9651 13.566 11.8926 13.804 11.8477 14.0494 11.8679 14.5216 11.9069 14.9391 12.0743 15.2876 12.4019 15.4353 12.5411 15.4432 12.7439 15.2933 12.8917 15.052 13.1292 14.8115 13.3684 14.5719 13.6092 14.0573 14.1225 13.5427 14.6358 13.028 15.1493 12.9689 15.2083 12.9073 15.2586 12.8202 15.2752 12.7472 15.2902 12.6713 15.2757 12.609 15.2349 12.564 15.2049 12.5233 15.169 12.4881 15.128 12.2487 14.8612 12.0879 14.5541 12.0252 14.1995 12.004 14.0738 11.99 13.9465 11.9713 13.8199Z" fill="#FFFFFF" transform="matrix(1.00582 0 0 1 500 17.9245)"/><path d="M17.5828 16.7488C17.5828 16.1905 17.5828 15.6321 17.5828 15.0736 17.5814 15.0423 17.5825 15.011 17.5861 14.98 17.6187 14.7691 17.7317 14.6971 17.917 14.6926 18.2671 14.684 18.6177 14.6874 18.968 14.6926 19.0823 14.694 19.193 14.7287 19.2469 14.8415 19.2745 14.9036 19.2896 14.9705 19.2913 15.0384 19.2977 15.1919 19.2934 15.346 19.2934 15.4997 19.2934 16.2945 19.2934 17.0893 19.2934 17.8842 19.2904 17.9406 19.3126 17.9954 19.354 18.0338 19.7816 18.4568 20.2069 18.8815 20.63 19.3079 20.6722 19.3494 20.7054 19.3991 20.7276 19.454 20.7751 19.5811 20.7393 19.6941 20.645 19.7892 20.5307 19.9046 20.4155 20.0191 20.3005 20.1338 20.1756 20.2585 20.0514 20.3842 19.9255 20.5079 19.8286 20.6029 19.7132 20.6412 19.5832 20.5906 19.5313 20.5683 19.4842 20.536 19.4447 20.4956 19.231 20.2865 19.0198 20.0744 18.8079 19.8635 18.4467 19.5037 18.0871 19.1421 17.7232 18.7847 17.6295 18.6956 17.5786 18.5706 17.5833 18.4414 17.5837 17.8768 17.5828 17.3127 17.5828 16.7488Z" fill="#FFFFFF" transform="matrix(1.00582 0 0 1 500 17.9245)"/></g></svg>