<?xml version="1.0" encoding="UTF-8"?>
<svg id="a" xmlns="http://www.w3.org/2000/svg" version="1.1" viewBox="0 0 738 980">
  <defs>
    <style>
      .cls-1 {
        fill: #fff;
        stroke-width: 0px;
      }
    </style>
  </defs>
  <path class="cls-1" d="M659,980h-9c-6-3-13-5-18-9l-33-28-27-23-42,35c-12,10-22,22-38,25h-8c-18-6-25-16-25-33v-35H60l-10-1c-29-4-50-29-50-57V58C0,37,10,20,28,9c7-4,15-6,23-9h572l1,1c29,3,51,28,51,60v443c0,3,0,5,3,7,8,8,16,15,23,24,30,37,42,79,35,127-5,37-21,68-47,94s-3,5-3,7l-1,47v132c0,6-2,14-4,20-4,10-12,15-22,18ZM460,783H152c-18-1-28-19-19-34,5-8,13-11,23-11h284l-2-3c-15-20-24-43-28-68-1-5-3-6-8-6h-247c-4,0-9,0-12-2-10-4-15-14-13-25,2-10,11-17,22-17h256c4-28,14-53,30-75H157l-9-1c-11-1-20-12-18-24,1-12,10-20,24-20h328l7-1c38-22,79-28,121-18l21,5V62c0-12-6-18-19-18H62c-12,0-18,6-18,19v787c0,12,6,18,18,18h398v-85ZM573,759c67,1,120-53,121-119,1.1-66.8-52.2-121.9-119-123-66.8-1.1-121.9,52.2-123,119-1.1,66.8,52.2,121.9,119,123,.7,0,1.3,0,2,0ZM641,921v-131c-46,19-91,19-137,0v129l53-43c10-9,21-9,31-1l22,20,31,26Z"/>
  <path class="cls-1" d="M331,302h-172c-21,0-37-15-37-36v-97c0-21,17-36,39-36h340c12,0,23,4,31,14,5,6,8,12,8,20v100c0,20-16,35-36,35h-173ZM496,258v-80H167v80h329ZM335,378l179-1c18,0,28,16,23,30-3,8-11,14-21,15H155c-9,0-16-2-21-9-6-8-6-16-2-24s12-11,21-11h182Z"/>
</svg>