<svg id="Layer_1" data-name="Layer 1" version="1.1" viewBox="0 0 512 512" xmlns="http://www.w3.org/2000/svg"><defs id="defs1"><style id="style1">.cls-1{fill:#3e4072;stroke-width:0}</style></defs><path class="cls-1" id="polygon1" style="fill:#fff" d="M271 196h-30v45h-45v30h45v45h30v-45h45v-30h-45v-45z"/><path class="cls-1" d="M512 241h-30A225 225 0 0 0 271 31V-1h-30v31A225 225 0 0 0 31 241H-1v30h31a225 225 0 0 0 210 211v30h30v-30a225 225 0 0 0 211-211h30v-30Zm-61 0h-45c-7-71-64-128-135-135V60c96 8 173 85 180 181ZM256 377a121 121 0 1 1 0-242 121 121 0 0 1 0 242ZM241 61v45c-71 7-128 64-135 135H60c8-96 85-173 181-180ZM61 271h45c7 71 64 128 135 135v46c-96-8-173-85-180-181Zm210 180v-45c71-7 128-64 135-135h46c-8 96-85 173-181 180Z" id="path1" style="fill:#fff"/></svg>