<?xml version="1.0" encoding="UTF-8"?>
<svg id="Layer_1" data-name="Layer 1" xmlns="http://www.w3.org/2000/svg" version="1.1" viewBox="0 0 512 512">
  <defs>
    <style>
      .cls-1 {
        fill: #3e4072;
        stroke-width: 0px;
      }
    </style>
  </defs>
  <polygon class="cls-1" points="271 196 241 196 241 241 196 241 196 271 241 271 241 316 271 316 271 271 316 271 316 241 271 241 271 196"/>
  <path class="cls-1" d="M512,241h-30.5c-3.6-54.7-26.6-105.7-65.7-144.8-39.1-39.1-90.1-62.1-144.8-65.7V0h-30v30.5c-54.7,3.6-105.7,26.6-144.8,65.7-39.1,39.1-62.1,90.1-65.7,144.8H0v30h30.5c3.6,54.7,26.6,105.7,65.7,144.8,39.1,39.1,90.1,62.1,144.8,65.7v30.5h30v-30.5c54.7-3.6,105.7-26.6,144.8-65.7,39.1-39.1,62.1-90.1,65.7-144.8h30.5v-30ZM451.4,241h-45.2c-7.1-71.3-63.9-128.2-135.3-135.3v-45.2c96.1,7.3,173.1,84.3,180.4,180.4ZM256,377c-66.7,0-121-54.3-121-121s54.3-121,121-121,121,54.3,121,121-54.3,121-121,121ZM241,60.6v45.2c-71.3,7.1-128.2,63.9-135.3,135.3h-45.2c7.3-96.1,84.3-173.1,180.4-180.4ZM60.6,271h45.2c7.1,71.3,63.9,128.2,135.3,135.3v45.2c-96.1-7.3-173.1-84.3-180.4-180.4ZM271,451.4v-45.2c71.3-7.1,128.2-63.9,135.3-135.3h45.2c-7.3,96.1-84.3,173.1-180.4,180.4Z"/>
</svg>