<?xml version="1.0" encoding="UTF-8"?>
<svg id="Calque_1" data-name="Calque 1" xmlns="http://www.w3.org/2000/svg" version="1.1" viewBox="0 0 109.4 109.7">
  <defs>
    <style>
      .cls-1 {
        fill: #fff;
        stroke-width: 0px;
      }
    </style>
  </defs>
  <path class="cls-1" d="M17.4,29.6h12.5c2.8,0,5,2.2,5,5s-2.2,5-5,5H10c-5.5,0-10-4.5-10-10V9.7c0-2.8,2.2-5,5-5s5,2.2,5,5v13.4C27.5-1.5,61.7-7.3,86.4,10.3c24.6,17.5,30.4,51.7,12.9,76.4-17.5,24.6-51.7,30.4-76.4,12.9C9.7,90.2,1.3,75.5,0,59.5c0-2.5,2.5-5,5-5s5,2.5,5,5c2.6,24.6,24.7,42.5,49.3,39.8,24.6-2.6,42.5-24.7,39.8-49.3-2.6-24.6-24.7-42.5-49.3-39.8-13.1,1.4-25,8.5-32.4,19.4Z"/>
</svg>