<?xml version="1.0" encoding="UTF-8"?>
<svg id="Calque_1" data-name="Calque 1" xmlns="http://www.w3.org/2000/svg" version="1.1" viewBox="0 0 1437 1437.6">
  <defs>
    <style>
      .cls-1 {
        fill: #fff;
        stroke-width: 0px;
      }
    </style>
  </defs>
  <path class="cls-1" d="M658,214.3c-227.9,10.1-444.8,100.8-612,256l-32,32v31l215,287,216,287c0,1,10-5,21-14,48.5-38.1,104.9-65.1,165-79,2,0,9,11,17,29l13,28-11,15c-28,37-25,75,9,109s82,37,119,0c15-16,25-34,27-52,4-26-14-60-42-79-12-8-15-13-24-33l-12-26c58,1.6,114.9,15.5,167,41,32,15,44,23,77,48l21,14,216-288,214-287v-32l-19-18c-58-55-151-119-236-161-121-61-257-100-376-107l-133-1h0ZM762,299.3l14,2,41,4c185,22.3,359.3,98.9,501,220,0,2-335,451-343,459s-6,2-25-7c-68.2-38.3-144.8-58.9-223-60l-40-2-4-7c-58.4-124.2-115.7-248.9-172-374-1-1-74,31-78,34-1,0,36,83,82,183l82,182-28,10c-16,5-45,17-66,27-23,11-39,17-40,15l-175-232-172-229,16-15c9-9,31-26,49-40,137.2-99.4,299.9-157.7,469-168l18-1,6-1h88Z"/>
</svg>