<?xml version="1.0" encoding="UTF-8"?>
<svg id="Capa_1" data-name="Capa 1" xmlns="http://www.w3.org/2000/svg" version="1.1" viewBox="0 0 800 800">
  <defs>
    <style>
      .cls-1 {
        fill: #fff;
        stroke-width: 0px;
      }
    </style>
  </defs>
  <path class="cls-1" d="M235.7,514.7c0-13.3-9.2-21.2-25.5-21.2s-11.1.7-13.5,1.3v42.6c2.8.6,6.2.8,10.9.8,17.3,0,28-8.8,28-23.5Z"/>
  <path class="cls-1" d="M336.3,493.9c-7.3,0-12,.6-14.8,1.3v94.4c2.8.7,7.3.7,11.4.7,29.5.2,48.8-16.1,48.8-50.5.2-30-17.4-45.8-45.4-45.8Z"/>
  <path class="cls-1" d="M523.4,0H202.1C155.2,0,117,38.2,117,85.1v314.9h-8.3c-18.9,0-34.3,15.3-34.3,34.3v208.1c0,19,15.4,34.3,34.3,34.3h8.3v38.2c0,47,38.2,85.1,85.1,85.1h438.4c46.9,0,85.1-38.2,85.1-85.1V201.5L523.4,0ZM164.4,471.9c10.1-1.7,24.2-3,44.1-3s34.5,3.8,44.1,11.6c9.2,7.3,15.4,19.3,15.4,33.4s-4.7,26.1-13.3,34.3c-11.1,10.5-27.6,15.2-46.9,15.2s-8.1-.2-11.1-.6v51.6h-32.3v-142.4ZM640.5,747.9H202.1c-18.2,0-33-14.8-33-33v-38.2h408.7c18.9,0,34.3-15.3,34.3-34.3v-208.1c0-19-15.4-34.3-34.3-34.3H169.1V85.1c0-18.1,14.8-32.9,33-32.9l301.8-.3v111.6c0,32.6,26.4,59,59,59l109.3-.3,1.2,492.7c0,18.2-14.8,33-32.9,33ZM288.8,613.6v-141.7c12-1.9,27.6-3,44.1-3,27.4,0,45.2,4.9,59.1,15.4,15,11.1,24.4,28.9,24.4,54.4s-10.1,46.7-24,58.4c-15.2,12.6-38.3,18.6-66.6,18.6-16.9,0-28.9-1.1-37-2.1ZM522.5,529.7v26.5h-51.8v58h-32.8v-144.3h88.2v26.8h-55.5v33h51.8Z"/>
</svg>