<?xml version="1.0" encoding="UTF-8" standalone="no"?>
<svg
   data-name="Calque 1"
   viewBox="0 0 980 979"
   version="1.1"
   id="svg1"
   sodipodi:docname="txt.svg"
   inkscape:version="1.4 (86a8ad7, 2024-10-11)"
   xmlns:inkscape="http://www.inkscape.org/namespaces/inkscape"
   xmlns:sodipodi="http://sodipodi.sourceforge.net/DTD/sodipodi-0.dtd"
   xmlns="http://www.w3.org/2000/svg"
   xmlns:svg="http://www.w3.org/2000/svg">
  <defs
     id="defs1" />
  <sodipodi:namedview
     id="namedview1"
     pagecolor="#ffffff"
     bordercolor="#000000"
     borderopacity="0.25"
     inkscape:showpageshadow="2"
     inkscape:pageopacity="0.0"
     inkscape:pagecheckerboard="0"
     inkscape:deskcolor="#d1d1d1"
     inkscape:zoom="0.74872319"
     inkscape:cx="490.1678"
     inkscape:cy="489.5"
     inkscape:window-width="1920"
     inkscape:window-height="935"
     inkscape:window-x="-8"
     inkscape:window-y="-8"
     inkscape:window-maximized="1"
     inkscape:current-layer="svg1" />
  <path
     d="M980 567v265a145 145 0 0 1-5 34 141 141 0 0 1-11 30 147 147 0 0 1-21 31 155 155 0 0 1-30 27 151 151 0 0 1-43 20 159 159 0 0 1-30 5H374a140 140 0 0 1-37-5 148 148 0 0 1-42-19 153 153 0 0 1-18-14 150 150 0 0 1-50-96 161 161 0 0 1 0-19v-14c0-4-1-4-5-4H54a87 87 0 0 1-15-1 46 46 0 0 1-25-13 46 46 0 0 1-14-28 39 39 0 0 1 0-5V470c0-12 5-22 13-31a47 47 0 0 1 30-15 46 46 0 0 1 5 0h176c2 0 2-1 2-2a36 36 0 0 0 1-4V149a150 150 0 0 1 34-95 152 152 0 0 1 42-34 148 148 0 0 1 55-19 146 146 0 0 1 17-1h302a77 77 0 0 1 32 7 148 148 0 0 1 32 20 604 604 0 0 1 39 35l32 31 68 69 20 20q17 16 33 34a349 349 0 0 1 24 29 140 140 0 0 1 17 28 76 76 0 0 1 5 21 56 56 0 0 1 1 6v267zM547 424h239a49 49 0 0 1 27 8 48 48 0 0 1 16 17 47 47 0 0 1 6 23v290a48 48 0 0 1-3 15 49 49 0 0 1-32 29 64 64 0 0 1-18 2H305a14 14 0 0 0-2 0 2 2 0 0 0-2 2v19a74 74 0 0 0 10 37 75 75 0 0 0 32 30 77 77 0 0 0 36 9h447a96 96 0 0 0 12-1c19-2 35-10 48-25a74 74 0 0 0 19-50V340a57 57 0 0 0 0-8c-2-9-6-16-13-21a47 47 0 0 0-14-6c-10-3-21-4-32-4H718a53 53 0 0 1-7-1c-19-2-32-19-32-36v-68-63l-1-15a81 81 0 0 0-3-20c-2-6-5-12-10-16-5-5-11-8-18-8l-54 1H377a78 78 0 0 0-9 0 74 74 0 0 0-49 27 74 74 0 0 0-18 49v244l1 7-1 17v2c1 2 1 3 3 3h4zm-252 61l2 3 28 47 46 78c2 2 2 4 0 7l-20 31-27 41-23 35-9 14-4 5c0 1 0 2 2 2a15 15 0 0 0 2 0h62a3 3 0 0 0 3-2l4-6 17-31 18-32 11-21 3-9 1-2 1 3c1 4 2 9 5 13l16 30 19 34 11 20a6 6 0 0 0 6 3h64l-1-3-27-41-34-56-19-29v-7l13-21 29-46 26-41 9-16a22 22 0 0 0 2-3h-61-1a4 4 0 0 0-4 2l-19 34-19 34-6 12-6 16-1 3h-1l-1-3-6-15-9-19-31-61a4 4 0 0 0-4-3h-67zM133 640v104c0 4 0 4 4 4h50a18 18 0 0 0 1 0c2 0 3 0 3-2V537v-3c0-2 1-2 2-3h70c4 0 4 0 4-3a2 2 0 0 0 0-1v-38a20 20 0 0 0 0-2 2 2 0 0 0-2-2H61c-5 0-5 0-5 4v40a2 2 0 0 0 2 2h73c1 1 2 1 2 3a29 29 0 0 1 0 3zm564 0V537a29 29 0 0 1 0-3c0-2 0-2 2-3a28 28 0 0 1 3 0h66c5 0 5 0 5-4v-38c0-4 0-4-5-4H566c-4 0-4 0-4 4v38a19 19 0 0 0 0 2c0 2 0 2 2 2h72c2 0 2 1 2 3v210c0 4 1 4 5 4h50c3 0 3 0 3-4v-2z"
     id="path1"
     style="fill:#ffffff" />
</svg>
