<?xml version="1.0" encoding="utf-8"?>
<!-- Generator: Adobe Illustrator 26.5.2, SVG Export Plug-In . SVG Version: 6.00 Build 0)  -->
<svg version="1.1"
	 id="svg11892" xmlns:inkscape="http://www.inkscape.org/namespaces/inkscape" xmlns:svg="http://www.w3.org/2000/svg" xmlns:sodipodi="http://sodipodi.sourceforge.net/DTD/sodipodi-0.dtd"
	 xmlns="http://www.w3.org/2000/svg" xmlns:xlink="http://www.w3.org/1999/xlink" x="0px" y="0px" viewBox="0 0 500 500"
	 style="enable-background:new 0 0 500 500;" xml:space="preserve">
<style type="text/css">
	.st0{fill:#3E4072;}
</style>
<sodipodi:namedview  bordercolor="#666666" borderopacity="1.0" id="namedview11894" inkscape:current-layer="svg11892" inkscape:cx="126.52941" inkscape:cy="239.33473" inkscape:deskcolor="#d1d1d1" inkscape:pagecheckerboard="0" inkscape:pageopacity="0.0" inkscape:showpageshadow="2" inkscape:window-height="894" inkscape:window-maximized="1" inkscape:window-width="1920" inkscape:window-x="-8" inkscape:window-y="-8" inkscape:zoom="1.4937238" pagecolor="#ffffff" showgrid="false">
	</sodipodi:namedview>
<path id="path11886" class="st0" d="M500,500H0V0h25.1v474.9H500V500z"/>
<path id="path11888" class="st0" d="M88.9,314.9c14.4,0,26.2,11.7,26.2,26.2s-11.7,26.2-26.2,26.2S62.8,355.4,62.8,341
	S74.5,314.9,88.9,314.9 M88.9,289.7c-28.3,0-51.3,22.9-51.3,51.3c0,28.3,22.9,51.3,51.3,51.3s51.3-22.9,51.3-51.3
	C140.2,312.7,117.2,289.7,88.9,289.7z M242.7,156.9c14.4,0,26.2,11.7,26.2,26.2c0,14.4-11.7,26.2-26.2,26.2s-26.2-11.7-26.2-26.2
	C216.5,168.6,228.2,156.9,242.7,156.9 M242.7,131.8c-28.3,0-51.3,22.9-51.3,51.3s22.9,51.3,51.3,51.3s51.3-22.9,51.3-51.3
	S271,131.8,242.7,131.8z M323.2,280.3c14.4,0,26.2,11.7,26.2,26.2s-11.7,26.2-26.2,26.2c-14.4,0-26.2-11.7-26.2-26.2
	S308.8,280.3,323.2,280.3 M323.2,255.2c-28.3,0-51.3,22.9-51.3,51.3c0,28.3,22.9,51.3,51.3,51.3c28.3,0,51.3-22.9,51.3-51.3
	C374.5,278.2,351.5,255.2,323.2,255.2z M448.7,69c14.4,0,26.2,11.7,26.2,26.2s-11.7,26.2-26.2,26.2c-14.4,0-26.2-11.7-26.2-26.2
	S434.3,69,448.7,69 M448.7,43.9c-28.3,0-51.3,22.9-51.3,51.3s22.9,51.3,51.3,51.3c28.3,0,51.3-22.9,51.3-51.3S477.1,43.9,448.7,43.9
	z"/>
<path id="path11890" class="st0" d="M412.1,115.1l37.7,23L363,286.6l-37.7-22L412.1,115.1z M201.9,183.1l33.5,28.2L132.8,334.7
	l-33.5-28.2L201.9,183.1z M235.4,225.9l36.6-25.1l42.9,62.8l-35.6,25.1L235.4,225.9z"/>
</svg>
