<?xml version="1.0" encoding="UTF-8"?><svg id="a" xmlns="http://www.w3.org/2000/svg" viewBox="0 0 785.8 854.88"><path d="M614.67,98.31c-5.93-.59-12-.59-17.76-1.91-8.25-1.88-16.07-5.27-23.25-9.85-13.61-8.69-24.12-20.68-34.65-32.68-6.51-7.42-13.49-14.52-22.43-19.04-3.83-1.94-8.15-3.01-12.35-4.06-3.52-.88-7.21-1.69-10.8-1.58-10.15,.29-19.46,3.48-27.68,9.52-7.68,5.64-13.76,12.86-20.21,19.81-8.38,9.03-17.31,17.68-26.85,25.45-6.56,5.35-14.63,8.64-22.95,11.18-9.45,2.89-19.03,3.25-28.64,2.6-9.47-.64-18.4-3.56-27.01-7.79-12.93-6.36-22.55-16.58-32.33-26.64-5.9-6.07-11.42-12.51-17.3-18.59-5.98-6.19-13.21-10.73-21.36-13.23-6.4-1.96-13.13-3.42-19.98-2.2-13.17,2.35-24.16,8.6-33.28,18.39-9.37,10.05-18.79,20.08-28.52,29.79-5.8,5.79-12.9,9.88-20.26,13.53-12.53,6.22-25.84,7.79-39.5,6.78-9.47-.7-18.4-3.59-27.01-7.81-12.94-6.34-22.55-16.57-32.34-26.63-6.67-6.85-12.9-14.14-19.73-20.81-5.23-5.11-11.64-8.84-18.64-10.93-4.97-1.48-10.31-2.39-15.48-2.38-7.72,.02-12.2-5.22-13.81-10.66C-1.36,12.06,1.8,4.44,7.25,1.36,8.52,.64,10.07-.06,11.46,0c6.74,.3,13.7-.03,20.16,1.56,9.75,2.39,18.77,6.85,27.1,12.72,9.64,6.79,17.08,15.81,25.37,23.95,5.18,5.09,9.68,10.85,14.83,15.97,6.73,6.69,14.67,11.94,23.93,14,5.76,1.28,11.73,2.31,18.02,1.02,5.6-1.15,10.98-2.33,16.09-4.97,7.37-3.82,13.43-9.17,19.08-15.14,9.38-9.91,18.52-20.07,28.38-29.48,6.02-5.74,13.35-9.91,21.18-13.19,12.78-5.35,26.1-6.25,39.54-5.04,5.91,.53,11.84,2.59,17.4,4.84,5.66,2.3,11.35,5.07,16.17,8.76,6.77,5.18,12.97,11.18,19.01,17.22,7.46,7.46,14.26,15.59,21.8,22.96,6.47,6.33,14.22,11.24,23.11,13.09,5.78,1.2,11.74,2.18,18.03,.94,5.84-1.15,11.42-2.45,16.59-5.33,8.9-4.96,16.22-11.68,22.51-19.71,3.36-4.29,7.39-8.09,11.37-11.86,6.43-6.09,12.75-12.36,19.69-17.83,7.96-6.28,17.33-9.61,27.3-11.92,7.88-1.82,15.67-1.7,23.43-1.21,6.31,.4,12.53,2.53,18.73,4.11,6.57,1.67,12.48,4.96,17.64,9.17,6.77,5.53,13.22,11.5,19.43,17.66,6.14,6.09,11.78,12.7,17.71,19.01,7.36,7.83,15.92,14.12,26.37,16.73,5.73,1.43,11.8,3.01,17.97,1.15,3.1-.94,6.41-1.16,9.55-2,8.21-2.2,15.02-6.99,20.9-12.83,10.09-10.03,19.65-20.6,29.59-30.79,7.73-7.92,16.7-13.9,27.21-17.83,9.5-3.55,19.13-5.05,29.17-4.63,6.49,.27,12.43,6.51,12.91,13.04,.54,7.37-2.37,12.53-8.88,15.73-1.12,.55-2.48,.91-3.71,.87-9.95-.32-19.19,2.25-27.57,7.37-7.6,4.64-13.93,10.86-19.7,17.65-9.36,11.02-19.23,21.52-31.37,29.63-6.86,4.58-14.24,7.7-22.21,9.86-6.81,1.84-13.57,2.92-20.63,3.05Z"/><path d="M621.67,185.44c-5.93-.59-12-.59-17.76-1.91-8.25-1.88-16.07-5.27-23.25-9.85-13.61-8.69-24.12-20.68-34.65-32.68-6.51-7.42-13.49-14.52-22.43-19.04-3.83-1.94-8.15-3.01-12.35-4.06-3.52-.88-7.21-1.69-10.8-1.58-10.15,.29-19.46,3.48-27.68,9.52-7.68,5.64-13.76,12.86-20.21,19.81-8.38,9.03-17.31,17.68-26.85,25.45-6.56,5.35-14.63,8.64-22.95,11.18-9.45,2.89-19.03,3.25-28.64,2.6-9.47-.64-18.4-3.56-27.01-7.79-12.93-6.36-22.55-16.58-32.33-26.64-5.9-6.07-11.42-12.51-17.3-18.59-5.98-6.19-13.21-10.73-21.36-13.23-6.4-1.96-13.13-3.42-19.98-2.2-13.17,2.35-24.16,8.6-33.28,18.39-9.37,10.05-18.79,20.08-28.52,29.79-5.8,5.79-12.9,9.88-20.26,13.53-12.53,6.22-25.84,7.79-39.5,6.78-9.47-.7-18.4-3.59-27.01-7.81-12.94-6.34-22.55-16.57-32.34-26.63-6.67-6.85-12.9-14.14-19.73-20.81-5.23-5.11-11.64-8.84-18.64-10.93-4.97-1.48-10.31-2.39-15.48-2.38-7.72,.02-12.2-5.22-13.81-10.66-1.92-6.5,1.23-14.12,6.68-17.2,1.27-.72,2.82-1.41,4.21-1.35,6.74,.3,13.7-.03,20.16,1.56,9.75,2.39,18.77,6.85,27.1,12.72,9.64,6.79,17.08,15.81,25.37,23.95,5.18,5.09,9.68,10.85,14.83,15.97,6.73,6.69,14.67,11.94,23.93,14,5.76,1.28,11.73,2.31,18.02,1.02,5.6-1.15,10.98-2.33,16.09-4.97,7.37-3.82,13.43-9.17,19.08-15.14,9.38-9.91,18.52-20.07,28.38-29.48,6.02-5.74,13.35-9.91,21.18-13.19,12.78-5.35,26.1-6.25,39.54-5.04,5.91,.53,11.84,2.59,17.4,4.84,5.66,2.3,11.35,5.07,16.17,8.76,6.77,5.18,12.97,11.18,19.01,17.22,7.46,7.46,14.26,15.59,21.8,22.96,6.47,6.33,14.22,11.24,23.11,13.09,5.78,1.2,11.74,2.18,18.03,.94,5.84-1.15,11.42-2.45,16.59-5.33,8.9-4.96,16.22-11.68,22.51-19.71,3.36-4.29,7.39-8.09,11.37-11.86,6.43-6.09,12.75-12.36,19.69-17.83,7.96-6.28,17.33-9.61,27.3-11.92,7.88-1.82,15.67-1.7,23.43-1.21,6.31,.4,12.53,2.53,18.73,4.11,6.57,1.67,12.48,4.96,17.64,9.17,6.77,5.53,13.22,11.5,19.43,17.66,6.14,6.09,11.78,12.7,17.71,19.01,7.36,7.83,15.92,14.12,26.37,16.73,5.73,1.43,11.8,3.01,17.97,1.15,3.1-.94,6.41-1.16,9.55-2,8.21-2.2,15.02-6.99,20.9-12.83,10.09-10.03,19.65-20.6,29.59-30.79,7.73-7.92,16.7-13.9,27.21-17.83,9.5-3.55,19.13-5.05,29.17-4.63,6.49,.27,12.43,6.51,12.91,13.04,.54,7.37-2.37,12.53-8.88,15.73-1.12,.55-2.48,.91-3.71,.87-9.95-.32-19.19,2.25-27.57,7.37-7.6,4.64-13.93,10.86-19.7,17.65-9.36,11.02-19.23,21.52-31.37,29.63-6.86,4.58-14.24,7.7-22.21,9.86-6.81,1.84-13.57,2.92-20.63,3.05Z"/><path d="M294.51,615.54c-4-4-6-8.93-6-14.8V329.94c0-6.13,2-11.13,6-15,4-3.86,8.93-5.8,14.8-5.8h180.8c6.13,0,11.06,1.8,14.8,5.4,3.73,3.6,5.6,8.34,5.6,14.2s-1.87,10.14-5.6,13.6c-3.74,3.47-8.67,5.2-14.8,5.2h-160v97.2h114.8c5.86,0,10.73,1.8,14.6,5.4,3.86,3.6,5.8,8.2,5.8,13.8s-1.94,10.2-5.8,13.8c-3.87,3.6-8.74,5.4-14.6,5.4h-114.8v117.6c0,5.87-2,10.8-6,14.8s-8.94,6-14.8,6-10.8-2-14.8-6Z"/><path d="M553.63,289.15c-3.87-3.73-5.8-8.53-5.8-14.4s1.93-10.73,5.8-14.6c3.86-3.86,8.73-5.8,14.6-5.8h89.2c5.86,0,10.66,1.94,14.4,5.8,3.73,3.87,5.6,8.74,5.6,14.6s-1.87,10.67-5.6,14.4-8.54,5.6-14.4,5.6h-89.2c-5.87,0-10.74-1.86-14.6-5.6Z"/></svg>