<?xml version="1.0" encoding="utf-8"?>
<!-- Generator: Adobe Illustrator 26.5.2, SVG Export Plug-In . SVG Version: 6.00 Build 0)  -->
<svg version="1.1" id="Calque_1" xmlns="http://www.w3.org/2000/svg" xmlns:xlink="http://www.w3.org/1999/xlink" x="0px" y="0px"
	 viewBox="0 0 777 778" style="enable-background:new 0 0 777 778;" xml:space="preserve">
<style type="text/css">
	.st0{fill:none;}
	.st1{display:none;enable-background:new    ;}
	.st2{font-family:'Comfortaa-Bold';}
	.st3{font-size:400px;}
	.st4{letter-spacing:-20;}
	.st5{display:none;}
	.st6{font-size:300px;}
	.st7{letter-spacing:-21;}
</style>
<g>
	<path d="M621.7,101.1c-5.9-0.6-12-0.6-17.8-1.9c-8.3-1.9-16.1-5.3-23.2-9.9c-13.6-8.7-24.1-20.7-34.6-32.7
		c-6.5-7.4-13.5-14.5-22.4-19c-3.8-1.9-8.1-3-12.3-4.1c-3.5-0.9-7.2-1.7-10.8-1.6c-10.1,0.3-19.5,3.5-27.7,9.5
		c-7.7,5.6-13.8,12.9-20.2,19.8c-8.4,9-17.3,17.7-26.9,25.5c-6.6,5.4-14.6,8.6-22.9,11.2c-9.5,2.9-19,3.3-28.6,2.6
		c-9.5-0.6-18.4-3.6-27-7.8c-12.9-6.4-22.6-16.6-32.3-26.6c-5.9-6.1-11.4-12.5-17.3-18.6c-6-6.2-13.2-10.7-21.4-13.2
		c-6.4-2-13.1-3.4-20-2.2c-13.2,2.3-24.2,8.6-33.3,18.4c-9.4,10.1-18.8,20.1-28.5,29.8c-5.8,5.8-12.9,9.9-20.3,13.5
		c-12.5,6.2-25.8,7.8-39.5,6.8c-9.5-0.7-18.4-3.6-27-7.8c-12.9-6.3-22.6-16.6-32.3-26.6c-6.8-6.9-13-14.2-19.8-20.9
		C50.4,40.2,44,36.5,37,34.4C32,32.9,26.6,32,21.5,32c-7.7,0-12.2-5.2-13.8-10.7C5.8,14.8,8.9,7.2,14.4,4.1c1.3-0.7,2.8-1.4,4.2-1.4
		c6.7,0.3,13.7,0,20.2,1.6c9.7,2.4,18.8,6.9,27.1,12.7c9.6,6.8,17.1,15.8,25.4,24c5.2,5.1,9.7,10.9,14.8,16
		c6.7,6.7,14.7,11.9,23.9,14c5.8,1.3,11.7,2.3,18,1c5.6-1.2,11-2.3,16.1-5c7.4-3.8,13.4-9.2,19.1-15.1c9.4-9.9,18.5-20.1,28.4-29.5
		c6-5.7,13.3-9.9,21.2-13.2c12.8-5.3,26.1-6.2,39.5-5c5.9,0.5,11.8,2.6,17.4,4.8c5.7,2.3,11.3,5.1,16.2,8.8c6.8,5.2,13,11.2,19,17.2
		c7.5,7.5,14.3,15.6,21.8,23c6.5,6.3,14.2,11.2,23.1,13.1c5.8,1.2,11.7,2.2,18,0.9c5.8-1.2,11.4-2.5,16.6-5.3
		c8.9-5,16.2-11.7,22.5-19.7c3.4-4.3,7.4-8.1,11.4-11.9c6.4-6.1,12.8-12.4,19.7-17.8c8-6.3,17.3-9.6,27.3-11.9
		c7.9-1.8,15.7-1.7,23.4-1.2c6.3,0.4,12.5,2.5,18.7,4.1c6.6,1.7,12.5,5,17.6,9.2c6.8,5.5,13.2,11.5,19.4,17.7
		c6.1,6.1,11.8,12.7,17.7,19c7.4,7.8,15.9,14.1,26.4,16.7c5.7,1.4,11.8,3,18,1.1c3.1-0.9,6.4-1.2,9.6-2c8.2-2.2,15-7,20.9-12.8
		c10.1-10,19.7-20.6,29.6-30.8c7.7-7.9,16.7-13.9,27.2-17.8c9.5-3.5,19.1-5.1,29.2-4.6c6.5,0.3,12.4,6.5,12.9,13
		c0.5,7.4-2.4,12.5-8.9,15.7c-1.1,0.6-2.5,0.9-3.7,0.9c-9.9-0.3-19.2,2.3-27.6,7.4c-7.6,4.6-13.9,10.9-19.7,17.7
		c-9.4,11-19.2,21.5-31.4,29.6c-6.9,4.6-14.2,7.7-22.2,9.9C635.6,99.9,628.8,101,621.7,101.1z"/>
</g>
<rect x="159.9" y="308.5" class="st0" width="662.1" height="545.7"/>
<text transform="matrix(1 0 0 1 159.9148 620.8847)" class="st1 st2 st3 st4">Cl</text>
<rect x="547.5" y="68.3" class="st0" width="262.8" height="480.3"/>
<text transform="matrix(1 0 0 1 547.4779 380.7158)" class="st1 st2 st3">-</text>
<path class="st5" d="M94.8,180.7c0-16.1-13.1-29.4-29.4-29.4c-16.1,0-29.4,13.1-29.4,29.4l0,0c0,16.1,13.1,29.4,29.4,29.4
	C81.6,210.1,94.8,197.1,94.8,180.7L94.8,180.7z"/>
<path class="st5" d="M135,684.9c0-16.1-13.1-29.4-29.4-29.4c-16.1,0-29.4,13.1-29.4,29.4l0,0c0,16.1,13.1,29.4,29.4,29.4
	C121.7,714.3,135,701.3,135,684.9L135,684.9z"/>
<path class="st5" d="M719.7,520.6c0-16.1-13.1-29.4-29.4-29.4c-16.1,0-29.4,13.1-29.4,29.4l0,0c0,16.1,13.1,29.4,29.4,29.4
	C706.4,549.9,719.7,536.9,719.7,520.6L719.7,520.6z"/>
<g>
	<path d="M628.7,188.2c-5.9-0.6-12-0.6-17.8-1.9c-8.3-1.9-16.1-5.3-23.2-9.9c-13.6-8.7-24.1-20.7-34.6-32.7
		c-6.5-7.4-13.5-14.5-22.4-19c-3.8-1.9-8.1-3-12.3-4.1c-3.5-0.9-7.2-1.7-10.8-1.6c-10.1,0.3-19.5,3.5-27.7,9.5
		c-7.7,5.6-13.8,12.9-20.2,19.8c-8.4,9-17.3,17.7-26.9,25.5c-6.6,5.4-14.6,8.6-22.9,11.2c-9.5,2.9-19,3.3-28.6,2.6
		c-9.5-0.6-18.4-3.6-27-7.8c-12.9-6.4-22.6-16.6-32.3-26.6c-5.9-6.1-11.4-12.5-17.3-18.6c-6-6.2-13.2-10.7-21.4-13.2
		c-6.4-2-13.1-3.4-20-2.2c-13.2,2.3-24.2,8.6-33.3,18.4c-9.4,10.1-18.8,20.1-28.5,29.8c-5.8,5.8-12.9,9.9-20.3,13.5
		c-12.5,6.2-25.8,7.8-39.5,6.8c-9.5-0.7-18.4-3.6-27-7.8c-12.9-6.3-22.6-16.6-32.3-26.6c-6.7-6.9-12.9-14.1-19.7-20.8
		c-5.2-5.1-11.6-8.8-18.6-10.9c-5-1.5-10.3-2.4-15.5-2.4c-7.7,0-12.2-5.2-13.8-10.7c-1.9-6.5,1.2-14.1,6.7-17.2
		c1.3-0.7,2.8-1.4,4.2-1.4c6.7,0.3,13.7,0,20.2,1.6c9.7,2.4,18.8,6.9,27.1,12.7c9.6,6.8,17.1,15.8,25.4,24c5.2,5.1,9.7,10.9,14.8,16
		c6.7,6.7,14.7,11.9,23.9,14c5.8,1.3,11.7,2.3,18,1c5.6-1.2,11-2.3,16.1-5c7.4-3.8,13.4-9.2,19.1-15.1c9.4-9.9,18.5-20.1,28.4-29.5
		c6-5.7,13.3-9.9,21.2-13.2c12.8-5.3,26.1-6.2,39.5-5c5.9,0.5,11.8,2.6,17.4,4.8c5.7,2.3,11.3,5.1,16.2,8.8c6.8,5.2,13,11.2,19,17.2
		c7.5,7.5,14.3,15.6,21.8,23c6.5,6.3,14.2,11.2,23.1,13.1c5.8,1.2,11.7,2.2,18,0.9c5.8-1.2,11.4-2.5,16.6-5.3
		c8.9-5,16.2-11.7,22.5-19.7c3.4-4.3,7.4-8.1,11.4-11.9c6.4-6.1,12.8-12.4,19.7-17.8c8-6.3,17.3-9.6,27.3-11.9
		c7.9-1.8,15.7-1.7,23.4-1.2c6.3,0.4,12.5,2.5,18.7,4.1c6.6,1.7,12.5,5,17.6,9.2c6.8,5.5,13.2,11.5,19.4,17.7
		c6.1,6.1,11.8,12.7,17.7,19c7.4,7.8,15.9,14.1,26.4,16.7c5.7,1.4,11.8,3,18,1.1c3.1-0.9,6.4-1.2,9.6-2c8.2-2.2,15-7,20.9-12.8
		c10.1-10,19.7-20.6,29.6-30.8c7.7-7.9,16.7-13.9,27.2-17.8c9.5-3.5,19.1-5.1,29.2-4.6c6.5,0.3,12.4,6.5,12.9,13
		c0.5,7.4-2.4,12.5-8.9,15.7c-1.1,0.6-2.5,0.9-3.7,0.9c-9.9-0.3-19.2,2.3-27.6,7.4c-7.6,4.6-13.9,10.9-19.7,17.7
		c-9.4,11-19.2,21.5-31.4,29.6c-6.9,4.6-14.2,7.7-22.2,9.9C642.6,187,635.8,188.1,628.7,188.2z"/>
</g>
<rect x="10.1" y="301.2" class="st0" width="1363.3" height="545.7"/>
<text transform="matrix(1 0 0 1 10.0775 535.5217)" class="st1 st2 st6 st7">Chl-a</text>
<rect x="14.1" y="320.2" class="st0" width="842.5" height="310.9"/>
<text transform="matrix(1 0 0 1 14.0775 554.5041)" class="st1 st2 st6 st7">Chl-a</text>
<rect x="125" y="298.5" class="st0" width="512.9" height="545.7"/>
<text transform="matrix(1 0 0 1 125.0232 610.8634)" class="st1 st2 st3 st4">PE</text>
<rect x="125" y="298.5" class="st0" width="563.3" height="545.7"/>
<text transform="matrix(1 0 0 1 125.0232 610.8634)" class="st1 st2 st3 st4">PC</text>
<g>
	<path d="M63,590.5c-3.6-3.6-5.5-8.3-5.5-14.2V321.9c0-5.8,1.8-10.4,5.5-14.2c3.6-3.6,8.1-5.4,13.7-5.4c2.8,0,5.5,0.8,8.3,2
		c2.8,1.4,5,3.1,6.8,5l163.8,218V321.9c0-5.8,1.9-10.4,5.6-14.2c3.8-3.6,8.4-5.4,13.9-5.4s10,1.9,13.7,5.4c3.6,3.6,5.5,8.4,5.5,14.2
		v254.4c0,5.8-1.9,10.5-5.5,14.2s-8.3,5.4-13.7,5.4c-2.8,0-5.6-0.6-8.5-1.6c-2.9-1.1-5.1-2.9-6.6-5.1l-163.8-218v205.2
		c0,5.5-1.9,10.1-5.5,13.9c-3.6,3.8-8.4,5.6-14.2,5.6C71.2,595.9,66.6,594.1,63,590.5z"/>
	<path d="M418.1,580.5c-22.7-12.8-40.3-30.6-52.7-53.6c-12.5-22.9-18.8-48.9-18.8-78c0-29.1,6.3-55,18.8-77.8s30.1-40.6,52.7-53.4
		c22.7-12.8,48.5-19.2,77.7-19.2c28.8,0,54.5,6.4,77.3,19.2c22.7,12.8,40.3,30.6,53,53.4s19,48.7,19,77.8s-6.4,55.1-19,78
		c-12.7,22.9-30.3,40.8-52.9,53.6c-22.5,12.8-48.4,19.2-77.4,19.2C466.6,599.6,440.8,593.2,418.1,580.5z M553.2,549.1
		c17-10.1,30.3-23.9,39.8-41.6c9.5-17.5,14.3-37.1,14.3-58.6s-4.8-41.1-14.3-58.6S570.2,359,553.3,349s-36.2-15-57.6-15
		c-21.5,0-40.7,5-57.6,15s-30.2,23.8-39.7,41.3s-14.3,37.1-14.3,58.6s4.8,41.1,14.3,58.6s22.8,31.3,39.8,41.6
		c17,10.1,36.2,15.2,57.5,15.2C517,564.3,536.1,559.3,553.2,549.1z"/>
</g>
<g>
	<path d="M662.7,684.2c-7.9-4.3-14.1-10.1-18.7-17.5c-4.5-7.4-6.7-15.7-6.7-24.9c0-2.9,0.9-5.5,2.6-7.6c1.8-2,4-3.1,6.7-3.1
		s5,1,6.7,3.1c1.8,2,2.6,4.5,2.6,7.6c0,5.5,1.5,10.7,4.3,15.4c2.8,4.6,6.8,8.4,11.7,11.2c5,2.8,10.4,4.2,16.4,4.2
		c9,0,16.4-2.5,21.8-7.6c5.4-5,8.1-12,8.1-20.8c0-5.5-1.2-10.7-3.6-15.4c-2.5-4.6-5.8-8.4-10.1-11s-9-4-14.1-4c-2.9,0-5.4-1-7.5-3.1
		c-1.9-2-2.9-4.5-2.9-7.6c0-2.9,1-5.4,2.9-7.5c1.9-1.9,4.4-2.9,7.5-2.9c3.8,0,7.5-1,11.1-2.9s6.6-4.6,8.7-8
		c2.3-3.4,3.4-7.1,3.4-11.2c0-6-2.1-11-6.6-15c-4.3-4.1-10-6.1-16.7-6.1c-5.2,0-9.8,1-14.1,3.1c-4.3,2-7.7,4.8-10.2,8.1
		c-2.5,3.4-3.7,7.2-3.7,11.4c0,3.2-0.9,5.8-2.6,7.8c-1.8,2.1-4,3.2-6.7,3.2s-5-1-6.7-2.9c-1.8-1.9-2.6-4.4-2.6-7.5
		c0-7.7,2-14.7,6.1-21s9.6-11.3,16.7-14.8c7-3.6,14.9-5.4,23.6-5.4c7.9,0,15,1.7,21.6,5.2s11.7,8.1,15.4,14.1s5.7,12.7,5.7,19.9
		c0,7.4-2.3,13.7-6.9,19c-4.6,5.3-10.4,9.6-17.3,12.8c10.3,3.5,18,8.9,23,16.2c5,7.2,7.6,15.8,7.6,25.8c0,8.7-2.3,16.5-6.7,23.6
		c-4.5,7-10.5,12.6-18,16.6c-7.6,4-15.7,6-24.5,6C679.7,690.6,670.7,688.5,662.7,684.2z"/>
</g>
<g>
	<path d="M649.3,297.2c-2.7-2.7-4.2-6.1-4.2-10.4c0-4.2,1.4-7.7,4.2-10.6c2.7-2.7,6.2-4.2,10.6-4.2H724c4.2,0,7.7,1.4,10.4,4.2
		c2.7,2.7,4,6.2,4,10.6c0,4.2-1.3,7.7-4,10.4c-2.7,2.7-6.1,4-10.4,4h-64.2C655.5,301.3,652.1,299.9,649.3,297.2z"/>
</g>
</svg>
