<?xml version="1.0" encoding="UTF-8"?><svg id="a" xmlns="http://www.w3.org/2000/svg" viewBox="0 0 759.81 866.89"><path d="M614.67,98.31c-5.93-.59-12-.59-17.76-1.91-8.25-1.88-16.07-5.27-23.25-9.85-13.61-8.69-24.12-20.68-34.65-32.68-6.51-7.42-13.49-14.52-22.43-19.04-3.83-1.94-8.15-3.01-12.35-4.06-3.52-.88-7.21-1.69-10.8-1.58-10.15,.29-19.46,3.48-27.68,9.52-7.68,5.64-13.76,12.86-20.21,19.81-8.38,9.03-17.31,17.68-26.85,25.45-6.56,5.35-14.63,8.64-22.95,11.18-9.45,2.89-19.03,3.25-28.64,2.6-9.47-.64-18.4-3.56-27.01-7.79-12.93-6.36-22.55-16.58-32.33-26.64-5.9-6.07-11.42-12.51-17.3-18.59-5.98-6.19-13.21-10.73-21.36-13.23-6.4-1.96-13.13-3.42-19.98-2.2-13.17,2.35-24.16,8.6-33.28,18.39-9.37,10.05-18.79,20.08-28.52,29.79-5.8,5.79-12.9,9.88-20.26,13.53-12.53,6.22-25.84,7.79-39.5,6.78-9.47-.7-18.4-3.59-27.01-7.81-12.94-6.34-22.55-16.57-32.34-26.63-6.67-6.85-12.9-14.14-19.73-20.81-5.23-5.11-11.64-8.84-18.64-10.93-4.97-1.48-10.31-2.39-15.48-2.38-7.72,.02-12.2-5.22-13.81-10.66C-1.36,12.06,1.8,4.44,7.25,1.36,8.52,.64,10.07-.06,11.46,0c6.74,.3,13.7-.03,20.16,1.56,9.75,2.39,18.77,6.85,27.1,12.72,9.64,6.79,17.08,15.81,25.37,23.95,5.18,5.09,9.68,10.85,14.83,15.97,6.73,6.69,14.67,11.94,23.93,14,5.76,1.28,11.73,2.31,18.02,1.02,5.6-1.15,10.98-2.33,16.09-4.97,7.37-3.82,13.43-9.17,19.08-15.14,9.38-9.91,18.52-20.07,28.38-29.48,6.02-5.74,13.35-9.91,21.18-13.19,12.78-5.35,26.1-6.25,39.54-5.04,5.91,.53,11.84,2.59,17.4,4.84,5.66,2.3,11.35,5.07,16.17,8.76,6.77,5.18,12.97,11.18,19.01,17.22,7.46,7.46,14.26,15.59,21.8,22.96,6.47,6.33,14.22,11.24,23.11,13.09,5.78,1.2,11.74,2.18,18.03,.94,5.84-1.15,11.42-2.45,16.59-5.33,8.9-4.96,16.22-11.68,22.51-19.71,3.36-4.29,7.39-8.09,11.37-11.86,6.43-6.09,12.75-12.36,19.69-17.83,7.96-6.28,17.33-9.61,27.3-11.92,7.88-1.82,15.67-1.7,23.43-1.21,6.31,.4,12.53,2.53,18.73,4.11,6.57,1.67,12.48,4.96,17.64,9.17,6.77,5.53,13.22,11.5,19.43,17.66,6.14,6.09,11.78,12.7,17.71,19.01,7.36,7.83,15.92,14.12,26.37,16.73,5.73,1.43,11.8,3.01,17.97,1.15,3.1-.94,6.41-1.16,9.55-2,8.21-2.2,15.02-6.99,20.9-12.83,10.09-10.03,19.65-20.6,29.59-30.79,7.73-7.92,16.7-13.9,27.21-17.83,9.5-3.55,19.13-5.05,29.17-4.63,6.49,.27,12.43,6.51,12.91,13.04,.54,7.37-2.37,12.53-8.88,15.73-1.12,.55-2.48,.91-3.71,.87-9.95-.32-19.19,2.25-27.57,7.37-7.6,4.64-13.93,10.86-19.7,17.65-9.36,11.02-19.23,21.52-31.37,29.63-6.86,4.58-14.24,7.7-22.21,9.86-6.81,1.84-13.57,2.92-20.63,3.05Z"/><path d="M621.67,185.44c-5.93-.59-12-.59-17.76-1.91-8.25-1.88-16.07-5.27-23.25-9.85-13.61-8.69-24.12-20.68-34.65-32.68-6.51-7.42-13.49-14.52-22.43-19.04-3.83-1.94-8.15-3.01-12.35-4.06-3.52-.88-7.21-1.69-10.8-1.58-10.15,.29-19.46,3.48-27.68,9.52-7.68,5.64-13.76,12.86-20.21,19.81-8.38,9.03-17.31,17.68-26.85,25.45-6.56,5.35-14.63,8.64-22.95,11.18-9.45,2.89-19.03,3.25-28.64,2.6-9.47-.64-18.4-3.56-27.01-7.79-12.93-6.36-22.55-16.58-32.33-26.64-5.9-6.07-11.42-12.51-17.3-18.59-5.98-6.19-13.21-10.73-21.36-13.23-6.4-1.96-13.13-3.42-19.98-2.2-13.17,2.35-24.16,8.6-33.28,18.39-9.37,10.05-18.79,20.08-28.52,29.79-5.8,5.79-12.9,9.88-20.26,13.53-12.53,6.22-25.84,7.79-39.5,6.78-9.47-.7-18.4-3.59-27.01-7.81-12.94-6.34-22.55-16.57-32.34-26.63-6.67-6.85-12.9-14.14-19.73-20.81-5.23-5.11-11.64-8.84-18.64-10.93-4.97-1.48-10.31-2.39-15.48-2.38-7.72,.02-12.2-5.22-13.81-10.66-1.92-6.5,1.23-14.12,6.68-17.2,1.27-.72,2.82-1.41,4.21-1.35,6.74,.3,13.7-.03,20.16,1.56,9.75,2.39,18.77,6.85,27.1,12.72,9.64,6.79,17.08,15.81,25.37,23.95,5.18,5.09,9.68,10.85,14.83,15.97,6.73,6.69,14.67,11.94,23.93,14,5.76,1.28,11.73,2.31,18.02,1.02,5.6-1.15,10.98-2.33,16.09-4.97,7.37-3.82,13.43-9.17,19.08-15.14,9.38-9.91,18.52-20.07,28.38-29.48,6.02-5.74,13.35-9.91,21.18-13.19,12.78-5.35,26.1-6.25,39.54-5.04,5.91,.53,11.84,2.59,17.4,4.84,5.66,2.3,11.35,5.07,16.17,8.76,6.77,5.18,12.97,11.18,19.01,17.22,7.46,7.46,14.26,15.59,21.8,22.96,6.47,6.33,14.22,11.24,23.11,13.09,5.78,1.2,11.74,2.18,18.03,.94,5.84-1.15,11.42-2.45,16.59-5.33,8.9-4.96,16.22-11.68,22.51-19.71,3.36-4.29,7.39-8.09,11.37-11.86,6.43-6.09,12.75-12.36,19.69-17.83,7.96-6.28,17.33-9.61,27.3-11.92,7.88-1.82,15.67-1.7,23.43-1.21,6.31,.4,12.53,2.53,18.73,4.11,6.57,1.67,12.48,4.96,17.64,9.17,6.77,5.53,13.22,11.5,19.43,17.66,6.14,6.09,11.78,12.7,17.71,19.01,7.36,7.83,15.92,14.12,26.37,16.73,5.73,1.43,11.8,3.01,17.97,1.15,3.1-.94,6.41-1.16,9.55-2,8.21-2.2,15.02-6.99,20.9-12.83,10.09-10.03,19.65-20.6,29.59-30.79,7.73-7.92,16.7-13.9,27.21-17.83,9.5-3.55,19.13-5.05,29.17-4.63,6.49,.27,12.43,6.51,12.91,13.04,.54,7.37-2.37,12.53-8.88,15.73-1.12,.55-2.48,.91-3.71,.87-9.95-.32-19.19,2.25-27.57,7.37-7.6,4.64-13.93,10.86-19.7,17.65-9.36,11.02-19.23,21.52-31.37,29.63-6.86,4.58-14.24,7.7-22.21,9.86-6.81,1.84-13.57,2.92-20.63,3.05Z"/><g><path d="M184.16,616.34c-23.6-14.13-42.2-33.46-55.8-58-13.6-24.53-20.4-51.6-20.4-81.2s6.8-56.2,20.4-80.6c13.6-24.4,32.2-43.73,55.8-58,23.6-14.26,49.66-21.4,78.2-21.4,20.26,0,37.8,2.67,52.6,8,14.8,5.34,29.8,14.14,45,26.4,3.2,2.4,5.33,4.87,6.4,7.4,1.06,2.54,1.6,5.54,1.6,9,0,5.34-1.94,9.74-5.8,13.2-3.87,3.47-8.34,5.2-13.4,5.2s-9.74-1.73-14-5.2c-10.94-9.33-21.6-16.06-32-20.2-10.4-4.13-23.87-6.2-40.4-6.2-20.8,0-39.94,5.47-57.4,16.4-17.47,10.94-31.34,25.8-41.6,44.6-10.27,18.8-15.4,39.27-15.4,61.4s5.13,42.94,15.4,61.6c10.26,18.67,24.13,33.47,41.6,44.4,17.46,10.94,36.6,16.4,57.4,16.4,25.6,0,50.13-8.8,73.6-26.4,4.53-3.2,8.93-4.8,13.2-4.8,5.06,0,9.26,1.8,12.6,5.4,3.33,3.6,5,8.34,5,14.2s-2.14,10.54-6.4,14.8c-28.8,23.2-61.47,34.8-98,34.8-28.54,0-54.6-7.06-78.2-21.2Z"/><path d="M558.16,427.74c16.66,9.74,29.86,23.07,39.6,40,9.73,16.94,14.6,35.8,14.6,56.6v89.2c0,5.87-1.94,10.74-5.8,14.6s-8.74,5.8-14.6,5.8-10.74-1.93-14.6-5.8c-3.87-3.86-5.8-8.73-5.8-14.6v-14.8c-9.34,11.47-20.67,20.4-34,26.8-13.34,6.4-27.74,9.6-43.2,9.6-19.2,0-36.6-4.8-52.2-14.4-15.6-9.6-27.87-22.86-36.8-39.8-8.94-16.93-13.4-35.8-13.4-56.6s4.8-39.66,14.4-56.6c9.6-16.93,22.86-30.26,39.8-40,16.93-9.73,35.66-14.6,56.2-14.6s39.13,4.87,55.8,14.6Zm-19.6,161.6c10.8-6.53,19.26-15.46,25.4-26.8,6.13-11.33,9.2-24.06,9.2-38.2s-3.07-26.93-9.2-38.4c-6.14-11.46-14.6-20.46-25.4-27-10.8-6.53-22.87-9.8-36.2-9.8s-25.4,3.27-36.2,9.8c-10.8,6.54-19.34,15.54-25.6,27-6.27,11.47-9.4,24.27-9.4,38.4s3.13,26.87,9.4,38.2c6.26,11.34,14.8,20.27,25.6,26.8,10.8,6.54,22.86,9.8,36.2,9.8s25.4-3.26,36.2-9.8Z"/></g><g><path d="M528.97,388.86c-2.13-2.2-3.19-4.84-3.19-7.92s1.02-5.86,3.08-7.92l62.48-73.04c9.24-10.56,13.86-19.72,13.86-27.5,0-9.53-2.46-17.16-7.37-22.88-4.92-5.72-11.62-8.58-20.13-8.58-5.43,0-10.42,1.43-14.96,4.29-4.55,2.86-8.11,6.71-10.67,11.55-2.57,4.84-3.85,10.05-3.85,15.62,0,2.94-1.07,5.5-3.19,7.7-2.13,2.2-4.81,3.3-8.03,3.3s-5.72-1.1-7.92-3.3-3.3-4.76-3.3-7.7c0-9.82,2.27-18.7,6.82-26.62,4.54-7.92,10.74-14.15,18.59-18.7,7.84-4.54,16.68-6.82,26.51-6.82s18.44,2.13,25.85,6.38c7.41,4.26,13.12,10.31,17.16,18.15,4.03,7.85,6.05,17.05,6.05,27.61,0,6.46-1.87,13.17-5.61,20.13-3.74,6.97-8.4,13.61-13.97,19.91l-50.38,57.2h61.6c3.22,0,5.94,1.1,8.14,3.3s3.3,4.84,3.3,7.92-1.1,5.72-3.3,7.92c-2.2,2.2-4.92,3.3-8.14,3.3h-81.4c-3.23,0-5.91-1.1-8.03-3.3Z"/><path d="M687.59,356.41c-2.13-2.12-3.19-4.8-3.19-8.03v-29.48h-29.48c-3.23,0-5.91-1.1-8.03-3.3-2.13-2.2-3.19-4.91-3.19-8.14s1.06-5.9,3.19-8.03c2.12-2.12,4.8-3.19,8.03-3.19h29.48v-29.48c0-3.08,1.13-5.72,3.41-7.92,2.27-2.2,4.87-3.3,7.81-3.3,3.22,0,5.9,1.07,8.03,3.19,2.12,2.13,3.19,4.81,3.19,8.03v29.48h29.48c3.08,0,5.75,1.1,8.03,3.3,2.27,2.2,3.41,4.92,3.41,8.14s-1.14,5.72-3.41,7.92c-2.28,2.2-4.95,3.3-8.03,3.3h-29.48v29.48c0,3.23-1.07,5.91-3.19,8.03-2.13,2.13-4.81,3.19-8.03,3.19s-5.91-1.06-8.03-3.19Z"/></g></svg>