<?xml version="1.0" encoding="utf-8"?>
<!-- Generator: Adobe Illustrator 26.5.2, SVG Export Plug-In . SVG Version: 6.00 Build 0)  -->
<svg version="1.1" id="Calque_1" xmlns="http://www.w3.org/2000/svg" xmlns:xlink="http://www.w3.org/1999/xlink" x="0px" y="0px"
	 viewBox="0 0 755.8 755.9" style="enable-background:new 0 0 755.8 755.9;" xml:space="preserve">
<path d="M614.7,98.3c-5.9-0.6-12-0.6-17.8-1.9c-8.3-1.9-16.1-5.3-23.2-9.8C560,77.9,549.5,65.9,539,53.9c-6.5-7.4-13.5-14.5-22.4-19
	c-3.9-1.8-8.1-3.2-12.3-4.1c-3.5-1-7.1-1.5-10.8-1.6c-10,0.2-19.7,3.6-27.7,9.5c-7.7,5.6-13.8,12.9-20.2,19.8
	c-8.4,9.1-17.3,17.6-26.9,25.5c-6.6,5.4-14.6,8.6-23,11.2c-9.5,2.9-19,3.2-28.6,2.6s-18.4-3.6-27-7.8c-12.9-6.4-22.5-16.6-32.3-26.6
	c-5.9-6.1-11.4-12.5-17.3-18.6c-5.9-6.2-13.2-10.7-21.4-13.2c-6.4-2-13.1-3.4-20-2.2c-12.8,2.3-24.5,8.7-33.3,18.4
	c-9.4,10.1-18.8,20.1-28.5,29.8c-5.8,5.8-12.9,9.9-20.2,13.5c-12.5,6.2-25.9,7.8-39.5,6.8c-9.4-0.8-18.6-3.5-27-7.8
	C87.6,83.6,78,73.4,68.2,63.3c-6.7-6.8-12.9-14.1-19.7-20.8c-5.2-5.1-11.6-8.9-18.6-10.9c-5-1.5-10.2-2.3-15.5-2.4
	C6.7,29.2,2.2,24,0.6,18.5C-1.4,12,1.8,4.4,7.2,1.3C8.5,0.5,10,0.1,11.5,0c6.7,0.3,13.7,0,20.2,1.6c9.8,2.5,18.9,6.8,27.1,12.7
	c9.6,6.8,17.1,15.8,25.4,23.9c5.2,5.1,9.7,10.8,14.8,16c6.7,6.7,14.7,11.9,23.9,14c5.8,1.3,11.7,2.3,18,1c5.6-1.2,11-2.3,16.1-5
	c7.4-3.8,13.4-9.2,19.1-15.1c9.4-9.9,18.5-20.1,28.4-29.5c6-5.7,13.4-9.9,21.2-13.2c12.8-5.3,26.1-6.2,39.5-5
	C271,1.9,277,4,282.5,6.2c5.8,2.2,11.2,5.1,16.2,8.8c6.7,5.3,13.1,11.1,19,17.2c7.5,7.5,14.3,15.6,21.8,23
	c6.5,6.3,14.2,11.2,23.1,13.1c5.8,1.2,11.7,2.2,18,0.9c5.8-1.2,11.4-2.4,16.6-5.3c8.8-5,16.4-11.7,22.5-19.7
	c3.5-4.2,7.3-8.2,11.4-11.9c6.5-6.1,12.8-12.4,19.7-17.9c8-6.3,17.3-9.6,27.3-11.9c7.9-1.8,15.7-1.7,23.4-1.2
	c6.3,0.4,12.5,2.5,18.7,4.1c6.5,1.7,12.5,4.9,17.6,9.2c6.8,5.5,13.2,11.5,19.4,17.7s11.8,12.7,17.7,19c7.3,7.8,15.9,14.1,26.4,16.7
	c5.7,1.4,11.8,3,18,1.2c3.1-0.9,6.4-1.2,9.5-2c8.2-2.2,15-7,20.9-12.8c10.1-10,19.7-20.6,29.6-30.8c14.7-15.2,35.2-23.4,56.4-22.5
	c6.5,0.3,12.4,6.5,12.9,13c0.5,7.4-2.4,12.5-8.9,15.7c-1.2,0.6-2.4,0.9-3.7,0.9c-9.7-0.3-19.3,2.2-27.6,7.4
	c-7.6,4.6-13.9,10.8-19.7,17.7c-9.4,11-19.2,21.5-31.4,29.6c-6.8,4.5-14.3,7.8-22.2,9.9C628.6,97.1,621.7,98.1,614.7,98.3z"/>
<path d="M621.7,185.4c-5.9-0.6-12-0.6-17.8-1.9c-8.3-1.9-16.1-5.3-23.2-9.9C567,165,556.5,153,546,141c-6.5-7.4-13.5-14.5-22.4-19
	c-3.8-1.9-8.1-3-12.3-4.1c-3.5-1-7.1-1.5-10.8-1.6c-10,0.2-19.7,3.6-27.7,9.5c-7.7,5.6-13.8,12.9-20.2,19.8
	c-8.4,9.1-17.3,17.6-26.9,25.5c-6.6,5.4-14.6,8.6-23,11.2c-9.5,2.9-19,3.2-28.6,2.6s-18.4-3.6-27-7.8c-12.9-6.4-22.5-16.6-32.3-26.6
	c-5.9-6.1-11.4-12.5-17.3-18.6c-5.9-6.2-13.2-10.7-21.4-13.2c-6.4-2-13.1-3.4-20-2.2c-12.8,2.3-24.5,8.7-33.3,18.4
	c-9.4,10-18.8,20.1-28.5,29.8c-5.8,5.8-12.9,9.9-20.3,13.5c-12.5,6.2-25.8,7.8-39.5,6.8c-9.4-0.8-18.6-3.5-27-7.8
	c-12.9-6.4-22.6-16.6-32.3-26.6c-6.7-6.9-12.9-14.1-19.7-20.8c-5.2-5.1-11.6-8.9-18.6-10.9c-5-1.5-10.2-2.3-15.5-2.4
	c-7.7,0-12.2-5.2-13.8-10.7c-1.9-6.5,1.2-14.1,6.7-17.2c1.3-0.8,2.7-1.3,4.2-1.3c6.7,0.3,13.7,0,20.2,1.6
	c9.7,2.5,18.9,6.8,27.1,12.7c9.6,6.8,17.1,15.8,25.4,24c5.2,5.1,9.7,10.9,14.8,16c6.7,6.7,14.7,11.9,23.9,14c5.8,1.3,11.7,2.3,18,1
	c5.6-1.2,11-2.3,16.1-5c7.4-3.8,13.4-9.2,19.1-15.1c9.4-9.9,18.5-20.1,28.4-29.5c6-5.8,13.4-9.9,21.2-13.2c12.8-5.3,26.1-6.2,39.5-5
	c5.9,0.5,11.8,2.6,17.4,4.8c5.8,2.2,11.2,5.1,16.2,8.8c6.7,5.3,13.1,11.1,19,17.2c7.5,7.5,14.3,15.6,21.8,23
	c6.5,6.3,14.2,11.2,23.1,13.1c5.8,1.2,11.7,2.2,18,0.9c5.8-1.1,11.4-2.4,16.6-5.3c8.8-5,16.4-11.7,22.5-19.7
	c3.5-4.2,7.3-8.2,11.4-11.9c6.4-6.1,12.8-12.4,19.7-17.8c8-6.3,17.3-9.6,27.3-11.9c7.9-1.8,15.7-1.7,23.4-1.2
	c6.3,0.4,12.5,2.5,18.7,4.1c6.5,1.7,12.5,4.8,17.7,9.1c6.8,5.5,13.2,11.5,19.4,17.7s11.8,12.7,17.7,19c7.3,7.8,15.9,14.1,26.4,16.7
	c5.7,1.4,11.8,3,18,1.1c3.1-0.9,6.4-1.2,9.5-2c8.2-2.2,15-7,20.9-12.8c10.1-10,19.7-20.6,29.6-30.8c14.7-15.2,35.2-23.4,56.4-22.5
	c6.5,0.3,12.4,6.5,12.9,13c0.5,7.4-2.4,12.5-8.9,15.7c-1.2,0.6-2.4,0.9-3.7,0.9c-9.7-0.3-19.3,2.2-27.6,7.4
	c-7.6,4.6-13.9,10.8-19.7,17.6c-9.4,11-19.2,21.5-31.4,29.6c-6.8,4.5-14.3,7.8-22.2,9.9C635.6,184.2,628.6,185.3,621.7,185.4z"/>
<path d="M218.3,542c-3-2.9-4.6-6.9-4.5-11.1V327.8c-0.1-4.2,1.5-8.3,4.5-11.2c3-2.9,7-4.4,11.1-4.4h60c14.8,0,28.1,3.3,39.8,9.9
	c11.5,6.4,21,16,27.3,27.6c6.5,11.8,9.8,25.2,9.8,40.2c0,14.6-3.2,27.6-9.8,39c-6.4,11.3-15.9,20.6-27.3,26.7
	c-11.7,6.4-25,9.6-39.8,9.6H245v65.7c0.1,4.1-1.5,8.1-4.4,11.1C234.4,548,224.5,548,218.3,542L218.3,542z M289.4,436.4
	c13.6,0,24.8-4.4,33.6-13c8.8-8.7,13.2-19.8,13.2-33.5c0-14.2-4.4-25.9-13.2-35.1S303,341,289.4,341H245v95.4H289.4z"/>
<path d="M390.2,542c-3-2.9-4.6-6.9-4.5-11.1V327.8c-0.1-4.2,1.5-8.3,4.5-11.2c3-2.9,7-4.4,11.1-4.4h135.6c4.6,0,8.3,1.4,11.1,4
	c2.8,2.8,4.4,6.7,4.2,10.6c0.1,3.8-1.4,7.6-4.2,10.2c-2.8,2.6-6.5,3.9-11.1,3.9h-120v72.9H503c4-0.1,7.9,1.3,10.9,4.1
	c5.7,5.6,5.8,14.8,0.2,20.5c-0.1,0.1-0.1,0.1-0.2,0.2c-3,2.7-6.9,4.2-10.9,4h-86v75h120c4.6,0,8.3,1.3,11.1,3.9
	c2.8,2.6,4.3,6.4,4.2,10.2c0.2,4-1.4,7.9-4.2,10.7c-2.8,2.7-6.5,4-11.1,4H401.3C397.1,546.6,393.1,544.9,390.2,542z"/>
</svg>
