<?xml version="1.0" encoding="UTF-8"?><svg id="a" xmlns="http://www.w3.org/2000/svg" viewBox="0 0 756.81 865.89"><path d="M614.67,98.31c-5.93-.59-12-.59-17.76-1.91-8.25-1.88-16.07-5.27-23.25-9.85-13.61-8.69-24.12-20.68-34.65-32.68-6.51-7.42-13.49-14.52-22.43-19.04-3.83-1.94-8.15-3.01-12.35-4.06-3.52-.88-7.21-1.69-10.8-1.58-10.15,.29-19.46,3.48-27.68,9.52-7.68,5.64-13.76,12.86-20.21,19.81-8.38,9.03-17.31,17.68-26.85,25.45-6.56,5.35-14.63,8.64-22.95,11.18-9.45,2.89-19.03,3.25-28.64,2.6-9.47-.64-18.4-3.56-27.01-7.79-12.93-6.36-22.55-16.58-32.33-26.64-5.9-6.07-11.42-12.51-17.3-18.59-5.98-6.19-13.21-10.73-21.36-13.23-6.4-1.96-13.13-3.42-19.98-2.2-13.17,2.35-24.16,8.6-33.28,18.39-9.37,10.05-18.79,20.08-28.52,29.79-5.8,5.79-12.9,9.88-20.26,13.53-12.53,6.22-25.84,7.79-39.5,6.78-9.47-.7-18.4-3.59-27.01-7.81-12.94-6.34-22.55-16.57-32.34-26.63-6.67-6.85-12.9-14.14-19.73-20.81-5.23-5.11-11.64-8.84-18.64-10.93-4.97-1.48-10.31-2.39-15.48-2.38-7.72,.02-12.2-5.22-13.81-10.66C-1.36,12.06,1.8,4.44,7.25,1.36,8.52,.64,10.07-.06,11.46,0c6.74,.3,13.7-.03,20.16,1.56,9.75,2.39,18.77,6.85,27.1,12.72,9.64,6.79,17.08,15.81,25.37,23.95,5.18,5.09,9.68,10.85,14.83,15.97,6.73,6.69,14.67,11.94,23.93,14,5.76,1.28,11.73,2.31,18.02,1.02,5.6-1.15,10.98-2.33,16.09-4.97,7.37-3.82,13.43-9.17,19.08-15.14,9.38-9.91,18.52-20.07,28.38-29.48,6.02-5.74,13.35-9.91,21.18-13.19,12.78-5.35,26.1-6.25,39.54-5.04,5.91,.53,11.84,2.59,17.4,4.84,5.66,2.3,11.35,5.07,16.17,8.76,6.77,5.18,12.97,11.18,19.01,17.22,7.46,7.46,14.26,15.59,21.8,22.96,6.47,6.33,14.22,11.24,23.11,13.09,5.78,1.2,11.74,2.18,18.03,.94,5.84-1.15,11.42-2.45,16.59-5.33,8.9-4.96,16.22-11.68,22.51-19.71,3.36-4.29,7.39-8.09,11.37-11.86,6.43-6.09,12.75-12.36,19.69-17.83,7.96-6.28,17.33-9.61,27.3-11.92,7.88-1.82,15.67-1.7,23.43-1.21,6.31,.4,12.53,2.53,18.73,4.11,6.57,1.67,12.48,4.96,17.64,9.17,6.77,5.53,13.22,11.5,19.43,17.66,6.14,6.09,11.78,12.7,17.71,19.01,7.36,7.83,15.92,14.12,26.37,16.73,5.73,1.43,11.8,3.01,17.97,1.15,3.1-.94,6.41-1.16,9.55-2,8.21-2.2,15.02-6.99,20.9-12.83,10.09-10.03,19.65-20.6,29.59-30.79,7.73-7.92,16.7-13.9,27.21-17.83,9.5-3.55,19.13-5.05,29.17-4.63,6.49,.27,12.43,6.51,12.91,13.04,.54,7.37-2.37,12.53-8.88,15.73-1.12,.55-2.48,.91-3.71,.87-9.95-.32-19.19,2.25-27.57,7.37-7.6,4.64-13.93,10.86-19.7,17.65-9.36,11.02-19.23,21.52-31.37,29.63-6.86,4.58-14.24,7.7-22.21,9.86-6.81,1.84-13.57,2.92-20.63,3.05Z"/><path d="M621.67,185.44c-5.93-.59-12-.59-17.76-1.91-8.25-1.88-16.07-5.27-23.25-9.85-13.61-8.69-24.12-20.68-34.65-32.68-6.51-7.42-13.49-14.52-22.43-19.04-3.83-1.94-8.15-3.01-12.35-4.06-3.52-.88-7.21-1.69-10.8-1.58-10.15,.29-19.46,3.48-27.68,9.52-7.68,5.64-13.76,12.86-20.21,19.81-8.38,9.03-17.31,17.68-26.85,25.45-6.56,5.35-14.63,8.64-22.95,11.18-9.45,2.89-19.03,3.25-28.64,2.6-9.47-.64-18.4-3.56-27.01-7.79-12.93-6.36-22.55-16.58-32.33-26.64-5.9-6.07-11.42-12.51-17.3-18.59-5.98-6.19-13.21-10.73-21.36-13.23-6.4-1.96-13.13-3.42-19.98-2.2-13.17,2.35-24.16,8.6-33.28,18.39-9.37,10.05-18.79,20.08-28.52,29.79-5.8,5.79-12.9,9.88-20.26,13.53-12.53,6.22-25.84,7.79-39.5,6.78-9.47-.7-18.4-3.59-27.01-7.81-12.94-6.34-22.55-16.57-32.34-26.63-6.67-6.85-12.9-14.14-19.73-20.81-5.23-5.11-11.64-8.84-18.64-10.93-4.97-1.48-10.31-2.39-15.48-2.38-7.72,.02-12.2-5.22-13.81-10.66-1.92-6.5,1.23-14.12,6.68-17.2,1.27-.72,2.82-1.41,4.21-1.35,6.74,.3,13.7-.03,20.16,1.56,9.75,2.39,18.77,6.85,27.1,12.72,9.64,6.79,17.08,15.81,25.37,23.95,5.18,5.09,9.68,10.85,14.83,15.97,6.73,6.69,14.67,11.94,23.93,14,5.76,1.28,11.73,2.31,18.02,1.02,5.6-1.15,10.98-2.33,16.09-4.97,7.37-3.82,13.43-9.17,19.08-15.14,9.38-9.91,18.52-20.07,28.38-29.48,6.02-5.74,13.35-9.91,21.18-13.19,12.78-5.35,26.1-6.25,39.54-5.04,5.91,.53,11.84,2.59,17.4,4.84,5.66,2.3,11.35,5.07,16.17,8.76,6.77,5.18,12.97,11.18,19.01,17.22,7.46,7.46,14.26,15.59,21.8,22.96,6.47,6.33,14.22,11.24,23.11,13.09,5.78,1.2,11.74,2.18,18.03,.94,5.84-1.15,11.42-2.45,16.59-5.33,8.9-4.96,16.22-11.68,22.51-19.71,3.36-4.29,7.39-8.09,11.37-11.86,6.43-6.09,12.75-12.36,19.69-17.83,7.96-6.28,17.33-9.61,27.3-11.92,7.88-1.82,15.67-1.7,23.43-1.21,6.31,.4,12.53,2.53,18.73,4.11,6.57,1.67,12.48,4.96,17.64,9.17,6.77,5.53,13.22,11.5,19.43,17.66,6.14,6.09,11.78,12.7,17.71,19.01,7.36,7.83,15.92,14.12,26.37,16.73,5.73,1.43,11.8,3.01,17.97,1.15,3.1-.94,6.41-1.16,9.55-2,8.21-2.2,15.02-6.99,20.9-12.83,10.09-10.03,19.65-20.6,29.59-30.79,7.73-7.92,16.7-13.9,27.21-17.83,9.5-3.55,19.13-5.05,29.17-4.63,6.49,.27,12.43,6.51,12.91,13.04,.54,7.37-2.37,12.53-8.88,15.73-1.12,.55-2.48,.91-3.71,.87-9.95-.32-19.19,2.25-27.57,7.37-7.6,4.64-13.93,10.86-19.7,17.65-9.36,11.02-19.23,21.52-31.37,29.63-6.86,4.58-14.24,7.7-22.21,9.86-6.81,1.84-13.57,2.92-20.63,3.05Z"/><g><path d="M166.91,488.96c0,3.07-1.04,5.64-3.1,7.71-2.07,2.07-4.87,3.11-8.4,3.11-4.45,0-7.9-1.92-10.35-5.75l-39.56-63.48h-33.58v57.27c0,3.37-1.11,6.21-3.33,8.51-2.22,2.3-5.1,3.45-8.62,3.45s-6.21-1.15-8.51-3.45c-2.3-2.3-3.45-5.14-3.45-8.51v-155.71c0-3.53,1.15-6.4,3.45-8.62,2.3-2.22,5.14-3.33,8.51-3.33h41.4c11.35,0,21.51,2.38,30.48,7.13,8.97,4.75,15.95,11.42,20.93,20.01,4.98,8.59,7.48,18.4,7.48,29.44s-2.76,20.55-8.28,28.98c-5.52,8.43-13.03,14.8-22.54,19.09l35.19,56.58c1.53,2.46,2.3,4.98,2.3,7.59Zm-65.55-80.5c10.43,0,19.01-2.95,25.76-8.85,6.75-5.9,10.12-13.53,10.12-22.88,0-10.12-3.38-18.4-10.12-24.84-6.75-6.44-15.33-9.66-25.76-9.66h-29.44v66.24h29.44Z"/><path d="M191.06,496.32c-2.3-2.3-3.45-5.14-3.45-8.51v-155.71c0-3.53,1.15-6.4,3.45-8.62,2.3-2.22,5.14-3.33,8.51-3.33s6.4,1.11,8.62,3.33c2.22,2.22,3.33,5.1,3.33,8.62v66.01h106.72v-66.01c0-3.53,1.15-6.4,3.45-8.62,2.3-2.22,5.14-3.33,8.51-3.33s6.17,1.11,8.4,3.33c2.22,2.22,3.33,5.1,3.33,8.62v155.71c0,3.53-1.11,6.4-3.33,8.62s-5.02,3.33-8.4,3.33-6.21-1.15-8.51-3.45c-2.3-2.3-3.45-5.14-3.45-8.51v-68.54h-106.72v68.54c0,3.37-1.11,6.21-3.33,8.51-2.22,2.3-5.1,3.45-8.62,3.45s-6.21-1.15-8.51-3.45Z"/><path d="M417.72,490.34c-13.88-7.82-24.65-18.74-32.31-32.77-7.67-14.03-11.5-29.94-11.5-47.73s3.83-33.66,11.5-47.61c7.67-13.95,18.44-24.84,32.31-32.66,13.88-7.82,29.71-11.73,47.5-11.73s33.38,3.91,47.26,11.73c13.88,7.82,24.69,18.71,32.43,32.66,7.74,13.95,11.62,29.82,11.62,47.61s-3.87,33.7-11.62,47.73c-7.74,14.03-18.51,24.96-32.31,32.77-13.8,7.82-29.59,11.73-47.38,11.73s-33.62-3.91-47.5-11.73Zm82.69-19.2c10.43-6.21,18.55-14.68,24.38-25.42,5.83-10.73,8.74-22.69,8.74-35.88s-2.91-25.15-8.74-35.88c-5.83-10.73-13.91-19.17-24.26-25.3-10.35-6.13-22.12-9.2-35.3-9.2s-24.96,3.07-35.31,9.2c-10.35,6.13-18.44,14.57-24.27,25.3-5.83,10.73-8.74,22.7-8.74,35.88s2.91,25.15,8.74,35.88c5.83,10.73,13.95,19.2,24.38,25.42,10.43,6.21,22.16,9.31,35.19,9.31s24.76-3.1,35.19-9.31Z"/><path d="M591.71,496.32c-2.3-2.3-3.45-5.14-3.45-8.51v-155.71c0-3.53,1.15-6.4,3.45-8.62,2.3-2.22,5.14-3.33,8.51-3.33h41.63c17.33,0,32.74,3.83,46.23,11.5,13.49,7.67,24,18.28,31.51,31.85,7.51,13.57,11.27,29.02,11.27,46.34s-3.76,32.82-11.27,46.46c-7.51,13.65-18.02,24.3-31.51,31.97-13.5,7.67-28.91,11.5-46.23,11.5h-41.63c-3.37,0-6.21-1.15-8.51-3.45Zm50.14-17.71c12.73,0,24.11-2.91,34.16-8.74,10.04-5.83,17.86-13.99,23.46-24.5,5.6-10.5,8.39-22.35,8.39-35.54s-2.8-24.99-8.39-35.42c-5.6-10.42-13.42-18.55-23.46-24.38-10.04-5.83-21.43-8.74-34.16-8.74h-29.67v137.31h29.67Z"/></g></svg>