<?xml version="1.0" encoding="UTF-8"?><svg id="a" xmlns="http://www.w3.org/2000/svg" viewBox="0 0 761.81 865.89"><path d="M614.67,98.31c-5.93-.59-12-.59-17.76-1.91-8.25-1.88-16.07-5.27-23.25-9.85-13.61-8.69-24.12-20.68-34.65-32.68-6.51-7.42-13.49-14.52-22.43-19.04-3.83-1.94-8.15-3.01-12.35-4.06-3.52-.88-7.21-1.69-10.8-1.58-10.15,.29-19.46,3.48-27.68,9.52-7.68,5.64-13.76,12.86-20.21,19.81-8.38,9.03-17.31,17.68-26.85,25.45-6.56,5.35-14.63,8.64-22.95,11.18-9.45,2.89-19.03,3.25-28.64,2.6-9.47-.64-18.4-3.56-27.01-7.79-12.93-6.36-22.55-16.58-32.33-26.64-5.9-6.07-11.42-12.51-17.3-18.59-5.98-6.19-13.21-10.73-21.36-13.23-6.4-1.96-13.13-3.42-19.98-2.2-13.17,2.35-24.16,8.6-33.28,18.39-9.37,10.05-18.79,20.08-28.52,29.79-5.8,5.79-12.9,9.88-20.26,13.53-12.53,6.22-25.84,7.79-39.5,6.78-9.47-.7-18.4-3.59-27.01-7.81-12.94-6.34-22.55-16.57-32.34-26.63-6.67-6.85-12.9-14.14-19.73-20.81-5.23-5.11-11.64-8.84-18.64-10.93-4.97-1.48-10.31-2.39-15.48-2.38-7.72,.02-12.2-5.22-13.81-10.66C-1.36,12.06,1.8,4.44,7.25,1.36,8.52,.64,10.07-.06,11.46,0c6.74,.3,13.7-.03,20.16,1.56,9.75,2.39,18.77,6.85,27.1,12.72,9.64,6.79,17.08,15.81,25.37,23.95,5.18,5.09,9.68,10.85,14.83,15.97,6.73,6.69,14.67,11.94,23.93,14,5.76,1.28,11.73,2.31,18.02,1.02,5.6-1.15,10.98-2.33,16.09-4.97,7.37-3.82,13.43-9.17,19.08-15.14,9.38-9.91,18.52-20.07,28.38-29.48,6.02-5.74,13.35-9.91,21.18-13.19,12.78-5.35,26.1-6.25,39.54-5.04,5.91,.53,11.84,2.59,17.4,4.84,5.66,2.3,11.35,5.07,16.17,8.76,6.77,5.18,12.97,11.18,19.01,17.22,7.46,7.46,14.26,15.59,21.8,22.96,6.47,6.33,14.22,11.24,23.11,13.09,5.78,1.2,11.74,2.18,18.03,.94,5.84-1.15,11.42-2.45,16.59-5.33,8.9-4.96,16.22-11.68,22.51-19.71,3.36-4.29,7.39-8.09,11.37-11.86,6.43-6.09,12.75-12.36,19.69-17.83,7.96-6.28,17.33-9.61,27.3-11.92,7.88-1.82,15.67-1.7,23.43-1.21,6.31,.4,12.53,2.53,18.73,4.11,6.57,1.67,12.48,4.96,17.64,9.17,6.77,5.53,13.22,11.5,19.43,17.66,6.14,6.09,11.78,12.7,17.71,19.01,7.36,7.83,15.92,14.12,26.37,16.73,5.73,1.43,11.8,3.01,17.97,1.15,3.1-.94,6.41-1.16,9.55-2,8.21-2.2,15.02-6.99,20.9-12.83,10.09-10.03,19.65-20.6,29.59-30.79,7.73-7.92,16.7-13.9,27.21-17.83,9.5-3.55,19.13-5.05,29.17-4.63,6.49,.27,12.43,6.51,12.91,13.04,.54,7.37-2.37,12.53-8.88,15.73-1.12,.55-2.48,.91-3.71,.87-9.95-.32-19.19,2.25-27.57,7.37-7.6,4.64-13.93,10.86-19.7,17.65-9.36,11.02-19.23,21.52-31.37,29.63-6.86,4.58-14.24,7.7-22.21,9.86-6.81,1.84-13.57,2.92-20.63,3.05Z"/><path d="M621.67,185.44c-5.93-.59-12-.59-17.76-1.91-8.25-1.88-16.07-5.27-23.25-9.85-13.61-8.69-24.12-20.68-34.65-32.68-6.51-7.42-13.49-14.52-22.43-19.04-3.83-1.94-8.15-3.01-12.35-4.06-3.52-.88-7.21-1.69-10.8-1.58-10.15,.29-19.46,3.48-27.68,9.52-7.68,5.64-13.76,12.86-20.21,19.81-8.38,9.03-17.31,17.68-26.85,25.45-6.56,5.35-14.63,8.64-22.95,11.18-9.45,2.89-19.03,3.25-28.64,2.6-9.47-.64-18.4-3.56-27.01-7.79-12.93-6.36-22.55-16.58-32.33-26.64-5.9-6.07-11.42-12.51-17.3-18.59-5.98-6.19-13.21-10.73-21.36-13.23-6.4-1.96-13.13-3.42-19.98-2.2-13.17,2.35-24.16,8.6-33.28,18.39-9.37,10.05-18.79,20.08-28.52,29.79-5.8,5.79-12.9,9.88-20.26,13.53-12.53,6.22-25.84,7.79-39.5,6.78-9.47-.7-18.4-3.59-27.01-7.81-12.94-6.34-22.55-16.57-32.34-26.63-6.67-6.85-12.9-14.14-19.73-20.81-5.23-5.11-11.64-8.84-18.64-10.93-4.97-1.48-10.31-2.39-15.48-2.38-7.72,.02-12.2-5.22-13.81-10.66-1.92-6.5,1.23-14.12,6.68-17.2,1.27-.72,2.82-1.41,4.21-1.35,6.74,.3,13.7-.03,20.16,1.56,9.75,2.39,18.77,6.85,27.1,12.72,9.64,6.79,17.08,15.81,25.37,23.95,5.18,5.09,9.68,10.85,14.83,15.97,6.73,6.69,14.67,11.94,23.93,14,5.76,1.28,11.73,2.31,18.02,1.02,5.6-1.15,10.98-2.33,16.09-4.97,7.37-3.82,13.43-9.17,19.08-15.14,9.38-9.91,18.52-20.07,28.38-29.48,6.02-5.74,13.35-9.91,21.18-13.19,12.78-5.35,26.1-6.25,39.54-5.04,5.91,.53,11.84,2.59,17.4,4.84,5.66,2.3,11.35,5.07,16.17,8.76,6.77,5.18,12.97,11.18,19.01,17.22,7.46,7.46,14.26,15.59,21.8,22.96,6.47,6.33,14.22,11.24,23.11,13.09,5.78,1.2,11.74,2.18,18.03,.94,5.84-1.15,11.42-2.45,16.59-5.33,8.9-4.96,16.22-11.68,22.51-19.71,3.36-4.29,7.39-8.09,11.37-11.86,6.43-6.09,12.75-12.36,19.69-17.83,7.96-6.28,17.33-9.61,27.3-11.92,7.88-1.82,15.67-1.7,23.43-1.21,6.31,.4,12.53,2.53,18.73,4.11,6.57,1.67,12.48,4.96,17.64,9.17,6.77,5.53,13.22,11.5,19.43,17.66,6.14,6.09,11.78,12.7,17.71,19.01,7.36,7.83,15.92,14.12,26.37,16.73,5.73,1.43,11.8,3.01,17.97,1.15,3.1-.94,6.41-1.16,9.55-2,8.21-2.2,15.02-6.99,20.9-12.83,10.09-10.03,19.65-20.6,29.59-30.79,7.73-7.92,16.7-13.9,27.21-17.83,9.5-3.55,19.13-5.05,29.17-4.63,6.49,.27,12.43,6.51,12.91,13.04,.54,7.37-2.37,12.53-8.88,15.73-1.12,.55-2.48,.91-3.71,.87-9.95-.32-19.19,2.25-27.57,7.37-7.6,4.64-13.93,10.86-19.7,17.65-9.36,11.02-19.23,21.52-31.37,29.63-6.86,4.58-14.24,7.7-22.21,9.86-6.81,1.84-13.57,2.92-20.63,3.05Z"/><g><path d="M156.56,485.29c0,3-1.01,5.51-3.04,7.54-2.02,2.02-4.76,3.04-8.21,3.04-4.35,0-7.73-1.87-10.12-5.62l-38.7-62.1H63.64v56.03c0,3.3-1.09,6.08-3.26,8.33-2.18,2.25-4.99,3.38-8.44,3.38s-6.08-1.12-8.33-3.38-3.38-5.02-3.38-8.33v-152.32c0-3.45,1.12-6.26,3.38-8.44,2.25-2.17,5.02-3.26,8.33-3.26h40.5c11.1,0,21.04,2.33,29.81,6.98,8.77,4.65,15.6,11.18,20.47,19.58,4.87,8.4,7.31,18,7.31,28.8s-2.7,20.1-8.1,28.35c-5.4,8.25-12.75,14.48-22.05,18.67l34.43,55.35c1.5,2.4,2.25,4.88,2.25,7.42Zm-64.12-78.75c10.2,0,18.6-2.89,25.2-8.66,6.6-5.77,9.9-13.24,9.9-22.39,0-9.9-3.3-18-9.9-24.3-6.6-6.3-15-9.45-25.2-9.45h-28.8v64.8h28.8Z"/><path d="M282.11,439.51c-1.95,1.88-4.43,2.81-7.42,2.81h-85.5c1.65,10.5,6.41,18.98,14.29,25.42,7.88,6.45,17.51,9.67,28.91,9.67,4.5,0,9.19-.82,14.06-2.47,4.87-1.65,8.89-3.67,12.04-6.08,2.1-1.65,4.57-2.48,7.43-2.48s5.1,.75,6.75,2.25c2.7,2.25,4.05,4.8,4.05,7.65,0,2.7-1.2,4.95-3.6,6.75-5.1,4.05-11.44,7.35-19.01,9.9-7.58,2.55-14.81,3.83-21.71,3.83-12.3,0-23.33-2.66-33.08-7.99-9.75-5.32-17.36-12.71-22.84-22.16-5.48-9.45-8.21-20.17-8.21-32.17s2.59-22.76,7.76-32.29c5.18-9.52,12.38-16.95,21.6-22.27,9.23-5.32,19.69-7.99,31.39-7.99s21.52,2.55,29.92,7.65c8.4,5.1,14.85,12.23,19.35,21.38,4.5,9.15,6.75,19.65,6.75,31.5,0,2.85-.98,5.21-2.93,7.09Zm-79.76-39.26c-6.83,6-11.14,14.03-12.94,24.08h74.92c-1.35-10.05-5.1-18.07-11.25-24.08-6.15-6-14.17-9-24.07-9-10.95,0-19.84,3-26.66,9Z"/><path d="M341.5,349.17c-5.1,5.55-7.65,12.9-7.65,22.05v6.08h22.95c3.15,0,5.7,.9,7.65,2.7,1.95,1.8,2.93,4.2,2.93,7.2,0,2.7-.98,4.95-2.93,6.75-1.95,1.8-4.5,2.7-7.65,2.7h-22.95v87.75c0,3.45-1.05,6.23-3.15,8.33-2.1,2.1-5.03,3.15-8.77,3.15-3,0-5.59-1.05-7.76-3.15-2.18-2.1-3.26-4.87-3.26-8.33v-87.75h-9.67c-3.15,0-5.7-.9-7.65-2.7-1.95-1.8-2.92-4.05-2.92-6.75,0-3,.97-5.4,2.92-7.2,1.95-1.8,4.5-2.7,7.65-2.7h9.67v-3.83c0-10.65,2.14-19.99,6.41-28.01,4.27-8.02,10.27-14.25,18-18.67,7.72-4.42,16.54-6.64,26.44-6.64,3.3,0,6.04,.98,8.21,2.93,2.17,1.95,3.26,4.43,3.26,7.42s-1.09,5.48-3.26,7.42c-2.18,1.95-4.92,2.93-8.21,2.93-8.4,0-15.15,2.78-20.25,8.32Z"/><path d="M482.92,486.64c-13.58-7.65-24.11-18.34-31.61-32.06-7.5-13.72-11.25-29.29-11.25-46.69s3.75-32.92,11.25-46.57c7.5-13.65,18.04-24.3,31.61-31.95,13.57-7.65,29.06-11.48,46.46-11.48s32.66,3.83,46.24,11.48c13.57,7.65,24.15,18.3,31.72,31.95,7.57,13.65,11.36,29.18,11.36,46.57s-3.79,32.96-11.36,46.69c-7.58,13.73-18.11,24.41-31.61,32.06-13.5,7.65-28.95,11.48-46.35,11.48s-32.89-3.83-46.46-11.48Zm80.89-18.79c10.2-6.08,18.15-14.36,23.85-24.86,5.7-10.5,8.55-22.2,8.55-35.1s-2.85-24.6-8.55-35.1c-5.7-10.5-13.61-18.75-23.74-24.75-10.12-6-21.64-9-34.54-9s-24.41,3-34.54,9c-10.12,6-18.04,14.25-23.74,24.75-5.7,10.5-8.55,22.2-8.55,35.1s2.85,24.6,8.55,35.1c5.7,10.5,13.65,18.79,23.85,24.86,10.2,6.08,21.67,9.11,34.42,9.11s24.22-3.04,34.43-9.11Z"/><path d="M650.76,348.38c-2.92-2.93-4.39-6.41-4.39-10.46s1.46-7.54,4.39-10.46c2.92-2.92,6.41-4.39,10.46-4.39s7.54,1.46,10.46,4.39c2.92,2.93,4.39,6.41,4.39,10.46s-1.46,7.54-4.39,10.46c-2.92,2.92-6.41,4.39-10.46,4.39s-7.54-1.46-10.46-4.39Zm2.25,144.22c-2.18-2.17-3.26-4.91-3.26-8.21v-100.12c0-3.45,1.09-6.22,3.26-8.32,2.17-2.1,4.91-3.15,8.21-3.15s6.22,1.05,8.33,3.15c2.1,2.1,3.15,4.88,3.15,8.32v100.12c0,3.3-1.05,6.04-3.15,8.21-2.1,2.18-4.88,3.26-8.33,3.26s-6.04-1.09-8.21-3.26Z"/><path d="M721.64,490.58c-5.17-3.52-9.19-8.47-12.04-14.85-2.85-6.37-4.28-13.54-4.28-21.49v-122.85c0-3.3,1.05-6,3.15-8.1s4.8-3.15,8.1-3.15,6,1.05,8.1,3.15c2.1,2.1,3.15,4.8,3.15,8.1v122.85c0,5.55,1.05,10.12,3.15,13.72,2.1,3.6,4.8,5.4,8.1,5.4h5.62c3,0,5.44,1.05,7.31,3.15,1.87,2.1,2.81,4.8,2.81,8.1s-1.43,6-4.28,8.1c-2.85,2.1-6.52,3.15-11.02,3.15h-.45c-6.45,0-12.26-1.76-17.44-5.29Z"/></g></svg>