<?xml version="1.0" encoding="utf-8"?>
<!-- Generator: Adobe Illustrator 26.5.2, SVG Export Plug-In . SVG Version: 6.00 Build 0)  -->
<svg version="1.1" id="a" xmlns="http://www.w3.org/2000/svg" xmlns:xlink="http://www.w3.org/1999/xlink" x="0px" y="0px"
	 viewBox="0 0 500 500" style="enable-background:new 0 0 500 500;" xml:space="preserve">
<path d="M238.9,386h-21.3c-7.9,0-14.8-5.9-15-13.8c-0.2-8.1,6.4-14.6,14.2-14.6H238c7.9,0,14.8,5.9,15,13.8
	C253.3,379.4,246.9,386,238.9,386z M267.3,329h-49.7c-7.9,0-14.8-5.9-15-13.8c-0.2-8.1,6.4-14.6,14.2-14.6h49.7
	c7.9,0,14.8,5.9,15,13.8C281.8,322.3,275.3,329,267.3,329L267.3,329z M310.1,272h-92.5c-7.9,0-14.8-5.9-15-13.8
	c-0.2-8.1,6.4-14.6,14.2-14.6h92.5c7.9,0,14.8,5.9,15,13.8C324.6,265.3,318.1,272,310.1,272L310.1,272z M267.3,442.9h-49.7
	c-7.9,0-14.8-5.9-15-13.8c-0.2-8.1,6.4-14.6,14.2-14.6h49.7c7.9,0,14.8,5.9,15,13.8C281.8,436.4,275.3,442.9,267.3,442.9
	L267.3,442.9z M267.3,500h-49.7c-7.9,0-14.8-6-15-13.9c-0.2-8.1,6.3-14.6,14.2-14.6h49.7c7.9,0,14.8,5.9,15,13.8
	C281.8,493.4,275.3,500,267.3,500L267.3,500z M488.7,386h-21.3c-7.9,0-14.8-5.9-15-13.8c-0.2-8.1,6.3-14.6,14.2-14.6h21.3
	c7.9,0,14.8,5.9,15,13.8C503.3,379.4,496.8,386,488.7,386z M488.7,329H439c-7.9,0-14.8-5.9-15-13.8c-0.2-8.1,6.3-14.6,14.2-14.6
	h49.7c7.9,0,14.8,5.9,15,13.8C503.3,322.3,496.8,329,488.7,329L488.7,329L488.7,329z M488.7,272H439c-7.9,0-14.8-5.9-15-13.8
	c-0.2-8.1,6.3-14.6,14.2-14.6h49.7c7.9,0,14.8,5.9,15,13.8C503.3,265.3,496.8,272,488.7,272L488.7,272z M488.7,442.9H439
	c-7.9,0-14.8-5.9-15-13.8c-0.2-8.1,6.3-14.6,14.2-14.6h49.7c7.9,0,14.8,5.9,15,13.8C503.3,436.4,496.8,442.9,488.7,442.9
	L488.7,442.9z M488.7,500h-92.5c-7.9,0-14.8-5.9-15-13.8c-0.2-8.1,6.3-14.6,14.2-14.6h92.5c7.9,0,14.8,5.9,15,13.8
	C503.3,493.4,496.8,500,488.7,500z M395.6,243.8l-42.6,128h-73.5v-0.2L395.6,243.8C395.5,243.5,395.6,243.5,395.6,243.8L395.6,243.8
	z M426.1,371.7l-115.9,128H310l42.6-128H426.1C426.1,371.7,426.3,371.7,426.1,371.7L426.1,371.7L426.1,371.7z"/>
<g>
	<path d="M156.6,59C86.1,59,28.7,116.3,28.7,186.9s57.4,127.9,127.9,127.9s127.9-57.4,127.9-127.9S227.1,59,156.6,59L156.6,59z
		 M156.6,291.8c-57.9,0-105-47.1-105-105s47.1-105,105-105s105,47.1,105,105S214.5,291.8,156.6,291.8z"/>
	<circle cx="34.5" cy="70.7" r="34.5"/>
	<circle cx="271.6" cy="62.6" r="26.3"/>
	<ellipse transform="matrix(0.2898 -0.9571 0.9571 0.2898 204.4701 309.3238)" cx="310.7" cy="16.9" rx="16.5" ry="16.5"/>
	<circle cx="99" cy="23.4" r="12.9"/>
	<path d="M119.8,132.8c-16,0-28.5,4.5-37.5,13.5c-9,9-13.5,21.5-13.5,37.6c0,11.5,2.3,21.1,6.8,28.8c4.5,7.7,10.4,13.3,17.7,16.8
		c7.3,3.5,16.5,5.3,27.6,5.3s20.1-2,27.4-6.1c7.3-4.1,12.9-9.9,16.8-17.2c3.9-7.4,5.8-16.8,5.8-28.3c0-15.9-4.4-28.2-13.3-37
		S136.2,132.8,119.8,132.8L119.8,132.8z M135.2,205.5c-3.6,4.3-8.6,6.4-15.2,6.4s-11.4-2.2-15.1-6.5c-3.7-4.4-5.5-11.5-5.5-21.5
		c0-10,1.9-17.2,5.6-21.6c3.7-4.3,8.6-6.5,14.8-6.5s11.5,2.1,15.2,6.4c3.7,4.3,5.6,11,5.6,20.4C140.6,193.6,138.8,201.3,135.2,205.5
		L135.2,205.5z"/>
	<path d="M204.6,215.1c1.2-1,3.7-3.2,7.3-5.7c6.1-4.3,10.4-8.5,12.7-12.1c2.3-3.6,3.5-7.5,3.5-11.5c0-3.7-1-7.2-3-10.2
		c-2-3-4.8-5.3-8.3-6.7c-3.5-1.5-8.5-2.2-14.9-2.2c-6.4,0-10.9,0.8-14.4,2.3c-3.4,1.5-6.1,3.7-8,6.6c-1.9,2.8-3.2,6.8-3.9,11.9
		l18.2,1.5c0.5-3.7,1.5-6.2,2.9-7.7c1.5-1.4,3.4-2.2,5.7-2.2c2.3,0,4.1,0.7,5.5,2.1c1.5,1.4,2.2,3.1,2.2,5.1c0,1.8-0.7,3.8-2.2,5.8
		c-1.5,2-4.9,5-10.2,9c-8.7,6.4-14.6,11.2-17.8,15.9c-3.2,4.7-5,14.4-5.7,14.4h49.7v-11.5h-23.6
		C201.9,219.9,203.3,216.1,204.6,215.1L204.6,215.1z"/>
</g>
</svg>
