<?xml version="1.0" encoding="UTF-8"?><svg id="a" xmlns="http://www.w3.org/2000/svg" viewBox="0 0 580.87 262.36"><path d="M348.88,144.22h-18.7c-6.92,0-12.97-5.2-13.17-12.12-.2-7.11,5.6-12.84,12.45-12.84h18.7c6.92,0,12.97,5.2,13.17,12.12,.2,7.11-5.4,12.84-12.45,12.84Zm24.96-50.05h-43.67c-6.92,0-12.97-5.2-13.17-12.12-.2-7.11,5.6-12.84,12.45-12.84h43.67c6.92,0,12.97,5.2,13.17,12.12,.33,6.92-5.4,12.84-12.45,12.84h0Zm37.61-50.12h-81.27c-6.92,0-12.97-5.2-13.17-12.12-.2-7.11,5.6-12.84,12.45-12.84h81.27c6.92,0,12.97,5.2,13.17,12.12,.33,6.98-5.4,12.84-12.45,12.84h0Zm-37.61,150.23h-43.67c-6.92,0-12.97-5.2-13.17-12.12-.2-7.11,5.6-12.84,12.45-12.84h43.67c6.92,0,12.97,5.2,13.17,12.12,.33,7.11-5.4,12.84-12.45,12.84Zm0,50.12h-43.67c-6.92,0-12.97-5.27-13.17-12.18-.2-7.11,5.53-12.84,12.45-12.84h43.67c6.92,0,12.97,5.2,13.17,12.12,.33,7.11-5.4,12.91-12.45,12.91Zm194.55-100.18h-18.7c-6.92,0-12.97-5.2-13.17-12.12-.2-7.11,5.53-12.84,12.45-12.84h18.7c6.92,0,12.97,5.2,13.17,12.12,.4,7.11-5.33,12.84-12.45,12.84Zm0-50.05h-43.67c-6.92,0-12.97-5.2-13.17-12.12-.2-7.11,5.53-12.84,12.45-12.84h43.67c6.92,0,12.97,5.2,13.17,12.12,.4,6.92-5.33,12.84-12.45,12.84h0Zm0-50.12h-43.67c-6.92,0-12.97-5.2-13.17-12.12-.2-7.11,5.53-12.84,12.45-12.84h43.67c6.92,0,12.97,5.2,13.17,12.12,.4,6.98-5.33,12.84-12.45,12.84Zm0,150.23h-43.67c-6.92,0-12.97-5.2-13.17-12.12-.2-7.11,5.53-12.84,12.45-12.84h43.67c6.92,0,12.97,5.2,13.17,12.12,.4,7.11-5.33,12.84-12.45,12.84Zm0,50.12h-81.27c-6.92,0-12.97-5.2-13.17-12.12-.2-7.11,5.53-12.84,12.45-12.84h81.27c6.92,0,12.97,5.2,13.17,12.12,.4,7.05-5.33,12.84-12.45,12.84ZM486.6,19.28l-37.41,112.49h-64.54v-.2L486.6,19.28c-.13-.2,0-.2,0,0h0Zm26.81,112.43l-101.82,112.49h-.2l37.41-112.49h64.61s.2,0,0,0h0Z"/><g><path d="M130.71,48.86c-58.86,0-106.75,47.89-106.75,106.75s47.89,106.75,106.75,106.75,106.75-47.91,106.75-106.75-47.91-106.75-106.75-106.75Zm0,194.33c-48.3,0-87.58-39.28-87.58-87.61s39.31-87.58,87.58-87.58,87.58,39.31,87.58,87.58-39.28,87.61-87.58,87.61Z"/><circle cx="28.75" cy="58.67" r="28.75"/><circle cx="226.62" cy="51.9" r="21.98"/><circle cx="259.24" cy="13.76" r="13.76"/><circle cx="82.62" cy="19.17" r="10.78"/><path d="M99.95,110.45c-13.37,0-23.79,3.73-31.26,11.23-7.49,7.49-11.23,17.94-11.23,31.37,0,9.61,1.89,17.63,5.68,24.01,3.76,6.41,8.69,11.09,14.79,14.04,6.07,2.95,13.76,4.43,23.04,4.43s16.74-1.7,22.87-5.13c6.13-3.43,10.78-8.22,14.04-14.37,3.23-6.16,4.85-14.04,4.85-23.65,0-13.26-3.7-23.54-11.11-30.89-7.41-7.35-17.97-11.03-31.67-11.03Zm12.87,60.73c-3.01,3.57-7.21,5.32-12.68,5.32s-9.5-1.81-12.59-5.46-4.62-9.58-4.62-17.91,1.56-14.37,4.68-18.02c3.09-3.62,7.21-5.46,12.34-5.46s9.58,1.78,12.7,5.38c3.12,3.57,4.68,9.22,4.68,16.99-.03,9.22-1.53,15.6-4.51,19.17Z"/><path d="M170.74,179.18c1.03-.84,3.06-2.65,6.1-4.76,5.13-3.62,8.66-7.1,10.61-10.11,1.95-3.04,2.92-6.27,2.92-9.58,0-3.12-.86-5.99-2.53-8.5-1.7-2.53-4.04-4.4-6.96-5.6-2.95-1.23-7.1-1.84-12.42-1.84s-9.08,.64-11.98,1.89c-2.87,1.25-5.13,3.09-6.69,5.49-1.59,2.37-2.67,5.71-3.26,9.97l15.15,1.23c.42-3.06,1.25-5.21,2.45-6.43,1.23-1.2,2.81-1.81,4.74-1.81s3.4,.58,4.62,1.75c1.23,1.2,1.84,2.59,1.84,4.26,0,1.53-.61,3.18-1.87,4.88s-4.07,4.21-8.5,7.49c-7.27,5.38-12.2,9.36-14.85,13.29-2.65,3.96-4.21,11.98-4.74,11.98h41.45v-9.58h-19.7c1.34,0,2.56-3.18,3.59-4.01Z"/></g></svg>