<?xml version="1.0" encoding="utf-8"?>
<!-- Generator: Adobe Illustrator 26.5.2, SVG Export Plug-In . SVG Version: 6.00 Build 0)  -->
<svg version="1.1" id="Calque_1" xmlns="http://www.w3.org/2000/svg" xmlns:xlink="http://www.w3.org/1999/xlink" x="0px" y="0px"
	 viewBox="0 0 500 500" style="enable-background:new 0 0 500 500;" xml:space="preserve">
<g>
	<g>
		<path d="M238.4,98.8C131,98.8,43.7,186.2,43.7,293.5S131,488.2,238.4,488.2S433,400.8,433,293.5C433,186.2,345.6,98.8,238.4,98.8z
			 M238.4,453.2c-88.1,0-159.7-71.6-159.7-159.8c0-88.1,71.7-159.7,159.7-159.7c88.1,0,159.7,71.7,159.7,159.7
			C398.1,381.5,326.4,453.2,238.4,453.2z"/>
		<circle cx="52.4" cy="116.7" r="52.4"/>
		<circle cx="413.3" cy="104.4" r="40.1"/>
		<circle cx="472.7" cy="34.8" r="25.1"/>
		<circle cx="150.7" cy="44.7" r="19.7"/>
		<path d="M182.3,211.2c-24.4,0-43.4,6.8-57,20.5c-13.7,13.7-20.5,32.7-20.5,57.2c0,17.5,3.5,32.2,10.4,43.8
			c6.9,11.7,15.8,20.2,27,25.6c11.1,5.4,25.1,8.1,42,8.1c16.7,0,30.5-3.1,41.7-9.3c11.2-6.2,19.7-15,25.6-26.2
			c5.9-11.2,8.8-25.6,8.8-43.1c0-24.2-6.8-42.9-20.3-56.3C226.5,217.9,207.3,211.2,182.3,211.2z M205.7,321.9
			c-5.5,6.5-13.2,9.7-23.1,9.7c-9.7,0-17.3-3.3-23-10c-5.6-6.7-8.4-17.5-8.4-32.7c0-15.3,2.8-26.2,8.5-32.9c5.6-6.6,13.2-10,22.5-10
			c9.8,0,17.5,3.3,23.2,9.8c5.7,6.5,8.5,16.8,8.5,31C213.9,303.8,211.2,315.4,205.7,321.9z"/>
		<path d="M311.4,336.5c1.9-1.5,5.6-4.8,11.1-8.7c9.3-6.6,15.8-13,19.4-18.4c3.6-5.5,5.3-11.4,5.3-17.5c0-5.7-1.6-10.9-4.6-15.5
			c-3.1-4.6-7.4-8-12.7-10.2c-5.4-2.2-13-3.4-22.7-3.4c-9.3,0-16.6,1.2-21.8,3.5c-5.2,2.3-9.3,5.6-12.2,10
			c-2.9,4.3-4.9,10.4-5.9,18.2l27.6,2.2c0.8-5.6,2.3-9.5,4.5-11.7c2.2-2.2,5.1-3.3,8.6-3.3c3.4,0,6.2,1.1,8.4,3.2
			c2.2,2.2,3.4,4.7,3.4,7.8c0,2.8-1.1,5.8-3.4,8.9c-2.3,3.1-7.4,7.7-15.5,13.7c-13.3,9.8-22.3,17.1-27.1,24.2
			c-4.8,7.2-7.7,21.8-8.6,21.8h75.6v-17.5h-35.9C307.2,343.8,309.5,338,311.4,336.5z"/>
	</g>
</g>
</svg>
