<?xml version="1.0" encoding="utf-8"?>
<!-- Generator: Adobe Illustrator 26.5.2, SVG Export Plug-In . SVG Version: 6.00 Build 0)  -->
<svg version="1.1" id="Calque_1" xmlns="http://www.w3.org/2000/svg" xmlns:xlink="http://www.w3.org/1999/xlink" x="0px" y="0px"
	 viewBox="0 0 500 500" style="enable-background:new 0 0 500 500;" xml:space="preserve">
<path d="M412.5,341.2c0,34-6.3,69.5-27.6,99.5c-10.3,14.2-24.5,26.9-40.3,35.5c-15.8,8.7-33.2,15.8-51.3,19l-13.4,2.4
	c-4.7,0.8-8.7,0.8-13.4,1.6c-8.7,0.8-18.2,0.8-27.6,0.8c-19-0.8-37.1-3.9-55.3-9.5c-19-6.3-35.5-15.8-50.6-28.4
	c-15-13.4-26.9-29.2-34.8-47.4c-7.1-17.4-11.8-36.3-12.6-55.3c-0.8-9.5,0-19,0.8-28.4c0-4.7,0.8-9.5,2.4-14.2l3.2-14.2
	c12.6-33.2,29.2-64.8,50.6-93.2c19-28.4,39.5-55.3,57.7-83.7c19-26.9,34-56.9,45-87.7L257.7,0l8.7,37.9c7.1,26.9,18.2,51.3,33.2,75
	c14.2,23.7,30.8,47.4,46.6,71.1s30.8,48.2,43.4,74.2c3.2,6.3,5.5,13.4,8.7,19.7c3.2,6.3,4.7,13.4,7.1,20.5
	c2.4,7.1,3.2,14.2,4.7,21.3C411.7,327,411.7,333.3,412.5,341.2z M408.6,341.2c-0.8-7.1-0.8-14.2-1.6-21.3
	c-0.8-7.1-2.4-14.2-4.7-20.5c-2.4-6.3-3.9-13.4-7.1-19.7c-3.2-6.3-5.5-13.4-9.5-19c-14.2-24.5-30-48.2-48.2-69.5
	c-17.4-22.1-35.5-44.2-52.1-67.9c-17.4-23.7-30.8-50.6-39.5-79h20.5c-10.3,33.2-25.3,65.6-43.4,94.8c-17.4,30-36.3,58.5-54.5,86.9
	c-18.2,26.9-32.4,56.1-42.7,86.9c-3.9,14.2-4.7,29.2-3.2,44.2c1.6,15,5.5,29.2,11.8,42.7c12.6,26.1,34.8,45.8,62.4,55.3
	c14.2,5.5,29.2,8.7,44.2,11.1c15.8,1.6,31.6,2.4,47.4,1.6c15.8-0.8,30.8-3.9,45.8-9.5c15-5.5,28.4-14.2,39.5-25.3
	c11.1-11.8,19.7-26.1,25.3-41.1C405.4,374.4,408.6,357.8,408.6,341.2z M209.5,284.4c11.8,0,22.9,5.5,30.8,14.2
	c9.5,10.3,14.2,22.9,13.4,36.3c0.8,13.4-4.7,26.9-13.4,37.1c-7.9,9.5-19.7,15-32.4,15c-11.8,0-22.9-5.5-29.2-15v49h-27.6V286.7h27.6
	v11.1C187.4,289.1,198.5,284.4,209.5,284.4L209.5,284.4z M177.9,338.1c0,8.7,2.4,16.6,7.9,22.9c4.7,5.5,11.8,9.5,19,8.7
	c7.9,0,15-3.2,19.7-8.7c5.5-6.3,8.7-15,8.7-22.9c0.8-8.7-2.4-17.4-7.9-24.5c-4.7-6.3-11.8-9.5-19.7-9.5s-15,3.2-19.7,9.5
	C180.3,320.7,177.9,329.4,177.9,338.1L177.9,338.1z M344.6,239.3h30.8v140.6h-30.8v-55.3h-55.3v55.3h-31.6V239.3h31.6v58.5h55.3
	V239.3z"/>
</svg>
