<?xml version="1.0" encoding="utf-8"?>
<!-- Generator: Adobe Illustrator 26.5.2, SVG Export Plug-In . SVG Version: 6.00 Build 0)  -->
<svg version="1.1" id="a" xmlns="http://www.w3.org/2000/svg" xmlns:xlink="http://www.w3.org/1999/xlink" x="0px" y="0px"
	 viewBox="0 0 500 500" style="enable-background:new 0 0 500 500;" xml:space="preserve">
<path d="M202,210.6c0,20.9-3.9,42.7-17,61.2c-6.3,8.7-15.1,16.5-24.8,21.8c-9.7,5.3-20.4,9.7-31.6,11.7l-8.2,1.5
	c-2.9,0.5-5.3,0.5-8.2,1c-5.3,0.5-11.2,0.5-17,0.5c-11.7-0.5-22.8-2.5-34-5.8c-11.7-3.9-21.9-9.7-31.1-17.5
	c-9.2-8.2-16.5-18-21.4-29.2c-4.4-10.7-7.3-22.4-7.8-34.1c-0.5-5.8,0-11.7,0.5-17.5c0-2.9,0.5-5.8,1.5-8.7l2-8.7
	c7.8-20.4,18-39.9,31.1-57.4c11.7-17.5,24.3-34,35.5-51.5C83,61.4,92.2,42.9,99,24l7.8-23.3l5.3,23.3c4.4,16.5,11.2,31.6,20.4,46.2
	c8.7,14.6,18.9,29.2,28.7,43.7c9.7,14.6,18.9,29.6,26.7,45.7c2,3.9,3.4,8.2,5.3,12.2c2,3.9,2.9,8.2,4.4,12.6c1.5,4.4,2,8.7,2.9,13.1
	S201.5,205.7,202,210.6L202,210.6z M199.6,210.6c-0.5-4.4-0.5-8.7-1-13.1c-0.5-4.4-1.5-8.7-2.9-12.6c-1.4-3.9-2.5-8.2-4.4-12.2
	s-3.4-8.2-5.8-11.7c-8.7-15.1-18.5-29.6-29.6-42.7c-10.7-13.6-21.8-27.2-32-41.8c-10.7-14.6-18.9-31.1-24.3-48.6h12.6
	c-6.3,20.4-15.6,40.3-26.7,58.3c-10.7,18.5-22.3,36-33.5,53.4c-11.2,16.5-19.9,34.5-26.3,53.4c-2.5,8.7-2.9,18-2,27.2
	s3.4,18,7.3,26.3c7.8,16,21.4,28.2,38.4,34c8.7,3.4,18,5.3,27.2,6.8c9.7,1,19.4,1.5,29.2,1s18.9-2.5,28.2-5.8
	c9.2-3.4,17.5-8.7,24.3-15.6c6.8-7.3,12.2-16,15.6-25.3C197.6,231,199.6,220.8,199.6,210.6L199.6,210.6z M77.1,175.6
	c7.3,0,14.1,3.4,18.9,8.7c5.8,6.3,8.7,14.1,8.2,22.3c0.5,8.2-2.9,16.5-8.2,22.8c-4.9,5.8-12.2,9.2-19.9,9.2c-7.3,0-14.1-3.4-18-9.2
	v30.1h-17v-82.6h17v6.8C63.5,178.5,70.3,175.6,77.1,175.6L77.1,175.6L77.1,175.6z M57.7,208.6c0,5.3,1.5,10.2,4.9,14.1
	c2.9,3.4,7.3,5.8,11.7,5.3c4.9,0,9.2-2,12.2-5.3c3.4-3.9,5.3-9.2,5.3-14.1c0.5-5.3-1.5-10.7-4.9-15.1c-2.9-3.9-7.3-5.8-12.2-5.8
	c-4.9,0-9.2,2-12.2,5.8C59.1,197.9,57.7,203.3,57.7,208.6L57.7,208.6z M160.2,147.9h18.9v86.5h-18.9v-34h-34v34h-19.4v-86.5h19.4v36
	h34L160.2,147.9L160.2,147.9z"/>
<path d="M435.8,278c-2.7-0.3-5.4-0.3-8.1-0.9c-3.7-0.9-7.3-2.4-10.5-4.5c-6.2-4-10.9-9.4-15.8-14.8c-3-3.4-6.1-6.6-10.2-8.6
	c-1.7-0.9-3.7-1.4-5.6-1.9c-1.6-0.4-3.3-0.8-4.9-0.7c-4.6,0.1-8.9,1.6-12.6,4.3c-3.5,2.5-6.3,5.9-9.2,9c-3.8,4.1-7.9,8-12.2,11.5
	c-3,2.5-6.6,3.9-10.4,5.1c-4.3,1.3-8.6,1.5-13,1.2c-4.3-0.3-8.4-1.6-12.3-3.5c-5.9-2.9-10.2-7.5-14.7-12.1c-2.7-2.8-5.2-5.7-7.9-8.4
	c-2.7-2.8-6-4.9-9.7-6c-2.9-0.9-5.9-1.5-9.1-1c-6,1-11,3.9-15.1,8.4c-4.3,4.6-8.5,9.1-12.9,13.5c-2.6,2.6-5.9,4.5-9.2,6.1
	c-5.7,2.8-11.7,3.5-17.9,3.1c-4.3-0.3-8.4-1.6-12.3-3.5c-5.9-2.9-10.2-7.5-14.7-12.1c-3-3.1-5.9-6.4-8.9-9.4c-2.4-2.3-5.3-4-8.4-4.9
	c-2.3-0.7-4.7-1.1-7-1.1c-3.5,0-5.5-2.4-6.3-4.9c-0.9-3,0.5-6.4,3-7.8c0.6-0.3,1.3-0.6,1.9-0.6c3,0.1,6.2,0,9.2,0.7
	c4.4,1.1,8.5,3.1,12.3,5.8c4.4,3.1,7.8,7.2,11.5,10.9c2.4,2.3,4.4,4.9,6.7,7.3c3,3,6.7,5.4,10.9,6.4c2.6,0.6,5.3,1,8.2,0.5
	c2.5-0.5,5-1,7.3-2.3c3.4-1.7,6.1-4.2,8.7-6.9c4.3-4.5,8.4-9.1,12.9-13.4c2.7-2.6,6-4.5,9.6-6c5.8-2.4,11.9-2.8,17.9-2.3
	c2.7,0.2,5.4,1.2,7.9,2.2c2.6,1,5.1,2.3,7.4,4c3.1,2.4,5.9,5.1,8.6,7.8c3.4,3.4,6.5,7.1,9.9,10.4c3,2.9,6.4,5.1,10.5,5.9
	c2.6,0.5,5.3,1,8.2,0.4c2.6-0.5,5.2-1.1,7.5-2.4c4-2.3,7.4-5.3,10.2-8.9c1.5-2,3.4-3.7,5.2-5.4c2.9-2.8,5.8-5.6,8.9-8.1
	c3.6-2.9,7.9-4.4,12.4-5.4c3.6-0.8,7.1-0.8,10.6-0.5c2.9,0.2,5.7,1.1,8.5,1.9c3,0.8,5.7,2.3,8,4.2c3.1,2.5,6,5.2,8.8,8
	c2.8,2.8,5.4,5.8,8,8.6c3.4,3.5,7.2,6.4,12,7.6c2.6,0.6,5.4,1.4,8.2,0.5c1.4-0.4,2.9-0.5,4.4-0.9c3.7-1,6.8-3.2,9.5-5.8
	c4.6-4.5,8.9-9.4,13.4-14c3.5-3.6,7.6-6.3,12.4-8.1c4.3-1.6,8.7-2.3,13.3-2.1c3,0.1,5.6,3,5.9,5.9c0.2,3.4-1.1,5.7-4,7.1
	c-0.5,0.3-1.1,0.4-1.7,0.4c-4.5-0.1-8.7,1-12.5,3.4c-3.5,2.1-6.3,4.9-8.9,8c-4.3,5-8.7,9.8-14.3,13.4c-3.1,2.1-6.4,3.5-10.1,4.5
	C442.1,277.4,439,277.9,435.8,278L435.8,278z"/>
<path d="M439,317.5c-2.7-0.3-5.4-0.3-8.1-0.9c-3.7-0.9-7.3-2.4-10.5-4.5c-6.2-4-10.9-9.4-15.8-14.8c-3-3.4-6.1-6.6-10.2-8.6
	c-1.7-0.9-3.7-1.4-5.6-1.9c-1.6-0.4-3.3-0.8-4.9-0.7c-4.6,0.1-8.9,1.6-12.6,4.3c-3.5,2.5-6.3,5.9-9.2,9c-3.8,4.1-7.9,8-12.2,11.5
	c-3,2.5-6.6,3.9-10.4,5.1c-4.3,1.3-8.6,1.5-13,1.2c-4.3-0.3-8.4-1.6-12.3-3.5c-5.9-2.9-10.2-7.5-14.7-12.1c-2.7-2.8-5.2-5.7-7.9-8.4
	c-2.7-2.8-6-4.9-9.7-6c-2.9-0.9-5.9-1.5-9.1-1c-6,1.1-11,3.9-15.1,8.4c-4.3,4.6-8.5,9.1-12.9,13.5c-2.6,2.6-5.9,4.5-9.2,6.1
	c-5.7,2.8-11.7,3.5-17.9,3.1c-4.3-0.3-8.4-1.6-12.3-3.5c-5.9-2.9-10.2-7.5-14.7-12.1c-3-3.1-5.9-6.4-8.9-9.4c-2.4-2.3-5.3-4-8.4-4.9
	c-2.3-0.7-4.7-1.1-7-1.1c-3.5,0-5.5-2.4-6.3-4.9c-0.9-3,0.5-6.4,3-7.8c0.6-0.3,1.3-0.6,1.9-0.6c3,0.1,6.2,0,9.2,0.7
	c4.4,1.1,8.5,3.1,12.3,5.8c4.4,3.1,7.8,7.2,11.5,10.9c2.4,2.3,4.4,4.9,6.7,7.3c3,3,6.7,5.4,10.9,6.4c2.6,0.6,5.3,1,8.2,0.5
	c2.5-0.5,5-1,7.3-2.3c3.4-1.7,6.1-4.2,8.7-6.9c4.3-4.5,8.4-9.1,12.9-13.4c2.7-2.6,6-4.5,9.6-6c5.8-2.5,11.9-2.8,17.9-2.3
	c2.7,0.2,5.4,1.2,7.9,2.2c2.6,1,5.1,2.3,7.4,4c3.1,2.4,5.9,5.1,8.6,7.8c3.4,3.4,6.5,7.1,9.9,10.4c3,2.9,6.4,5.1,10.5,5.9
	c2.6,0.5,5.3,1,8.2,0.4c2.6-0.5,5.2-1.1,7.5-2.4c4-2.3,7.4-5.3,10.2-8.9c1.5-2,3.4-3.7,5.2-5.4c2.9-2.8,5.8-5.6,8.9-8.1
	c3.6-2.9,7.9-4.4,12.4-5.4c3.6-0.8,7.1-0.8,10.6-0.5c2.9,0.2,5.7,1.1,8.5,1.9c3,0.8,5.7,2.3,8,4.2c3.1,2.5,6,5.2,8.8,8
	c2.8,2.8,5.4,5.8,8,8.6c3.4,3.5,7.2,6.4,12,7.6c2.6,0.6,5.4,1.4,8.2,0.5c1.4-0.4,2.9-0.5,4.4-0.9c3.7-1,6.8-3.2,9.5-5.8
	c4.6-4.5,8.9-9.4,13.4-14c3.5-3.6,7.6-6.3,12.4-8.1c4.3-1.6,8.7-2.3,13.3-2.1c3,0.1,5.6,3,5.9,5.9c0.2,3.4-1.1,5.7-4,7.1
	c-0.5,0.3-1.1,0.4-1.7,0.4c-4.5-0.1-8.7,1-12.5,3.4c-3.5,2.1-6.3,4.9-8.9,8c-4.3,5-8.7,9.8-14.3,13.4c-3.1,2.1-6.4,3.5-10.1,4.5
	C445.3,317,442.2,317.5,439,317.5L439,317.5z"/>
<g>
	<path d="M228.6,453.7c-7.6-4.3-13.4-10.2-17.6-17.8c-4.2-7.6-6.3-16.3-6.3-26s2.1-18.3,6.3-25.9c4.2-7.6,10-13.5,17.6-17.8
		c7.6-4.3,16.2-6.4,25.9-6.4s18.2,2.1,25.7,6.4c7.6,4.3,13.4,10.2,17.7,17.8c4.2,7.6,6.3,16.3,6.3,25.9c0,9.7-2.1,18.3-6.3,26
		c-4.2,7.6-10.1,13.6-17.6,17.8c-7.5,4.2-16.1,6.4-25.8,6.4S236.1,458,228.6,453.7z M273.6,443.3c5.7-3.4,10.1-8,13.3-13.8
		c3.2-5.9,4.8-12.4,4.8-19.6c0-7.2-1.6-13.7-4.8-19.6c-3.2-5.9-7.6-10.4-13.2-13.8s-12-5-19.3-5s-13.6,1.7-19.3,5
		c-5.6,3.4-10,7.9-13.2,13.8c-3.2,5.9-4.8,12.4-4.8,19.6c0,7.2,1.6,13.7,4.8,19.6c3.2,5.9,7.6,10.4,13.3,13.8
		c5.7,3.4,12.1,5.1,19.2,5.1S268,446.6,273.6,443.3z"/>
	<path d="M386.3,453c0,1.7-0.5,3.1-1.7,4.2c-1.1,1.1-2.6,1.7-4.6,1.7c-2.4,0-4.3-1-5.6-3.1l-21.6-34.6h-18.3v31.2
		c0,1.8-0.6,3.4-1.8,4.6c-1.2,1.3-2.8,1.9-4.7,1.9c-1.9,0-3.4-0.6-4.6-1.9s-1.9-2.8-1.9-4.6v-84.8c0-1.9,0.6-3.5,1.9-4.7
		c1.2-1.2,2.8-1.8,4.6-1.8h22.6c6.2,0,11.7,1.3,16.6,3.9s8.7,6.2,11.4,10.9c2.7,4.7,4.1,10,4.1,16s-1.5,11.2-4.5,15.8
		c-3,4.6-7.1,8.1-12.3,10.4l19.2,30.8C385.9,450.2,386.3,451.5,386.3,453L386.3,453z M350.5,409.1c5.7,0,10.4-1.6,14-4.8
		s5.5-7.4,5.5-12.5c0-5.5-1.8-10-5.5-13.5s-8.4-5.3-14-5.3h-16v36.1H350.5z"/>
	<path d="M399.4,457c-1.3-1.3-1.9-2.8-1.9-4.6v-84.9c0-1.9,0.6-3.5,1.9-4.7c1.2-1.2,2.8-1.8,4.6-1.8h25.1c6.2,0,11.7,1.4,16.6,4.1
		c4.9,2.8,8.7,6.6,11.4,11.5c2.7,4.9,4.1,10.5,4.1,16.8s-1.4,11.5-4.1,16.3c-2.7,4.8-6.5,8.5-11.4,11.2c-4.9,2.7-10.4,4-16.6,4
		h-18.5v27.4c0,1.8-0.6,3.4-1.8,4.6c-1.2,1.3-2.8,1.9-4.7,1.9C402.2,458.8,400.7,458.2,399.4,457L399.4,457z M429.1,412.8
		c5.7,0,10.4-1.8,14-5.4c3.7-3.6,5.5-8.3,5.5-14c0-5.7-1.9-10.8-5.5-14.7c-3.7-3.9-8.4-5.8-14-5.8h-18.5v39.9H429.1L429.1,412.8z"/>
</g>
</svg>
