<?xml version="1.0" encoding="UTF-8"?>
<svg id="Calque_1" data-name="Calque 1" xmlns="http://www.w3.org/2000/svg" version="1.1" viewBox="0 0 42.6 42.5">
  <defs>
    <style>
      .cls-1 {
        fill: #3e4072;
        fill-rule: evenodd;
        stroke-width: 0px;
      }
    </style>
  </defs>
  <path class="cls-1" d="M26,25.5c-4.4,0-7.9,3.8-7.9,8.5s3.6,8.5,7.9,8.5,7.9-3.8,7.9-8.5h0c0-4.7-3.5-8.5-7.9-8.5h0ZM26,41.1c-3.7,0-6.6-3.2-6.6-7.2,0-3.9,3-7.1,6.6-7.1,3.7,0,6.6,3.2,6.6,7.1s-3,7.1-6.6,7.1h0Z"/>
  <path class="cls-1" d="M30.3,33.6h-3.6v-4.7c0-.4-.2-.7-.6-.8-.4,0-.7.2-.7.6h0v5.5c0,.4.3.7.6.7h4.3c.4,0,.7-.2.7-.6,0-.4-.2-.7-.6-.8h-.1,0Z"/>
  <path class="cls-1" d="M12.1,36.5c-.9,0-1.6-.8-1.6-1.7V8.1c0-.9.7-1.7,1.6-1.7h11.4c.9,0,1.6.8,1.6,1.7v15.2c.3,0,.6,0,.9,0h.5v-15.2c0-1.7-1.4-3.1-3-3.1h-.4V2c0-1.1-.8-2-1.9-2h-6.8c-1,0-1.9.9-1.9,2v2.9h-.4c-1.6,0-3,1.4-3,3.2v26.8c0,1.8,1.3,3.2,3,3.2h4.7c-.2-.5-.3-1-.5-1.5h-4.2ZM14,1.5h7.7v3.4h-7.7V1.5h0Z"/>
  <path class="cls-1" d="M14.4,9.9c-.4,0-.8.4-.8.9v21.7c0,.5.4.9.8.9h1.7c.2-4,2.5-7.5,5.9-9v-13.5c0-.5-.4-.9-.8-.9,0,0-6.8,0-6.8,0Z"/>
</svg>