<?xml version="1.0" encoding="UTF-8"?>
<svg id="Calque_1" data-name="Calque 1" xmlns="http://www.w3.org/2000/svg" version="1.1" viewBox="0 0 878 878.1">
  <defs>
    <style>
      .cls-1 {
        fill: #888;
        stroke-width: 0px;
      }
    </style>
  </defs>
  <path class="cls-1" d="M338.8,751.9c-28-1.8-49.9-15.2-63.1-41.6-2.7-5.4-5.4-7.2-11.3-7.2-38.1.3-76.2.3-114.3,0-5.8,0-8.9,1.4-11.5,7-14.6,30.7-48.5,47.4-80.6,40.3C24,742.8.3,713.9-.1,679.5c-.4-34.4,22.7-64,56.4-72.1,32.6-7.9,67.3,8.5,81.8,39.2,2.7,5.7,5.7,7.8,12.1,7.7,38.1-.3,76.2-.2,114.3,0,5.3,0,8.3-1.2,10.8-6.5,10.5-22.1,28-35.8,51.9-40.6,5.8-1.1,7.6-3.6,8.9-8.9,28.1-112.9,56.4-225.8,84.8-338.6,1.4-5.7.3-8.9-4.5-12.8-24.6-20-33-54.4-21.1-83.6,12.2-30.1,42.2-47.9,75.4-45.1,30.7,2.7,57.2,25.9,63.3,57.1,1.8,9.4,6.2,12.5,14.6,14.8,62.9,17.7,125.6,35.7,188.4,53.9,6.1,1.8,9.4.3,13.5-4.4,23.2-25.9,60.5-31.8,90.2-14.8,29.5,16.9,43.6,51.7,34.1,84.3-9.3,31.9-40.9,54.4-73.5,52.3-35.3-2.2-63.3-27-68.8-61.5-.9-5.9-3.2-7.9-8.4-9.3-65-18.4-129.9-37-194.8-55.7-4.9-1.4-7.9-.5-11.3,3.6-10.2,12.3-23.5,20.5-39.3,23.4-7.1,1.3-9.7,4.5-11.4,11.2-24.7,99.7-49.6,199.4-74.5,299.1-3,12-5.8,24-9.2,35.9-1.8,6.4-.8,10.5,4.7,15.2,22.7,19.6,30.8,44.9,23.3,73.8-7.3,28.1-26.3,45.6-54.5,52.9-1.8.5-3.7.9-5.6,1-3.6.5-7.4.6-12.7,1h0ZM72.6,654.1c-13,0-24.3,11.5-24.2,24.5,0,13.1,11.1,24.3,24.2,24.5,13.4.2,25-11.5,24.7-24.9-.3-13.2-11.6-24.2-24.7-24.1ZM804.7,312.7c13.3-.1,24.2-10.9,24.4-24.2.2-13.4-11.5-24.9-25-24.6-13.2.3-24.2,11.7-23.9,24.7.2,13.3,11.3,24.1,24.5,24.1ZM438.8,190.5c-.2,13.1,10.7,24.4,23.9,24.7,13.4.3,25.1-11.2,24.9-24.7-.1-13.1-11.4-24.3-24.4-24.3s-24.3,11.2-24.4,24.3ZM316.8,678.2c-.2,13.3,10.4,24.4,23.7,24.8,13.4.5,25.1-11,25-24.5-.1-13.2-11-24.3-24.2-24.4-13,0-24.3,11-24.5,24.1h0Z"/>
  <path class="cls-1" d="M316.8,556.5c.1,13.3-10.8,24.4-24,24.6-13.5.2-25-11.3-24.8-24.9.2-13.2,11.4-24.2,24.6-24.1,13.1.2,24.1,11.2,24.2,24.4h0Z"/>
  <path class="cls-1" d="M585.6,434.7c-13.3.2-24.4-10.3-24.8-23.6-.5-13.6,10.8-25.2,24.3-25.2s24.3,11,24.5,24.2c0,13.2-10.8,24.3-24,24.6Z"/>
  <path class="cls-1" d="M511.8,458.6c.2,13.9-10.7,25-24.4,25-12.9-.1-23.6-10.6-24-23.5-.4-14,10.2-25.1,23.9-25.4,13.3-.2,24.3,10.5,24.5,23.9Z"/>
  <path class="cls-1" d="M682.6,385.7c-13.5-.1-24.3-10.8-24.4-24.1,0-13.6,11.2-24.6,25.1-24.3,13.4.3,24.1,11.3,23.9,24.6s-11.1,23.9-24.6,23.8Z"/>
  <path class="cls-1" d="M194.8,629.6c-13.4,0-24.3-10.7-24.5-24-.2-13.6,11.2-24.7,25-24.5,13.4.2,24.2,11.2,24,24.5-.1,13.3-11.1,24.1-24.5,24Z"/>
</svg>