<?xml version="1.0" encoding="UTF-8"?>
<svg id="Calque_1" data-name="Calque 1" xmlns="http://www.w3.org/2000/svg" version="1.1" viewBox="0 0 512.1 512">
  <defs>
    <style>
      .cls-1 {
        fill: #3e4072;
        stroke-width: 0px;
      }
    </style>
  </defs>
  <path class="cls-1" d="M275.1,12v40.5c111.9,3.7,199.6,97.3,195.9,209.2-3.7,111.9-97.3,199.6-209.2,195.9-107.8-3.5-193.9-90.8-196-198.6h36.9c7.5,0,10.2-5.1,6.2-11.3l-53.8-83.4L1.9,246.7c-4.1,6.2-1.3,11.3,6.2,11.3h17.3c1.5,134.4,111.6,242.2,246,240.8,134.4-1.5,242.2-111.6,240.8-246-1.4-130.9-106.1-237.2-237-240.7ZM300.1,107.6h-19.6l-4.7,128.2-75.9,3v23.7l106.7,4.1-6.4-158.9Z"/>
</svg>