<?xml version="1.0" encoding="UTF-8"?>
<svg id="Calque_1" data-name="Calque 1" xmlns="http://www.w3.org/2000/svg" version="1.1" viewBox="0 0 796.9 797.6">
  <defs>
    <style>
      .cls-1 {
        fill: #3e4072;
        stroke-width: 0px;
      }
    </style>
  </defs>
  <path class="cls-1" d="M145,720.5h71.2c1.2,0,2.3.4,3.2,1.1,9,7.7,20,12.5,31.7,14,2.7.4,5.4.5,8.2.5h367.6c28.6.2,53.5-19.5,60.1-47.3,1.1-4.4,1.6-9,1.6-13.5v-399.4c0-2.7-.3-5.4-.9-8.1-1.5-7.2-5.8-12.4-12.2-15.9-4.7-2.4-9.8-4-15-4.8-8.6-1.3-17.2-1.8-25.9-1.7h-98.4c-7.4.2-14.6-2.3-20.3-6.9-7.7-6.3-11.4-14.5-11.4-24.4v-100.4c0-7-.2-13.9-.9-20.9-.5-5.7-1.8-11.3-3.9-16.7-3-7-7.8-12.1-15.2-14.4-1.1-.3-2.1-.5-3.2-.5h-126c-31.9,0-63.8,0-95.7,0-26.8-.1-50.6,17.1-58.8,42.6-2,6.4-3,13.1-3,19.8v53.8c-1.6.4-59,.5-61.2.1,0-.4-.1-.9-.1-1.3,0-18.9-.3-37.9,0-56.8.6-27.9,9.9-52.8,27.6-74.3,18.5-22.6,42.3-36.9,71.1-42.9C242.7.8,250.6,0,258.5,0c81.6,0,163.3,0,244.9,0,9.1,0,18.2,2.1,26.4,6,8.7,4.1,16.9,9.3,24.5,15.2,11.6,9,22.6,18.8,33,29.2,15.8,15.7,31.5,31.7,47.3,47.5,11.5,11.5,23,22.9,34.5,34.3,15.7,15.5,31.4,30.8,46.1,47.3,7.5,8.2,14.4,17,20.6,26.2,5.1,7.8,9.4,15.9,11.9,24.9,1.4,5,2.1,10.1,2.1,15.2,0,143.1,0,286.2,0,429.3,0,32.7-11.7,61.1-34.2,84.8-17,18-39.2,30.3-63.5,35.3-7.8,1.7-15.8,2.5-23.8,2.5h-369.5c-32.7,0-60.9-11.8-84.6-34.1-11.9-11.3-21.4-25-27.9-40.1-.4-.9-.7-1.7-1.1-2.8Z"/>
  <path class="cls-1" d="M91.3,549.1c.3-.5.5-.9.8-1.4,14.5-28.8,28.9-57.6,43.3-86.3,5.1-10.2,10.2-20.4,15.4-30.6.4-.9.9-1.7,1.5-2.4,1.8-2.3,4.7-3.3,7.5-2.6,1.2.3,2.5.8,3.6,1.3,6.2,2.7,12.4,5.5,18.7,8.1,17.3,7.2,34.7,14.5,52,21.6.5.2.9.4,1.5.6.2-.4.4-.8.6-1.2,10.7-25.6,21.4-51.2,32.1-76.9,3.3-7.8,6.3-15.7,9.5-23.6.6-1.7,1.7-3.1,3.2-4,1.7-1.2,3.8-1.6,5.8-1.1,1.5.4,2.9.9,4.3,1.4,26.2,10.8,52.4,21.5,78.6,32.3.4.2.8.3,1.4.5.3-.6.5-1.2.7-1.8,14.1-34.1,28.3-68.2,42.4-102.3.5-1.6,1.5-3,2.7-4.2,2.8-2.3,5.9-2.3,9-1,2.7,1.1,5.4,2.2,8.1,3.4,4.5,1.9,8.9,3.8,13.4,5.6,3.1,1,5.2,3.9,5.2,7.2,0,1.7-.4,3.4-1.1,5-4.9,12-9.9,24-14.9,36-13.4,32.4-26.8,64.9-40.2,97.4-1.1,3.1-4,5.3-7.3,5.3-1.6,0-3.2-.4-4.7-1-15.1-6.2-30.3-12.4-45.4-18.6l-34-14c-.5-.2-1-.4-1.7-.6-.3.6-.6,1.2-.8,1.7-13.9,33.2-27.8,66.5-41.6,99.7-.6,1.8-1.9,3.4-3.5,4.4-1.6,1-3.5,1.4-5.3,1-1.3-.3-2.6-.7-3.8-1.2-24.2-10.1-48.5-20.1-72.7-30.2l-1.8-.8-66.1,131.7c.9,0,1.5,0,2.1,0h219.2c0,0,114.9-.2,114.9-.2,15.3,0,30.7,0,46.1,0,1.7-.1,3.4.2,4.9,1,2.4,1.3,3.1,3.6,3.1,6.2,0,2.2,0,4.4,0,6.6v19.4c0,1.6-.3,3.1-1,4.5-1.3,2.3-3.6,2.9-6,3.2-.4,0-.8,0-1.2,0l-257.6.2H59.9c-1.4,0-2.8-.2-4.2-.5-2.5-.6-4.4-2.5-4.9-5-.3-1.1-.4-2.3-.4-3.5v-383c-.1-1.9.3-3.7,1.1-5.4,1.6-2.7,4.2-3.7,7.1-3.8,8-.1,16-.1,24,0,2.9-.2,5.6,1.3,7.1,3.7.7,1.4,1.2,2.9,1.2,4.5,0,.7,0,1.3,0,2v291.6h.3Z"/>
</svg>