<?xml version="1.0" encoding="utf-8"?>
<!-- Generator: Adobe Illustrator 26.5.2, SVG Export Plug-In . SVG Version: 6.00 Build 0)  -->
<svg version="1.1" id="Calque_1" xmlns="http://www.w3.org/2000/svg" xmlns:xlink="http://www.w3.org/1999/xlink" x="0px" y="0px"
	 viewBox="0 0 759.4 759.4" style="enable-background:new 0 0 759.4 759.4;" xml:space="preserve">
<style type="text/css">
	.st0{fill:#FFFFFF;}
</style>
<path class="st0" d="M614.7,97.9c-5.9-0.6-12-0.6-17.8-1.9c-8.3-1.9-16.1-5.3-23.2-9.8C560,77.5,549.5,65.5,539,53.5
	c-6.5-7.4-13.5-14.5-22.4-19c-3.9-1.8-8.1-3.2-12.3-4.1c-3.5-1-7.1-1.5-10.8-1.6c-10,0.2-19.7,3.6-27.7,9.5
	c-7.7,5.6-13.8,12.9-20.2,19.8c-8.4,9.1-17.3,17.6-26.9,25.5c-6.6,5.4-14.6,8.6-23,11.2c-9.5,2.9-19,3.3-28.6,2.6s-18.4-3.6-27-7.8
	C327.2,83.2,317.6,73,307.8,63c-5.9-6.1-11.4-12.5-17.3-18.6c-5.9-6.2-13.2-10.7-21.4-13.2c-6.4-2-13.1-3.4-20-2.2
	c-12.8,2.3-24.5,8.7-33.3,18.4c-9.4,10.1-18.8,20.1-28.5,29.8c-5.8,5.8-12.9,9.9-20.3,13.5c-12.5,6.2-25.9,7.8-39.5,6.8
	c-9.4-0.8-18.6-3.5-27-7.8C87.6,83.2,78,73,68.2,62.9c-6.7-6.8-12.9-14.1-19.7-20.8c-5.2-5.1-11.6-8.9-18.6-10.9
	c-5-1.5-10.2-2.3-15.5-2.4c-7.7,0-12.2-5.2-13.8-10.7C-1.4,11.6,1.8,4,7.3,0.9c1.2-0.8,2.7-1.2,4.2-1.3c6.7,0.3,13.7,0,20.2,1.6
	C41.5,3.7,50.6,8,58.8,13.9c9.6,6.8,17.1,15.8,25.4,23.9c5.2,5.1,9.7,10.8,14.8,16c6.7,6.7,14.7,11.9,23.9,14c5.8,1.3,11.7,2.3,18,1
	c5.6-1.2,11-2.3,16.1-5c7.4-3.8,13.4-9.2,19.1-15.1c9.4-9.9,18.5-20.1,28.4-29.5c6-5.7,13.4-9.9,21.2-13.2c12.8-5.3,26.1-6.3,39.5-5
	c5.8,0.5,11.8,2.6,17.3,4.8c5.8,2.2,11.2,5.1,16.2,8.8c6.7,5.3,13.1,11.1,19,17.2c7.5,7.5,14.3,15.6,21.8,23
	c6.5,6.3,14.2,11.2,23.1,13.1c5.8,1.2,11.7,2.2,18,0.9c5.8-1.2,11.4-2.4,16.6-5.3c8.8-5,16.4-11.7,22.5-19.7
	c3.5-4.2,7.3-8.2,11.4-11.9c6.5-6.1,12.8-12.4,19.7-17.9c8-6.3,17.3-9.6,27.3-11.9c7.9-1.8,15.7-1.7,23.4-1.2
	c6.3,0.4,12.5,2.5,18.7,4.1c6.5,1.7,12.5,4.9,17.6,9.2c6.8,5.5,13.2,11.5,19.4,17.7s11.8,12.7,17.7,19c7.3,7.8,15.9,14.1,26.4,16.7
	c5.7,1.4,11.8,3,18,1.2c3.1-0.9,6.4-1.2,9.5-2c8.2-2.2,15-7,20.9-12.8c10.1-10,19.7-20.6,29.6-30.8C694,8,714.5-0.2,735.7,0.7
	c6.5,0.3,12.4,6.5,12.9,13c0.5,7.4-2.4,12.5-8.9,15.7c-1.2,0.6-2.4,0.9-3.7,0.9c-9.7-0.3-19.3,2.2-27.6,7.4
	c-7.6,4.6-13.9,10.8-19.7,17.7c-9.4,11-19.2,21.5-31.4,29.6c-6.8,4.5-14.3,7.8-22.2,9.9C628.6,96.7,621.7,97.7,614.7,97.9z"/>
<path class="st0" d="M621.7,185c-5.9-0.6-12-0.6-17.8-1.9c-8.3-1.9-16.1-5.3-23.2-9.9c-13.7-8.6-24.2-20.6-34.7-32.6
	c-6.5-7.4-13.5-14.5-22.4-19c-3.8-1.9-8.1-3-12.3-4.1c-3.5-1-7.1-1.5-10.8-1.6c-10,0.2-19.7,3.6-27.7,9.5
	c-7.7,5.6-13.8,12.9-20.2,19.8c-8.4,9.1-17.3,17.6-26.9,25.5c-6.6,5.4-14.6,8.6-23,11.2c-9.5,2.9-19,3.3-28.6,2.6s-18.4-3.6-27-7.8
	c-12.9-6.4-22.5-16.6-32.3-26.6c-5.9-6.1-11.4-12.5-17.3-18.6c-5.9-6.2-13.2-10.7-21.4-13.2c-6.4-2-13.1-3.4-20-2.2
	c-12.8,2.3-24.5,8.7-33.3,18.4c-9.4,10-18.8,20.1-28.5,29.8c-5.8,5.8-12.9,9.9-20.3,13.5c-12.5,6.2-25.8,7.8-39.5,6.8
	c-9.4-0.8-18.6-3.5-27-7.8c-12.9-6.4-22.6-16.6-32.3-26.6c-6.7-6.9-12.9-14.1-19.7-20.8c-5.2-5.1-11.6-8.9-18.6-10.9
	c-5-1.5-10.2-2.3-15.5-2.4c-7.7,0-12.2-5.2-13.8-10.7c-1.9-6.5,1.2-14.1,6.7-17.2c1.3-0.8,2.7-1.3,4.2-1.3c6.7,0.3,13.7,0,20.2,1.6
	c9.7,2.5,18.9,6.8,27.1,12.7c9.6,6.8,17.1,15.8,25.4,24c5.2,5.1,9.7,10.9,14.8,16c6.7,6.7,14.7,11.9,23.9,14c5.8,1.3,11.7,2.3,18,1
	c5.6-1.2,11-2.3,16.1-5c7.4-3.8,13.4-9.2,19.1-15.1c9.4-9.9,18.5-20.1,28.4-29.5c6-5.8,13.4-9.9,21.2-13.2c12.8-5.3,26.1-6.2,39.5-5
	c5.9,0.5,11.8,2.6,17.4,4.8c5.8,2.2,11.2,5.1,16.2,8.8c6.7,5.3,13.1,11.1,19,17.2c7.5,7.5,14.3,15.6,21.8,23
	c6.5,6.3,14.2,11.3,23.1,13.1c5.8,1.2,11.7,2.2,18,0.9c5.8-1.1,11.4-2.4,16.6-5.3c8.8-5,16.4-11.7,22.5-19.7
	c3.5-4.2,7.3-8.2,11.4-11.9c6.4-6.1,12.8-12.4,19.7-17.8c8-6.3,17.3-9.6,27.3-11.9c7.9-1.8,15.7-1.7,23.4-1.2
	c6.3,0.4,12.5,2.5,18.7,4.1c6.5,1.7,12.5,4.8,17.7,9.1c6.8,5.5,13.2,11.5,19.4,17.7s11.8,12.7,17.7,19c7.3,7.8,15.9,14.1,26.4,16.7
	c5.7,1.4,11.8,3,18,1.1c3.1-0.9,6.4-1.2,9.5-2c8.2-2.2,15-7,20.9-12.8c10.1-10,19.7-20.6,29.6-30.8c14.7-15.2,35.2-23.4,56.4-22.5
	c6.5,0.3,12.4,6.5,12.9,13c0.5,7.4-2.4,12.5-8.9,15.7c-1.2,0.6-2.4,0.9-3.7,0.9c-9.7-0.3-19.3,2.2-27.6,7.4
	c-7.6,4.6-13.9,10.8-19.7,17.6c-9.4,11-19.2,21.5-31.4,29.6c-6.8,4.5-14.3,7.8-22.2,9.9C635.6,183.8,628.6,184.9,621.7,185z"/>
<path class="st0" d="M75.2,523.4c-3.4-3.4-5.1-8.1-5-12.8V279c-0.2-4.8,1.6-9.4,5-12.8c5.3-5.2,13.4-6.5,20-3.1
	c2.3,1.1,4.4,2.7,6.2,4.6l149.2,198.4V279c-0.2-4.8,1.7-9.5,5.1-12.8s7.9-5.1,12.7-5c4.7-0.1,9.2,1.7,12.5,5c3.3,3.4,5.1,8.1,5,12.8
	v231.6c0.2,4.8-1.6,9.4-5,12.8c-3.3,3.3-7.8,5.1-12.5,5c-2.6,0-5.3-0.5-7.7-1.5c-2.4-0.9-4.5-2.5-6-4.6L105.4,323.9v186.8
	c0.1,4.7-1.7,9.3-5,12.7C93.4,530.1,82.3,530.2,75.2,523.4L75.2,523.4z"/>
<path class="st0" d="M350.7,523.3c-3.4-3.3-5.2-7.9-5.1-12.7V279c-0.2-4.8,1.7-9.5,5.1-12.8c6.8-7,18-7.2,25.1-0.4
	c3.6,3.5,5.5,8.3,5.4,13.2v98.2h158.7V279c-0.2-4.8,1.7-9.5,5.1-12.8c3.4-3.3,7.9-5.1,12.7-5c4.7-0.1,9.2,1.7,12.5,5
	c3.3,3.4,5.1,8.1,4.9,12.8v231.6c0.2,4.8-1.6,9.4-4.9,12.8c-3.3,3.3-7.8,5.1-12.5,5c-9.7,0.1-17.6-7.6-17.8-17.3c0-0.2,0-0.4,0-0.5
	v-102H381.2v102c0.1,4.7-1.7,9.3-5,12.7C369.1,530.1,357.9,530.1,350.7,523.3L350.7,523.3z"/>
<path class="st0" d="M701.6,594.5c1.9,1.5,2.9,3.9,2.9,7.2c0,2.6-1.1,5-3.1,6.7c-2,1.8-4.7,2.8-7.4,2.8h-12.3v25.9
	c0,2.8-1,5.4-3,7.4c-1.9,2-4.5,3.1-7.3,3.1c-2.7,0-5.2-1.1-7-3.1c-1.9-2-2.9-4.6-2.9-7.4v-25.9h-68.4c-2.9,0.1-5.6-1-7.6-3.1
	c-1.9-1.9-2.9-4.5-2.9-7.2c0-2.2,0.7-4.4,2.1-6.2l78.6-103c1.9-2.8,5.2-4.5,8.6-4.6c2.7-0.1,5.2,1,7,3.1s2.8,4.8,2.7,7.6v94.4H694
	C696.7,592,699.4,592.9,701.6,594.5z M609.9,592.2h51.7v-67.9L609.9,592.2z"/>
<path class="st0" d="M649,286.9c-2-2-3.1-4.7-3-7.5v-27.5h-27.5c-2.8,0.1-5.5-1-7.5-3.1c-2-2-3-4.8-3-7.6
	c-0.2-5.6,4.3-10.3,9.9-10.5c0.2,0,0.4,0,0.6,0H646v-27.5c0-2.8,1.1-5.5,3.2-7.4c3.9-4.1,10.4-4.4,14.5-0.5c2.2,2,3.4,4.9,3.2,7.9
	v27.5h27.5c2.8,0,5.5,1.1,7.5,3.1c2.1,2,3.2,4.7,3.2,7.6c0,2.8-1.1,5.5-3.2,7.4c-2,2-4.7,3.1-7.5,3.1H667v27.5
	c-0.1,5.9-4.9,10.5-10.7,10.5C653.5,289.8,651,288.8,649,286.9z"/>
</svg>
