<?xml version="1.0" encoding="utf-8"?>
<!-- Generator: Adobe Illustrator 26.5.2, SVG Export Plug-In . SVG Version: 6.00 Build 0)  -->
<svg version="1.1" id="a" xmlns="http://www.w3.org/2000/svg" xmlns:xlink="http://www.w3.org/1999/xlink" x="0px" y="0px"
	 viewBox="0 0 785.8 784.6" style="enable-background:new 0 0 785.8 784.6;" xml:space="preserve">
<style type="text/css">
	.st0{fill:#FFFFFF;}
</style>
<path class="st0" d="M631.7,104.3c-5.9-0.6-12-0.6-17.8-1.9c-8.2-1.9-16.1-5.3-23.2-9.8C577,83.9,566.5,71.9,556,59.9
	c-6.5-7.4-13.5-14.5-22.4-19c-3.8-1.9-8.2-3-12.3-4.1c-3.5-0.9-7.2-1.7-10.8-1.6c-10.1,0.3-19.5,3.5-27.7,9.5
	c-7.7,5.6-13.8,12.9-20.2,19.8c-8.4,9-17.3,17.7-26.9,25.5c-6.6,5.3-14.6,8.6-23,11.2c-9.5,2.9-19,3.2-28.6,2.6
	c-9.5-0.6-18.4-3.6-27-7.8c-12.9-6.4-22.5-16.6-32.3-26.6c-5.9-6.1-11.4-12.5-17.3-18.6c-6-6.2-13.2-10.7-21.4-13.2
	c-6.4-2-13.1-3.4-20-2.2c-13.2,2.4-24.2,8.6-33.3,18.4c-9.4,10-18.8,20.1-28.5,29.8c-5.8,5.8-12.9,9.9-20.3,13.5
	c-12.5,6.2-25.8,7.8-39.5,6.8c-9.5-0.7-18.4-3.6-27-7.8C104.6,89.6,95,79.4,85.2,69.3c-6.7-6.8-12.9-14.1-19.7-20.8
	c-5.2-5.1-11.6-8.8-18.6-10.9c-5-1.5-10.3-2.4-15.5-2.4c-7.7,0-12.2-5.2-13.8-10.7c-1.9-6.5,1.3-14.1,6.7-17.2
	c1.3-0.7,2.8-1.4,4.2-1.4c6.7,0.3,13.7,0,20.2,1.6c9.8,2.4,18.8,6.8,27.1,12.7c9.6,6.8,17.1,15.8,25.4,24c5.2,5.1,9.7,10.8,14.8,16
	c6.7,6.7,14.7,11.9,23.9,14c5.8,1.3,11.7,2.3,18,1c5.6-1.2,11-2.3,16.1-5c7.4-3.8,13.4-9.2,19.1-15.1c9.4-9.9,18.5-20.1,28.4-29.5
	c6-5.7,13.4-9.9,21.2-13.2c12.8-5.3,26.1-6.2,39.5-5c5.9,0.5,11.8,2.6,17.4,4.8c5.7,2.3,11.4,5.1,16.2,8.8c6.8,5.2,13,11.2,19,17.2
	c7.5,7.5,14.3,15.6,21.8,23c6.5,6.3,14.2,11.2,23.1,13.1c5.8,1.2,11.7,2.2,18,0.9c5.8-1.2,11.4-2.4,16.6-5.3
	c8.9-5,16.2-11.7,22.5-19.7c3.4-4.3,7.4-8.1,11.4-11.9c6.4-6.1,12.8-12.4,19.7-17.8c8-6.3,17.3-9.6,27.3-11.9
	c7.9-1.8,15.7-1.7,23.4-1.2c6.3,0.4,12.5,2.5,18.7,4.1c6.6,1.7,12.5,5,17.6,9.2c6.8,5.5,13.2,11.5,19.4,17.7
	c6.1,6.1,11.8,12.7,17.7,19c7.4,7.8,15.9,14.1,26.4,16.7c5.7,1.4,11.8,3,18,1.2c3.1-0.9,6.4-1.2,9.5-2c8.2-2.2,15-7,20.9-12.8
	c10.1-10,19.7-20.6,29.6-30.8c7.7-7.9,16.7-13.9,27.2-17.8c9.5-3.6,19.1-5.1,29.2-4.6c6.5,0.3,12.4,6.5,12.9,13
	c0.5,7.4-2.4,12.5-8.9,15.7c-1.1,0.6-2.5,0.9-3.7,0.9c-10-0.3-19.2,2.2-27.6,7.4c-7.6,4.6-13.9,10.9-19.7,17.6
	c-9.4,11-19.2,21.5-31.4,29.6c-6.9,4.6-14.2,7.7-22.2,9.9C645.5,103.1,638.7,104.2,631.7,104.3L631.7,104.3z"/>
<path class="st0" d="M638.7,191.4c-5.9-0.6-12-0.6-17.8-1.9c-8.2-1.9-16.1-5.3-23.2-9.9C584,171,573.5,159,563,147
	c-6.5-7.4-13.5-14.5-22.4-19c-3.8-1.9-8.2-3-12.3-4.1c-3.5-0.9-7.2-1.7-10.8-1.6c-10.1,0.3-19.5,3.5-27.7,9.5
	c-7.7,5.6-13.8,12.9-20.2,19.8c-8.4,9-17.3,17.7-26.9,25.4c-6.6,5.4-14.6,8.6-23,11.2c-9.5,2.9-19,3.2-28.6,2.6
	c-9.5-0.6-18.4-3.6-27-7.8c-12.9-6.4-22.5-16.6-32.3-26.6c-5.9-6.1-11.4-12.5-17.3-18.6c-6-6.2-13.2-10.7-21.4-13.2
	c-6.4-2-13.1-3.4-20-2.2c-13.2,2.3-24.2,8.6-33.3,18.4c-9.4,10.1-18.8,20.1-28.5,29.8c-5.8,5.8-12.9,9.9-20.3,13.5
	c-12.5,6.2-25.8,7.8-39.5,6.8c-9.5-0.7-18.4-3.6-27-7.8c-12.9-6.3-22.5-16.6-32.3-26.6c-6.7-6.9-12.9-14.1-19.7-20.8
	c-5.2-5.1-11.6-8.8-18.6-10.9c-5-1.5-10.3-2.4-15.5-2.4c-7.7,0-12.2-5.2-13.8-10.7c-1.9-6.5,1.2-14.1,6.7-17.2
	c1.3-0.7,2.8-1.4,4.2-1.3c6.7,0.3,13.7,0,20.2,1.6c9.8,2.4,18.8,6.8,27.1,12.7c9.6,6.8,17.1,15.8,25.4,24c5.2,5.1,9.7,10.9,14.8,16
	c6.7,6.7,14.7,11.9,23.9,14c5.8,1.3,11.7,2.3,18,1c5.6-1.1,11-2.3,16.1-5c7.4-3.8,13.4-9.2,19.1-15.1c9.4-9.9,18.5-20.1,28.4-29.5
	c6-5.7,13.4-9.9,21.2-13.2c12.8-5.3,26.1-6.2,39.5-5c5.9,0.5,11.8,2.6,17.4,4.8c5.7,2.3,11.4,5.1,16.2,8.8c6.8,5.2,13,11.2,19,17.2
	c7.5,7.5,14.3,15.6,21.8,23c6.5,6.3,14.2,11.2,23.1,13.1c5.8,1.2,11.7,2.2,18,0.9c5.8-1.1,11.4-2.4,16.6-5.3
	c8.9-5,16.2-11.7,22.5-19.7c3.4-4.3,7.4-8.1,11.4-11.9c6.4-6.1,12.8-12.4,19.7-17.8c8-6.3,17.3-9.6,27.3-11.9
	c7.9-1.8,15.7-1.7,23.4-1.2c6.3,0.4,12.5,2.5,18.7,4.1c6.6,1.7,12.5,5,17.6,9.2c6.8,5.5,13.2,11.5,19.4,17.7
	c6.1,6.1,11.8,12.7,17.7,19c7.4,7.8,15.9,14.1,26.4,16.7c5.7,1.4,11.8,3,18,1.1c3.1-0.9,6.4-1.2,9.5-2c8.2-2.2,15-7,20.9-12.8
	c10.1-10,19.7-20.6,29.6-30.8c7.7-7.9,16.7-13.9,27.2-17.8c9.5-3.6,19.1-5.1,29.2-4.6c6.5,0.3,12.4,6.5,12.9,13
	c0.5,7.4-2.4,12.5-8.9,15.7c-1.1,0.6-2.5,0.9-3.7,0.9c-10-0.3-19.2,2.2-27.6,7.4c-7.6,4.6-13.9,10.9-19.7,17.6
	c-9.4,11-19.2,21.5-31.4,29.6c-6.9,4.6-14.2,7.7-22.2,9.9C652.5,190.2,645.7,191.3,638.7,191.4L638.7,191.4z"/>
<path class="st0" d="M311.5,621.5c-4-4-6-8.9-6-14.8V335.9c0-6.1,2-11.1,6-15c4-3.9,8.9-5.8,14.8-5.8h180.8c6.1,0,11.1,1.8,14.8,5.4
	c3.7,3.6,5.6,8.3,5.6,14.2s-1.9,10.1-5.6,13.6c-3.7,3.5-8.7,5.2-14.8,5.2h-160v97.2h114.8c5.9,0,10.7,1.8,14.6,5.4
	c3.9,3.6,5.8,8.2,5.8,13.8s-1.9,10.2-5.8,13.8c-3.9,3.6-8.7,5.4-14.6,5.4H347.1v117.6c0,5.9-2,10.8-6,14.8s-8.9,6-14.8,6
	S315.5,625.5,311.5,621.5z"/>
<path class="st0" d="M570.6,295.1c-3.9-3.7-5.8-8.5-5.8-14.4s1.9-10.7,5.8-14.6c3.9-3.9,8.7-5.8,14.6-5.8h89.2
	c5.9,0,10.7,1.9,14.4,5.8c3.7,3.9,5.6,8.7,5.6,14.6s-1.9,10.7-5.6,14.4s-8.5,5.6-14.4,5.6h-89.2
	C579.4,300.8,574.5,298.9,570.6,295.1z"/>
</svg>
