<?xml version="1.0" encoding="utf-8"?>
<!-- Generator: Adobe Illustrator 26.5.2, SVG Export Plug-In . SVG Version: 6.00 Build 0)  -->
<svg version="1.1" id="a" xmlns="http://www.w3.org/2000/svg" xmlns:xlink="http://www.w3.org/1999/xlink" x="0px" y="0px"
	 viewBox="0 0 759.8 760.3" style="enable-background:new 0 0 759.8 760.3;" xml:space="preserve">
<style type="text/css">
	.st0{fill:#FFFFFF;}
</style>
<path class="st0" d="M614.7,98.3c-5.9-0.6-12-0.6-17.8-1.9c-8.2-1.9-16.1-5.3-23.2-9.8C560,77.9,549.5,65.9,539,53.9
	c-6.5-7.4-13.5-14.5-22.4-19c-3.8-1.9-8.1-3-12.4-4.1c-3.5-0.9-7.2-1.7-10.8-1.6c-10.1,0.3-19.5,3.5-27.7,9.5
	c-7.7,5.6-13.8,12.9-20.2,19.8c-8.4,9-17.3,17.7-26.9,25.5c-6.6,5.3-14.6,8.6-23,11.2c-9.5,2.9-19,3.2-28.6,2.6
	c-9.5-0.6-18.4-3.6-27-7.8c-12.9-6.4-22.5-16.6-32.3-26.6c-5.9-6.1-11.4-12.5-17.3-18.6c-6-6.2-13.2-10.7-21.4-13.2
	c-6.4-2-13.1-3.4-20-2.2c-13.2,2.4-24.2,8.6-33.3,18.4c-9.4,10-18.8,20.1-28.5,29.8c-5.8,5.8-12.9,9.9-20.3,13.5
	c-12.5,6.2-25.8,7.8-39.5,6.8c-9.5-0.7-18.4-3.6-27-7.8C87.6,83.6,78,73.4,68.2,63.3c-6.7-6.8-12.9-14.1-19.7-20.8
	c-5.2-5.1-11.6-8.8-18.6-10.9c-5-1.5-10.3-2.4-15.5-2.4C6.6,29.2,2.2,24,0.5,18.6C-1.4,12.1,1.8,4.4,7.2,1.4C8.5,0.7,10,0,11.4,0
	c6.7,0.3,13.7,0,20.2,1.6C41.4,4,50.4,8.4,58.7,14.3c9.6,6.8,17.1,15.8,25.4,24c5.2,5.1,9.7,10.8,14.8,16c6.7,6.7,14.7,11.9,23.9,14
	c5.8,1.3,11.7,2.3,18,1c5.6-1.2,11-2.3,16.1-5c7.4-3.8,13.4-9.2,19.1-15.1c9.4-9.9,18.5-20.1,28.4-29.5c6-5.7,13.4-9.9,21.2-13.2
	c12.8-5.3,26.1-6.2,39.5-5c5.9,0.5,11.8,2.6,17.4,4.8c5.7,2.3,11.4,5.1,16.2,8.8c6.8,5.2,13,11.2,19,17.2c7.5,7.5,14.3,15.6,21.8,23
	c6.5,6.3,14.2,11.2,23.1,13.1c5.8,1.2,11.7,2.2,18,0.9c5.8-1.2,11.4-2.4,16.6-5.3c8.9-5,16.2-11.7,22.5-19.7
	c3.4-4.3,7.4-8.1,11.4-11.9c6.4-6.1,12.8-12.4,19.7-17.8c8-6.3,17.3-9.6,27.3-11.9c7.9-1.8,15.7-1.7,23.4-1.2
	c6.3,0.4,12.5,2.5,18.7,4.1c6.6,1.7,12.5,5,17.6,9.2c6.8,5.5,13.2,11.5,19.4,17.7c6.1,6.1,11.8,12.7,17.7,19
	c7.4,7.8,15.9,14.1,26.4,16.7c5.7,1.4,11.8,3,18,1.2c3.1-0.9,6.4-1.2,9.5-2c8.2-2.2,15-7,20.9-12.8c10.1-10,19.7-20.6,29.6-30.8
	C687,15.9,696,9.9,706.5,6c9.5-3.5,19.1-5.1,29.2-4.6c6.5,0.3,12.4,6.5,12.9,13c0.5,7.4-2.4,12.5-8.9,15.7c-1.1,0.5-2.5,0.9-3.7,0.9
	c-10-0.3-19.2,2.2-27.6,7.4c-7.6,4.6-13.9,10.9-19.7,17.6c-9.4,11-19.2,21.5-31.4,29.6c-6.9,4.6-14.2,7.7-22.2,9.9
	C628.5,97.1,621.7,98.2,614.7,98.3L614.7,98.3z"/>
<path class="st0" d="M621.7,185.4c-5.9-0.6-12-0.6-17.8-1.9c-8.2-1.9-16.1-5.3-23.2-9.9C567,165,556.5,153,546,141
	c-6.5-7.4-13.5-14.5-22.4-19c-3.8-1.9-8.2-3-12.4-4.1c-3.5-0.9-7.2-1.7-10.8-1.6c-10.1,0.3-19.5,3.5-27.7,9.5
	c-7.7,5.6-13.8,12.9-20.2,19.8c-8.4,9-17.3,17.7-26.9,25.4c-6.6,5.4-14.6,8.6-23,11.2c-9.5,2.9-19,3.2-28.6,2.6
	c-9.5-0.6-18.4-3.6-27-7.8c-12.9-6.4-22.5-16.6-32.3-26.6c-5.9-6.1-11.4-12.5-17.3-18.6c-6-6.2-13.2-10.7-21.4-13.2
	c-6.4-2-13.1-3.4-20-2.2c-13.2,2.3-24.2,8.6-33.3,18.4c-9.4,10.1-18.8,20.1-28.5,29.8c-5.8,5.8-12.9,9.9-20.3,13.5
	c-12.5,6.2-25.8,7.8-39.5,6.8c-9.5-0.7-18.4-3.6-27-7.8c-12.9-6.3-22.5-16.6-32.3-26.6c-6.7-6.9-12.9-14.1-19.7-20.8
	c-5.2-5.1-11.6-8.8-18.6-10.9c-5-1.5-10.3-2.4-15.5-2.4c-7.7,0-12.2-5.2-13.8-10.7c-1.9-6.5,1.2-14.1,6.7-17.2
	c1.3-0.7,2.8-1.4,4.2-1.3c6.7,0.3,13.7,0,20.2,1.6c9.8,2.4,18.8,6.8,27.1,12.7c9.6,6.8,17.1,15.8,25.4,24c5.2,5.1,9.7,10.9,14.8,16
	c6.7,6.7,14.7,11.9,23.9,14c5.8,1.3,11.7,2.3,18,1c5.6-1.1,11-2.3,16.1-5c7.4-3.8,13.4-9.2,19.1-15.1c9.4-9.9,18.5-20.1,28.4-29.5
	c6-5.7,13.4-9.9,21.2-13.2c12.8-5.3,26.1-6.2,39.5-5c5.9,0.5,11.8,2.6,17.4,4.8c5.7,2.3,11.4,5.1,16.2,8.8c6.8,5.2,13,11.2,19,17.2
	c7.5,7.5,14.3,15.6,21.8,23c6.5,6.3,14.2,11.2,23.1,13.1c5.8,1.2,11.7,2.2,18,0.9c5.8-1.1,11.4-2.4,16.6-5.3
	c8.9-5,16.2-11.7,22.5-19.7c3.4-4.3,7.4-8.1,11.4-11.9c6.4-6.1,12.8-12.4,19.7-17.8c8-6.3,17.3-9.6,27.3-11.9
	c7.9-1.8,15.7-1.7,23.4-1.2c6.3,0.4,12.5,2.5,18.7,4.1c6.6,1.7,12.5,5,17.6,9.2c6.8,5.5,13.2,11.5,19.4,17.7
	c6.1,6.1,11.8,12.7,17.7,19c7.4,7.8,15.9,14.1,26.4,16.7c5.7,1.4,11.8,3,18,1.1c3.1-0.9,6.4-1.2,9.5-2c8.2-2.2,15-7,20.9-12.8
	c10.1-10,19.7-20.6,29.6-30.8C694,103,703,97,713.5,93.1c9.5-3.6,19.1-5.1,29.2-4.6c6.5,0.3,12.4,6.5,12.9,13
	c0.5,7.4-2.4,12.5-8.9,15.7c-1.1,0.6-2.5,0.9-3.7,0.9c-10-0.3-19.2,2.2-27.6,7.4c-7.6,4.6-13.9,10.9-19.7,17.6
	c-9.4,11-19.2,21.5-31.4,29.6c-6.9,4.6-14.2,7.7-22.2,9.9C635.5,184.2,628.7,185.3,621.7,185.4L621.7,185.4z"/>
<g>
	<path class="st0" d="M184.2,616.3c-23.6-14.1-42.2-33.5-55.8-58S108,506.7,108,477.1s6.8-56.2,20.4-80.6s32.2-43.7,55.8-58
		s49.7-21.4,78.2-21.4c20.3,0,37.8,2.7,52.6,8c14.8,5.3,29.8,14.1,45,26.4c3.2,2.4,5.3,4.9,6.4,7.4s1.6,5.5,1.6,9
		c0,5.3-1.9,9.7-5.8,13.2s-8.3,5.2-13.4,5.2s-9.7-1.7-14-5.2c-10.9-9.3-21.6-16.1-32-20.2s-23.9-6.2-40.4-6.2
		c-20.8,0-39.9,5.5-57.4,16.4s-31.3,25.8-41.6,44.6C153.1,434.5,148,455,148,477.1s5.1,42.9,15.4,61.6
		c10.3,18.7,24.1,33.5,41.6,44.4s36.6,16.4,57.4,16.4c25.6,0,50.1-8.8,73.6-26.4c4.5-3.2,8.9-4.8,13.2-4.8c5.1,0,9.3,1.8,12.6,5.4
		c3.3,3.6,5,8.3,5,14.2s-2.1,10.5-6.4,14.8c-28.8,23.2-61.5,34.8-98,34.8C233.8,637.5,207.8,630.5,184.2,616.3L184.2,616.3z"/>
	<path class="st0" d="M558.2,427.7c16.7,9.7,29.9,23.1,39.6,40c9.7,16.9,14.6,35.8,14.6,56.6v89.2c0,5.9-1.9,10.7-5.8,14.6
		s-8.7,5.8-14.6,5.8s-10.7-1.9-14.6-5.8c-3.9-3.9-5.8-8.7-5.8-14.6v-14.8c-9.3,11.5-20.7,20.4-34,26.8c-13.3,6.4-27.7,9.6-43.2,9.6
		c-19.2,0-36.6-4.8-52.2-14.4c-15.6-9.6-27.9-22.9-36.8-39.8c-8.9-16.9-13.4-35.8-13.4-56.6s4.8-39.7,14.4-56.6s22.9-30.3,39.8-40
		s35.7-14.6,56.2-14.6C522.9,413.1,541.5,418,558.2,427.7L558.2,427.7z M538.6,589.3c10.8-6.5,19.3-15.5,25.4-26.8
		c6.1-11.3,9.2-24.1,9.2-38.2s-3.1-26.9-9.2-38.4c-6.1-11.5-14.6-20.5-25.4-27c-10.8-6.5-22.9-9.8-36.2-9.8s-25.4,3.3-36.2,9.8
		c-10.8,6.5-19.3,15.5-25.6,27c-6.3,11.5-9.4,24.3-9.4,38.4c0,14.1,3.1,26.9,9.4,38.2s14.8,20.3,25.6,26.8
		c10.8,6.5,22.9,9.8,36.2,9.8C515.7,599.1,527.8,595.9,538.6,589.3z"/>
</g>
<g>
	<path class="st0" d="M529,388.9c-2.1-2.2-3.2-4.8-3.2-7.9s1-5.9,3.1-7.9l62.5-73c9.2-10.6,13.9-19.7,13.9-27.5
		c0-9.5-2.5-17.2-7.4-22.9s-11.6-8.6-20.1-8.6c-5.4,0-10.4,1.4-15,4.3c-4.5,2.9-8.1,6.7-10.7,11.5c-2.6,4.8-3.8,10-3.8,15.6
		c0,2.9-1.1,5.5-3.2,7.7c-2.1,2.2-4.8,3.3-8,3.3s-5.7-1.1-7.9-3.3s-3.3-4.8-3.3-7.7c0-9.8,2.3-18.7,6.8-26.6
		c4.5-7.9,10.7-14.1,18.6-18.7c7.8-4.5,16.7-6.8,26.5-6.8s18.4,2.1,25.8,6.4c7.4,4.3,13.1,10.3,17.2,18.1c4,7.9,6,17.1,6,27.6
		c0,6.5-1.9,13.2-5.6,20.1c-3.7,7-8.4,13.6-14,19.9l-50.4,57.2h61.6c3.2,0,5.9,1.1,8.1,3.3s3.3,4.8,3.3,7.9s-1.1,5.7-3.3,7.9
		s-4.9,3.3-8.1,3.3H537C533.8,392.2,531.1,391.1,529,388.9L529,388.9z"/>
	<path class="st0" d="M687.6,356.4c-2.1-2.1-3.2-4.8-3.2-8v-29.5h-29.5c-3.2,0-5.9-1.1-8-3.3c-2.1-2.2-3.2-4.9-3.2-8.1
		s1.1-5.9,3.2-8c2.1-2.1,4.8-3.2,8-3.2h29.5v-29.5c0-3.1,1.1-5.7,3.4-7.9c2.3-2.2,4.9-3.3,7.8-3.3c3.2,0,5.9,1.1,8,3.2
		s3.2,4.8,3.2,8v29.5h29.5c3.1,0,5.8,1.1,8,3.3c2.3,2.2,3.4,4.9,3.4,8.1s-1.1,5.7-3.4,7.9c-2.3,2.2-5,3.3-8,3.3h-29.5v29.5
		c0,3.2-1.1,5.9-3.2,8c-2.1,2.1-4.8,3.2-8,3.2S689.7,358.5,687.6,356.4L687.6,356.4z"/>
</g>
</svg>
