<?xml version="1.0" encoding="utf-8"?>
<!-- Generator: Adobe Illustrator 26.5.2, SVG Export Plug-In . SVG Version: 6.00 Build 0)  -->
<svg version="1.1" id="Capa_1" xmlns="http://www.w3.org/2000/svg" xmlns:xlink="http://www.w3.org/1999/xlink" x="0px" y="0px"
	 viewBox="0 0 512 512" style="enable-background:new 0 0 512 512;" xml:space="preserve">
<style type="text/css">
	.st0{fill:#FFFFFF;}
</style>
<g>
	<g>
		<path class="st0" d="M508.9,150.4c0-0.2-0.1-0.4-0.1-0.6c-2.9-15.3-7.6-29.9-14-43.6c-0.2-0.5-0.4-1-0.7-1.5
			c-6-12.4-13.3-24.1-21.7-34.8c-0.3-0.5-0.7-1-1.1-1.5c-0.1-0.1-0.1-0.1-0.2-0.2c-8.3-10.3-17.7-19.6-28-27.9
			c-0.1-0.1-0.1-0.1-0.2-0.2c-0.5-0.5-1-0.8-1.5-1.2c-10.8-8.4-22.5-15.7-34.9-21.6c-0.5-0.3-1-0.5-1.5-0.7
			C391.1,10.5,376.4,5.7,361.1,3c-0.2,0-0.4-0.1-0.6-0.1C350,1,339.2,0,328.1,0c-8.5,0-16.8,0.6-25,1.7c0,0-0.1,0-0.1,0
			c-77.7,10.7-140,70-155.2,146.1c-19.9,4-39.1,11.2-56.7,21.5c-3.6,2.1-4.8,6.7-2.7,10.3c2.1,3.6,6.7,4.8,10.3,2.7
			c14.6-8.5,30.3-14.8,46.7-18.6c-0.7,6.6-1.1,13.3-1.1,20.1c0,11,1,21.8,2.9,32.3c0,0.2,0.1,0.4,0.1,0.6c2.8,15.3,7.5,30,13.8,43.8
			c0.2,0.5,0.4,1,0.7,1.5c5.9,12.5,13.1,24.2,21.6,34.9c0.3,0.5,0.7,1.1,1.2,1.5c0.1,0.1,0.1,0.1,0.2,0.2
			c8.3,10.3,17.6,19.7,27.9,28c0.1,0.1,0.1,0.1,0.2,0.2c0.5,0.5,1,0.8,1.5,1.1c10.7,8.5,22.4,15.8,34.8,21.7c0.5,0.3,1,0.5,1.5,0.7
			c13.7,6.4,28.3,11.2,43.6,14c0.2,0,0.4,0.1,0.6,0.1c10.8,2,22,3.1,33.4,3.1c6.8,0,13.5-0.4,20.1-1.1
			C330.8,441.2,263.7,497,183.9,497C90.8,497,15,421.2,15,328.1c0-46.9,18.8-90.5,53-122.8c3-2.8,3.2-7.6,0.3-10.6
			c-2.8-3-7.6-3.2-10.6-0.3c-18,17-32.2,37.1-42.1,59.7C5.2,277.5,0,302.4,0,328.1C0,429.5,82.5,512,183.9,512
			c89.1,0,163.5-63.6,180.3-147.8c76.6-15.3,136.2-78.3,146.3-156.6c0,0,0-0.1,0-0.1c1-7.7,1.5-15.6,1.5-23.6
			C512,172.4,510.9,161.3,508.9,150.4z M465.1,85.3c5,6.9,9.5,14.3,13.5,22L345.4,240.4c-4.1-7.5-8.7-14.7-13.8-21.6L465.1,85.3z
			 M455.7,73.4L322.1,207c-5.5-6.3-11.4-12.2-17.7-17.7L438,55.7C444.3,61.2,450.2,67.1,455.7,73.4z M426,46.4L292.5,179.9
			c-6.9-5.1-14.1-9.7-21.7-13.7L404,33C411.7,36.9,419.1,41.4,426,46.4z M361.9,18.4c9.4,1.9,18.6,4.6,27.4,8.1L256.5,159.2
			c-8.5-3.7-17.3-6.7-26.4-9.1L361.9,18.4z M307.3,16.3c6.8-0.8,13.8-1.3,20.8-1.3c5.1,0,10.2,0.2,15.2,0.7L212.5,146.5
			c-9.3-1.5-18.9-2.2-28.7-2.2c-1.5,0-3.1,0-4.6,0.1L307.3,16.3z M280.5,21.9L166.2,136.2C182.3,81.4,225.6,38,280.5,21.9z
			 M160,199.1c-0.4-5-0.7-10.1-0.7-15.2c0-7,0.4-14,1.3-20.8l2.4-2.4c6.9-0.9,13.8-1.3,20.8-1.3c5.1,0,10.2,0.2,15.2,0.7L160,199.1z
			 M162.7,217.6l54.9-54.9c9.4,1.9,18.6,4.6,27.4,8.1L170.8,245C167.3,236.2,164.6,227,162.7,217.6z M190.7,281.8
			c-5-7-9.5-14.4-13.3-22.1l82.4-82.4c7.7,3.9,15.1,8.4,22.1,13.3L190.7,281.8z M200,293.7l93.7-93.7c6.3,5.4,12.3,11.3,17.8,17.7
			l-93.8,93.8C211.4,306,205.5,300,200,293.7z M229.5,320.8l91.3-91.3c5,6.9,9.5,14.3,13.5,22l-82.8,82.8
			C243.8,330.3,236.5,325.8,229.5,320.8z M293.4,349.1c-9.4-2-18.5-4.7-27.2-8.2l74.8-74.8c3.5,8.7,6.2,17.9,8.2,27.2L293.4,349.1z
			 M351.6,347.6l-4,4c-6.4,0.7-12.9,1.1-19.4,1.1c-5.5,0-10.9-0.3-16.3-0.8l40.1-40.1c0.5,5.4,0.8,10.8,0.8,16.3
			C352.7,334.7,352.3,341.2,351.6,347.6z M361.6,280.9c-2.4-9-5.5-17.8-9.2-26.2l132.8-132.8c3.5,8.7,6.2,17.9,8.2,27.2L361.6,280.9
			z M374.1,346.3l116.6-116.6C474.7,286,430.3,330.4,374.1,346.3z M495.8,203.3L367.7,331.5c0-1.1,0-2.2,0-3.3
			c0-10.1-0.8-20-2.4-29.7l130.9-130.9c0.5,5.4,0.8,10.8,0.8,16.3C497,190.4,496.6,196.9,495.8,203.3z"/>
	</g>
</g>
</svg>
