<?xml version="1.0" encoding="utf-8"?>
<!-- Generator: Adobe Illustrator 26.5.2, SVG Export Plug-In . SVG Version: 6.00 Build 0)  -->
<svg version="1.1" id="a" xmlns="http://www.w3.org/2000/svg" xmlns:xlink="http://www.w3.org/1999/xlink" x="0px" y="0px"
	 viewBox="0 0 756.8 756.1" style="enable-background:new 0 0 756.8 756.1;" xml:space="preserve">
<style type="text/css">
	.st0{fill:#FFFFFF;}
</style>
<path class="st0" d="M614.7,98.3c-5.9-0.6-12-0.6-17.8-1.9c-8.2-1.9-16.1-5.3-23.2-9.8C560,77.9,549.5,65.9,539,53.9
	c-6.5-7.4-13.5-14.5-22.4-19c-3.8-1.9-8.1-3-12.4-4.1c-3.5-0.9-7.2-1.7-10.8-1.6c-10.1,0.3-19.5,3.5-27.7,9.5
	c-7.7,5.6-13.8,12.9-20.2,19.8c-8.4,9-17.3,17.7-26.9,25.5c-6.6,5.3-14.6,8.6-23,11.2c-9.5,2.9-19,3.2-28.6,2.6
	c-9.5-0.6-18.4-3.6-27-7.8c-12.9-6.4-22.5-16.6-32.3-26.6c-5.9-6.1-11.4-12.5-17.3-18.6c-6-6.2-13.2-10.7-21.4-13.2
	c-6.4-2-13.1-3.4-20-2.2c-13.2,2.4-24.2,8.6-33.3,18.4c-9.4,10-18.8,20.1-28.5,29.8c-5.8,5.8-12.9,9.9-20.3,13.5
	c-12.5,6.2-25.8,7.8-39.5,6.8c-9.5-0.7-18.4-3.6-27-7.8C87.6,83.6,78,73.4,68.2,63.3c-6.7-6.8-12.9-14.1-19.7-20.8
	c-5.2-5.1-11.6-8.8-18.6-10.9c-5-1.5-10.3-2.4-15.5-2.4C6.6,29.2,2.2,24,0.5,18.6C-1.4,12.1,1.8,4.4,7.2,1.4
	c1.3-0.7,2.8-1.4,4.2-1.4c6.7,0.3,13.7,0,20.2,1.6C41.4,4,50.4,8.4,58.7,14.3c9.6,6.8,17.1,15.8,25.4,24c5.2,5.1,9.7,10.8,14.8,16
	c6.7,6.7,14.7,11.9,23.9,14c5.8,1.3,11.7,2.3,18,1c5.6-1.2,11-2.3,16.1-5c7.4-3.8,13.4-9.2,19.1-15.1c9.4-9.9,18.5-20.1,28.4-29.5
	c6-5.7,13.4-9.9,21.2-13.2c12.8-5.3,26.1-6.2,39.5-5c5.9,0.5,11.8,2.6,17.4,4.8c5.7,2.3,11.4,5.1,16.2,8.8c6.8,5.2,13,11.2,19,17.2
	c7.5,7.5,14.3,15.6,21.8,23c6.5,6.3,14.2,11.2,23.1,13.1c5.8,1.2,11.7,2.2,18,0.9c5.8-1.2,11.4-2.4,16.6-5.3
	c8.9-5,16.2-11.7,22.5-19.7c3.4-4.3,7.4-8.1,11.4-11.9c6.4-6.1,12.8-12.4,19.7-17.8c8-6.3,17.3-9.6,27.3-11.9
	c7.9-1.8,15.7-1.7,23.4-1.2c6.3,0.4,12.5,2.5,18.7,4.1c6.6,1.7,12.5,5,17.6,9.2c6.8,5.5,13.2,11.5,19.4,17.7
	c6.1,6.1,11.8,12.7,17.7,19c7.4,7.8,15.9,14.1,26.4,16.7c5.7,1.4,11.8,3,18,1.2c3.1-0.9,6.4-1.2,9.5-2c8.2-2.2,15-7,20.9-12.8
	c10.1-10,19.7-20.6,29.6-30.8c7.7-7.9,16.7-13.9,27.2-17.8c9.5-3.5,19.1-5.1,29.2-4.6c6.5,0.3,12.4,6.5,12.9,13
	c0.5,7.4-2.4,12.5-8.9,15.7c-1.1,0.5-2.5,0.9-3.7,0.9c-10-0.3-19.2,2.2-27.6,7.4c-7.6,4.6-13.9,10.9-19.7,17.6
	c-9.4,11-19.2,21.5-31.4,29.6c-6.9,4.6-14.2,7.7-22.2,9.9C628.5,97.1,621.7,98.2,614.7,98.3L614.7,98.3z"/>
<path class="st0" d="M621.7,185.4c-5.9-0.6-12-0.6-17.8-1.9c-8.2-1.9-16.1-5.3-23.2-9.9C567,165,556.5,153,546,141
	c-6.5-7.4-13.5-14.5-22.4-19c-3.8-1.9-8.2-3-12.4-4.1c-3.5-0.9-7.2-1.7-10.8-1.6c-10.1,0.3-19.5,3.5-27.7,9.5
	c-7.7,5.6-13.8,12.9-20.2,19.8c-8.4,9-17.3,17.7-26.9,25.4c-6.6,5.4-14.6,8.6-23,11.2c-9.5,2.9-19,3.2-28.6,2.6
	c-9.5-0.6-18.4-3.6-27-7.8c-12.9-6.4-22.5-16.6-32.3-26.6c-5.9-6.1-11.4-12.5-17.3-18.6c-6-6.2-13.2-10.7-21.4-13.2
	c-6.4-2-13.1-3.4-20-2.2c-13.2,2.3-24.2,8.6-33.3,18.4c-9.4,10.1-18.8,20.1-28.5,29.8c-5.8,5.8-12.9,9.9-20.3,13.5
	c-12.5,6.2-25.8,7.8-39.5,6.8c-9.5-0.7-18.4-3.6-27-7.8c-12.9-6.3-22.5-16.6-32.3-26.6c-6.7-6.9-12.9-14.1-19.7-20.8
	c-5.2-5.1-11.6-8.8-18.6-10.9c-5-1.5-10.3-2.4-15.5-2.4c-7.7,0-12.2-5.2-13.8-10.7c-1.9-6.5,1.2-14.1,6.7-17.2
	c1.3-0.7,2.8-1.4,4.2-1.3c6.7,0.3,13.7,0,20.2,1.6c9.8,2.4,18.8,6.8,27.1,12.7c9.6,6.8,17.1,15.8,25.4,24c5.2,5.1,9.7,10.9,14.8,16
	c6.7,6.7,14.7,11.9,23.9,14c5.8,1.3,11.7,2.3,18,1c5.6-1.1,11-2.3,16.1-5c7.4-3.8,13.4-9.2,19.1-15.1c9.4-9.9,18.5-20.1,28.4-29.5
	c6-5.7,13.4-9.9,21.2-13.2c12.8-5.3,26.1-6.2,39.5-5c5.9,0.5,11.8,2.6,17.4,4.8c5.7,2.3,11.4,5.1,16.2,8.8c6.8,5.2,13,11.2,19,17.2
	c7.5,7.5,14.3,15.6,21.8,23c6.5,6.3,14.2,11.2,23.1,13.1c5.8,1.2,11.7,2.2,18,0.9c5.8-1.1,11.4-2.4,16.6-5.3
	c8.9-5,16.2-11.7,22.5-19.7c3.4-4.3,7.4-8.1,11.4-11.9c6.4-6.1,12.8-12.4,19.7-17.8c8-6.3,17.3-9.6,27.3-11.9
	c7.9-1.8,15.7-1.7,23.4-1.2c6.3,0.4,12.5,2.5,18.7,4.1c6.6,1.7,12.5,5,17.6,9.2c6.8,5.5,13.2,11.5,19.4,17.7
	c6.1,6.1,11.8,12.7,17.7,19c7.4,7.8,15.9,14.1,26.4,16.7c5.7,1.4,11.8,3,18,1.1c3.1-0.9,6.4-1.2,9.5-2c8.2-2.2,15-7,20.9-12.8
	c10.1-10,19.7-20.6,29.6-30.8c7.7-7.9,16.7-13.9,27.2-17.8c9.5-3.6,19.1-5.1,29.2-4.6c6.5,0.3,12.4,6.5,12.9,13
	c0.5,7.4-2.4,12.5-8.9,15.7c-1.1,0.6-2.5,0.9-3.7,0.9c-10-0.3-19.2,2.2-27.6,7.4c-7.6,4.6-13.9,10.9-19.7,17.6
	c-9.4,11-19.2,21.5-31.4,29.6c-6.9,4.6-14.2,7.7-22.2,9.9C635.5,184.2,628.7,185.3,621.7,185.4L621.7,185.4z"/>
<g>
	<path class="st0" d="M166.9,489c0,3.1-1,5.6-3.1,7.7c-2.1,2.1-4.9,3.1-8.4,3.1c-4.4,0-7.9-1.9-10.4-5.8l-39.6-63.5H71.9v57.3
		c0,3.4-1.1,6.2-3.3,8.5c-2.2,2.3-5.1,3.5-8.6,3.5s-6.2-1.1-8.5-3.5c-2.3-2.3-3.5-5.1-3.5-8.5V332.1c0-3.5,1.2-6.4,3.5-8.6
		s5.1-3.3,8.5-3.3h41.4c11.3,0,21.5,2.4,30.5,7.1s15.9,11.4,20.9,20s7.5,18.4,7.5,29.4s-2.8,20.5-8.3,29c-5.5,8.4-13,14.8-22.5,19.1
		l35.2,56.6C166.2,483.8,166.9,486.4,166.9,489L166.9,489z M101.4,408.5c10.4,0,19-3,25.8-8.9c6.7-5.9,10.1-13.5,10.1-22.9
		c0-10.1-3.4-18.4-10.1-24.8c-6.8-6.4-15.3-9.7-25.8-9.7H71.9v66.2L101.4,408.5L101.4,408.5z"/>
	<path class="st0" d="M191.1,496.3c-2.3-2.3-3.4-5.1-3.4-8.5V332.1c0-3.5,1.1-6.4,3.4-8.6s5.1-3.3,8.5-3.3s6.4,1.1,8.6,3.3
		s3.3,5.1,3.3,8.6v66h106.7v-66c0-3.5,1.1-6.4,3.5-8.6c2.3-2.2,5.1-3.3,8.5-3.3s6.2,1.1,8.4,3.3c2.2,2.2,3.3,5.1,3.3,8.6v155.7
		c0,3.5-1.1,6.4-3.3,8.6s-5,3.3-8.4,3.3s-6.2-1.1-8.5-3.5c-2.3-2.3-3.5-5.1-3.5-8.5v-68.5H211.5v68.5c0,3.4-1.1,6.2-3.3,8.5
		c-2.2,2.3-5.1,3.5-8.6,3.5S193.4,498.6,191.1,496.3L191.1,496.3z"/>
	<path class="st0" d="M417.7,490.3c-13.9-7.8-24.6-18.7-32.3-32.8c-7.7-14-11.5-29.9-11.5-47.7s3.8-33.7,11.5-47.6
		s18.4-24.8,32.3-32.7c13.9-7.8,29.7-11.7,47.5-11.7s33.4,3.9,47.3,11.7c13.9,7.8,24.7,18.7,32.4,32.7s11.6,29.8,11.6,47.6
		s-3.9,33.7-11.6,47.7c-7.7,14-18.5,25-32.3,32.8c-13.8,7.8-29.6,11.7-47.4,11.7S431.6,498.2,417.7,490.3L417.7,490.3z M500.4,471.1
		c10.4-6.2,18.6-14.7,24.4-25.4c5.8-10.7,8.7-22.7,8.7-35.9s-2.9-25.1-8.7-35.9s-13.9-19.2-24.3-25.3c-10.4-6.1-22.1-9.2-35.3-9.2
		s-25,3.1-35.3,9.2s-18.4,14.6-24.3,25.3c-5.8,10.7-8.7,22.7-8.7,35.9s2.9,25.1,8.7,35.9s14,19.2,24.4,25.4
		c10.4,6.2,22.2,9.3,35.2,9.3S490,477.3,500.4,471.1z"/>
	<path class="st0" d="M591.7,496.3c-2.3-2.3-3.5-5.1-3.5-8.5V332.1c0-3.5,1.2-6.4,3.5-8.6s5.1-3.3,8.5-3.3h41.6
		c17.3,0,32.7,3.8,46.2,11.5s24,18.3,31.5,31.9s11.3,29,11.3,46.3s-3.8,32.8-11.3,46.5c-7.5,13.6-18,24.3-31.5,32
		c-13.5,7.7-28.9,11.5-46.2,11.5h-41.6C596.9,499.8,594,498.6,591.7,496.3L591.7,496.3z M641.9,478.6c12.7,0,24.1-2.9,34.2-8.7
		c10-5.8,17.9-14,23.5-24.5c5.6-10.5,8.4-22.4,8.4-35.5s-2.8-25-8.4-35.4c-5.6-10.4-13.4-18.5-23.5-24.4c-10-5.8-21.4-8.7-34.2-8.7
		h-29.7v137.3L641.9,478.6L641.9,478.6z"/>
</g>
</svg>
