<?xml version="1.0" encoding="utf-8"?>
<!-- Generator: Adobe Illustrator 26.5.2, SVG Export Plug-In . SVG Version: 6.00 Build 0)  -->
<svg version="1.1" id="a" xmlns="http://www.w3.org/2000/svg" xmlns:xlink="http://www.w3.org/1999/xlink" x="0px" y="0px"
	 viewBox="0 0 761.8 762.4" style="enable-background:new 0 0 761.8 762.4;" xml:space="preserve">
<style type="text/css">
	.st0{fill:#FFFFFF;}
</style>
<path class="st0" d="M614.7,98.3c-5.9-0.6-12-0.6-17.8-1.9c-8.2-1.9-16.1-5.3-23.2-9.8C560,77.9,549.5,65.9,539,53.9
	c-6.5-7.4-13.5-14.5-22.4-19c-3.8-1.9-8.1-3-12.4-4.1c-3.5-0.9-7.2-1.7-10.8-1.6c-10.1,0.3-19.5,3.5-27.7,9.5
	c-7.7,5.6-13.8,12.9-20.2,19.8c-8.4,9-17.3,17.7-26.9,25.5c-6.6,5.3-14.6,8.6-23,11.2c-9.5,2.9-19,3.2-28.6,2.6
	c-9.5-0.6-18.4-3.6-27-7.8c-12.9-6.4-22.5-16.6-32.3-26.6c-5.9-6.1-11.4-12.5-17.3-18.6c-6-6.2-13.2-10.7-21.4-13.2
	c-6.4-2-13.1-3.4-20-2.2c-13.2,2.4-24.2,8.6-33.3,18.4c-9.4,10-18.8,20.1-28.5,29.8c-5.8,5.8-12.9,9.9-20.3,13.5
	c-12.5,6.2-25.8,7.8-39.5,6.8c-9.5-0.7-18.4-3.6-27-7.8C87.6,83.6,78,73.4,68.2,63.3c-6.7-6.8-12.9-14.1-19.7-20.8
	c-5.2-5.1-11.6-8.8-18.6-10.9c-5-1.5-10.3-2.4-15.5-2.4C6.6,29.2,2.2,24,0.5,18.6C-1.4,12.1,1.8,4.4,7.2,1.4C8.5,0.7,10,0,11.4,0
	c6.7,0.3,13.7,0,20.2,1.6C41.4,4,50.4,8.4,58.7,14.3c9.6,6.8,17.1,15.8,25.4,24c5.2,5.1,9.7,10.8,14.8,16c6.7,6.7,14.7,11.9,23.9,14
	c5.8,1.3,11.7,2.3,18,1c5.6-1.2,11-2.3,16.1-5c7.4-3.8,13.4-9.2,19.1-15.1c9.4-9.9,18.5-20.1,28.4-29.5c6-5.7,13.4-9.9,21.2-13.2
	c12.8-5.3,26.1-6.2,39.5-5c5.9,0.5,11.8,2.6,17.4,4.8c5.7,2.3,11.4,5.1,16.2,8.8c6.8,5.2,13,11.2,19,17.2c7.5,7.5,14.3,15.6,21.8,23
	c6.5,6.3,14.2,11.2,23.1,13.1c5.8,1.2,11.7,2.2,18,0.9c5.8-1.2,11.4-2.4,16.6-5.3c8.9-5,16.2-11.7,22.5-19.7
	c3.4-4.3,7.4-8.1,11.4-11.9c6.4-6.1,12.8-12.4,19.7-17.8c8-6.3,17.3-9.6,27.3-11.9c7.9-1.8,15.7-1.7,23.4-1.2
	c6.3,0.4,12.5,2.5,18.7,4.1c6.6,1.7,12.5,5,17.6,9.2c6.8,5.5,13.2,11.5,19.4,17.7c6.1,6.1,11.8,12.7,17.7,19
	c7.4,7.8,15.9,14.1,26.4,16.7c5.7,1.4,11.8,3,18,1.2c3.1-0.9,6.4-1.2,9.5-2c8.2-2.2,15-7,20.9-12.8c10.1-10,19.7-20.6,29.6-30.8
	C687,15.9,696,9.9,706.5,6c9.5-3.5,19.1-5.1,29.2-4.6c6.5,0.3,12.4,6.5,12.9,13c0.5,7.4-2.4,12.5-8.9,15.7c-1.1,0.5-2.5,0.9-3.7,0.9
	c-10-0.3-19.2,2.2-27.6,7.4c-7.6,4.6-13.9,10.9-19.7,17.6c-9.4,11-19.2,21.5-31.4,29.6c-6.9,4.6-14.2,7.7-22.2,9.9
	C628.5,97.1,621.7,98.2,614.7,98.3L614.7,98.3z"/>
<path class="st0" d="M621.7,185.4c-5.9-0.6-12-0.6-17.8-1.9c-8.2-1.9-16.1-5.3-23.2-9.9C567,165,556.5,153,546,141
	c-6.5-7.4-13.5-14.5-22.4-19c-3.8-1.9-8.2-3-12.4-4.1c-3.5-0.9-7.2-1.7-10.8-1.6c-10.1,0.3-19.5,3.5-27.7,9.5
	c-7.7,5.6-13.8,12.9-20.2,19.8c-8.4,9-17.3,17.7-26.9,25.4c-6.6,5.4-14.6,8.6-23,11.2c-9.5,2.9-19,3.2-28.6,2.6
	c-9.5-0.6-18.4-3.6-27-7.8c-12.9-6.4-22.5-16.6-32.3-26.6c-5.9-6.1-11.4-12.5-17.3-18.6c-6-6.2-13.2-10.7-21.4-13.2
	c-6.4-2-13.1-3.4-20-2.2c-13.2,2.3-24.2,8.6-33.3,18.4c-9.4,10.1-18.8,20.1-28.5,29.8c-5.8,5.8-12.9,9.9-20.3,13.5
	c-12.5,6.2-25.8,7.8-39.5,6.8c-9.5-0.7-18.4-3.6-27-7.8c-12.9-6.3-22.5-16.6-32.3-26.6c-6.7-6.9-12.9-14.1-19.7-20.8
	c-5.2-5.1-11.6-8.8-18.6-10.9c-5-1.5-10.3-2.4-15.5-2.4c-7.7,0-12.2-5.2-13.8-10.7c-1.9-6.5,1.2-14.1,6.7-17.2
	c1.3-0.7,2.8-1.4,4.2-1.3c6.7,0.3,13.7,0,20.2,1.6c9.8,2.4,18.8,6.8,27.1,12.7c9.6,6.8,17.1,15.8,25.4,24c5.2,5.1,9.7,10.9,14.8,16
	c6.7,6.7,14.7,11.9,23.9,14c5.8,1.3,11.7,2.3,18,1c5.6-1.1,11-2.3,16.1-5c7.4-3.8,13.4-9.2,19.1-15.1c9.4-9.9,18.5-20.1,28.4-29.5
	c6-5.7,13.4-9.9,21.2-13.2c12.8-5.3,26.1-6.2,39.5-5c5.9,0.5,11.8,2.6,17.4,4.8c5.7,2.3,11.4,5.1,16.2,8.8c6.8,5.2,13,11.2,19,17.2
	c7.5,7.5,14.3,15.6,21.8,23c6.5,6.3,14.2,11.2,23.1,13.1c5.8,1.2,11.7,2.2,18,0.9c5.8-1.1,11.4-2.4,16.6-5.3
	c8.9-5,16.2-11.7,22.5-19.7c3.4-4.3,7.4-8.1,11.4-11.9c6.4-6.1,12.8-12.4,19.7-17.8c8-6.3,17.3-9.6,27.3-11.9
	c7.9-1.8,15.7-1.7,23.4-1.2c6.3,0.4,12.5,2.5,18.7,4.1c6.6,1.7,12.5,5,17.6,9.2c6.8,5.5,13.2,11.5,19.4,17.7
	c6.1,6.1,11.8,12.7,17.7,19c7.4,7.8,15.9,14.1,26.4,16.7c5.7,1.4,11.8,3,18,1.1c3.1-0.9,6.4-1.2,9.5-2c8.2-2.2,15-7,20.9-12.8
	c10.1-10,19.7-20.6,29.6-30.8C694,103,703,97,713.5,93.1c9.5-3.6,19.1-5.1,29.2-4.6c6.5,0.3,12.4,6.5,12.9,13
	c0.5,7.4-2.4,12.5-8.9,15.7c-1.1,0.6-2.5,0.9-3.7,0.9c-10-0.3-19.2,2.2-27.6,7.4c-7.6,4.6-13.9,10.9-19.7,17.6
	c-9.4,11-19.2,21.5-31.4,29.6c-6.9,4.6-14.2,7.7-22.2,9.9C635.5,184.2,628.7,185.3,621.7,185.4L621.7,185.4z"/>
<g>
	<path class="st0" d="M27.1,469.5c-2-2-2.9-4.4-2.9-7.2v-132c0-3,1-5.4,2.9-7.3s4.4-2.8,7.2-2.8h88.2c3,0,5.4,0.9,7.2,2.6
		c1.8,1.7,2.7,4.1,2.7,6.9s-0.9,4.9-2.7,6.6s-4.2,2.5-7.2,2.5h-78v47.4h56c2.9,0,5.2,0.9,7.1,2.6c1.9,1.8,2.8,4,2.8,6.7
		s-0.9,5-2.8,6.7c-1.9,1.8-4.3,2.6-7.1,2.6h-56v57.3c0,2.9-1,5.3-2.9,7.2s-4.4,2.9-7.2,2.9S29.1,471.4,27.1,469.5L27.1,469.5z"/>
	<path class="st0" d="M167.4,465.8c-10.3-5.7-17.4-13.2-21.4-22.4c-0.6-1.6-1-2.9-1-3.9c0-2,0.7-3.7,2.1-5.2c1.4-1.5,3.4-2.5,5.9-3
		c0.4-0.1,1-0.2,1.9-0.2c2.1,0,4.1,0.6,5.9,1.9c1.9,1.2,3.3,2.9,4.2,5c2.3,5.1,6.9,9.4,13.8,12.9s14.5,5.3,22.8,5.3
		c9.8,0,18-2.2,24.8-6.7s10.1-10.6,10.1-18.4s-2.9-13.8-8.6-19s-14.4-8.5-26.1-9.6c-16.1-1.6-28.8-6.3-38-14.1
		c-9.2-7.9-13.8-17.7-13.8-29.5c0-8.3,2.4-15.5,7.1-21.5c4.7-6,11.2-10.7,19.5-13.8c8.2-3.2,17.5-4.8,27.8-4.8
		c11.2,0,20.6,2.3,28.3,6.8s14.2,11,19.5,19.5c1.6,2.5,2.3,4.8,2.3,7c0,2.9-1.3,5.2-3.9,7c-1.4,0.9-3.1,1.4-5.1,1.4
		s-3.8-0.5-5.5-1.5s-3-2.3-3.9-4c-3.5-5.9-7.9-10.3-13.2-13.4c-5.3-3-11.9-4.6-20-4.6c-9.9,0-17.9,1.9-24,5.8
		c-6.1,3.8-9.2,9.4-9.2,16.7c0,6.8,2.7,12.4,8.2,17c5.5,4.5,15.2,7.5,29.2,9c15.6,1.6,27.7,6.3,36.3,14.1
		c8.6,7.9,12.9,18.2,12.9,31.1c0,9.4-2.5,17.4-7.6,24.1s-11.8,11.7-20.2,15s-17.4,5-27,5C189.3,474.4,177.8,471.5,167.4,465.8
		L167.4,465.8z"/>
	<path class="st0" d="M312.9,464c-11.5-6.9-20.6-16.3-27.2-28.3s-9.9-25.2-9.9-39.6s3.3-27.4,9.9-39.3s15.7-21.3,27.2-28.3
		s24.2-10.4,38.1-10.4c9.9,0,18.4,1.3,25.6,3.9s14.5,6.9,21.9,12.9c1.6,1.2,2.6,2.4,3.1,3.6s0.8,2.7,0.8,4.4c0,2.6-0.9,4.8-2.8,6.4
		c-1.9,1.7-4.1,2.5-6.5,2.5s-4.8-0.8-6.8-2.5c-5.3-4.5-10.5-7.8-15.6-9.9c-5.1-2-11.6-3-19.7-3c-10.1,0-19.5,2.7-28,8
		s-15.3,12.6-20.3,21.7c-5,9.2-7.5,19.1-7.5,29.9s2.5,20.9,7.5,30s11.8,16.3,20.3,21.6c8.5,5.3,17.8,8,28,8
		c12.5,0,24.4-4.3,35.9-12.9c2.2-1.6,4.4-2.3,6.4-2.3c2.5,0,4.5,0.9,6.1,2.6c1.6,1.8,2.4,4.1,2.4,6.9s-1,5.1-3.1,7.2
		c-14,11.3-30,17-47.8,17C337.1,474.4,324.4,471,312.9,464L312.9,464z"/>
	<path class="st0" d="M432.4,469.5c-2-2-2.9-4.4-2.9-7.2v-132c0-3,1-5.4,2.9-7.3s4.4-2.8,7.2-2.8h88.1c3,0,5.4,0.9,7.2,2.6
		s2.7,4.1,2.7,6.9s-0.9,4.9-2.7,6.6s-4.2,2.5-7.2,2.5h-78v47.4h56c2.9,0,5.2,0.9,7.1,2.6c1.9,1.8,2.8,4,2.8,6.7s-1,5-2.8,6.7
		c-1.9,1.8-4.3,2.6-7.1,2.6h-56v48.8h78c3,0,5.4,0.9,7.2,2.5s2.7,3.9,2.7,6.6s-0.9,5.2-2.7,6.9s-4.2,2.6-7.2,2.6h-88.1
		C436.7,472.4,434.3,471.4,432.4,469.5L432.4,469.5z"/>
	<path class="st0" d="M564,469.5c-2-2-2.9-4.4-2.9-7.2v-132c0-3,1-5.4,2.9-7.3s4.3-2.8,7.2-2.8s5.4,0.9,7.3,2.8
		c1.9,1.9,2.8,4.3,2.8,7.3v132c0,2.9-0.9,5.3-2.8,7.2s-4.3,2.9-7.3,2.9S565.9,471.5,564,469.5L564,469.5z"/>
	<path class="st0" d="M618.3,469.6c-1.9-1.9-2.8-4.3-2.8-7.3v-132c0-3,0.9-5.4,2.8-7.3c1.9-1.9,4.3-2.8,7.1-2.8
		c1.4,0,2.9,0.4,4.3,1.1c1.4,0.7,2.6,1.6,3.5,2.6l85,113.1V330.3c0-3,1-5.4,2.9-7.3s4.3-2.8,7.2-2.8s5.2,0.9,7.1,2.8
		c1.9,1.9,2.8,4.3,2.8,7.3v132c0,3-0.9,5.4-2.8,7.3c-1.9,1.9-4.3,2.8-7.1,2.8c-1.4,0-2.9-0.3-4.4-0.9s-2.6-1.5-3.4-2.6l-85-113.1
		v106.5c0,2.9-0.9,5.3-2.8,7.2s-4.3,2.9-7.3,2.9S620.2,471.5,618.3,469.6z"/>
</g>
</svg>
