<?xml version="1.0" encoding="utf-8"?>
<!-- Generator: Adobe Illustrator 26.5.2, SVG Export Plug-In . SVG Version: 6.00 Build 0)  -->
<svg version="1.1" id="a" xmlns="http://www.w3.org/2000/svg" xmlns:xlink="http://www.w3.org/1999/xlink" x="0px" y="0px"
	 viewBox="0 0 761.8 760.3" style="enable-background:new 0 0 761.8 760.3;" xml:space="preserve">
<style type="text/css">
	.st0{fill:#FFFFFF;}
</style>
<path class="st0" d="M614.7,98.3c-5.9-0.6-12-0.6-17.8-1.9c-8.2-1.9-16.1-5.3-23.2-9.8C560,77.9,549.5,65.9,539,53.9
	c-6.5-7.4-13.5-14.5-22.4-19c-3.8-1.9-8.1-3-12.4-4.1c-3.5-0.9-7.2-1.7-10.8-1.6c-10.1,0.3-19.5,3.5-27.7,9.5
	c-7.7,5.6-13.8,12.9-20.2,19.8c-8.4,9-17.3,17.7-26.9,25.5c-6.6,5.3-14.6,8.6-23,11.2c-9.5,2.9-19,3.2-28.6,2.6
	c-9.5-0.6-18.4-3.6-27-7.8c-12.9-6.4-22.5-16.6-32.3-26.6c-5.9-6.1-11.4-12.5-17.3-18.6c-6-6.2-13.2-10.7-21.4-13.2
	c-6.4-2-13.1-3.4-20-2.2c-13.2,2.4-24.2,8.6-33.3,18.4c-9.4,10-18.8,20.1-28.5,29.8c-5.8,5.8-12.9,9.9-20.3,13.5
	c-12.5,6.2-25.8,7.8-39.5,6.8c-9.5-0.7-18.4-3.6-27-7.8C87.6,83.6,78,73.4,68.2,63.3c-6.7-6.8-12.9-14.1-19.7-20.8
	c-5.2-5.1-11.6-8.8-18.6-10.9c-5-1.5-10.3-2.4-15.5-2.4C6.6,29.2,2.2,24,0.5,18.6C-1.4,12.1,1.8,4.4,7.2,1.4
	c1.3-0.7,2.8-1.4,4.2-1.4c6.7,0.3,13.7,0,20.2,1.6C41.4,4,50.4,8.4,58.7,14.3c9.6,6.8,17.1,15.8,25.4,24c5.2,5.1,9.7,10.8,14.8,16
	c6.7,6.7,14.7,11.9,23.9,14c5.8,1.3,11.7,2.3,18,1c5.6-1.2,11-2.3,16.1-5c7.4-3.8,13.4-9.2,19.1-15.1c9.4-9.9,18.5-20.1,28.4-29.5
	c6-5.7,13.4-9.9,21.2-13.2c12.8-5.3,26.1-6.2,39.5-5c5.9,0.5,11.8,2.6,17.4,4.8c5.7,2.3,11.4,5.1,16.2,8.8c6.8,5.2,13,11.2,19,17.2
	c7.5,7.5,14.3,15.6,21.8,23c6.5,6.3,14.2,11.2,23.1,13.1c5.8,1.2,11.7,2.2,18,0.9c5.8-1.2,11.4-2.4,16.6-5.3
	c8.9-5,16.2-11.7,22.5-19.7c3.4-4.3,7.4-8.1,11.4-11.9c6.4-6.1,12.8-12.4,19.7-17.8c8-6.3,17.3-9.6,27.3-11.9
	c7.9-1.8,15.7-1.7,23.4-1.2c6.3,0.4,12.5,2.5,18.7,4.1c6.6,1.7,12.5,5,17.6,9.2c6.8,5.5,13.2,11.5,19.4,17.7
	c6.1,6.1,11.8,12.7,17.7,19c7.4,7.8,15.9,14.1,26.4,16.7c5.7,1.4,11.8,3,18,1.2c3.1-0.9,6.4-1.2,9.5-2c8.2-2.2,15-7,20.9-12.8
	c10.1-10,19.7-20.6,29.6-30.8c7.7-7.9,16.7-13.9,27.2-17.8c9.5-3.5,19.1-5.1,29.2-4.6c6.5,0.3,12.4,6.5,12.9,13
	c0.5,7.4-2.4,12.5-8.9,15.7c-1.1,0.5-2.5,0.9-3.7,0.9c-10-0.3-19.2,2.2-27.6,7.4c-7.6,4.6-13.9,10.9-19.7,17.6
	c-9.4,11-19.2,21.5-31.4,29.6c-6.9,4.6-14.2,7.7-22.2,9.9C628.5,97.1,621.7,98.2,614.7,98.3L614.7,98.3z"/>
<path class="st0" d="M621.7,185.4c-5.9-0.6-12-0.6-17.8-1.9c-8.2-1.9-16.1-5.3-23.2-9.9C567,165,556.5,153,546,141
	c-6.5-7.4-13.5-14.5-22.4-19c-3.8-1.9-8.2-3-12.4-4.1c-3.5-0.9-7.2-1.7-10.8-1.6c-10.1,0.3-19.5,3.5-27.7,9.5
	c-7.7,5.6-13.8,12.9-20.2,19.8c-8.4,9-17.3,17.7-26.9,25.4c-6.6,5.4-14.6,8.6-23,11.2c-9.5,2.9-19,3.2-28.6,2.6
	c-9.5-0.6-18.4-3.6-27-7.8c-12.9-6.4-22.5-16.6-32.3-26.6c-5.9-6.1-11.4-12.5-17.3-18.6c-6-6.2-13.2-10.7-21.4-13.2
	c-6.4-2-13.1-3.4-20-2.2c-13.2,2.3-24.2,8.6-33.3,18.4c-9.4,10.1-18.8,20.1-28.5,29.8c-5.8,5.8-12.9,9.9-20.3,13.5
	c-12.5,6.2-25.8,7.8-39.5,6.8c-9.5-0.7-18.4-3.6-27-7.8c-12.9-6.3-22.5-16.6-32.3-26.6c-6.7-6.9-12.9-14.1-19.7-20.8
	c-5.2-5.1-11.6-8.8-18.6-10.9c-5-1.5-10.3-2.4-15.5-2.4c-7.7,0-12.2-5.2-13.8-10.7c-1.9-6.5,1.2-14.1,6.7-17.2
	c1.3-0.7,2.8-1.4,4.2-1.3c6.7,0.3,13.7,0,20.2,1.6c9.8,2.4,18.8,6.8,27.1,12.7c9.6,6.8,17.1,15.8,25.4,24c5.2,5.1,9.7,10.9,14.8,16
	c6.7,6.7,14.7,11.9,23.9,14c5.8,1.3,11.7,2.3,18,1c5.6-1.1,11-2.3,16.1-5c7.4-3.8,13.4-9.2,19.1-15.1c9.4-9.9,18.5-20.1,28.4-29.5
	c6-5.7,13.4-9.9,21.2-13.2c12.8-5.3,26.1-6.2,39.5-5c5.9,0.5,11.8,2.6,17.4,4.8c5.7,2.3,11.4,5.1,16.2,8.8c6.8,5.2,13,11.2,19,17.2
	c7.5,7.5,14.3,15.6,21.8,23c6.5,6.3,14.2,11.2,23.1,13.1c5.8,1.2,11.7,2.2,18,0.9c5.8-1.1,11.4-2.4,16.6-5.3
	c8.9-5,16.2-11.7,22.5-19.7c3.4-4.3,7.4-8.1,11.4-11.9c6.4-6.1,12.8-12.4,19.7-17.8c8-6.3,17.3-9.6,27.3-11.9
	c7.9-1.8,15.7-1.7,23.4-1.2c6.3,0.4,12.5,2.5,18.7,4.1c6.6,1.7,12.5,5,17.6,9.2c6.8,5.5,13.2,11.5,19.4,17.7
	c6.1,6.1,11.8,12.7,17.7,19c7.4,7.8,15.9,14.1,26.4,16.7c5.7,1.4,11.8,3,18,1.1c3.1-0.9,6.4-1.2,9.5-2c8.2-2.2,15-7,20.9-12.8
	c10.1-10,19.7-20.6,29.6-30.8c7.7-7.9,16.7-13.9,27.2-17.8c9.5-3.6,19.1-5.1,29.2-4.6c6.5,0.3,12.4,6.5,12.9,13
	c0.5,7.4-2.4,12.5-8.9,15.7c-1.1,0.6-2.5,0.9-3.7,0.9c-10-0.3-19.2,2.2-27.6,7.4c-7.6,4.6-13.9,10.9-19.7,17.6
	c-9.4,11-19.2,21.5-31.4,29.6c-6.9,4.6-14.2,7.7-22.2,9.9C635.5,184.2,628.7,185.3,621.7,185.4L621.7,185.4z"/>
<g>
	<path class="st0" d="M156.6,485.3c0,3-1,5.5-3,7.5c-2,2-4.8,3-8.2,3c-4.4,0-7.7-1.9-10.1-5.6l-38.7-62.1H63.6v56
		c0,3.3-1.1,6.1-3.3,8.3c-2.2,2.2-5,3.4-8.4,3.4s-6.1-1.1-8.3-3.4s-3.4-5-3.4-8.3V331.9c0-3.5,1.1-6.3,3.4-8.4
		c2.2-2.2,5-3.3,8.3-3.3h40.5c11.1,0,21,2.3,29.8,7c8.8,4.6,15.6,11.2,20.5,19.6s7.3,18,7.3,28.8s-2.7,20.1-8.1,28.4
		c-5.4,8.2-12.8,14.5-22.1,18.7l34.4,55.4C155.8,480.3,156.6,482.8,156.6,485.3L156.6,485.3z M92.4,406.5c10.2,0,18.6-2.9,25.2-8.7
		c6.6-5.8,9.9-13.2,9.9-22.4c0-9.9-3.3-18-9.9-24.3s-15-9.5-25.2-9.5H63.6v64.8L92.4,406.5L92.4,406.5z"/>
	<path class="st0" d="M282.1,439.5c-2,1.9-4.4,2.8-7.4,2.8h-85.5c1.6,10.5,6.4,19,14.3,25.4c7.9,6.5,17.5,9.7,28.9,9.7
		c4.5,0,9.2-0.8,14.1-2.5s8.9-3.7,12-6.1c2.1-1.6,4.6-2.5,7.4-2.5s5.1,0.8,6.8,2.2c2.7,2.2,4,4.8,4,7.6c0,2.7-1.2,5-3.6,6.8
		c-5.1,4-11.4,7.4-19,9.9c-7.6,2.5-14.8,3.8-21.7,3.8c-12.3,0-23.3-2.7-33.1-8c-9.8-5.3-17.4-12.7-22.8-22.2s-8.2-20.2-8.2-32.2
		s2.6-22.8,7.8-32.3c5.2-9.5,12.4-17,21.6-22.3c9.2-5.3,19.7-8,31.4-8s21.5,2.5,29.9,7.6c8.4,5.1,14.9,12.2,19.4,21.4
		s6.8,19.6,6.8,31.5C285,435.3,284.1,437.6,282.1,439.5L282.1,439.5z M202.3,400.2c-6.8,6-11.1,14-12.9,24.1h74.9
		c-1.4-10-5.1-18.1-11.2-24.1c-6.1-6-14.2-9-24.1-9C218.1,391.2,209.2,394.2,202.3,400.2L202.3,400.2z"/>
	<path class="st0" d="M341.5,349.2c-5.1,5.5-7.6,12.9-7.6,22v6.1h23c3.1,0,5.7,0.9,7.6,2.7c2,1.8,2.9,4.2,2.9,7.2c0,2.7-1,5-2.9,6.8
		c-2,1.8-4.5,2.7-7.6,2.7h-23v87.8c0,3.5-1,6.2-3.1,8.3c-2.1,2.1-5,3.1-8.8,3.1c-3,0-5.6-1-7.8-3.1c-2.2-2.1-3.3-4.9-3.3-8.3v-87.8
		h-9.7c-3.1,0-5.7-0.9-7.6-2.7c-2-1.8-2.9-4-2.9-6.8c0-3,1-5.4,2.9-7.2c2-1.8,4.5-2.7,7.6-2.7h9.7v-3.8c0-10.6,2.1-20,6.4-28
		c4.3-8,10.3-14.2,18-18.7c7.7-4.4,16.5-6.6,26.4-6.6c3.3,0,6,1,8.2,2.9c2.2,2,3.3,4.4,3.3,7.4s-1.1,5.5-3.3,7.4
		c-2.2,2-4.9,2.9-8.2,2.9C353.4,340.8,346.6,343.6,341.5,349.2L341.5,349.2z"/>
	<path class="st0" d="M482.9,486.6c-13.6-7.6-24.1-18.3-31.6-32.1s-11.2-29.3-11.2-46.7s3.8-32.9,11.2-46.6
		c7.5-13.6,18-24.3,31.6-32c13.6-7.6,29.1-11.5,46.5-11.5s32.7,3.8,46.2,11.5c13.6,7.6,24.2,18.3,31.7,32
		c7.6,13.6,11.4,29.2,11.4,46.6s-3.8,33-11.4,46.7c-7.6,13.7-18.1,24.4-31.6,32.1s-29,11.5-46.3,11.5S496.5,494.3,482.9,486.6z
		 M563.8,467.9c10.2-6.1,18.2-14.4,23.8-24.9c5.7-10.5,8.5-22.2,8.5-35.1s-2.8-24.6-8.5-35.1S574,354,563.9,348
		c-10.1-6-21.6-9-34.5-9s-24.4,3-34.5,9c-10.1,6-18,14.2-23.7,24.8c-5.7,10.5-8.5,22.2-8.5,35.1s2.9,24.6,8.5,35.1
		c5.7,10.5,13.6,18.8,23.9,24.9c10.2,6.1,21.7,9.1,34.4,9.1S553.6,473.9,563.8,467.9L563.8,467.9z"/>
	<path class="st0" d="M650.8,348.4c-2.9-2.9-4.4-6.4-4.4-10.5s1.5-7.5,4.4-10.5c2.9-2.9,6.4-4.4,10.5-4.4s7.5,1.5,10.5,4.4
		c2.9,2.9,4.4,6.4,4.4,10.5s-1.5,7.5-4.4,10.5c-2.9,2.9-6.4,4.4-10.5,4.4S653.7,351.3,650.8,348.4z M653,492.6
		c-2.2-2.2-3.3-4.9-3.3-8.2V384.3c0-3.5,1.1-6.2,3.3-8.3s4.9-3.1,8.2-3.1s6.2,1,8.3,3.1c2.1,2.1,3.2,4.9,3.2,8.3v100.1
		c0,3.3-1,6-3.2,8.2c-2.1,2.2-4.9,3.3-8.3,3.3S655.2,494.8,653,492.6z"/>
	<path class="st0" d="M721.6,490.6c-5.2-3.5-9.2-8.5-12-14.9c-2.8-6.4-4.3-13.5-4.3-21.5V331.4c0-3.3,1-6,3.2-8.1s4.8-3.1,8.1-3.1
		s6,1,8.1,3.1s3.2,4.8,3.2,8.1v122.9c0,5.5,1,10.1,3.2,13.7c2.1,3.6,4.8,5.4,8.1,5.4h5.6c3,0,5.4,1,7.3,3.1s2.8,4.8,2.8,8.1
		s-1.4,6-4.3,8.1c-2.8,2.1-6.5,3.1-11,3.1h-0.5C732.6,495.9,726.8,494.1,721.6,490.6L721.6,490.6z"/>
</g>
</svg>
