<?xml version="1.0" encoding="utf-8"?>
<!-- Generator: Adobe Illustrator 26.5.2, SVG Export Plug-In . SVG Version: 6.00 Build 0)  -->
<svg version="1.1" id="Calque_1" xmlns="http://www.w3.org/2000/svg" xmlns:xlink="http://www.w3.org/1999/xlink" x="0px" y="0px"
	 viewBox="0 0 755.8 754.8" style="enable-background:new 0 0 755.8 754.8;" xml:space="preserve">
<style type="text/css">
	.st0{fill:#FFFFFF;}
</style>
<path class="st0" d="M614.7,98.3c-5.9-0.6-12-0.6-17.8-1.9c-8.3-1.9-16.1-5.3-23.2-9.8C560,77.9,549.5,65.9,539,53.9
	c-6.5-7.4-13.5-14.5-22.4-19c-3.9-1.8-8.1-3.2-12.3-4.1c-3.5-1-7.1-1.5-10.8-1.6c-10,0.2-19.7,3.6-27.7,9.5
	c-7.7,5.6-13.8,12.9-20.2,19.8c-8.4,9.1-17.3,17.6-26.9,25.5c-6.6,5.4-14.6,8.6-23,11.2c-9.5,2.9-19,3.2-28.6,2.6s-18.4-3.6-27-7.8
	c-12.9-6.4-22.5-16.6-32.3-26.6c-5.9-6.1-11.4-12.5-17.3-18.6c-5.9-6.2-13.2-10.7-21.4-13.2c-6.4-2-13.1-3.4-20-2.2
	c-12.8,2.3-24.5,8.7-33.3,18.4c-9.4,10.1-18.8,20.1-28.5,29.8c-5.8,5.8-12.9,9.9-20.2,13.5c-12.5,6.2-25.9,7.8-39.5,6.8
	c-9.4-0.8-18.6-3.5-27-7.8c-13-6.5-22.6-16.7-32.4-26.8c-6.7-6.8-12.9-14.1-19.7-20.8c-5.2-5.1-11.6-8.9-18.6-10.9
	c-5-1.5-10.2-2.3-15.5-2.4C6.7,29.2,2.2,24,0.6,18.5C-1.4,12,1.8,4.4,7.2,1.3C8.5,0.5,10,0.1,11.5,0c6.7,0.3,13.7,0,20.2,1.6
	c9.8,2.5,18.9,6.8,27.1,12.7c9.6,6.8,17.1,15.8,25.4,23.9c5.2,5.1,9.7,10.8,14.8,16c6.7,6.7,14.7,11.9,23.9,14
	c5.8,1.3,11.7,2.3,18,1c5.6-1.2,11-2.3,16.1-5c7.4-3.8,13.4-9.2,19.1-15.1c9.4-9.9,18.5-20.1,28.4-29.5c6-5.7,13.4-9.9,21.2-13.2
	c12.8-5.3,26.1-6.2,39.5-5C271,1.9,277,4,282.5,6.2c5.8,2.2,11.2,5.1,16.2,8.8c6.7,5.3,13.1,11.1,19,17.2c7.5,7.5,14.3,15.6,21.8,23
	c6.5,6.3,14.2,11.2,23.1,13.1c5.8,1.2,11.7,2.2,18,0.9c5.8-1.2,11.4-2.4,16.6-5.3c8.8-5,16.4-11.7,22.5-19.7
	c3.5-4.2,7.3-8.2,11.4-11.9c6.5-6.1,12.8-12.4,19.7-17.9c8-6.3,17.3-9.6,27.3-11.9c7.9-1.8,15.7-1.7,23.4-1.2
	c6.3,0.4,12.5,2.5,18.7,4.1c6.5,1.7,12.5,4.9,17.6,9.2c6.8,5.5,13.2,11.5,19.4,17.7s11.8,12.7,17.7,19c7.3,7.8,15.9,14.1,26.4,16.7
	c5.7,1.4,11.8,3,18,1.2c3.1-0.9,6.4-1.2,9.5-2c8.2-2.2,15-7,20.9-12.8c10.1-10,19.7-20.6,29.6-30.8C694,8.4,714.5,0.2,735.7,1.1
	c6.5,0.3,12.4,6.5,12.9,13c0.5,7.4-2.4,12.5-8.9,15.7c-1.2,0.6-2.4,0.9-3.7,0.9c-9.7-0.3-19.3,2.2-27.6,7.4
	c-7.6,4.6-13.9,10.8-19.7,17.7c-9.4,11-19.2,21.5-31.4,29.6c-6.8,4.5-14.3,7.8-22.2,9.9C628.6,97.1,621.7,98.1,614.7,98.3z"/>
<path class="st0" d="M621.7,185.4c-5.9-0.6-12-0.6-17.8-1.9c-8.3-1.9-16.1-5.3-23.2-9.9C567,165,556.5,153,546,141
	c-6.5-7.4-13.5-14.5-22.4-19c-3.8-1.9-8.1-3-12.3-4.1c-3.5-1-7.1-1.5-10.8-1.6c-10,0.2-19.7,3.6-27.7,9.5
	c-7.7,5.6-13.8,12.9-20.2,19.8c-8.4,9.1-17.3,17.6-26.9,25.5c-6.6,5.4-14.6,8.6-23,11.2c-9.5,2.9-19,3.2-28.6,2.6s-18.4-3.6-27-7.8
	c-12.9-6.4-22.5-16.6-32.3-26.6c-5.9-6.1-11.4-12.5-17.3-18.6c-5.9-6.2-13.2-10.7-21.4-13.2c-6.4-2-13.1-3.4-20-2.2
	c-12.8,2.3-24.5,8.7-33.3,18.4c-9.4,10-18.8,20.1-28.5,29.8c-5.8,5.8-12.9,9.9-20.3,13.5c-12.5,6.2-25.8,7.8-39.5,6.8
	c-9.4-0.8-18.6-3.5-27-7.8c-12.9-6.4-22.6-16.6-32.3-26.6c-6.7-6.9-12.9-14.1-19.7-20.8c-5.2-5.1-11.6-8.9-18.6-10.9
	c-5-1.5-10.2-2.3-15.5-2.4c-7.7,0-12.2-5.2-13.8-10.7c-1.9-6.5,1.2-14.1,6.7-17.2c1.3-0.8,2.7-1.3,4.2-1.3c6.7,0.3,13.7,0,20.2,1.6
	c9.7,2.5,18.9,6.8,27.1,12.7c9.6,6.8,17.1,15.8,25.4,24c5.2,5.1,9.7,10.9,14.8,16c6.7,6.7,14.7,11.9,23.9,14c5.8,1.3,11.7,2.3,18,1
	c5.6-1.2,11-2.3,16.1-5c7.4-3.8,13.4-9.2,19.1-15.1c9.4-9.9,18.5-20.1,28.4-29.5c6-5.8,13.4-9.9,21.2-13.2c12.8-5.3,26.1-6.2,39.5-5
	c5.9,0.5,11.8,2.6,17.4,4.8c5.8,2.2,11.2,5.1,16.2,8.8c6.7,5.3,13.1,11.1,19,17.2c7.5,7.5,14.3,15.6,21.8,23
	c6.5,6.3,14.2,11.2,23.1,13.1c5.8,1.2,11.7,2.2,18,0.9c5.8-1.1,11.4-2.4,16.6-5.3c8.8-5,16.4-11.7,22.5-19.7
	c3.5-4.2,7.3-8.2,11.4-11.9c6.4-6.1,12.8-12.4,19.7-17.8c8-6.3,17.3-9.6,27.3-11.9c7.9-1.8,15.7-1.7,23.4-1.2
	c6.3,0.4,12.5,2.5,18.7,4.1c6.5,1.7,12.5,4.8,17.7,9.1c6.8,5.5,13.2,11.5,19.4,17.7s11.8,12.7,17.7,19c7.3,7.8,15.9,14.1,26.4,16.7
	c5.7,1.4,11.8,3,18,1.1c3.1-0.9,6.4-1.2,9.5-2c8.2-2.2,15-7,20.9-12.8c10.1-10,19.7-20.6,29.6-30.8c14.7-15.2,35.2-23.4,56.4-22.5
	c6.5,0.3,12.4,6.5,12.9,13c0.5,7.4-2.4,12.5-8.9,15.7c-1.2,0.6-2.4,0.9-3.7,0.9c-9.7-0.3-19.3,2.2-27.6,7.4
	c-7.6,4.6-13.9,10.8-19.7,17.6c-9.4,11-19.2,21.5-31.4,29.6c-6.8,4.5-14.3,7.8-22.2,9.9C635.6,184.2,628.6,185.3,621.7,185.4z"/>
<path class="st0" d="M70.4,496.9c-13.5-8-24.6-19.6-32.1-33.3c-7.9-14.3-11.9-30.4-11.7-46.7c-0.2-16.2,3.9-32.2,11.7-46.3
	c7.6-13.8,18.6-25.3,32.1-33.4c13.6-8.2,29.1-12.5,45-12.3c11.6,0,21.7,1.5,30.2,4.6s17.1,8.1,25.9,15.2c1.6,1.1,2.9,2.5,3.7,4.3
	c0.6,1.6,1,3.4,0.9,5.2c0.1,2.9-1.1,5.7-3.3,7.6c-2.1,1.9-4.9,3-7.7,3c-2.9,0-5.8-1.1-8-3c-5.5-4.8-11.7-8.8-18.4-11.6
	c-6-2.4-13.7-3.6-23.2-3.6c-11.7-0.1-23.1,3.2-33,9.4c-10.1,6.3-18.3,15.2-23.9,25.6c-11.8,22.1-11.8,48.6,0,70.7
	c5.6,10.4,13.9,19.2,23.9,25.5c9.9,6.2,21.3,9.5,33,9.4c14.7,0,28.8-5.1,42.3-15.2c2.2-1.7,4.8-2.7,7.6-2.8c2.8-0.1,5.4,1.1,7.2,3.1
	c2,2.2,3,5.2,2.9,8.2c0,3.2-1.3,6.3-3.7,8.5c-16.6,13.3-35.3,20-56.3,20C99.6,509.2,84,505,70.4,496.9z"/>
<path class="st0" d="M199.8,503.3c-2.3-2.2-3.5-5.3-3.4-8.5V339.1c-0.1-3.2,1.1-6.4,3.4-8.6c2.3-2.2,5.3-3.4,8.5-3.3h41.6
	c17.3,0,32.7,3.8,46.2,11.5c13.3,7.5,24.2,18.5,31.5,31.9c7.5,13.6,11.3,29,11.3,46.3s-3.8,32.8-11.3,46.5
	c-7.3,13.4-18.2,24.5-31.5,32c-13.5,7.7-28.9,11.5-46.2,11.5h-41.6C205.1,506.8,202,505.6,199.8,503.3z M249.9,485.6
	c12.7,0,24.1-2.9,34.2-8.7c10-5.8,18.1-14.3,23.5-24.5c5.6-10.5,8.4-22.3,8.4-35.5s-2.8-25-8.4-35.4c-5.4-10.2-13.5-18.6-23.5-24.4
	s-21.4-8.7-34.2-8.7h-29.7v137.3h29.7V485.6z"/>
<path class="st0" d="M390.1,497.3c-13.7-7.6-24.9-19-32.3-32.8c-7.7-14-11.5-29.9-11.5-47.7s3.8-33.7,11.5-47.6
	c7.5-13.7,18.7-25.1,32.3-32.7c13.9-7.8,29.7-11.7,47.5-11.7c17.6,0,33.4,3.9,47.3,11.7c13.7,7.6,24.9,18.9,32.4,32.7
	c7.7,14,11.6,29.9,11.6,47.6s-3.9,33.7-11.6,47.7c-7.5,13.7-18.7,25.1-32.3,32.8c-13.8,7.8-29.6,11.7-47.4,11.7
	C419.8,509.1,404,505.2,390.1,497.3z M472.8,478.1c10.3-6.1,18.7-14.9,24.4-25.4c11.7-22.5,11.7-49.3,0-71.8
	c-5.6-10.5-14-19.3-24.2-25.3c-10.4-6.1-22.1-9.2-35.3-9.2s-25,3.1-35.3,9.2c-10.3,6-18.7,14.8-24.3,25.3
	c-11.7,22.5-11.7,49.3,0,71.8c5.6,10.5,14.1,19.3,24.4,25.4C424.2,490.6,451,490.6,472.8,478.1L472.8,478.1z"/>
<path class="st0" d="M725.6,330.6c2.3,2.2,3.5,5.3,3.5,8.5v155.7c0.1,3.2-1.2,6.3-3.6,8.5c-4.6,4.7-12.2,4.7-16.8,0.1
	c-2.3-2.3-3.6-5.4-3.5-8.6V380.5l-55.7,113.4c-2.6,4-6.1,6-10.3,6c-5.1,0-8.7-2.4-11-7.1l-55-110.2v112.2c0.5,6.6-4.4,12.4-11,12.9
	s-12.4-4.4-12.9-11c-0.1-0.7-0.1-1.3,0-2V339.1c-0.1-6.5,5.1-11.9,11.6-12c0.1,0,0.3,0,0.4,0c4.6,0,8.1,2.1,10.6,6.4l68.3,136.9
	l66.5-136.9c2.5-4.3,6-6.4,10.6-6.4C720.3,327.1,723.3,328.3,725.6,330.6z"/>
</svg>
