<?xml version="1.0" encoding="utf-8"?>
<!-- Generator: Adobe Illustrator 26.5.2, SVG Export Plug-In . SVG Version: 6.00 Build 0)  -->
<svg version="1.1" id="Calque_1" xmlns="http://www.w3.org/2000/svg" xmlns:xlink="http://www.w3.org/1999/xlink" x="0px" y="0px"
	 viewBox="0 0 777 768" style="enable-background:new 0 0 777 768;" xml:space="preserve">
<style type="text/css">
	.st0{fill:#FFFFFF;}
	.st1{display:none;enable-background:new    ;}
	.st2{font-family:'Comfortaa-Bold';}
	.st3{font-size:400px;}
	.st4{letter-spacing:-20;}
	.st5{display:none;}
	.st6{font-size:300px;}
	.st7{letter-spacing:-21;}
	.st8{enable-background:new    ;}
</style>
<g>
	<path class="st0" d="M621.7,137.1c-5.9-0.6-12-0.6-17.8-1.9c-8.3-1.9-16.1-5.3-23.2-9.9c-13.6-8.7-24.1-20.7-34.6-32.7
		c-6.5-7.4-13.5-14.5-22.4-19c-3.8-1.9-8.1-3-12.3-4.1c-3.5-0.9-7.2-1.7-10.8-1.6c-10.1,0.3-19.5,3.5-27.7,9.5
		c-7.7,5.6-13.8,12.9-20.2,19.8c-8.4,9-17.3,17.7-26.9,25.5c-6.6,5.4-14.6,8.6-22.9,11.2c-9.5,2.9-19,3.3-28.6,2.6
		c-9.5-0.6-18.4-3.6-27-7.8c-12.9-6.4-22.6-16.6-32.3-26.6c-5.9-6.1-11.4-12.5-17.3-18.6c-6-6.2-13.2-10.7-21.4-13.2
		c-6.4-2-13.1-3.4-20-2.2c-13.2,2.3-24.2,8.6-33.3,18.4c-9.4,10.1-18.8,20.1-28.5,29.8c-5.8,5.8-12.9,9.9-20.3,13.5
		c-12.5,6.2-25.8,7.8-39.5,6.8c-9.5-0.7-18.4-3.6-27-7.8c-12.9-6.3-22.6-16.6-32.3-26.6c-6.8-6.9-13-14.2-19.8-20.9
		C50.4,76.2,44,72.5,37,70.4C32,68.9,26.6,68,21.5,68c-7.7,0-12.2-5.2-13.8-10.7c-1.9-6.5,1.2-14.1,6.7-17.2
		c1.3-0.7,2.8-1.4,4.2-1.4c6.7,0.3,13.7,0,20.2,1.6c9.7,2.4,18.8,6.9,27.1,12.7c9.6,6.8,17.1,15.8,25.4,24c5.2,5.1,9.7,10.9,14.8,16
		c6.7,6.7,14.7,11.9,23.9,14c5.8,1.3,11.7,2.3,18,1c5.6-1.2,11-2.3,16.1-5c7.4-3.8,13.4-9.2,19.1-15.1c9.4-9.9,18.5-20.1,28.4-29.5
		c6-5.7,13.3-9.9,21.2-13.2c12.8-5.3,26.1-6.2,39.5-5c5.9,0.5,11.8,2.6,17.4,4.8c5.7,2.3,11.3,5.1,16.2,8.8c6.8,5.2,13,11.2,19,17.2
		c7.5,7.5,14.3,15.6,21.8,23c6.5,6.3,14.2,11.2,23.1,13.1c5.8,1.2,11.7,2.2,18,0.9c5.8-1.2,11.4-2.5,16.6-5.3
		c8.9-5,16.2-11.7,22.5-19.7c3.4-4.3,7.4-8.1,11.4-11.9c6.4-6.1,12.8-12.4,19.7-17.8c8-6.3,17.3-9.6,27.3-11.9
		c7.9-1.8,15.7-1.7,23.4-1.2c6.3,0.4,12.5,2.5,18.7,4.1c6.6,1.7,12.5,5,17.6,9.2c6.8,5.5,13.2,11.5,19.4,17.7
		c6.1,6.1,11.8,12.7,17.7,19c7.4,7.8,15.9,14.1,26.4,16.7c5.7,1.4,11.8,3,18,1.1c3.1-0.9,6.4-1.2,9.6-2c8.2-2.2,15-7,20.9-12.8
		c10.1-10,19.7-20.6,29.6-30.8c7.7-7.9,16.7-13.9,27.2-17.8c9.5-3.5,19.1-5.1,29.2-4.6c6.5,0.3,12.4,6.5,12.9,13
		c0.5,7.4-2.4,12.5-8.9,15.7c-1.1,0.6-2.5,0.9-3.7,0.9c-9.9-0.3-19.2,2.3-27.6,7.4c-7.6,4.6-13.9,10.9-19.7,17.7
		c-9.4,11-19.2,21.5-31.4,29.6c-6.9,4.6-14.2,7.7-22.2,9.9C635.6,135.9,628.8,137,621.7,137.1z"/>
</g>
<text transform="matrix(1 0 0 1 159.9148 656.8847)" class="st1 st2 st3 st4">Cl</text>
<text transform="matrix(1 0 0 1 547.4779 416.7158)" class="st1 st2 st3">-</text>
<path class="st5" d="M94.8,216.7c0-16.1-13.1-29.4-29.4-29.4c-16.1,0-29.4,13.1-29.4,29.4l0,0c0,16.1,13.1,29.4,29.4,29.4
	C81.6,246.1,94.8,233.1,94.8,216.7L94.8,216.7z"/>
<path class="st5" d="M135,720.9c0-16.1-13.1-29.4-29.4-29.4c-16.1,0-29.4,13.1-29.4,29.4l0,0c0,16.1,13.1,29.4,29.4,29.4
	C121.7,750.3,135,737.3,135,720.9L135,720.9z"/>
<path class="st5" d="M719.7,556.6c0-16.1-13.1-29.4-29.4-29.4c-16.1,0-29.4,13.1-29.4,29.4l0,0c0,16.1,13.1,29.4,29.4,29.4
	C706.4,585.9,719.7,572.9,719.7,556.6L719.7,556.6z"/>
<g>
	<path class="st0" d="M628.7,224.2c-5.9-0.6-12-0.6-17.8-1.9c-8.3-1.9-16.1-5.3-23.2-9.9c-13.6-8.7-24.1-20.7-34.6-32.7
		c-6.5-7.4-13.5-14.5-22.4-19c-3.8-1.9-8.1-3-12.3-4.1c-3.5-0.9-7.2-1.7-10.8-1.6c-10.1,0.3-19.5,3.5-27.7,9.5
		c-7.7,5.6-13.8,12.9-20.2,19.8c-8.4,9-17.3,17.7-26.9,25.5c-6.6,5.4-14.6,8.6-22.9,11.2c-9.5,2.9-19,3.3-28.6,2.6
		c-9.5-0.6-18.4-3.6-27-7.8c-12.9-6.4-22.6-16.6-32.3-26.6c-5.9-6.1-11.4-12.5-17.3-18.6c-6-6.2-13.2-10.7-21.4-13.2
		c-6.4-2-13.1-3.4-20-2.2c-13.2,2.3-24.2,8.6-33.3,18.4c-9.4,10.1-18.8,20.1-28.5,29.8c-5.8,5.8-12.9,9.9-20.3,13.5
		c-12.5,6.2-25.8,7.8-39.5,6.8c-9.5-0.7-18.4-3.6-27-7.8c-12.9-6.3-22.6-16.6-32.3-26.6c-6.7-6.9-12.9-14.1-19.7-20.8
		c-5.2-5.1-11.6-8.8-18.6-10.9c-5-1.5-10.3-2.4-15.5-2.4c-7.7,0-12.2-5.2-13.8-10.7c-1.9-6.5,1.2-14.1,6.7-17.2
		c1.3-0.7,2.8-1.4,4.2-1.4c6.7,0.3,13.7,0,20.2,1.6c9.7,2.4,18.8,6.9,27.1,12.7c9.6,6.8,17.1,15.8,25.4,24c5.2,5.1,9.7,10.9,14.8,16
		c6.7,6.7,14.7,11.9,23.9,14c5.8,1.3,11.7,2.3,18,1c5.6-1.2,11-2.3,16.1-5c7.4-3.8,13.4-9.2,19.1-15.1c9.4-9.9,18.5-20.1,28.4-29.5
		c6-5.7,13.3-9.9,21.2-13.2c12.8-5.3,26.1-6.2,39.5-5c5.9,0.5,11.8,2.6,17.4,4.8c5.7,2.3,11.3,5.1,16.2,8.8c6.8,5.2,13,11.2,19,17.2
		c7.5,7.5,14.3,15.6,21.8,23c6.5,6.3,14.2,11.2,23.1,13.1c5.8,1.2,11.7,2.2,18,0.9c5.8-1.2,11.4-2.5,16.6-5.3
		c8.9-5,16.2-11.7,22.5-19.7c3.4-4.3,7.4-8.1,11.4-11.9c6.4-6.1,12.8-12.4,19.7-17.8c8-6.3,17.3-9.6,27.3-11.9
		c7.9-1.8,15.7-1.7,23.4-1.2c6.3,0.4,12.5,2.5,18.7,4.1c6.6,1.7,12.5,5,17.6,9.2c6.8,5.5,13.2,11.5,19.4,17.7
		c6.1,6.1,11.8,12.7,17.7,19c7.4,7.8,15.9,14.1,26.4,16.7c5.7,1.4,11.8,3,18,1.1c3.1-0.9,6.4-1.2,9.6-2c8.2-2.2,15-7,20.9-12.8
		c10.1-10,19.7-20.6,29.6-30.8c7.7-7.9,16.7-13.9,27.2-17.8c9.5-3.5,19.1-5.1,29.2-4.6c6.5,0.3,12.4,6.5,12.9,13
		c0.5,7.4-2.4,12.5-8.9,15.7c-1.1,0.6-2.5,0.9-3.7,0.9c-9.9-0.3-19.2,2.3-27.6,7.4c-7.6,4.6-13.9,10.9-19.7,17.7
		c-9.4,11-19.2,21.5-31.4,29.6c-6.9,4.6-14.2,7.7-22.2,9.9C642.6,223,635.8,224.1,628.7,224.2z"/>
</g>
<text transform="matrix(1 0 0 1 10.0775 571.5217)" class="st1 st2 st6 st7">Chl-a</text>
<text transform="matrix(1 0 0 1 14.0775 590.5041)" class="st1 st2 st6 st7">Chl-a</text>
<text transform="matrix(1 0 0 1 125.0232 646.8634)" class="st1 st2 st3 st4">PE</text>
<text transform="matrix(1 0 0 1 125.0232 646.8634)" class="st1 st2 st3 st4">PC</text>
<g class="st8">
	<path class="st0" d="M328.7,326.9c3.3,3.3,5,7.6,5,12.7s-1.7,9.4-5,12.7c-3.3,3.3-7.6,5-12.7,5h-79.3v233.6c0,5.4-1.8,10-5.5,13.7
		s-8.2,5.5-13.7,5.5c-5.4,0-10-1.8-13.7-5.5s-5.5-8.2-5.5-13.7V357.4h-79.7c-5.2,0-9.4-1.7-12.7-5c-3.3-3.3-5-7.6-5-12.7
		s1.7-9.4,5-12.7c3.3-3.3,7.6-5,12.7-5H316C321.1,321.9,325.4,323.6,328.7,326.9z"/>
	<path class="st0" d="M441.4,412c7.4,3.9,11.1,8.9,11.1,14.8c0,1.7-0.1,3-0.4,3.7c-2.2,7.9-7.1,11.8-14.8,11.8
		c-1.2,0-3.1-0.2-5.5-0.7c-9.8-1.7-17.8-2.6-24-2.6c-17.7,0-32,4.1-42.8,12.2s-16.2,19.1-16.2,32.8v107.7c0,5.9-1.5,10.5-4.6,13.7
		s-7.7,4.8-13.8,4.8c-5.9,0-10.5-1.5-13.7-4.6s-4.8-7.7-4.8-13.8V426.7c0-5.9,1.6-10.5,4.8-13.7c3.2-3.2,7.7-4.8,13.7-4.8
		c12.3,0,18.4,6.2,18.4,18.5v7c7.4-8.6,16.5-15.4,27.3-20.3s22.4-7.4,34.7-7.4C423.8,406.1,434,408,441.4,412z"/>
	<path class="st0" d="M635.7,420.3c15.6,9,27.9,21.3,36.7,36.9c8.9,15.6,13.3,33,13.3,52.2c0,19.2-4.1,36.6-12.4,52.2
		c-8.2,15.6-19.6,27.9-33.9,36.7c-14.4,8.9-30.4,13.3-48.2,13.3c-14.3,0-27.6-3-39.9-8.9c-12.3-5.9-22.8-14.1-31.4-24.7v99.6
		c0,5.7-1.7,10.2-5.2,13.7c-3.4,3.4-8,5.2-13.7,5.2c-5.4,0-9.9-1.7-13.5-5.2c-3.6-3.4-5.4-8-5.4-13.7V509.4
		c0-19.2,4.5-36.6,13.5-52.2s21.2-27.9,36.5-36.9c15.4-9,32.5-13.5,51.5-13.5C602.8,406.8,620.1,411.3,635.7,420.3z M617.3,569.3
		c10-6,17.8-14.3,23.6-24.7c5.8-10.5,8.7-22.2,8.7-35.2s-2.9-24.8-8.7-35.4s-13.7-18.9-23.6-24.9c-10-6-21.1-9-33.4-9
		c-12.3,0-23.4,3-33.4,9s-17.8,14.3-23.4,24.9c-5.7,10.6-8.5,22.4-8.5,35.4s2.8,24.8,8.5,35.2c5.7,10.5,13.5,18.7,23.4,24.7
		c10,6,21.1,9,33.4,9C596.2,578.4,607.3,575.4,617.3,569.3z"/>
</g>
</svg>
