<?xml version="1.0" encoding="utf-8"?>
<!-- Generator: Adobe Illustrator 26.5.2, SVG Export Plug-In . SVG Version: 6.00 Build 0)  -->
<svg version="1.1" id="Calque_1" xmlns="http://www.w3.org/2000/svg" xmlns:xlink="http://www.w3.org/1999/xlink" x="0px" y="0px"
	 viewBox="0 0 1000 1000" style="enable-background:new 0 0 1000 1000;" xml:space="preserve">
<style type="text/css">
	.st0{fill:#FFFFFF;}
</style>
<g>
	<g transform="matrix(1 0 0 -1 0 1920)">
		<path class="st0" d="M500,930c-44.4,0-85.3,11-122.9,32.9s-67.3,51.7-89.2,89.2C266,1089.7,255,1130.6,255,1175
			c0,35.4,7.2,68.9,21.6,100.5s34.4,58.8,60,81.7v430.4c0,33.8,12,62.6,35.9,86.6c24,24,52.8,35.9,86.6,35.9h81.7
			c33.8,0,62.6-12,86.6-35.9c24-24,35.9-52.8,35.9-86.6v-430.4c12.5-11.2,23.8-23.5,33.9-37.2c10.1-13.6,18.6-28.1,25.7-43.5
			c7.1-15.4,12.5-31.7,16.3-49s5.7-34.8,5.7-52.5c0-44.4-11-85.3-32.9-122.9s-51.7-67.3-89.2-89.2C585.3,941,544.4,930,500,930z
			 M500,1004.7c23.1,0,45.2,4.5,66.2,13.5c21,9,39.1,21.1,54.3,36.3s27.4,33.3,36.3,54.3s13.5,43,13.5,66.2c0,31.6-8,60.5-24.1,86.8
			s-37.6,46.9-64.5,61.9v218.9H500v40.8h81.7v40.8H500v40.8h81.7v40.8H500v40.8h81.7v40.8c0,11.2-4,20.8-12,28.8s-17.6,12-28.8,12
			h-81.7c-11.2,0-20.8-4-28.8-12s-12-17.6-12-28.8v-463.9c-27-15-48.5-35.6-64.5-61.9c-16.1-26.3-24.1-55.2-24.1-86.8
			c0-30.8,7.6-59.2,22.9-85.3c15.2-26.1,35.9-46.8,62.1-62.1C440.8,1012.3,469.2,1004.7,500,1004.7z M500,1057.4
			c-32.4,0-60,11.5-82.9,34.5s-34.3,50.7-34.3,83.1c0,24.8,7.1,47.2,21.2,67.2c14.2,20,32.5,34.2,55.1,42.7v196.4
			c0,5.7,2,10.5,5.9,14.5s8.8,5.9,14.5,5.9h40.8c3.8,0,7.3-0.9,10.4-2.7c3.1-1.8,5.6-4.2,7.3-7.4c1.8-3.1,2.7-6.6,2.7-10.4v-196.4
			c15-5.7,28.2-14,39.6-24.7c11.4-10.8,20.5-23.5,27.2-38.2s10-30.4,10-47c0-32.4-11.5-60.1-34.5-83.1S532.4,1057.4,500,1057.4z"/>
	</g>
</g>
</svg>
