<?xml version="1.0" encoding="utf-8"?>
<!-- Generator: Adobe Illustrator 26.5.2, SVG Export Plug-In . SVG Version: 6.00 Build 0)  -->
<svg version="1.1" id="a" xmlns="http://www.w3.org/2000/svg" xmlns:xlink="http://www.w3.org/1999/xlink" x="0px" y="0px"
	 viewBox="0 0 755.8 826.9" style="enable-background:new 0 0 755.8 826.9;" xml:space="preserve">
<style type="text/css">
	.st0{fill:#FFFFFF;}
</style>
<path class="st0" d="M614.7,98.3c-5.9-0.6-12-0.6-17.8-1.9c-8.2-1.9-16.1-5.3-23.2-9.8C560,77.9,549.5,65.9,539,53.9
	c-6.5-7.4-13.5-14.5-22.4-19c-3.8-1.9-8.1-3-12.4-4.1c-3.5-0.9-7.2-1.7-10.8-1.6c-10.1,0.3-19.5,3.5-27.7,9.5
	c-7.7,5.6-13.8,12.9-20.2,19.8c-8.4,9-17.3,17.7-26.9,25.5c-6.6,5.3-14.6,8.6-23,11.2c-9.5,2.9-19,3.2-28.6,2.6
	c-9.5-0.6-18.4-3.6-27-7.8c-12.9-6.4-22.5-16.6-32.3-26.6c-5.9-6.1-11.4-12.5-17.3-18.6c-6-6.2-13.2-10.7-21.4-13.2
	c-6.4-2-13.1-3.4-20-2.2c-13.2,2.4-24.2,8.6-33.3,18.4c-9.4,10-18.8,20.1-28.5,29.8c-5.8,5.8-12.9,9.9-20.3,13.5
	c-12.5,6.2-25.8,7.8-39.5,6.8c-9.5-0.7-18.4-3.6-27-7.8C87.6,83.6,78,73.4,68.2,63.3c-6.7-6.8-12.9-14.1-19.7-20.8
	c-5.2-5.1-11.6-8.8-18.6-10.9c-5-1.5-10.3-2.4-15.5-2.4C6.6,29.2,2.2,24,0.5,18.6C-1.4,12.1,1.8,4.4,7.2,1.4
	c1.3-0.7,2.8-1.4,4.2-1.4c6.7,0.3,13.7,0,20.2,1.6C41.4,4,50.4,8.4,58.7,14.3c9.6,6.8,17.1,15.8,25.4,24c5.2,5.1,9.7,10.8,14.8,16
	c6.7,6.7,14.7,11.9,23.9,14c5.8,1.3,11.7,2.3,18,1c5.6-1.2,11-2.3,16.1-5c7.4-3.8,13.4-9.2,19.1-15.1c9.4-9.9,18.5-20.1,28.4-29.5
	c6-5.7,13.4-9.9,21.2-13.2c12.8-5.3,26.1-6.2,39.5-5c5.9,0.5,11.8,2.6,17.4,4.8c5.7,2.3,11.4,5.1,16.2,8.8c6.8,5.2,13,11.2,19,17.2
	c7.5,7.5,14.3,15.6,21.8,23c6.5,6.3,14.2,11.2,23.1,13.1c5.8,1.2,11.7,2.2,18,0.9c5.8-1.2,11.4-2.4,16.6-5.3
	c8.9-5,16.2-11.7,22.5-19.7c3.4-4.3,7.4-8.1,11.4-11.9c6.4-6.1,12.8-12.4,19.7-17.8c8-6.3,17.3-9.6,27.3-11.9
	c7.9-1.8,15.7-1.7,23.4-1.2c6.3,0.4,12.5,2.5,18.7,4.1c6.6,1.7,12.5,5,17.6,9.2c6.8,5.5,13.2,11.5,19.4,17.7
	c6.1,6.1,11.8,12.7,17.7,19c7.4,7.8,15.9,14.1,26.4,16.7c5.7,1.4,11.8,3,18,1.2c3.1-0.9,6.4-1.2,9.5-2c8.2-2.2,15-7,20.9-12.8
	c10.1-10,19.7-20.6,29.6-30.8c7.7-7.9,16.7-13.9,27.2-17.8c9.5-3.5,19.1-5.1,29.2-4.6c6.5,0.3,12.4,6.5,12.9,13
	c0.5,7.4-2.4,12.5-8.9,15.7c-1.1,0.5-2.5,0.9-3.7,0.9c-10-0.3-19.2,2.2-27.6,7.4c-7.6,4.6-13.9,10.9-19.7,17.6
	c-9.4,11-19.2,21.5-31.4,29.6c-6.9,4.6-14.2,7.7-22.2,9.9C628.5,97.1,621.7,98.2,614.7,98.3L614.7,98.3z"/>
<path class="st0" d="M621.7,185.4c-5.9-0.6-12-0.6-17.8-1.9c-8.2-1.9-16.1-5.3-23.2-9.9C567,165,556.5,153,546,141
	c-6.5-7.4-13.5-14.5-22.4-19c-3.8-1.9-8.2-3-12.4-4.1c-3.5-0.9-7.2-1.7-10.8-1.6c-10.1,0.3-19.5,3.5-27.7,9.5
	c-7.7,5.6-13.8,12.9-20.2,19.8c-8.4,9-17.3,17.7-26.9,25.4c-6.6,5.4-14.6,8.6-23,11.2c-9.5,2.9-19,3.2-28.6,2.6
	c-9.5-0.6-18.4-3.6-27-7.8c-12.9-6.4-22.5-16.6-32.3-26.6c-5.9-6.1-11.4-12.5-17.3-18.6c-6-6.2-13.2-10.7-21.4-13.2
	c-6.4-2-13.1-3.4-20-2.2c-13.2,2.3-24.2,8.6-33.3,18.4c-9.4,10.1-18.8,20.1-28.5,29.8c-5.8,5.8-12.9,9.9-20.3,13.5
	c-12.5,6.2-25.8,7.8-39.5,6.8c-9.5-0.7-18.4-3.6-27-7.8c-12.9-6.3-22.5-16.6-32.3-26.6c-6.7-6.9-12.9-14.1-19.7-20.8
	c-5.2-5.1-11.6-8.8-18.6-10.9c-5-1.5-10.3-2.4-15.5-2.4c-7.7,0-12.2-5.2-13.8-10.7c-1.9-6.5,1.2-14.1,6.7-17.2
	c1.3-0.7,2.8-1.4,4.2-1.3c6.7,0.3,13.7,0,20.2,1.6c9.8,2.4,18.8,6.8,27.1,12.7c9.6,6.8,17.1,15.8,25.4,24c5.2,5.1,9.7,10.9,14.8,16
	c6.7,6.7,14.7,11.9,23.9,14c5.8,1.3,11.7,2.3,18,1c5.6-1.1,11-2.3,16.1-5c7.4-3.8,13.4-9.2,19.1-15.1c9.4-9.9,18.5-20.1,28.4-29.5
	c6-5.7,13.4-9.9,21.2-13.2c12.8-5.3,26.1-6.2,39.5-5c5.9,0.5,11.8,2.6,17.4,4.8c5.7,2.3,11.4,5.1,16.2,8.8c6.8,5.2,13,11.2,19,17.2
	c7.5,7.5,14.3,15.6,21.8,23c6.5,6.3,14.2,11.2,23.1,13.1c5.8,1.2,11.7,2.2,18,0.9c5.8-1.1,11.4-2.4,16.6-5.3
	c8.9-5,16.2-11.7,22.5-19.7c3.4-4.3,7.4-8.1,11.4-11.9c6.4-6.1,12.8-12.4,19.7-17.8c8-6.3,17.3-9.6,27.3-11.9
	c7.9-1.8,15.7-1.7,23.4-1.2c6.3,0.4,12.5,2.5,18.7,4.1c6.6,1.7,12.5,5,17.6,9.2c6.8,5.5,13.2,11.5,19.4,17.7
	c6.1,6.1,11.8,12.7,17.7,19c7.4,7.8,15.9,14.1,26.4,16.7c5.7,1.4,11.8,3,18,1.1c3.1-0.9,6.4-1.2,9.5-2c8.2-2.2,15-7,20.9-12.8
	c10.1-10,19.7-20.6,29.6-30.8c7.7-7.9,16.7-13.9,27.2-17.8c9.5-3.6,19.1-5.1,29.2-4.6c6.5,0.3,12.4,6.5,12.9,13
	c0.5,7.4-2.4,12.5-8.9,15.7c-1.1,0.6-2.5,0.9-3.7,0.9c-10-0.3-19.2,2.2-27.6,7.4c-7.6,4.6-13.9,10.9-19.7,17.6
	c-9.4,11-19.2,21.5-31.4,29.6c-6.9,4.6-14.2,7.7-22.2,9.9C635.5,184.2,628.7,185.3,621.7,185.4L621.7,185.4z"/>
<g>
	<path class="st0" d="M158.3,485.4c-16.7-9.4-29.6-22.5-38.8-39.3c-9.2-16.8-13.8-35.9-13.8-57.3s4.6-40.4,13.8-57.1
		c9.2-16.7,22.1-29.8,38.8-39.2c16.6-9.4,35.7-14.1,57-14.1s40.1,4.7,56.7,14.1c16.6,9.4,29.6,22.5,38.9,39.2
		c9.3,16.8,13.9,35.8,13.9,57.1s-4.6,40.4-13.9,57.3s-22.2,30-38.8,39.3s-35.5,14.1-56.9,14.1S174.9,494.8,158.3,485.4L158.3,485.4z
		 M257.5,462.3c12.5-7.5,22.3-17.6,29.3-30.5c7-12.9,10.5-27.2,10.5-43.1s-3.5-30.2-10.5-43.1c-7-12.9-16.7-23-29.1-30.4
		c-12.4-7.4-26.5-11-42.4-11s-29.9,3.7-42.4,11c-12.4,7.4-22.1,17.5-29.1,30.4c-7,12.9-10.5,27.2-10.5,43.1s3.5,30.2,10.5,43.1
		c7,12.9,16.7,23,29.3,30.5c12.5,7.5,26.6,11.2,42.2,11.2S245,469.8,257.5,462.3L257.5,462.3z"/>
	<path class="st0" d="M505.6,483.7c0,3.7-1.2,6.8-3.7,9.2c-2.5,2.5-5.8,3.7-10.1,3.7c-5.3,0-9.5-2.3-12.4-6.9l-47.5-76.2h-40.3v68.7
		c0,4-1.3,7.5-4,10.2c-2.7,2.8-6.1,4.1-10.4,4.1s-7.5-1.4-10.2-4.1c-2.8-2.8-4.1-6.2-4.1-10.2V295.5c0-4.2,1.4-7.7,4.1-10.4
		s6.2-4,10.2-4h49.7c13.6,0,25.8,2.9,36.6,8.6s19.1,13.7,25.1,24c6,10.3,9,22.1,9,35.3s-3.3,24.7-9.9,34.8
		c-6.6,10.1-15.6,17.8-27,22.9l42.2,67.9C504.7,477.6,505.6,480.6,505.6,483.7L505.6,483.7z M426.9,387.1c12.5,0,22.8-3.5,30.9-10.6
		c8.1-7.1,12.1-16.2,12.1-27.5c0-12.1-4-22.1-12.1-29.8c-8.1-7.7-18.4-11.6-30.9-11.6h-35.3v79.5H426.9z"/>
	<path class="st0" d="M534.6,492.6c-2.8-2.8-4.1-6.2-4.1-10.2V295.5c0-4.2,1.4-7.7,4.1-10.4s6.2-4,10.2-4H600
		c13.6,0,25.8,3,36.6,9.1c10.8,6.1,19.1,14.5,25.1,25.4c6,10.9,9,23.2,9,37s-3,25.4-9,35.9c-6,10.5-14.3,18.7-25.1,24.6
		c-10.8,5.9-23,8.8-36.6,8.8h-40.8v60.4c0,4-1.3,7.5-4,10.2c-2.7,2.8-6.1,4.1-10.3,4.1S537.3,495.3,534.6,492.6L534.6,492.6z
		 M600,395.4c12.5,0,22.8-4,30.9-12c8.1-8,12.1-18.3,12.1-30.8s-4-23.8-12.1-32.3c-8.1-8.5-18.4-12.7-30.9-12.7h-40.8v87.8
		L600,395.4L600,395.4z"/>
</g>
</svg>
