<?xml version="1.0" encoding="utf-8"?>
<!-- Generator: Adobe Illustrator 26.5.2, SVG Export Plug-In . SVG Version: 6.00 Build 0)  -->
<svg version="1.1" id="Calque_1" xmlns="http://www.w3.org/2000/svg" xmlns:xlink="http://www.w3.org/1999/xlink" x="0px" y="0px"
	 viewBox="0 0 24 24" style="enable-background:new 0 0 24 24;" xml:space="preserve">
<style type="text/css">
	.st0{fill:#FFFFFF;}
</style>
<path class="st0" d="M12,2c-4.4,0-8,3.6-8,8c0,4.1,3.1,7.4,7,7.9V20H2v2h20v-2h-9v-2.1c3.9-0.5,7-3.9,7-7.9C20,5.6,16.4,2,12,2z
	 M12,4c3.3,0,6,2.7,6,6s-2.7,6-6,6s-6-2.7-6-6S8.7,4,12,4z M14.3,6.3L10.6,10l1.4,1.4l3.7-3.7L14.3,6.3z"/>
</svg>
