<?xml version="1.0" encoding="UTF-8"?>
<svg id="Calque_1" data-name="Calque 1" xmlns="http://www.w3.org/2000/svg" version="1.1" viewBox="0 0 654.4 495.6">
  <defs>
    <style>
      .cls-1 {
        fill: #fff;
        stroke-width: 0px;
      }
    </style>
  </defs>
  <path class="cls-1" d="M.5,0h24.8v291.3l.7.2c.6-1,1.2-1.9,1.7-2.9,20.8-41.1,41.5-82.2,62.3-123.3.7-1.4,1.5-2.6,2.2-3.9l74.2,30.8c.6-1.2,1.1-2.1,1.5-3,9.9-23.7,19.9-47.3,29.8-71,3-7.2,5.8-14.5,8.8-21.7,1.5-3.7,1.6-3.7,5.2-2.2,22.8,9.3,45.5,18.6,68.2,27.9,3.3,1.3,6.6,2.7,10.2,4.1l42.6-102.2c8,3.2,15.6,6.3,23.4,9.7-17.5,42-34.8,83.5-52.3,125.5l-81.8-33.4c-.8,1.7-1.5,3.2-2.1,4.7l-38,90.6c0,.1,0,.2-.1.3q-1.6,3.8-5.5,2.2c-7.3-3-14.6-6.1-21.9-9.1l-47.2-19.5c-.9-.4-1.8-.7-3.2-1.2-22.3,44.1-44.5,88.1-67,132.6h234.6c.8,2.8,1,20,.3,25.2H.8C0,349.4-.3,6.8.5,0Z"/>
  <path class="cls-1" d="M437.3,297.7h-83.6l-8.4,56.3c5.9-.9,11.9-1.4,17.9-1.4,16.9,0,33.7,3.7,47.2,11.8,17.2,9.8,31.4,28.7,31.4,56.3,0,42.8-34.1,74.9-81.6,74.9s-44.2-6.7-54.6-13.5l7.4-22.6c9.1,5.4,27,12.1,46.9,12.1s51.9-18.2,51.9-47.5c-.3-28.3-19.2-48.6-63.1-48.6-10.2.1-20.3.9-30.4,2.4l14.2-105.2h104.9v25Z"/>
  <path class="cls-1" d="M452.6,474.4c0-12.5,8.4-21.2,20.2-21.2s19.9,8.8,19.9,21.2-7.8,21.2-20.2,21.2-19.9-9.1-19.9-21.2Z"/>
  <path class="cls-1" d="M632.8,293.6c-7.4-.3-14.9.1-22.3,1.4-46.5,7.8-71.2,41.8-76.2,77.9h1c10.5-13.8,28.7-25.3,52.9-25.3,38.8,0,66.1,28,66.1,70.8s-27.3,77.2-72.8,77.2-77.6-36.4-77.6-93.4c0-43.2,15.5-77.2,37.1-98.8,18.2-17.9,42.5-29,70.1-32.4,7.1-1.1,14.4-1.7,21.6-1.7v24.3ZM624.4,420.1c0-31.4-17.9-50.2-45.2-50.2s-34.4,11.1-42.5,27c-2.3,4-3.5,8.6-3.4,13.2.7,36.1,17.2,62.7,48.2,62.7,25.6,0,42.8-21.3,42.8-52.6Z"/>
</svg>