<?xml version="1.0" encoding="UTF-8"?>
<svg id="Calque_1" data-name="Calque 1" xmlns="http://www.w3.org/2000/svg" version="1.1" viewBox="0 0 620.8 402.6">
  <defs>
    <style>
      .cls-1 {
        fill: #fff;
        stroke: #aafbff;
        stroke-miterlimit: 10;
      }
    </style>
  </defs>
  <path class="cls-1" d="M234.6,50.4H85.8l-15,100.2c10.5-1.6,21.2-2.4,31.8-2.4,30,0,60,6.6,84,21,30.6,17.4,55.8,51,55.8,100.2,0,76.2-60.6,133.2-145.2,133.2S18.6,390.6,0,378.6l13.2-40.2c16.2,9.6,48,21.6,83.4,21.6s92.4-32.4,92.4-84.6c-.6-50.4-34.2-86.4-112.2-86.4s-39.6,2.4-54,4.2L48,6h186.6v44.4Z"/>
  <path class="cls-1" d="M261.8,364.8c0-22.2,15-37.8,36-37.8s35.4,15.6,35.4,37.8-13.8,37.8-36,37.8-35.4-16.2-35.4-37.8Z"/>
  <path class="cls-1" d="M582.4,43.2c-13.2-.6-26.5.2-39.6,2.4-82.8,13.8-126.6,74.4-135.6,138.6h1.8c18.6-24.6,51-45,94.2-45,69,0,117.6,49.8,117.6,126s-48.6,137.4-129.6,137.4-138-64.8-138-166.2,27.6-137.4,66-175.8c32.4-31.8,75.6-51.6,124.8-57.6,12.7-2,25.5-3,38.4-3v43.2ZM567.4,268.2c0-55.8-31.8-89.4-80.4-89.4s-61.2,19.8-75.6,48c-3.6,6-6,13.8-6,23.4,1.2,64.2,30.6,111.6,85.8,111.6s76.2-37.8,76.2-93.6Z"/>
</svg>