<?xml version="1.0" encoding="utf-8"?>
<!-- Generator: Adobe Illustrator 26.5.2, SVG Export Plug-In . SVG Version: 6.00 Build 0)  -->
<svg version="1.1" id="Calque_1" xmlns="http://www.w3.org/2000/svg" xmlns:xlink="http://www.w3.org/1999/xlink" x="0px" y="0px"
	 viewBox="0 0 755.8 612.6" style="enable-background:new 0 0 755.8 612.6;" xml:space="preserve">
<style type="text/css">
	.st0{fill:#FFFFFF;}
</style>
<path class="st0" d="M614.7,525.5c-5.9-0.6-12-0.6-17.8-1.9c-8.3-1.9-16.1-5.3-23.2-9.9C560.1,505,549.5,493,539,481
	c-6.5-7.4-13.5-14.5-22.4-19c-3.9-1.8-8.1-3.2-12.3-4.1c-3.5-1-7.1-1.5-10.8-1.6c-10,0.2-19.7,3.6-27.7,9.5
	c-7.7,5.6-13.8,12.9-20.2,19.8c-8.4,9.1-17.3,17.6-26.9,25.5c-6.6,5.3-14.6,8.6-23,11.2c-9.5,2.9-19,3.2-28.6,2.6s-18.4-3.6-27-7.8
	c-12.9-6.4-22.5-16.6-32.3-26.6c-5.9-6.1-11.4-12.5-17.3-18.6c-5.9-6.1-13.2-10.7-21.4-13.2c-6.4-2-13.1-3.4-20-2.2
	c-12.8,2.2-24.5,8.7-33.3,18.4c-9.4,10.1-18.8,20.1-28.5,29.8c-5.8,5.8-12.9,9.9-20.2,13.5c-12.5,6.2-25.9,7.8-39.5,6.8
	c-9.4-0.8-18.6-3.5-27-7.8c-12.9-6.4-22.6-16.6-32.3-26.7c-6.7-6.8-12.9-14.1-19.7-20.8c-5.2-5.1-11.6-8.9-18.6-10.9
	c-5-1.5-10.2-2.3-15.5-2.4c-7.7,0-12.2-5.2-13.8-10.7c-1.9-6.5,1.2-14.1,6.7-17.2c1.3-0.8,2.7-1.3,4.2-1.4c6.7,0.3,13.7,0,20.2,1.6
	c9.8,2.5,18.9,6.8,27.1,12.7c9.7,6.8,17.1,15.8,25.4,23.9c5.2,5.1,9.7,10.9,14.8,16c6.7,6.7,14.7,11.9,23.9,14
	c5.8,1.3,11.7,2.3,18,1c5.6-1.1,11-2.3,16.1-5c7.4-3.8,13.4-9.2,19.1-15.1c9.4-9.9,18.5-20.1,28.4-29.5c6-5.7,13.4-9.9,21.2-13.2
	c12.8-5.4,26.1-6.2,39.5-5c5.9,0.5,11.8,2.6,17.4,4.8c5.8,2.2,11.2,5.1,16.2,8.8c6.7,5.3,13,11.1,19,17.2c7.5,7.5,14.3,15.6,21.8,23
	c6.5,6.3,14.2,11.2,23.1,13.1c5.8,1.2,11.7,2.2,18,0.9c5.8-1.1,11.4-2.5,16.6-5.3c8.7-5,16.4-11.7,22.5-19.7
	c3.5-4.2,7.3-8.2,11.4-11.9c6.5-6.1,12.8-12.4,19.7-17.9c8-6.3,17.3-9.6,27.3-11.9c7.9-1.8,15.7-1.7,23.4-1.2
	c6.3,0.4,12.5,2.5,18.7,4.1c6.5,1.7,12.5,4.9,17.6,9.2c6.8,5.5,13.2,11.5,19.4,17.7s11.8,12.7,17.7,19c7.3,7.8,15.9,14.1,26.4,16.7
	c5.7,1.4,11.8,3,18,1.1c3.1-0.9,6.4-1.2,9.5-2c8.2-2.2,15-7,20.9-12.8c10.1-10,19.7-20.6,29.6-30.8c14.7-15.2,35.2-23.4,56.4-22.5
	c6.5,0.3,12.4,6.5,12.9,13c0.5,7.4-2.4,12.5-8.9,15.7c-1.2,0.6-2.4,0.9-3.7,0.9c-9.7-0.3-19.3,2.2-27.6,7.4
	c-7.6,4.6-13.9,10.9-19.7,17.6c-9.4,11-19.2,21.5-31.4,29.6c-6.8,4.5-14.3,7.8-22.2,9.9C628.6,524.3,621.7,525.3,614.7,525.5z"/>
<path class="st0" d="M621.7,612.6c-5.9-0.6-12-0.6-17.8-1.9c-8.3-1.9-16.1-5.3-23.2-9.9c-13.6-8.7-24.1-20.7-34.7-32.7
	c-6.5-7.4-13.5-14.5-22.4-19c-3.8-1.9-8.1-3-12.3-4.1c-3.5-1-7.1-1.5-10.8-1.6c-10,0.2-19.7,3.6-27.7,9.5
	c-7.7,5.6-13.8,12.9-20.2,19.8c-8.4,9.1-17.3,17.6-26.9,25.5c-6.6,5.3-14.6,8.6-23,11.2c-9.5,2.9-19,3.2-28.6,2.6s-18.4-3.6-27-7.8
	c-12.9-6.4-22.5-16.6-32.3-26.6c-5.9-6.1-11.4-12.5-17.3-18.6c-5.9-6.2-13.2-10.7-21.4-13.2c-6.4-2-13.1-3.4-20-2.2
	c-12.8,2.2-24.5,8.7-33.3,18.4c-9.4,10-18.8,20.1-28.5,29.8c-5.8,5.8-12.9,9.9-20.3,13.5c-12.5,6.2-25.8,7.8-39.5,6.8
	c-9.4-0.8-18.6-3.5-27-7.8C94.6,598,85,587.8,75.2,577.7c-6.7-6.8-12.9-14.1-19.7-20.8c-5.2-5.1-11.6-8.8-18.6-10.9
	c-5-1.5-10.2-2.3-15.5-2.4c-7.7,0-12.2-5.2-13.8-10.7c-1.9-6.5,1.2-14.1,6.7-17.2c1.3-0.8,2.7-1.3,4.2-1.3c6.7,0.3,13.7,0,20.2,1.5
	c9.7,2.5,18.9,6.8,27.1,12.7c9.6,6.8,17.1,15.8,25.4,24c5.2,5.1,9.7,10.9,14.8,16c6.7,6.7,14.7,12,23.9,14c5.8,1.3,11.7,2.3,18,1
	c5.6-1.2,11-2.3,16.1-5c7.4-3.8,13.4-9.2,19.1-15.1c9.4-9.9,18.5-20.1,28.4-29.5c6-5.8,13.4-9.9,21.2-13.2c12.8-5.3,26.1-6.2,39.5-5
	c5.9,0.5,11.8,2.6,17.4,4.8c5.8,2.2,11.2,5.1,16.2,8.8c6.7,5.3,13,11.1,19,17.2c7.5,7.5,14.3,15.6,21.8,23
	c6.5,6.3,14.2,11.2,23.1,13.1c5.8,1.2,11.7,2.2,18,0.9c5.8-1.2,11.4-2.5,16.6-5.3c8.8-5,16.4-11.7,22.5-19.7
	c3.5-4.2,7.3-8.2,11.4-11.9c6.4-6.1,12.8-12.3,19.7-17.8c8-6.3,17.3-9.6,27.3-11.9c7.9-1.8,15.7-1.7,23.4-1.2
	c6.3,0.4,12.5,2.5,18.7,4.1c6.5,1.7,12.5,4.8,17.7,9c6.8,5.5,13.2,11.5,19.4,17.7s11.8,12.7,17.7,19c7.3,7.8,15.9,14.1,26.4,16.7
	c5.7,1.4,11.8,3,18,1.2c3.1-0.9,6.4-1.2,9.5-2c8.2-2.2,15-7,20.9-12.8c10.1-10,19.7-20.6,29.6-30.8c14.7-15.2,35.2-23.4,56.3-22.5
	c6.5,0.3,12.4,6.5,12.9,13c0.5,7.4-2.4,12.5-8.9,15.7c-1.2,0.6-2.4,0.9-3.7,0.9c-9.7-0.3-19.3,2.2-27.6,7.4
	c-7.6,4.6-13.9,10.8-19.7,17.7c-9.4,11-19.2,21.5-31.4,29.6c-6.8,4.5-14.3,7.8-22.2,9.9C635.6,611.4,628.7,612.5,621.7,612.6z"/>
<path class="st0" d="M525.6,366.7c-5.7,0-11.2-2.2-15.3-6.2L402.4,252.6c-7.8-9-6.8-22.6,2.3-30.4c8.1-7,20.1-7,28.1,0L540.7,330
	c8.3,8.5,8.2,22.2-0.4,30.5C536.4,364.4,531.1,366.6,525.6,366.7z M547.2,258.9c-5.7,0-11.2-2.2-15.3-6.2l-86.3-86.3
	c-7.8-9-6.8-22.6,2.2-30.4c8.1-7,20.1-7,28.2,0l86.3,86.3c8.3,8.5,8.2,22.2-0.4,30.5C558,256.6,552.7,258.8,547.2,258.9L547.2,258.9
	z M547.2,129.4c-5.7,0-11.2-2.2-15.3-6.2l-86.3-86.3c-7.8-9-6.8-22.6,2.2-30.4c8.1-7,20.1-7,28.2,0l86.3,86.2
	c8.3,8.5,8.2,22.2-0.4,30.5C557.9,127.1,552.7,129.3,547.2,129.4L547.2,129.4z M417.7,388.3c-5.7,0-11.2-2.2-15.3-6.2l-86.3-86.3
	c-7.7-9.1-6.7-22.7,2.4-30.4c8.1-6.9,19.9-6.9,28,0l86.3,86.3c8.3,8.5,8.2,22.2-0.4,30.5C428.5,386,423.2,388.2,417.7,388.3
	L417.7,388.3z M288.3,388.3c-5.7,0-11.2-2.2-15.3-6.2l-86.3-86.3c-7.7-9.1-6.7-22.7,2.4-30.4c8.1-6.9,19.9-6.9,28,0l86.3,86.3
	c8.3,8.5,8.2,22.2-0.4,30.5C299.1,386,293.8,388.2,288.3,388.3L288.3,388.3z M288.3,43.1c35.7,0,64.7,29,64.7,64.7
	s-29,64.7-64.7,64.7s-64.7-29-64.7-64.7c0,0,0,0,0,0C223.6,72.1,252.6,43.1,288.3,43.1C288.3,43.1,288.3,43.1,288.3,43.1L288.3,43.1
	z M288.3,0c-59.6,0-107.9,48.3-107.9,107.9s48.3,107.9,107.9,107.9c59.6,0,107.9-48.3,107.9-107.9c0,0,0,0,0,0
	C396.2,48.3,347.9,0,288.3,0L288.3,0z"/>
</svg>
