<?xml version="1.0" encoding="utf-8"?>
<!-- Generator: Adobe Illustrator 26.5.2, SVG Export Plug-In . SVG Version: 6.00 Build 0)  -->
<svg version="1.1" id="Calque_1" xmlns="http://www.w3.org/2000/svg" xmlns:xlink="http://www.w3.org/1999/xlink" x="0px" y="0px"
	 viewBox="0 0 777 768" style="enable-background:new 0 0 777 768;" xml:space="preserve">
<style type="text/css">
	.st0{fill:#FFFFFF;}
	.st1{display:none;enable-background:new    ;}
	.st2{font-family:'Comfortaa-Bold';}
	.st3{font-size:400px;}
	.st4{letter-spacing:-20;}
	.st5{display:none;}
	.st6{font-size:300px;}
	.st7{letter-spacing:-21;}
	.st8{enable-background:new    ;}
	.st9{font-size:240px;}
	.st10{letter-spacing:-6;}
	.st11{font-size:180px;}
	.st12{letter-spacing:-1;}
</style>
<g>
	<path class="st0" d="M621.7,137.1c-5.9-0.6-12-0.6-17.8-1.9c-8.3-1.9-16.1-5.3-23.2-9.9c-13.6-8.7-24.1-20.7-34.6-32.7
		c-6.5-7.4-13.5-14.5-22.4-19c-3.8-1.9-8.1-3-12.3-4.1c-3.5-0.9-7.2-1.7-10.8-1.6c-10.1,0.3-19.5,3.5-27.7,9.5
		c-7.7,5.6-13.8,12.9-20.2,19.8c-8.4,9-17.3,17.7-26.9,25.5c-6.6,5.4-14.6,8.6-22.9,11.2c-9.5,2.9-19,3.3-28.6,2.6
		c-9.5-0.6-18.4-3.6-27-7.8c-12.9-6.4-22.6-16.6-32.3-26.6c-5.9-6.1-11.4-12.5-17.3-18.6c-6-6.2-13.2-10.7-21.4-13.2
		c-6.4-2-13.1-3.4-20-2.2c-13.2,2.3-24.2,8.6-33.3,18.4c-9.4,10.1-18.8,20.1-28.5,29.8c-5.8,5.8-12.9,9.9-20.3,13.5
		c-12.5,6.2-25.8,7.8-39.5,6.8c-9.5-0.7-18.4-3.6-27-7.8c-12.9-6.3-22.6-16.6-32.3-26.6c-6.8-6.9-13-14.2-19.8-20.9
		C50.4,76.2,44,72.5,37,70.4C32,68.9,26.6,68,21.5,68c-7.7,0-12.2-5.2-13.8-10.7c-1.9-6.5,1.2-14.1,6.7-17.2
		c1.3-0.7,2.8-1.4,4.2-1.4c6.7,0.3,13.7,0,20.2,1.6c9.7,2.4,18.8,6.9,27.1,12.7c9.6,6.8,17.1,15.8,25.4,24c5.2,5.1,9.7,10.9,14.8,16
		c6.7,6.7,14.7,11.9,23.9,14c5.8,1.3,11.7,2.3,18,1c5.6-1.2,11-2.3,16.1-5c7.4-3.8,13.4-9.2,19.1-15.1c9.4-9.9,18.5-20.1,28.4-29.5
		c6-5.7,13.3-9.9,21.2-13.2c12.8-5.3,26.1-6.2,39.5-5c5.9,0.5,11.8,2.6,17.4,4.8c5.7,2.3,11.3,5.1,16.2,8.8c6.8,5.2,13,11.2,19,17.2
		c7.5,7.5,14.3,15.6,21.8,23c6.5,6.3,14.2,11.2,23.1,13.1c5.8,1.2,11.7,2.2,18,0.9c5.8-1.2,11.4-2.5,16.6-5.3
		c8.9-5,16.2-11.7,22.5-19.7c3.4-4.3,7.4-8.1,11.4-11.9c6.4-6.1,12.8-12.4,19.7-17.8c8-6.3,17.3-9.6,27.3-11.9
		c7.9-1.8,15.7-1.7,23.4-1.2c6.3,0.4,12.5,2.5,18.7,4.1c6.6,1.7,12.5,5,17.6,9.2c6.8,5.5,13.2,11.5,19.4,17.7
		c6.1,6.1,11.8,12.7,17.7,19c7.4,7.8,15.9,14.1,26.4,16.7c5.7,1.4,11.8,3,18,1.1c3.1-0.9,6.4-1.2,9.6-2c8.2-2.2,15-7,20.9-12.8
		c10.1-10,19.7-20.6,29.6-30.8c7.7-7.9,16.7-13.9,27.2-17.8c9.5-3.5,19.1-5.1,29.2-4.6c6.5,0.3,12.4,6.5,12.9,13
		c0.5,7.4-2.4,12.5-8.9,15.7c-1.1,0.6-2.5,0.9-3.7,0.9c-9.9-0.3-19.2,2.3-27.6,7.4c-7.6,4.6-13.9,10.9-19.7,17.7
		c-9.4,11-19.2,21.5-31.4,29.6c-6.9,4.6-14.2,7.7-22.2,9.9C635.6,135.9,628.8,137,621.7,137.1z"/>
</g>
<text transform="matrix(1 0 0 1 159.9148 656.8847)" class="st1 st2 st3 st4">Cl</text>
<text transform="matrix(1 0 0 1 547.4779 416.7158)" class="st1 st2 st3">-</text>
<path class="st5" d="M94.8,216.7c0-16.1-13.1-29.4-29.4-29.4c-16.1,0-29.4,13.1-29.4,29.4l0,0c0,16.1,13.1,29.4,29.4,29.4
	C81.6,246.1,94.8,233.1,94.8,216.7L94.8,216.7z"/>
<path class="st5" d="M135,720.9c0-16.1-13.1-29.4-29.4-29.4c-16.1,0-29.4,13.1-29.4,29.4l0,0c0,16.1,13.1,29.4,29.4,29.4
	C121.7,750.3,135,737.3,135,720.9L135,720.9z"/>
<path class="st5" d="M719.7,556.6c0-16.1-13.1-29.4-29.4-29.4c-16.1,0-29.4,13.1-29.4,29.4l0,0c0,16.1,13.1,29.4,29.4,29.4
	C706.4,585.9,719.7,572.9,719.7,556.6L719.7,556.6z"/>
<g>
	<path class="st0" d="M628.7,224.2c-5.9-0.6-12-0.6-17.8-1.9c-8.3-1.9-16.1-5.3-23.2-9.9c-13.6-8.7-24.1-20.7-34.6-32.7
		c-6.5-7.4-13.5-14.5-22.4-19c-3.8-1.9-8.1-3-12.3-4.1c-3.5-0.9-7.2-1.7-10.8-1.6c-10.1,0.3-19.5,3.5-27.7,9.5
		c-7.7,5.6-13.8,12.9-20.2,19.8c-8.4,9-17.3,17.7-26.9,25.5c-6.6,5.4-14.6,8.6-22.9,11.2c-9.5,2.9-19,3.3-28.6,2.6
		c-9.5-0.6-18.4-3.6-27-7.8c-12.9-6.4-22.6-16.6-32.3-26.6c-5.9-6.1-11.4-12.5-17.3-18.6c-6-6.2-13.2-10.7-21.4-13.2
		c-6.4-2-13.1-3.4-20-2.2c-13.2,2.3-24.2,8.6-33.3,18.4c-9.4,10.1-18.8,20.1-28.5,29.8c-5.8,5.8-12.9,9.9-20.3,13.5
		c-12.5,6.2-25.8,7.8-39.5,6.8c-9.5-0.7-18.4-3.6-27-7.8c-12.9-6.3-22.6-16.6-32.3-26.6c-6.7-6.9-12.9-14.1-19.7-20.8
		c-5.2-5.1-11.6-8.8-18.6-10.9c-5-1.5-10.3-2.4-15.5-2.4c-7.7,0-12.2-5.2-13.8-10.7c-1.9-6.5,1.2-14.1,6.7-17.2
		c1.3-0.7,2.8-1.4,4.2-1.4c6.7,0.3,13.7,0,20.2,1.6c9.7,2.4,18.8,6.9,27.1,12.7c9.6,6.8,17.1,15.8,25.4,24c5.2,5.1,9.7,10.9,14.8,16
		c6.7,6.7,14.7,11.9,23.9,14c5.8,1.3,11.7,2.3,18,1c5.6-1.2,11-2.3,16.1-5c7.4-3.8,13.4-9.2,19.1-15.1c9.4-9.9,18.5-20.1,28.4-29.5
		c6-5.7,13.3-9.9,21.2-13.2c12.8-5.3,26.1-6.2,39.5-5c5.9,0.5,11.8,2.6,17.4,4.8c5.7,2.3,11.3,5.1,16.2,8.8c6.8,5.2,13,11.2,19,17.2
		c7.5,7.5,14.3,15.6,21.8,23c6.5,6.3,14.2,11.2,23.1,13.1c5.8,1.2,11.7,2.2,18,0.9c5.8-1.2,11.4-2.5,16.6-5.3
		c8.9-5,16.2-11.7,22.5-19.7c3.4-4.3,7.4-8.1,11.4-11.9c6.4-6.1,12.8-12.4,19.7-17.8c8-6.3,17.3-9.6,27.3-11.9
		c7.9-1.8,15.7-1.7,23.4-1.2c6.3,0.4,12.5,2.5,18.7,4.1c6.6,1.7,12.5,5,17.6,9.2c6.8,5.5,13.2,11.5,19.4,17.7
		c6.1,6.1,11.8,12.7,17.7,19c7.4,7.8,15.9,14.1,26.4,16.7c5.7,1.4,11.8,3,18,1.1c3.1-0.9,6.4-1.2,9.6-2c8.2-2.2,15-7,20.9-12.8
		c10.1-10,19.7-20.6,29.6-30.8c7.7-7.9,16.7-13.9,27.2-17.8c9.5-3.5,19.1-5.1,29.2-4.6c6.5,0.3,12.4,6.5,12.9,13
		c0.5,7.4-2.4,12.5-8.9,15.7c-1.1,0.6-2.5,0.9-3.7,0.9c-9.9-0.3-19.2,2.3-27.6,7.4c-7.6,4.6-13.9,10.9-19.7,17.7
		c-9.4,11-19.2,21.5-31.4,29.6c-6.9,4.6-14.2,7.7-22.2,9.9C642.6,223,635.8,224.1,628.7,224.2z"/>
</g>
<text transform="matrix(1 0 0 1 10.0775 571.5217)" class="st1 st2 st6 st7">Chl-a</text>
<text transform="matrix(1 0 0 1 14.0775 590.5041)" class="st1 st2 st6 st7">Chl-a</text>
<text transform="matrix(1 0 0 1 125.0232 646.8634)" class="st1 st2 st3 st4">PE</text>
<text transform="matrix(1 0 0 1 125.0232 646.8634)" class="st1 st2 st3 st4">PC</text>
<g class="st8">
	<path class="st0" d="M121.7,498.9c0,3-0.9,5.4-3,7.4c-2,2-4.6,3-8.1,3c-4.3,0-7.6-1.8-9.9-5.6l-38.1-61.2h-4H30.1v55.2
		c0,3.3-1.1,6-3.2,8.2s-5,3.4-8.3,3.4s-6-1.1-8.2-3.4c-2.2-2.2-3.3-5-3.3-8.2V347.8c0-3.4,1.1-6.1,3.3-8.3c2.2-2.1,5-3.2,8.2-3.2
		h39.9c11,0,20.7,2.3,29.3,6.9s15.4,11,20.1,19.3c4.7,8.2,7.2,17.7,7.2,28.4c0,10.4-2.6,19.8-8,28c-5.3,8.1-12.6,14.2-21.7,18.4
		l33.9,54.5C121,493.9,121.7,496.4,121.7,498.9z M58.5,421.4c10,0,18.4-2.8,24.8-8.5c6.5-5.7,9.7-13.1,9.7-22
		c0-9.7-3.3-17.7-9.7-23.9c-6.5-6.2-14.8-9.3-24.8-9.3H30.1v63.8h28.4V421.4z"/>
	<path class="st0" d="M144.9,506c-2.2-2.2-3.3-5-3.3-8.2v-150c0-3.4,1.1-6.1,3.3-8.3c2.2-2.1,5-3.2,8.2-3.2h100.1
		c3.4,0,6.1,0.9,8.2,3c2.1,2,3.1,4.6,3.1,7.9c0,3.1-1.1,5.6-3.1,7.5c-2.1,1.9-4.9,2.8-8.2,2.8h-88.6v53.8h63.6c3.3,0,5.9,0.9,8.1,3
		c2.1,2,3.2,4.5,3.2,7.6s-1.1,5.7-3.2,7.6c-2.1,2-4.9,3-8.1,3h-63.6v55.4h88.6c3.4,0,6.1,0.9,8.2,2.8s3.1,4.4,3.1,7.5
		c0,3.3-1.1,5.9-3.1,7.9c-2.1,2-4.9,3-8.2,3H153.1C149.9,509.3,147.1,508.2,144.9,506z"/>
	<path class="st0" d="M294.5,506c-2.2-2.2-3.3-5-3.3-8.2v-150c0-3.4,1.1-6.1,3.3-8.3c2.2-2.1,5-3.2,8.2-3.2h40.1
		c16.7,0,31.5,3.7,44.5,11.1s23.1,17.6,30.4,30.7s10.9,28,10.9,44.6s-3.6,31.6-10.9,44.7c-7.3,13.2-17.4,23.4-30.4,30.8
		s-27.8,11.1-44.5,11.1h-40.1C299.5,509.3,296.7,508.2,294.5,506z M342.7,488.9c12.2,0,23.2-2.8,32.9-8.4
		c9.7-5.6,17.2-13.5,22.6-23.6s8.1-21.5,8.1-34.2s-2.7-24.1-8.1-34.1s-13-17.8-22.6-23.5c-9.7-5.6-20.7-8.4-32.9-8.4h-28.6V489
		L342.7,488.9L342.7,488.9z"/>
	<path class="st0" d="M488.8,500.2c-13.4-7.5-23.7-18-31.1-31.5s-11.1-28.8-11.1-46c0-17.1,3.7-32.4,11.1-45.9
		c7.4-13.4,17.7-23.9,31.1-31.4s28.6-11.3,45.8-11.3c17,0,32.2,3.8,45.6,11.3c13.4,7.5,23.7,18,31.2,31.4s11.2,28.7,11.2,45.9
		c0,17.1-3.7,32.5-11.2,46s-17.8,24.1-31.1,31.5c-13.3,7.5-28.5,11.3-45.7,11.3C517.5,511.5,502.2,507.7,488.8,500.2z M568.5,481.7
		c10-6,17.8-14.1,23.5-24.5c5.6-10.3,8.4-21.8,8.4-34.6c0-12.7-2.8-24.3-8.4-34.6c-5.6-10.3-13.4-18.5-23.4-24.4s-21.3-8.9-34-8.9
		s-24.1,3-34,8.9c-10,5.9-17.7,14-23.4,24.4c-5.6,10.3-8.4,21.8-8.4,34.6c0,12.7,2.8,24.3,8.4,34.6c5.6,10.3,13.4,18.5,23.5,24.5
		c10,6,21.3,9,33.9,9C547.1,490.7,558.4,487.7,568.5,481.7z"/>
	<path class="st0" d="M767.6,490.7c1.6,2.3,2.4,4.9,2.4,7.5c0,3-0.9,5.6-2.8,7.7c-1.9,2.2-4.5,3.4-7.7,3.4c-3.7,0-6.6-1.4-8.9-4.2
		l-48.1-66.7l-51,67.5c-2.2,2.2-4.9,3.4-8,3.4c-3.3,0-5.8-1.1-7.6-3.1c-1.9-2.1-2.7-4.5-2.7-7.5s0.8-5.6,2.6-8l51.6-68.7l-48.7-67.5
		c-1.5-1.9-2.2-4.2-2.2-6.9c0-3.1,0.9-5.8,2.8-8c1.9-2.2,4.5-3.3,7.8-3.3c3.8,0,6.5,1.1,8.2,3.3l47.7,66l49.6-66
		c2.1-2.2,4.7-3.3,8.2-3.3c3.1,0,5.6,1.1,7.4,3.1c1.8,2.1,2.7,4.5,2.7,7.5c0,2.5-0.8,5.1-2.4,7.5L718,421.8L767.6,490.7z"/>
</g>
<text transform="matrix(1 0 0 1 195.0834 712.675)" class="st1 st2 st9 st10">OX</text>
<rect x="601.3" y="546" class="st0" width="152.1" height="198.9"/>
<text transform="matrix(1 0 0 1 601.3052 686.6101)" class="st1 st2 st11 st12">4</text>
<text transform="matrix(1 0 0 1 620.2278 399.709)" class="st1 st2 st11 st12">+</text>
</svg>
