<?xml version="1.0" encoding="utf-8"?>
<!-- Generator: Adobe Illustrator 26.5.2, SVG Export Plug-In . SVG Version: 6.00 Build 0)  -->
<svg version="1.1" id="a" xmlns="http://www.w3.org/2000/svg" xmlns:xlink="http://www.w3.org/1999/xlink" x="0px" y="0px"
	 viewBox="0 0 755.8 755.9" style="enable-background:new 0 0 755.8 755.9;" xml:space="preserve">
<style type="text/css">
	.st0{fill:#FFFFFF;}
</style>
<path class="st0" d="M614.7,98.3c-5.9-0.6-12-0.6-17.8-1.9c-8.2-1.9-16.1-5.3-23.2-9.8C560,77.9,549.5,65.9,539,53.9
	c-6.5-7.4-13.5-14.5-22.4-19c-3.8-1.9-8.1-3-12.4-4.1c-3.5-0.9-7.2-1.7-10.8-1.6c-10.1,0.3-19.5,3.5-27.7,9.5
	c-7.7,5.6-13.8,12.9-20.2,19.8c-8.4,9-17.3,17.7-26.9,25.5c-6.6,5.3-14.6,8.6-23,11.2c-9.5,2.9-19,3.2-28.6,2.6
	c-9.5-0.6-18.4-3.6-27-7.8c-12.9-6.4-22.5-16.6-32.3-26.6c-5.9-6.1-11.4-12.5-17.3-18.6c-6-6.2-13.2-10.7-21.4-13.2
	c-6.4-2-13.1-3.4-20-2.2c-13.2,2.4-24.2,8.6-33.3,18.4c-9.4,10-18.8,20.1-28.5,29.8c-5.8,5.8-12.9,9.9-20.3,13.5
	c-12.5,6.2-25.8,7.8-39.5,6.8c-9.5-0.7-18.4-3.6-27-7.8C87.6,83.6,78,73.4,68.2,63.3c-6.7-6.8-12.9-14.1-19.7-20.8
	c-5.2-5.1-11.6-8.8-18.6-10.9c-5-1.5-10.3-2.4-15.5-2.4C6.6,29.2,2.2,24,0.5,18.6C-1.4,12.1,1.8,4.4,7.2,1.4
	c1.3-0.7,2.8-1.4,4.2-1.4c6.7,0.3,13.7,0,20.2,1.6C41.4,4,50.4,8.4,58.7,14.3c9.6,6.8,17.1,15.8,25.4,24c5.2,5.1,9.7,10.8,14.8,16
	c6.7,6.7,14.7,11.9,23.9,14c5.8,1.3,11.7,2.3,18,1c5.6-1.2,11-2.3,16.1-5c7.4-3.8,13.4-9.2,19.1-15.1c9.4-9.9,18.5-20.1,28.4-29.5
	c6-5.7,13.4-9.9,21.2-13.2c12.8-5.3,26.1-6.2,39.5-5c5.9,0.5,11.8,2.6,17.4,4.8c5.7,2.3,11.4,5.1,16.2,8.8c6.8,5.2,13,11.2,19,17.2
	c7.5,7.5,14.3,15.6,21.8,23c6.5,6.3,14.2,11.2,23.1,13.1c5.8,1.2,11.7,2.2,18,0.9c5.8-1.2,11.4-2.4,16.6-5.3
	c8.9-5,16.2-11.7,22.5-19.7c3.4-4.3,7.4-8.1,11.4-11.9c6.4-6.1,12.8-12.4,19.7-17.8c8-6.3,17.3-9.6,27.3-11.9
	c7.9-1.8,15.7-1.7,23.4-1.2c6.3,0.4,12.5,2.5,18.7,4.1c6.6,1.7,12.5,5,17.6,9.2c6.8,5.5,13.2,11.5,19.4,17.7
	c6.1,6.1,11.8,12.7,17.7,19c7.4,7.8,15.9,14.1,26.4,16.7c5.7,1.4,11.8,3,18,1.2c3.1-0.9,6.4-1.2,9.5-2c8.2-2.2,15-7,20.9-12.8
	c10.1-10,19.7-20.6,29.6-30.8c7.7-7.9,16.7-13.9,27.2-17.8c9.5-3.5,19.1-5.1,29.2-4.6c6.5,0.3,12.4,6.5,12.9,13
	c0.5,7.4-2.4,12.5-8.9,15.7c-1.1,0.5-2.5,0.9-3.7,0.9c-10-0.3-19.2,2.2-27.6,7.4c-7.6,4.6-13.9,10.9-19.7,17.6
	c-9.4,11-19.2,21.5-31.4,29.6c-6.9,4.6-14.2,7.7-22.2,9.9C628.5,97.1,621.7,98.2,614.7,98.3L614.7,98.3z"/>
<path class="st0" d="M621.7,185.4c-5.9-0.6-12-0.6-17.8-1.9c-8.2-1.9-16.1-5.3-23.2-9.9C567,165,556.5,153,546,141
	c-6.5-7.4-13.5-14.5-22.4-19c-3.8-1.9-8.2-3-12.4-4.1c-3.5-0.9-7.2-1.7-10.8-1.6c-10.1,0.3-19.5,3.5-27.7,9.5
	c-7.7,5.6-13.8,12.9-20.2,19.8c-8.4,9-17.3,17.7-26.9,25.4c-6.6,5.4-14.6,8.6-23,11.2c-9.5,2.9-19,3.2-28.6,2.6
	c-9.5-0.6-18.4-3.6-27-7.8c-12.9-6.4-22.5-16.6-32.3-26.6c-5.9-6.1-11.4-12.5-17.3-18.6c-6-6.2-13.2-10.7-21.4-13.2
	c-6.4-2-13.1-3.4-20-2.2c-13.2,2.3-24.2,8.6-33.3,18.4c-9.4,10.1-18.8,20.1-28.5,29.8c-5.8,5.8-12.9,9.9-20.3,13.5
	c-12.5,6.2-25.8,7.8-39.5,6.8c-9.5-0.7-18.4-3.6-27-7.8c-12.9-6.3-22.5-16.6-32.3-26.6c-6.7-6.9-12.9-14.1-19.7-20.8
	c-5.2-5.1-11.6-8.8-18.6-10.9c-5-1.5-10.3-2.4-15.5-2.4c-7.7,0-12.2-5.2-13.8-10.7c-1.9-6.5,1.2-14.1,6.7-17.2
	c1.3-0.7,2.8-1.4,4.2-1.3c6.7,0.3,13.7,0,20.2,1.6c9.8,2.4,18.8,6.8,27.1,12.7c9.6,6.8,17.1,15.8,25.4,24c5.2,5.1,9.7,10.9,14.8,16
	c6.7,6.7,14.7,11.9,23.9,14c5.8,1.3,11.7,2.3,18,1c5.6-1.1,11-2.3,16.1-5c7.4-3.8,13.4-9.2,19.1-15.1c9.4-9.9,18.5-20.1,28.4-29.5
	c6-5.7,13.4-9.9,21.2-13.2c12.8-5.3,26.1-6.2,39.5-5c5.9,0.5,11.8,2.6,17.4,4.8c5.7,2.3,11.4,5.1,16.2,8.8c6.8,5.2,13,11.2,19,17.2
	c7.5,7.5,14.3,15.6,21.8,23c6.5,6.3,14.2,11.2,23.1,13.1c5.8,1.2,11.7,2.2,18,0.9c5.8-1.1,11.4-2.4,16.6-5.3
	c8.9-5,16.2-11.7,22.5-19.7c3.4-4.3,7.4-8.1,11.4-11.9c6.4-6.1,12.8-12.4,19.7-17.8c8-6.3,17.3-9.6,27.3-11.9
	c7.9-1.8,15.7-1.7,23.4-1.2c6.3,0.4,12.5,2.5,18.7,4.1c6.6,1.7,12.5,5,17.6,9.2c6.8,5.5,13.2,11.5,19.4,17.7
	c6.1,6.1,11.8,12.7,17.7,19c7.4,7.8,15.9,14.1,26.4,16.7c5.7,1.4,11.8,3,18,1.1c3.1-0.9,6.4-1.2,9.5-2c8.2-2.2,15-7,20.9-12.8
	c10.1-10,19.7-20.6,29.6-30.8c7.7-7.9,16.7-13.9,27.2-17.8c9.5-3.6,19.1-5.1,29.2-4.6c6.5,0.3,12.4,6.5,12.9,13
	c0.5,7.4-2.4,12.5-8.9,15.7c-1.1,0.6-2.5,0.9-3.7,0.9c-10-0.3-19.2,2.2-27.6,7.4c-7.6,4.6-13.9,10.9-19.7,17.6
	c-9.4,11-19.2,21.5-31.4,29.6c-6.9,4.6-14.2,7.7-22.2,9.9C635.5,184.2,628.7,185.3,621.7,185.4L621.7,185.4z"/>
<g>
	<path class="st0" d="M145.6,437.9c0,2.7-0.9,4.9-2.7,6.7c-1.8,1.8-4.2,2.7-7.3,2.7c-3.9,0-6.9-1.7-9-5l-34.4-55.2H63v49.8
		c0,2.9-1,5.4-2.9,7.4s-4.4,3-7.5,3s-5.4-1-7.4-3s-3-4.5-3-7.4V301.5c0-3.1,1-5.6,3-7.5s4.5-2.9,7.4-2.9h36c9.9,0,18.7,2.1,26.5,6.2
		s13.9,9.9,18.2,17.4s6.5,16,6.5,25.6s-2.4,17.9-7.2,25.2c-4.8,7.3-11.3,12.9-19.6,16.6l30.6,49.2
		C144.9,433.5,145.6,435.7,145.6,437.9L145.6,437.9z M88.6,367.9c9.1,0,16.5-2.6,22.4-7.7s8.8-11.8,8.8-19.9c0-8.8-2.9-16-8.8-21.6
		s-13.3-8.4-22.4-8.4H63v57.6H88.6z"/>
	<path class="st0" d="M166.6,444.3c-2-2-3-4.5-3-7.4V301.5c0-3.1,1-5.6,3-7.5s4.5-2.9,7.4-2.9h90.4c3.1,0,5.5,0.9,7.4,2.7
		c1.9,1.8,2.8,4.2,2.8,7.1s-0.9,5.1-2.8,6.8c-1.9,1.7-4.3,2.6-7.4,2.6h-80v48.6h57.4c2.9,0,5.4,0.9,7.3,2.7c1.9,1.8,2.9,4.1,2.9,6.9
		s-1,5.1-2.9,6.9s-4.4,2.7-7.3,2.7h-57.4v50h80c3.1,0,5.5,0.9,7.4,2.6s2.8,4,2.8,6.8s-0.9,5.3-2.8,7.1c-1.9,1.8-4.3,2.7-7.4,2.7H174
		C171.1,447.3,168.6,446.3,166.6,444.3L166.6,444.3z"/>
	<path class="st0" d="M301.6,444.3c-2-2-3-4.5-3-7.4V301.5c0-3.1,1-5.6,3-7.5s4.5-2.9,7.4-2.9h36.2c15.1,0,28.5,3.3,40.2,10
		s20.9,15.9,27.4,27.7c6.5,11.8,9.8,25.2,9.8,40.3s-3.3,28.5-9.8,40.4c-6.5,11.9-15.7,21.1-27.4,27.8c-11.7,6.7-25.1,10-40.2,10H309
		C306.1,447.3,303.6,446.3,301.6,444.3z M345.2,428.9c11.1,0,21-2.5,29.7-7.6s15.5-12.2,20.4-21.3c4.9-9.1,7.3-19.4,7.3-30.9
		s-2.4-21.7-7.3-30.8c-4.9-9.1-11.7-16.1-20.4-21.2c-8.7-5.1-18.6-7.6-29.7-7.6h-25.8v119.4H345.2z"/>
	<path class="st0" d="M477.1,439.1c-12.1-6.8-21.4-16.3-28.1-28.5s-10-26-10-41.5s3.3-29.3,10-41.4s16-21.6,28.1-28.4
		s25.8-10.2,41.3-10.2s29,3.4,41.1,10.2c12.1,6.8,21.5,16.3,28.2,28.4c6.7,12.1,10.1,25.9,10.1,41.4s-3.4,29.3-10.1,41.5
		s-16.1,21.7-28.1,28.5s-25.7,10.2-41.2,10.2S489.2,445.9,477.1,439.1L477.1,439.1z M549,422.4c9.1-5.4,16.1-12.8,21.2-22.1
		c5.1-9.3,7.6-19.7,7.6-31.2s-2.5-21.9-7.6-31.2c-5.1-9.3-12.1-16.7-21.1-22s-19.2-8-30.7-8s-21.7,2.7-30.7,8s-16,12.7-21.1,22
		s-7.6,19.7-7.6,31.2s2.5,21.9,7.6,31.2c5.1,9.3,12.1,16.7,21.2,22.1s19.3,8.1,30.6,8.1S539.9,427.8,549,422.4z"/>
	<path class="st0" d="M728.8,430.5c1.5,2.1,2.2,4.4,2.2,6.8c0,2.7-0.9,5-2.6,7s-4.1,3-7,3c-3.3,0-6-1.3-8-3.8L670,383.3l-46,61
		c-2,2-4.4,3-7.2,3s-5.2-0.9-6.9-2.8c-1.7-1.9-2.5-4.1-2.5-6.8s0.8-5.1,2.4-7.2l46.6-62l-44-61c-1.3-1.7-2-3.8-2-6.2
		c0-2.8,0.9-5.2,2.6-7.2s4.1-3,7-3c3.5,0,5.9,1,7.4,3l43,59.6l44.8-59.6c1.9-2,4.3-3,7.4-3c2.8,0,5,0.9,6.7,2.8s2.5,4.1,2.5,6.8
		c0,2.3-0.7,4.5-2.2,6.8L684,368.3L728.8,430.5L728.8,430.5z"/>
</g>
</svg>
