<?xml version="1.0" encoding="utf-8"?>
<!-- Generator: Adobe Illustrator 26.5.2, SVG Export Plug-In . SVG Version: 6.00 Build 0)  -->
<svg version="1.1" id="a" xmlns="http://www.w3.org/2000/svg" xmlns:xlink="http://www.w3.org/1999/xlink" x="0px" y="0px"
	 viewBox="0 0 755.8 663.2" style="enable-background:new 0 0 755.8 663.2;" xml:space="preserve">
<style type="text/css">
	.st0{fill:#FFFFFF;}
</style>
<path class="st0" d="M614.7,98.3c-5.9-0.6-12-0.6-17.8-1.9c-8.2-1.9-16.1-5.3-23.2-9.8c-13.6-8.7-24.1-20.7-34.7-32.7
	c-6.5-7.4-13.5-14.5-22.4-19c-3.8-1.9-8.2-3-12.4-4.1c-3.5-0.9-7.2-1.7-10.8-1.6c-10.1,0.3-19.5,3.5-27.7,9.5
	c-7.7,5.6-13.8,12.9-20.2,19.8c-8.4,9-17.3,17.7-26.9,25.5c-6.6,5.3-14.6,8.6-23,11.2c-9.5,2.9-19,3.2-28.6,2.6
	c-9.5-0.6-18.4-3.6-27-7.8c-12.9-6.4-22.5-16.6-32.3-26.6c-5.9-6.1-11.4-12.5-17.3-18.6c-6-6.2-13.2-10.7-21.4-13.2
	c-6.4-2-13.1-3.4-20-2.2c-13.2,2.4-24.2,8.6-33.3,18.4c-9.4,10-18.8,20.1-28.5,29.8c-5.8,5.8-12.9,9.9-20.3,13.5
	c-12.5,6.2-25.8,7.8-39.5,6.8c-9.5-0.7-18.4-3.6-27-7.8C87.6,83.6,78,73.4,68.2,63.3c-6.7-6.8-12.9-14.1-19.7-20.8
	c-5.2-5.1-11.6-8.8-18.6-10.9c-5-1.5-10.3-2.4-15.5-2.4C6.7,29.2,2.2,24,0.6,18.6C-1.4,12.1,1.8,4.4,7.2,1.4
	c1.3-0.7,2.8-1.4,4.2-1.4c6.7,0.3,13.7,0,20.2,1.6C41.4,4,50.4,8.4,58.7,14.3c9.6,6.8,17.1,15.8,25.4,24c5.2,5.1,9.7,10.8,14.8,16
	c6.7,6.7,14.7,11.9,23.9,14c5.8,1.3,11.7,2.3,18,1c5.6-1.2,11-2.3,16.1-5c7.4-3.8,13.4-9.2,19.1-15.1c9.4-9.9,18.5-20.1,28.4-29.5
	c6-5.7,13.4-9.9,21.2-13.2c12.8-5.3,26.1-6.2,39.5-5c5.9,0.5,11.8,2.6,17.4,4.8c5.7,2.3,11.4,5.1,16.2,8.8c6.8,5.2,13,11.2,19,17.2
	c7.5,7.5,14.3,15.6,21.8,23c6.5,6.3,14.2,11.2,23.1,13.1c5.8,1.2,11.7,2.2,18,0.9c5.8-1.2,11.4-2.4,16.6-5.3
	c8.9-5,16.2-11.7,22.5-19.7c3.4-4.3,7.4-8.1,11.4-11.9c6.4-6.1,12.8-12.4,19.7-17.8c8-6.3,17.3-9.6,27.3-11.9
	c7.9-1.8,15.7-1.7,23.4-1.2c6.3,0.4,12.5,2.5,18.7,4.1c6.6,1.7,12.5,5,17.6,9.2c6.8,5.5,13.2,11.5,19.4,17.7
	c6.1,6.1,11.8,12.7,17.7,19c7.4,7.8,15.9,14.1,26.4,16.7c5.7,1.4,11.8,3,18,1.2c3.1-0.9,6.4-1.2,9.5-2c8.2-2.2,15-7,20.9-12.8
	c10.1-10,19.7-20.6,29.6-30.8c7.7-7.9,16.7-13.9,27.2-17.8c9.5-3.5,19.1-5.1,29.2-4.6c6.5,0.3,12.4,6.5,12.9,13
	c0.5,7.4-2.4,12.5-8.9,15.7c-1.1,0.5-2.5,0.9-3.7,0.9c-10-0.3-19.2,2.2-27.6,7.4c-7.6,4.6-13.9,10.9-19.7,17.6
	c-9.4,11-19.2,21.5-31.4,29.6c-6.9,4.6-14.2,7.7-22.2,9.9C628.5,97.1,621.7,98.2,614.7,98.3L614.7,98.3z"/>
<path class="st0" d="M621.7,185.4c-5.9-0.6-12-0.6-17.8-1.9c-8.2-1.9-16.1-5.3-23.2-9.9C567.1,165,556.6,153,546,141
	c-6.5-7.4-13.5-14.5-22.4-19c-3.8-1.9-8.2-3-12.4-4.1c-3.5-0.9-7.2-1.7-10.8-1.6c-10.2,0.3-19.5,3.5-27.7,9.5
	c-7.7,5.6-13.8,12.9-20.2,19.8c-8.4,9-17.3,17.7-26.9,25.4c-6.6,5.4-14.6,8.6-23,11.2c-9.5,2.9-19,3.2-28.6,2.6
	c-9.5-0.6-18.4-3.6-27-7.8c-12.9-6.4-22.5-16.6-32.3-26.6c-5.9-6.1-11.4-12.5-17.3-18.6c-6-6.2-13.2-10.7-21.4-13.2
	c-6.4-2-13.1-3.4-20-2.2c-13.2,2.3-24.2,8.6-33.3,18.4c-9.4,10.1-18.8,20.1-28.5,29.8c-5.8,5.8-12.9,9.9-20.3,13.5
	c-12.5,6.2-25.8,7.8-39.5,6.8c-9.5-0.7-18.4-3.6-27-7.8c-12.9-6.3-22.6-16.6-32.3-26.6c-6.7-6.9-12.9-14.1-19.7-20.8
	c-5.2-5.1-11.6-8.8-18.6-10.9c-5-1.5-10.3-2.4-15.5-2.4c-7.7,0-12.2-5.2-13.8-10.7c-1.9-6.5,1.2-14.1,6.7-17.2
	c1.3-0.7,2.8-1.4,4.2-1.3c6.7,0.3,13.7,0,20.2,1.6c9.8,2.4,18.8,6.8,27.1,12.7c9.6,6.8,17.1,15.8,25.4,24c5.2,5.1,9.7,10.9,14.8,16
	c6.7,6.7,14.7,11.9,23.9,14c5.8,1.3,11.7,2.3,18,1c5.6-1.1,11-2.3,16.1-5c7.4-3.8,13.4-9.2,19.1-15.1c9.4-9.9,18.5-20.1,28.4-29.5
	c6-5.7,13.4-9.9,21.2-13.2c12.8-5.3,26.1-6.2,39.5-5c5.9,0.5,11.8,2.6,17.4,4.8c5.7,2.3,11.4,5.1,16.2,8.8c6.8,5.2,13,11.2,19,17.2
	c7.5,7.5,14.3,15.6,21.8,23c6.5,6.3,14.2,11.2,23.1,13.1c5.8,1.2,11.7,2.2,18,0.9c5.8-1.1,11.4-2.4,16.6-5.3
	c8.9-5,16.2-11.7,22.5-19.7c3.4-4.3,7.4-8.1,11.4-11.9c6.4-6.1,12.8-12.4,19.7-17.8c8-6.3,17.3-9.6,27.3-11.9
	c7.9-1.8,15.7-1.7,23.4-1.2c6.3,0.4,12.5,2.5,18.7,4.1c6.6,1.7,12.5,5,17.6,9.2c6.8,5.5,13.2,11.5,19.4,17.7
	c6.1,6.1,11.8,12.7,17.7,19c7.4,7.8,15.9,14.1,26.4,16.7c5.7,1.4,11.8,3,18,1.1c3.1-0.9,6.4-1.2,9.5-2c8.2-2.2,15-7,20.9-12.8
	c10.1-10,19.7-20.6,29.6-30.8c7.7-7.9,16.7-13.9,27.2-17.8c9.5-3.6,19.1-5.1,29.2-4.6c6.5,0.3,12.4,6.5,12.9,13
	c0.5,7.4-2.4,12.5-8.9,15.7c-1.1,0.6-2.5,0.9-3.7,0.9c-10-0.3-19.2,2.2-27.6,7.4c-7.6,4.6-13.9,10.9-19.7,17.6
	c-9.4,11-19.2,21.5-31.4,29.6c-6.9,4.6-14.2,7.7-22.2,9.9C635.5,184.2,628.7,185.3,621.7,185.4L621.7,185.4z"/>
<g>
	<path class="st0" d="M135.8,535.4c-2.9-2.9-4.4-6.7-4.4-11.2V321.1c0-4.6,1.4-8.4,4.4-11.2c2.9-2.9,6.6-4.4,10.9-4.4
		c2.2,0,4.4,0.5,6.6,1.6c2.2,1.1,4,2.5,5.4,4l130.8,174V321c0-4.6,1.5-8.4,4.5-11.2s6.7-4.4,11.1-4.4s8,1.5,11,4.4
		c2.9,2.9,4.4,6.6,4.4,11.2v203.1c0,4.6-1.5,8.3-4.4,11.2s-6.5,4.3-11,4.3c-2.2,0-4.5-0.5-6.8-1.3c-2.3-0.9-4-2.2-5.2-4l-130.8-174
		v163.8c0,4.4-1.4,8.1-4.4,11.1c-2.9,3-6.6,4.5-11.2,4.5S138.7,538.3,135.8,535.4z"/>
	<path class="st0" d="M419.3,527.5c-18.1-10.2-32.1-24.5-42.1-42.8s-15-39-15-62.2s5-43.9,15-62.1s24-32.4,42.1-42.6
		s38.8-15.3,62-15.3s43.6,5.1,61.7,15.3c18.1,10.2,32.2,24.4,42.3,42.6s15.2,38.9,15.2,62.1s-5,44-15.2,62.2
		C575.1,503,561,517.2,543,527.5s-38.6,15.3-61.8,15.3S437.4,537.7,419.3,527.5z M527.1,502.4c13.6-8.1,24.2-19.1,31.8-33.1
		s11.4-29.6,11.4-46.8s-3.8-32.8-11.4-46.8c-7.6-14-18.2-25-31.7-33s-28.9-12-46.1-12s-32.5,4-46,12s-24,19-31.6,33
		s-11.4,29.6-11.4,46.8s3.8,32.8,11.4,46.8s18.2,25,31.8,33.1c13.6,8.1,28.9,12.2,45.9,12.2S513.5,510.5,527.1,502.4L527.1,502.4z"
		/>
</g>
<path class="st0" d="M626.5,642.2c-7-3.8-12.5-8.9-16.5-15.5c-4-6.5-5.9-13.9-5.9-22c0-2.6,0.8-4.9,2.3-6.7s3.5-2.7,5.9-2.7
	s4.4,0.9,5.9,2.7s2.3,4,2.3,6.7c0,4.9,1.3,9.5,3.8,13.6s6,7.4,10.3,9.9s9.2,3.7,14.5,3.7c8,0,14.5-2.2,19.3-6.7s7.2-10.6,7.2-18.4
	c0-4.9-1.1-9.5-3.2-13.6s-5.1-7.4-8.9-9.7c-3.8-2.3-8-3.5-12.5-3.5c-2.6,0-4.8-0.9-6.6-2.7s-2.6-4-2.6-6.7s0.9-4.8,2.6-6.6
	s3.9-2.6,6.6-2.6c3.4,0,6.6-0.9,9.8-2.6s5.8-4.1,7.7-7.1s3-6.3,3-9.9c0-5.3-1.9-9.7-5.8-13.3c-3.8-3.6-8.8-5.4-14.8-5.4
	c-4.6,0-8.7,0.9-12.5,2.7s-6.8,4.2-9,7.2s-3.3,6.4-3.3,10.1c0,2.8-0.8,5.1-2.3,6.9s-3.5,2.8-5.9,2.8s-4.4-0.9-5.9-2.6
	s-2.3-3.9-2.3-6.6c0-6.8,1.8-13,5.4-18.6c3.6-5.6,8.5-10,14.8-13.1s13.2-4.8,20.9-4.8c7,0,13.3,1.5,19.1,4.6s10.3,7.2,13.6,12.5
	c3.3,5.3,5,11.2,5,17.6s-2,12.1-6.1,16.8s-9.2,8.5-15.3,11.2c9.1,3.1,15.9,7.9,20.3,14.3s6.7,14,6.7,22.8c0,7.7-2,14.6-5.9,20.9
	s-9.3,11.1-15.9,14.7s-13.9,5.3-21.7,5.3C641.5,647.8,633.6,645.9,626.5,642.2L626.5,642.2z"/>
<path class="st0" d="M622.3,300.3c-1.7-1.7-2.6-3.8-2.6-6.5s0.9-4.8,2.6-6.6c1.7-1.7,3.9-2.6,6.6-2.6H669c2.6,0,4.8,0.9,6.5,2.6
	s2.5,3.9,2.5,6.6s-0.8,4.8-2.5,6.5c-1.7,1.7-3.8,2.5-6.5,2.5h-40.1C626.2,302.8,624,301.9,622.3,300.3z"/>
</svg>
