<?xml version="1.0" encoding="utf-8"?>
<!-- Generator: Adobe Illustrator 26.5.2, SVG Export Plug-In . SVG Version: 6.00 Build 0)  -->
<svg version="1.1" id="Calque_1" xmlns="http://www.w3.org/2000/svg" xmlns:xlink="http://www.w3.org/1999/xlink" x="0px" y="0px"
	 viewBox="0 0 390 315" style="enable-background:new 0 0 390 315;" xml:space="preserve">
<style type="text/css">
	.st0{display:none;fill:#FFFFFF;}
	.st1{fill:#FFFFFF;}
</style>
<path class="st0" d="M-54,409V-91h500v500H-54z M250,158.5L250,158.5c0,47.2,0,94.3,0,141.5c-0.1,1.7-0.1,3.3,0.2,5
	c0.7,3.4,2.8,5.3,6.4,5c3.2-0.2,5.3-1.9,5.5-5.3c0.1-1.8,0.2-3.7,0.2-5.5c0-94,0-188-0.1-282c0-7.1-1.9-10.1-6.1-9.9s-6,3.2-6,10.2
	v141H250z M238.2,158.5c0-33.5,0-66.9,0-100.4c0-5.7-2.1-8.3-6.3-8.2c-4,0.1-6,2.6-6,8.1c0,67.3,0,134.5,0,201.8
	c0,5.3,2.2,8,6.1,8.1s6.1-2.7,6.3-7.9c0-1.3,0-2.7,0-4L238.2,158.5z M286.7,159.1V72.6c0.1-1.5,0-3-0.1-4.5
	c-0.4-3.8-2.3-6.3-6.4-6.2c-3.9,0-5.5,2.6-5.9,6.1c-0.2,2.2-0.1,4.3-0.1,6.5c0,53.3,0,106.6,0,159.9c0,5.2,0.1,10.3,0.3,15.5
	c0.1,3.5,2.3,5.7,5.6,5.8c3.6,0.1,5.9-2.1,6.4-5.7c0.1-1.5,0.2-3,0.1-4.5L286.7,159.1z M93.1,158.5V78.1c0.1-1.5,0-3-0.1-4.5
	c-0.4-3.4-2.4-5.4-5.9-5.5s-5.7,1.7-6.2,5.2c-0.2,1.5-0.3,3-0.2,4.5c0,54.1,0,108.2,0,162.3c0,1.5-0.4,3.4,0.3,4.4
	c1.6,2,3.7,4.9,5.7,5s4.5-2.6,6.1-4.6c0.8-1,0.3-3.2,0.3-4.9C93.1,212.7,93.1,185.6,93.1,158.5z M201.8,158.9c0,19.6,0,39.3,0,58.9
	c0,4.3,1.3,7.2,6,7.5c3.9,0.2,6.2-2.4,6.2-7.3c0.1-39.6,0-79.2-0.1-118.8c0-2.1-0.9-4.1-2.4-5.6c-1.4-1.1-4.7-1.7-5.8-0.8
	c-1.9,1.5-3.7,4.4-3.7,6.7C201.7,119.3,201.8,139.1,201.8,158.9L201.8,158.9z M56.6,158.5L56.6,158.5c0,18,0,36,0,54
	c0,3.8,1.5,6.6,5.7,6.8c4.4,0.2,6.2-2.6,6.6-6.6c0.1-1,0.1-2,0.1-3c0-34,0-68,0-102c0-2,0.2-4.5-0.8-5.8c-1.5-1.8-4.2-3.7-6.2-3.6
	c-1.7,0.1-3.7,2.8-4.8,4.7c-0.8,1.3-0.3,3.2-0.3,4.9C56.6,124.8,56.6,141.7,56.6,158.5z M310.9,159v-16c0-10,0-20,0-30
	c0-5.8-2.5-9.1-6.4-8.9s-6.1,3.2-6.2,9.2c0,0.7,0,1.3,0,2c0,29.3,0,58.7,0,88c0,1.7-0.5,3.8,0.4,4.9c1.5,2,3.8,4.8,5.8,4.8
	s4.4-2.6,6.1-4.5c0.8-0.9,0.4-2.9,0.4-4.4C311,189,311,174,310.9,159z M117.1,158.5L117.1,158.5c0-15.8-0.1-31.6,0-47.4
	c0-4-1.7-6.4-5.7-6.8c-3.7-0.4-6.4,2.3-6.4,6.6c-0.1,32-0.1,64-0.1,95.9c0,3.4,1.6,5.8,5,6.4c4.3,0.8,7.1-1.9,7.1-7.2
	C117.1,190.1,117.1,174.3,117.1,158.5z M359.2,158.7c0-11.5,0-23,0-34.5c0-5.2-2.3-8.1-6.1-8s-6.1,2.9-6.1,8.1c0,23,0,45.9,0,68.9
	c0,5.5,2,7.9,6.1,7.9s6.1-2.5,6.1-7.9C359.2,181.7,359.2,170.2,359.2,158.7L359.2,158.7z M177.4,158.5c0,9.6-0.1,19.3,0,28.9
	c0,5.1,2.5,7.9,6.5,7.6c4.8-0.3,5.9-3.6,5.9-7.7c0-19,0.1-37.9,0-56.9c0-5.2-2.2-8.1-6-8.2c-4-0.1-6.4,2.8-6.4,8.3
	C177.3,139.9,177.4,149.2,177.4,158.5z M44.5,159L44.5,159c0.1-7.7,0-15.3,0.1-23c0-4.3-1.6-7.2-6-7.7c-3.6-0.4-6.3,2.8-6.4,7.4
	c-0.1,15.3-0.1,30.7,0,46c0,4.9,2.4,7.5,6.3,7.4c4.9-0.2,6-3.5,6-7.5C44.5,174,44.5,166.5,44.5,159z M129.1,159c0,7.5,0,15,0,22.5
	c0,5,2.1,7.5,6,7.6s6.2-2.5,6.3-7.3c0.1-15.3,0.1-30.7,0-46c0-4.8-2.5-7.7-6.2-7.4c-4.6,0.3-6,3.5-6,7.6
	C129.2,143.7,129.1,151.3,129.1,159z M334.9,158.5L334.9,158.5c0-5.7-0.1-11.3,0-17c0-4.2-1.9-7-6-7.1s-6.3,2.6-6.3,6.8
	c0,11.6,0,23.3,0,34.9c0,4,1.8,6.9,6.2,6.8s6-3.1,6-7C335,170.1,334.9,164.3,334.9,158.5z M165.8,159.3h-0.1c0-4.2,0.2-8.4-0.1-12.5
	c-0.3-3.7-2.2-6.3-6.4-6.1s-5.8,3-5.9,6.7c-0.2,7.7-0.2,15.3-0.1,23c0.1,3.8,2,6.5,6,6.6c4.3,0.1,6.3-2.6,6.5-6.6
	C165.9,166.6,165.8,162.9,165.8,159.3z M371,158.4c0,4,0,8,0,11.9s2,6.4,5.9,6.6s6.3-2.2,6.4-6c0.2-8.1,0.2-16.3,0-24.4
	c-0.1-4-2.7-6.1-6.6-5.9c-3.6,0.2-5.6,2.6-5.8,6.3S371,154.5,371,158.4z M8,158.6c0,3.8-0.1,7.6,0,11.4c0.1,4,1.8,6.8,6.2,6.9
	c4,0,6.2-2.5,6.3-6.3c0.2-8,0.1-15.9-0.1-23.9c-0.1-3.9-2.3-6.2-6.3-6.1s-5.9,2.6-6,6.5S8,154.8,8,158.6z"/>
<path class="st1" d="M250,158.5v-141c0-7,1.8-10,6.1-10.2c4.3-0.2,6.1,2.9,6.1,9.9c0,94,0,188,0.1,282c0,1.8,0,3.7-0.2,5.5
	c-0.3,3.4-2.3,5.1-5.5,5.3c-3.6,0.3-5.7-1.6-6.4-5c-0.2-1.7-0.3-3.3-0.2-5C250,252.8,250,205.7,250,158.5L250,158.5z"/>
<path class="st1" d="M238.2,158.5v97.4c0,1.3,0,2.7,0,4c-0.1,5.2-2.4,8-6.3,7.9s-6.1-2.8-6.1-8.1c0-67.3,0-134.5,0-201.8
	c0-5.5,2-8,6-8.1c4.2-0.1,6.3,2.6,6.3,8.2C238.3,91.5,238.3,125,238.2,158.5z"/>
<path class="st1" d="M286.7,159v86.5c0.1,1.5,0,3-0.1,4.5c-0.5,3.6-2.8,5.8-6.4,5.7c-3.4-0.1-5.5-2.3-5.6-5.8
	c-0.2-5.2-0.3-10.3-0.3-15.5c0-53.3,0-106.6,0-159.9c0-2.2,0-4.3,0.1-6.5c0.3-3.5,1.9-6.1,5.9-6.1c4.1-0.1,6,2.5,6.4,6.2
	c0.1,1.5,0.1,3,0.1,4.5L286.7,159z"/>
<path class="st1" d="M93.1,158.5c0,27.1,0,54.3,0,81.4c0,1.7,0.5,3.8-0.3,4.9c-1.6,2-4,4.6-6.1,4.6s-4.2-2.9-5.7-5
	c-0.7-1-0.3-2.9-0.3-4.4c0-54.1,0-108.2,0-162.3c0-1.5,0-3,0.2-4.5c0.5-3.5,2.7-5.3,6.2-5.2s5.5,2.1,5.9,5.5c0.1,1.5,0.2,3,0.1,4.5
	L93.1,158.5z"/>
<path class="st1" d="M201.8,158.9c0-19.8-0.1-39.6,0.2-59.4c0-2.3,1.8-5.2,3.7-6.7c1.1-0.9,4.4-0.3,5.8,0.8c1.5,1.5,2.4,3.5,2.4,5.6
	c0.1,39.6,0.2,79.2,0.1,118.8c0,4.9-2.3,7.5-6.2,7.3c-4.7-0.2-6-3.2-6-7.5C201.9,198.1,201.8,178.5,201.8,158.9z"/>
<path class="st1" d="M56.6,158.5c0-16.8,0-33.7,0-50.5c0-1.7-0.4-3.7,0.3-4.9c1.2-1.9,3.1-4.6,4.8-4.7c2.1-0.1,4.7,1.8,6.2,3.6
	c1.1,1.3,0.8,3.8,0.8,5.8c0,34,0,68,0,102c0,1,0,2-0.1,3c-0.4,4-2.2,6.8-6.5,6.6c-4.2-0.2-5.7-3-5.7-6.8
	C56.6,194.5,56.6,176.5,56.6,158.5L56.6,158.5z"/>
<path class="st1" d="M310.9,159c0,15,0,30,0,45c0,1.5,0.4,3.5-0.4,4.4c-1.7,1.9-4,4.6-6.1,4.5s-4.3-2.8-5.8-4.8
	c-0.8-1.1-0.4-3.2-0.4-4.9c0-29.3,0-58.7,0-88c0-0.7,0-1.3,0-2c0-5.9,2.1-9,6.2-9.2s6.4,3.2,6.4,8.9c0.1,10,0,20,0,30L310.9,159z"/>
<path class="st1" d="M117.1,158.5c0,15.8,0,31.6,0,47.4c0,5.3-2.8,8.1-7.1,7.2c-3.5-0.7-5-3-5-6.4c0-32,0-63.9,0.1-95.9
	c0-4.3,2.7-7,6.4-6.6c4,0.4,5.7,2.8,5.7,6.8C117,126.9,117.1,142.7,117.1,158.5L117.1,158.5z"/>
<path class="st1" d="M359.2,158.7c0,11.5,0,23,0,34.5c0,5.4-2,7.9-6.1,7.9s-6-2.4-6.1-7.9c0-23,0-45.9,0-68.9c0-5.2,2.2-8,6.1-8.1
	s6.1,2.8,6.1,8C359.2,135.7,359.2,147.2,359.2,158.7z"/>
<path class="st1" d="M177.4,158.5c0-9.3,0-18.6,0-27.9c0-5.5,2.4-8.4,6.4-8.3c3.8,0.1,5.9,3,6,8.2c0,19,0,37.9,0,56.9
	c0,4.1-1.1,7.4-5.9,7.7c-4,0.3-6.4-2.6-6.5-7.6C177.3,177.8,177.4,168.2,177.4,158.5z"/>
<path class="st1" d="M44.5,159c0,7.5,0,15,0,22.5c0,4-1.1,7.4-6,7.5c-3.9,0.1-6.3-2.5-6.3-7.4c-0.1-15.3-0.1-30.7,0-46
	c0-4.6,2.8-7.7,6.4-7.3c4.5,0.4,6.1,3.4,6,7.7C44.5,143.7,44.6,151.3,44.5,159L44.5,159z"/>
<path class="st1" d="M129.1,159c0-7.7,0-15.3,0-23c0-4.2,1.4-7.3,6-7.6c3.7-0.3,6.2,2.6,6.2,7.4c0.1,15.3,0.1,30.7,0,46
	c0,4.9-2.3,7.4-6.3,7.3s-6-2.6-6-7.6C129.1,174,129.1,166.5,129.1,159z"/>
<path class="st1" d="M334.9,158.5c0,5.8,0,11.6,0,17.5c0,3.9-1.5,7-6,7s-6.2-2.8-6.2-6.8c-0.1-11.6,0-23.3,0-34.9
	c0-4.2,2.1-6.9,6.3-6.8s6,2.9,6,7.1C334.9,147.2,335,152.8,334.9,158.5L334.9,158.5z"/>
<path class="st1" d="M165.8,159.3c0,3.7,0.1,7.3,0,11c-0.2,4-2.2,6.8-6.5,6.6c-4.1-0.1-6-2.8-6-6.6c-0.1-7.7-0.1-15.3,0.1-23
	c0.1-3.7,1.7-6.5,5.9-6.7s6.1,2.4,6.4,6.1C165.9,150.9,165.7,155.1,165.8,159.3L165.8,159.3z"/>
<path class="st1" d="M371,158.4c0-3.8-0.1-7.6,0-11.4s2.1-6.1,5.8-6.3c3.9-0.2,6.5,1.9,6.6,5.9c0.2,8.1,0.2,16.3,0,24.4
	c-0.1,3.8-2.4,6.3-6.4,6s-5.9-2.7-5.9-6.6S371,162.3,371,158.4z"/>
<path class="st1" d="M8,158.6c0-3.8-0.1-7.6,0-11.4c0.1-3.8,2-6.3,6-6.5s6.3,2.2,6.3,6.1c0.2,8,0.2,15.9,0.1,23.9
	c-0.1,3.8-2.3,6.3-6.3,6.3c-4.3-0.2-6.1-3-6.2-7C7.9,166.2,8,162.4,8,158.6z"/>
</svg>
