<?xml version="1.0" encoding="utf-8"?>
<!-- Generator: Adobe Illustrator 26.5.2, SVG Export Plug-In . SVG Version: 6.00 Build 0)  -->
<svg version="1.1" id="Calque_1" xmlns="http://www.w3.org/2000/svg" xmlns:xlink="http://www.w3.org/1999/xlink" x="0px" y="0px"
	 viewBox="0 0 755.8 622.1" style="enable-background:new 0 0 755.8 622.1;" xml:space="preserve">
<style type="text/css">
	.st0{fill:#FFFFFF;}
</style>
<path class="st0" d="M614.7,98.3c-5.9-0.6-12-0.6-17.8-1.9c-8.3-1.9-16.1-5.3-23.2-9.8C560,77.9,549.5,65.9,539,53.9
	c-6.5-7.4-13.5-14.5-22.4-19c-3.9-1.8-8.1-3.2-12.3-4.1c-3.5-1-7.1-1.5-10.8-1.6c-10,0.2-19.7,3.6-27.7,9.5
	c-7.7,5.6-13.8,12.9-20.2,19.8c-8.4,9.1-17.3,17.6-26.9,25.5c-6.6,5.4-14.6,8.6-23,11.2c-9.5,2.9-19,3.2-28.6,2.6s-18.4-3.6-27-7.8
	c-12.9-6.4-22.5-16.6-32.3-26.6c-5.9-6.1-11.4-12.5-17.3-18.6c-5.9-6.2-13.2-10.7-21.4-13.2c-6.4-2-13.1-3.4-20-2.2
	c-12.8,2.3-24.5,8.7-33.3,18.4c-9.4,10.1-18.8,20.1-28.5,29.8c-5.8,5.8-12.9,9.9-20.2,13.5c-12.5,6.2-25.9,7.8-39.5,6.8
	c-9.4-0.8-18.6-3.5-27-7.8C87.6,83.6,78,73.4,68.2,63.3c-6.7-6.8-12.9-14.1-19.7-20.8c-5.2-5.1-11.6-8.9-18.6-10.9
	c-5-1.5-10.2-2.3-15.5-2.4C6.7,29.2,2.2,24,0.6,18.5C-1.4,12,1.8,4.4,7.2,1.3C8.5,0.5,10,0.1,11.5,0c6.7,0.3,13.7,0,20.2,1.6
	c9.8,2.5,18.9,6.8,27.1,12.7c9.6,6.8,17.1,15.8,25.4,23.9c5.2,5.1,9.7,10.8,14.8,16c6.7,6.7,14.7,11.9,23.9,14
	c5.8,1.3,11.7,2.3,18,1c5.6-1.2,11-2.3,16.1-5c7.4-3.8,13.4-9.2,19.1-15.1c9.4-9.9,18.5-20.1,28.4-29.5c6-5.7,13.4-9.9,21.2-13.2
	c12.8-5.3,26.1-6.2,39.5-5C271,1.9,277,4,282.5,6.2c5.8,2.2,11.2,5.1,16.2,8.8c6.7,5.3,13.1,11.1,19,17.2c7.5,7.5,14.3,15.6,21.8,23
	c6.5,6.3,14.2,11.2,23.1,13.1c5.8,1.2,11.7,2.2,18,0.9c5.8-1.2,11.4-2.4,16.6-5.3c8.8-5,16.4-11.7,22.5-19.7
	c3.5-4.2,7.3-8.2,11.4-11.9c6.5-6.1,12.8-12.4,19.7-17.9c8-6.3,17.3-9.6,27.3-11.9c7.9-1.8,15.7-1.7,23.4-1.2
	c6.3,0.4,12.5,2.5,18.7,4.1c6.5,1.7,12.5,4.9,17.6,9.2c6.8,5.5,13.2,11.5,19.4,17.7s11.8,12.7,17.7,19c7.3,7.8,15.9,14.1,26.4,16.7
	c5.7,1.4,11.8,3,18,1.2c3.1-0.9,6.4-1.2,9.5-2c8.2-2.2,15-7,20.9-12.8c10.1-10,19.7-20.6,29.6-30.8c14.7-15.2,35.2-23.4,56.4-22.5
	c6.5,0.3,12.4,6.5,12.9,13c0.5,7.4-2.4,12.5-8.9,15.7c-1.2,0.6-2.4,0.9-3.7,0.9c-9.7-0.3-19.3,2.2-27.6,7.4
	c-7.6,4.6-13.9,10.8-19.7,17.7c-9.4,11-19.2,21.5-31.4,29.6c-6.8,4.5-14.3,7.8-22.2,9.9C628.6,97.1,621.7,98.1,614.7,98.3z"/>
<path class="st0" d="M254.6,600.9c-23.5-14-42.7-34-55.8-58c-13.6-24.5-20.4-51.6-20.4-81.2c0-29.3,6.8-56.2,20.4-80.6
	c13.1-23.9,32.4-43.9,55.8-58c23.6-14.3,49.7-21.4,78.2-21.4c20.3,0,37.8,2.7,52.6,8s29.8,14.1,45,26.4c3.2,2.4,5.3,4.9,6.4,7.4
	c1.1,2.9,1.7,5.9,1.6,9c0.1,5-2,9.9-5.8,13.2c-3.6,3.4-8.4,5.2-13.4,5.2c-5.1,0-10.1-1.9-14-5.2c-10.9-9.3-21.6-16.1-32-20.2
	c-10.4-4.1-23.9-6.2-40.4-6.2c-20.3-0.1-40.2,5.6-57.4,16.4c-17.5,11-31.9,26.4-41.6,44.6c-10.3,18.8-15.6,40-15.4,61.4
	c0,22.4,5.1,42.9,15.4,61.6c9.8,18.2,24.1,33.5,41.6,44.4c17.2,10.9,37.1,16.5,57.4,16.4c25.6,0,50.1-8.8,73.6-26.4
	c4.5-3.2,8.9-4.8,13.2-4.8c4.8-0.1,9.4,1.9,12.6,5.4c3.3,3.6,5,8.3,5,14.2c0,5.6-2.3,11-6.4,14.8c-28.8,23.2-61.5,34.8-98,34.8
	C304.3,622.1,278.2,615,254.6,600.9z"/>
<path class="st0" d="M500.6,608.7c-9.2-6.3-16.3-15.1-21.4-26.4s-7.6-24.1-7.6-38.2V325.7c0-5.9,1.9-10.7,5.6-14.4
	c3.7-3.7,8.5-5.6,14.4-5.6c5.9,0,10.7,1.9,14.4,5.6s5.6,8.5,5.6,14.4v218.4c0,9.9,1.9,18,5.6,24.4c3.7,6.4,8.5,9.6,14.4,9.6h10
	c5-0.2,9.7,1.9,13,5.6c3.3,3.7,5,8.5,5,14.4s-2.5,10.7-7.6,14.4c-5.1,3.7-11.6,5.6-19.6,5.6h-0.8
	C520.6,618.2,509.8,614.9,500.6,608.7z"/>
<path class="st0" d="M560.6,283.1c-3.9-3.8-6-9-5.8-14.4c-0.3-10.9,8.3-20.1,19.2-20.4c0.4,0,0.8,0,1.2,0h89.2
	c5.4-0.2,10.6,1.9,14.4,5.8c3.8,3.9,5.8,9.2,5.6,14.6c0,5.9-1.9,10.7-5.6,14.4c-3.7,3.7-8.5,5.6-14.4,5.6h-89.2
	C569.8,288.9,564.5,286.9,560.6,283.1z"/>
<path class="st0" d="M621.7,185.4c-5.9-0.6-12-0.6-17.8-1.9c-8.3-1.9-16.1-5.3-23.2-9.9C567,165,556.5,153,546,141
	c-6.5-7.4-13.5-14.5-22.4-19c-3.8-1.9-8.1-3-12.3-4.1c-3.5-1-7.1-1.5-10.8-1.6c-10,0.2-19.7,3.6-27.7,9.5
	c-7.7,5.6-13.8,12.9-20.2,19.8c-8.4,9.1-17.3,17.6-26.9,25.5c-6.6,5.4-14.6,8.6-23,11.2c-9.5,2.9-19,3.2-28.6,2.6s-18.4-3.6-27-7.8
	c-12.9-6.4-22.5-16.6-32.3-26.6c-5.9-6.1-11.4-12.5-17.3-18.6c-5.9-6.2-13.2-10.7-21.4-13.2c-6.4-2-13.1-3.4-20-2.2
	c-12.8,2.3-24.5,8.7-33.3,18.4c-9.4,10-18.8,20.1-28.5,29.8c-5.8,5.8-12.9,9.9-20.3,13.5c-12.5,6.2-25.8,7.8-39.5,6.8
	c-9.4-0.8-18.6-3.5-27-7.8c-12.9-6.4-22.6-16.6-32.3-26.6c-6.7-6.9-12.9-14.1-19.7-20.8c-5.2-5.1-11.6-8.9-18.6-10.9
	c-5-1.5-10.2-2.3-15.5-2.4c-7.7,0-12.2-5.2-13.8-10.7c-1.9-6.5,1.2-14.1,6.7-17.2c1.3-0.8,2.7-1.3,4.2-1.3c6.7,0.3,13.7,0,20.2,1.6
	c9.7,2.5,18.9,6.8,27.1,12.7c9.6,6.8,17.1,15.8,25.4,24c5.2,5.1,9.7,10.9,14.8,16c6.7,6.7,14.7,11.9,23.9,14c5.8,1.3,11.7,2.3,18,1
	c5.6-1.2,11-2.3,16.1-5c7.4-3.8,13.4-9.2,19.1-15.1c9.4-9.9,18.5-20.1,28.4-29.5c6-5.8,13.4-9.9,21.2-13.2c12.8-5.3,26.1-6.2,39.5-5
	c5.9,0.5,11.8,2.6,17.4,4.8c5.8,2.2,11.2,5.1,16.2,8.8c6.7,5.3,13.1,11.1,19,17.2c7.5,7.5,14.3,15.6,21.8,23
	c6.5,6.3,14.2,11.2,23.1,13.1c5.8,1.2,11.7,2.2,18,0.9c5.8-1.1,11.4-2.4,16.6-5.3c8.8-5,16.4-11.7,22.5-19.7
	c3.5-4.2,7.3-8.2,11.4-11.9c6.4-6.1,12.8-12.4,19.7-17.8c8-6.3,17.3-9.6,27.3-11.9c7.9-1.8,15.7-1.7,23.4-1.2
	c6.3,0.4,12.5,2.5,18.7,4.1c6.5,1.7,12.5,4.8,17.7,9.1c6.8,5.5,13.2,11.5,19.4,17.7s11.8,12.7,17.7,19c7.3,7.8,15.9,14.1,26.4,16.7
	c5.7,1.4,11.8,3,18,1.1c3.1-0.9,6.4-1.2,9.5-2c8.2-2.2,15-7,20.9-12.8c10.1-10,19.7-20.6,29.6-30.8c14.7-15.2,35.2-23.4,56.4-22.5
	c6.5,0.3,12.4,6.5,12.9,13c0.5,7.4-2.4,12.5-8.9,15.7c-1.2,0.6-2.4,0.9-3.7,0.9c-9.7-0.3-19.3,2.2-27.6,7.4
	c-7.6,4.6-13.9,10.8-19.7,17.6c-9.4,11-19.2,21.5-31.4,29.6c-6.8,4.5-14.3,7.8-22.2,9.9C635.6,184.2,628.6,185.3,621.7,185.4z"/>
</svg>
