<svg id="Calque_1" data-name="Calque 1" xmlns="http://www.w3.org/2000/svg" viewBox="0 0 755.81 549.5"><title>PC2</title><path d="M621.75,137.1c-5.93-.59-12-.59-17.77-1.91a73.59,73.59,0,0,1-23.24-9.85c-13.61-8.69-24.12-20.68-34.65-32.68-6.51-7.42-13.49-14.52-22.43-19a58.55,58.55,0,0,0-12.34-4.07A41.12,41.12,0,0,0,500.52,68a48.23,48.23,0,0,0-27.68,9.52c-7.68,5.64-13.76,12.87-20.21,19.82a267.86,267.86,0,0,1-26.85,25.45c-6.57,5.35-14.64,8.64-22.95,11.18-9.45,2.89-19,3.25-28.64,2.6s-18.41-3.56-27-7.79c-12.93-6.36-22.55-16.58-32.33-26.64C309,96,303.43,89.6,297.55,83.51a49.85,49.85,0,0,0-21.36-13.23c-6.4-2-13.13-3.42-20-2.19a58.5,58.5,0,0,0-33.28,18.38c-9.37,10.06-18.79,20.08-28.52,29.79-5.79,5.79-12.89,9.88-20.25,13.53-12.53,6.22-25.85,7.79-39.51,6.78a73.46,73.46,0,0,1-27-7.81c-12.94-6.34-22.55-16.57-32.34-26.63C68.64,95.28,62.4,88,55.57,81.32A44.87,44.87,0,0,0,36.94,70.39,54.34,54.34,0,0,0,21.45,68c-7.72,0-12.2-5.22-13.81-10.66-1.92-6.5,1.24-14.12,6.69-17.21a8.57,8.57,0,0,1,4.21-1.35c6.74.31,13.7,0,20.16,1.56A80.1,80.1,0,0,1,65.8,53.07C75.45,59.85,82.89,68.87,91.18,77c5.18,5.09,9.68,10.85,14.83,16,6.73,6.69,14.67,11.94,23.93,14,5.76,1.27,11.73,2.31,18,1,5.6-1.15,11-2.32,16.09-5,7.37-3.82,13.43-9.17,19.08-15.14,9.37-9.91,18.52-20.07,28.38-29.48,6-5.74,13.35-9.91,21.18-13.19,12.78-5.35,26.1-6.25,39.54-5,5.91.53,11.84,2.58,17.4,4.84a69.79,69.79,0,0,1,16.17,8.76,194.6,194.6,0,0,1,19,17.22c7.45,7.46,14.26,15.59,21.8,23,6.47,6.33,14.22,11.24,23.11,13.09,5.77,1.2,11.73,2.18,18,.94,5.84-1.15,11.43-2.45,16.6-5.34a74.78,74.78,0,0,0,22.5-19.71,113.62,113.62,0,0,1,11.37-11.86C444.64,65,451,58.72,457.9,53.25c8-6.28,17.33-9.61,27.3-11.91,7.88-1.82,15.68-1.71,23.43-1.21,6.31.4,12.53,2.53,18.73,4.11A45.91,45.91,0,0,1,545,53.41c6.77,5.53,13.22,11.5,19.43,17.66s11.78,12.7,17.72,19c7.35,7.83,15.92,14.12,26.37,16.74,5.73,1.43,11.8,3,18,1.15,3.1-.94,6.41-1.16,9.55-2,8.21-2.2,15-7,20.89-12.82,10.09-10,19.65-20.6,29.6-30.79a74,74,0,0,1,56.38-22.46c6.49.27,12.43,6.5,12.91,13,.54,7.37-2.37,12.53-8.88,15.74a8.19,8.19,0,0,1-3.71.87,49,49,0,0,0-27.57,7.38c-7.6,4.64-13.93,10.85-19.7,17.65-9.37,11-19.23,21.52-31.37,29.63a74.44,74.44,0,0,1-22.21,9.86A83.8,83.8,0,0,1,621.75,137.1Z" transform="translate(-7.08 -38.79)"/><path d="M628.75,224.23c-5.93-.59-12-.59-17.77-1.9a73.39,73.39,0,0,1-23.24-9.86c-13.61-8.69-24.12-20.68-34.65-32.68-6.51-7.42-13.49-14.52-22.43-19-3.82-1.94-8.14-3-12.34-4.06a40.73,40.73,0,0,0-10.8-1.59,48.17,48.17,0,0,0-27.68,9.53c-7.68,5.64-13.77,12.86-20.21,19.81a268.94,268.94,0,0,1-26.85,25.45c-6.57,5.35-14.64,8.64-22.95,11.18-9.45,2.89-19,3.25-28.64,2.6s-18.41-3.56-27-7.79c-12.93-6.36-22.55-16.57-32.33-26.64-5.9-6.07-11.42-12.51-17.3-18.6a49.91,49.91,0,0,0-21.36-13.23c-6.4-2-13.13-3.41-20-2.19a58.48,58.48,0,0,0-33.28,18.39c-9.37,10-18.79,20.07-28.52,29.79-5.79,5.78-12.89,9.87-20.26,13.53-12.52,6.22-25.84,7.79-39.5,6.77a73.64,73.64,0,0,1-27-7.8c-12.94-6.35-22.55-16.58-32.34-26.64-6.66-6.85-12.9-14.13-19.73-20.81a45.08,45.08,0,0,0-18.63-10.93,54.69,54.69,0,0,0-15.49-2.38c-7.72,0-12.2-5.22-13.81-10.66-1.92-6.5,1.24-14.12,6.69-17.2a8.37,8.37,0,0,1,4.21-1.35c6.74.3,13.7,0,20.16,1.55A80.29,80.29,0,0,1,72.8,140.2c9.64,6.78,17.08,15.81,25.38,24,5.17,5.09,9.68,10.86,14.83,16,6.73,6.69,14.67,11.95,23.93,14,5.76,1.28,11.73,2.31,18,1,5.6-1.16,11-2.33,16.09-5,7.37-3.82,13.43-9.17,19.08-15.14,9.37-9.91,18.52-20.07,28.38-29.47,6-5.75,13.35-9.92,21.18-13.2,12.78-5.34,26.1-6.24,39.54-5,5.91.53,11.84,2.59,17.4,4.84a69.52,69.52,0,0,1,16.16,8.76,194.83,194.83,0,0,1,19,17.22c7.45,7.47,14.26,15.59,21.8,23,6.47,6.33,14.22,11.25,23.11,13.09,5.77,1.2,11.73,2.18,18,.94,5.84-1.15,11.43-2.45,16.6-5.33a74.81,74.81,0,0,0,22.5-19.72,113.62,113.62,0,0,1,11.37-11.86c6.43-6.09,12.75-12.35,19.69-17.83,8-6.28,17.33-9.61,27.3-11.91,7.88-1.82,15.67-1.7,23.43-1.21,6.31.41,12.53,2.53,18.73,4.11A45.91,45.91,0,0,1,552,140.54c6.77,5.53,13.22,11.51,19.43,17.67s11.78,12.69,17.72,19c7.35,7.83,15.92,14.13,26.37,16.74,5.73,1.43,11.8,3,18,1.15,3.1-.94,6.41-1.16,9.55-2,8.21-2.21,15-7,20.89-12.83,10.09-10,19.65-20.6,29.6-30.79A74,74,0,0,1,749.91,127c6.49.27,12.43,6.51,12.91,13,.54,7.37-2.37,12.53-8.88,15.73a8.2,8.2,0,0,1-3.71.88A49,49,0,0,0,722.66,164c-7.6,4.64-13.93,10.85-19.7,17.65-9.37,11-19.23,21.52-31.37,29.63a74.46,74.46,0,0,1-22.21,9.87A83.79,83.79,0,0,1,628.75,224.23Z" transform="translate(-7.08 -38.79)"/><path d="M225.38,580.79a15.07,15.07,0,0,1-4.5-11.1V366.59a15,15,0,0,1,4.5-11.25,15.4,15.4,0,0,1,11.1-4.35h60q22.2,0,39.75,9.9a69.75,69.75,0,0,1,27.3,27.6q9.75,17.72,9.75,40.2,0,21.92-9.75,39a68.7,68.7,0,0,1-27.3,26.7Q318.68,504,296.48,504h-44.4v65.7a15.34,15.34,0,0,1-4.35,11.1,16.13,16.13,0,0,1-22.35,0Zm71.1-105.6q20.4,0,33.6-13.05t13.2-33.45q0-21.29-13.2-35.1t-33.6-13.8h-44.4v95.4Z" transform="translate(-7.08 -38.79)"/><path d="M439.13,572.39a114.21,114.21,0,0,1-41.85-43.5Q382,501.31,382,468q0-33,15.3-60.45A115.86,115.86,0,0,1,439.13,364,111.27,111.27,0,0,1,497.78,348q22.79,0,39.45,6T571,373.79a14.24,14.24,0,0,1,4.8,5.55,17.58,17.58,0,0,1,1.2,6.75,12.72,12.72,0,0,1-4.35,9.9,14.58,14.58,0,0,1-10,3.9,16.2,16.2,0,0,1-10.5-3.9q-12.32-10.49-24-15.15t-30.3-4.65a79.63,79.63,0,0,0-43,12.3,89,89,0,0,0-31.2,33.45,97.88,97.88,0,0,0,0,92.25,89,89,0,0,0,31.2,33.3,79.45,79.45,0,0,0,43,12.3q28.8,0,55.2-19.8a17.24,17.24,0,0,1,9.9-3.6,12.36,12.36,0,0,1,9.45,4.05c2.5,2.7,3.75,6.26,3.75,10.65a15.26,15.26,0,0,1-4.8,11.1q-32.4,26.1-73.5,26.1Q465.67,588.29,439.13,572.39Z" transform="translate(-7.08 -38.79)"/></svg>