<?xml version="1.0" encoding="utf-8"?>
<!-- Generator: Adobe Illustrator 22.1.0, SVG Export Plug-In . SVG Version: 6.00 Build 0)  -->
<svg version="1.1" id="Layer_1" xmlns="http://www.w3.org/2000/svg" xmlns:xlink="http://www.w3.org/1999/xlink" x="0px" y="0px"
	 viewBox="0 0 106.7 94.5" style="enable-background:new 0 0 106.7 94.5;" xml:space="preserve">
<path d="M21.4,52.2c2.8,0,5-2.3,5-5c0-2.8-2.3-5.1-5-5.1c-2.8,0-5,2.3-5,5.1C16.3,50,18.6,52.2,21.4,52.2 M40.8,69.8
	c2.6,0,4.7-2.1,4.7-4.7s-2.1-4.7-4.7-4.7c-2.6,0-4.7,2.1-4.7,4.7C36.1,67.7,38.2,69.8,40.8,69.8 M92.1,65.6c2.2,0,4-1.8,4-4
	s-1.8-4-4-4s-4,1.8-4,4S89.9,65.6,92.1,65.6 M50.1,86c1.7,0,3-1.4,3-3c0-1.7-1.4-3-3-3c-1.7,0-3,1.4-3,3S48.4,86,50.1,86 M97.2,87.1
	c1.8,0,3.3-1.5,3.3-3.3s-1.5-3.3-3.3-3.3s-3.3,1.5-3.3,3.3C94,85.6,95.4,87.1,97.2,87.1 M29.4,57.9c1.4,0,2.5-1.1,2.5-2.5
	s-1.1-2.5-2.5-2.5s-2.5,1.1-2.5,2.5C26.9,56.8,28.1,57.9,29.4,57.9 M104.2,76.6c1.4,0,2.5-1.1,2.5-2.5s-1.1-2.5-2.5-2.5
	s-2.5,1.1-2.5,2.5S102.8,76.6,104.2,76.6 M66,94.5c1.4,0,2.5-1.1,2.5-2.5s-1.1-2.5-2.5-2.5s-2.5,1.1-2.5,2.5S64.6,94.5,66,94.5
	 M58.8,75.4c2,0,3.5-1.6,3.5-3.6s-1.6-3.5-3.5-3.5c-2,0-3.5,1.6-3.5,3.5C55.2,73.8,56.8,75.4,58.8,75.4 M84.1,77.6
	c2,0,3.5-1.6,3.5-3.6s-1.6-3.5-3.5-3.5c-2,0-3.5,1.6-3.5,3.5C80.6,76.1,82.1,77.6,84.1,77.6 M71.3,83.1c2,0,3.6-1.6,3.6-3.7
	c0-2-1.6-3.7-3.6-3.7s-3.6,1.6-3.6,3.7C67.7,81.5,69.3,83.1,71.3,83.1 M79.1,64.7c2.5,0,4.5-2,4.5-4.5s-2-4.5-4.5-4.5
	s-4.5,2-4.5,4.5C74.6,62.7,76.6,64.7,79.1,64.7 M64.9,58.6c-3.8,0-6.8-3.1-6.8-6.8c0-3.8,3-6.8,6.8-6.8c3.8,0,6.8,3.1,6.8,6.8
	C71.7,55.5,68.7,58.6,64.9,58.6 M52.9,53.4c-1.9,0-3.4-1.5-3.4-3.4s1.5-3.4,3.4-3.4s3.4,1.5,3.4,3.4C56.3,51.8,54.8,53.4,52.9,53.4
	 M56.8,0C39.3,0,25.2,14.2,25.2,31.7c0,2.5,0.3,4.9,0.9,7.3c0.2,0,0.4-0.1,0.6-0.1c2.6,0,4.8,2.1,4.8,4.8c0,1.6-0.8,3-2,3.9
	c0.4,0.8,0.9,1.5,1.4,2.2c0.6-0.7,1.5-1.1,2.5-1.1c2,0,3.5,1.6,3.5,3.6c0,1.2-0.6,2.2-1.4,2.9c0.7,0.6,1.4,1.2,2.1,1.8
	c1-1.9,3-3.2,5.3-3.2c3.3,0,6,2.7,6,6c0,0.9-0.2,1.8-0.6,2.6c1.5,0.4,3.1,0.7,4.7,0.9c0.1-2.6,2.2-4.6,4.7-4.6s4.5,1.9,4.7,4.4
	c3.2-0.6,6.3-1.6,9.1-3.1c-0.1-0.5-0.2-0.9-0.2-1.4c0-3.3,2.6-5.9,5.9-5.9c1,0,2,0.3,2.8,0.8c0.3-0.3,0.5-0.5,0.7-0.8
	c-2.6-0.9-4.5-3.4-4.5-6.4c0-3.7,3-6.8,6.8-6.8c1.6,0,3,0.6,4.2,1.5c0.8-2.8,1.3-5.9,1.3-9C88.4,14.2,74.2,0,56.8,0 M90.1,55.5
	c3.3,0,5.9-2.6,5.9-5.9c0-3.3-2.6-5.9-5.9-5.9c-3.2,0-5.9,2.6-5.9,5.9S86.8,55.5,90.1,55.5 M26.7,71.1c2.2,0,4-1.8,4-4s-1.8-4-4-4
	s-4,1.8-4,4C22.7,69.3,24.5,71.1,26.7,71.1 M37.2,84.1c1.8,0,3.3-1.5,3.3-3.3s-1.5-3.3-3.3-3.3s-3.3,1.5-3.3,3.3
	S35.4,84.1,37.2,84.1 M22.3,85.1c2,0,3.5-1.6,3.5-3.6S24.2,78,22.3,78c-2,0-3.5,1.6-3.5,3.5C18.7,83.5,20.3,85.1,22.3,85.1 M3.7,80
	c2,0,3.6-1.6,3.6-3.7c0-2-1.6-3.7-3.6-3.7S0,74.2,0,76.3C0,78.4,1.6,80,3.7,80 M13.3,70.3c2.5,0,4.5-2,4.5-4.5s-2-4.5-4.5-4.5
	s-4.5,2-4.5,4.5C8.9,68.3,10.9,70.3,13.3,70.3"/>
</svg>
