<?xml version="1.0" encoding="utf-8"?>
<!-- Generator: Adobe Illustrator 26.5.2, SVG Export Plug-In . SVG Version: 6.00 Build 0)  -->
<svg version="1.1"
	 id="Calque_1" xmlns:inkscape="http://www.inkscape.org/namespaces/inkscape" xmlns:svg="http://www.w3.org/2000/svg" xmlns:sodipodi="http://sodipodi.sourceforge.net/DTD/sodipodi-0.dtd"
	 xmlns="http://www.w3.org/2000/svg" xmlns:xlink="http://www.w3.org/1999/xlink" x="0px" y="0px" viewBox="0 0 500 500"
	 style="enable-background:new 0 0 500 500;" xml:space="preserve">
<style type="text/css">
	.st0{fill:#3E4072;}
</style>
<sodipodi:namedview  bordercolor="#666666" borderopacity="1.0" id="namedview35" inkscape:current-layer="Calque_1" inkscape:cx="55.183284" inkscape:cy="251.26789" inkscape:deskcolor="#d1d1d1" inkscape:pagecheckerboard="0" inkscape:pageopacity="0.0" inkscape:showpageshadow="2" inkscape:window-height="894" inkscape:window-maximized="1" inkscape:window-width="1920" inkscape:window-x="-8" inkscape:window-y="-8" inkscape:zoom="1.3591072" pagecolor="#ffffff" showgrid="false">
	</sodipodi:namedview>
<path id="path28" class="st0" d="M165.7,61.8c2.1-6.1,4.1-12,6.1-17.7c3.5-10.3,7.5-13.2,18.6-13.2c12.8,0,25.5,0,38.4,0h6
	c0-5.4-0.2-10.4,0.1-15.3c0.4-6.8,4-11.6,10.2-14.3c5.8-2.5,11.6-1.8,15.8,2.7c2.6,3.1,4.3,6.8,5,10.8c0.8,5,0.2,10.2,0.2,15.9h5.8
	c13.1,0,26.2,0,39.4,0c8.7,0,14.6,4.3,17.5,12.4c1.6,4.6,3.4,9.1,4.5,13.7c1,4.1,3.1,4.9,7.1,4.9c23.2-0.2,46.4,0.3,69.7-0.3
	c12.6-0.3,21,6.5,21,20.5c-0.3,131.4-0.3,262.7,0,394.1c0.1,19.5-8.6,23.9-24.2,23.9c-105.5-0.3-211-0.3-316.5,0
	c-11.2,0-20.4-6-20.4-20.1c0.3-133.6,0.4-267.1,0.2-400.7c0-11,6.9-17.5,18-17.6C113.8,61.8,139.5,61.8,165.7,61.8z M399,467.9V94
	h-55.4c1.5,5.1,2.9,9.8,4.4,14.6c4.3,13.4-2.1,22.5-16.3,22.5c-54.7,0.1-109.3,0.1-164,0c-13.9,0-20.5-8.9-16.5-22.2
	c1.4-4.9,3-9.8,4.6-14.8h-53.2v373.8H399z M313.1,100c-3.8-12.2-7.4-23.6-11.2-34.9c-0.4-1.1-2.8-2.1-4.2-2.1
	c-31.6-0.1-63.1-0.1-94.7-0.1c-2.8,0-4.1,0.8-4.8,3.6c-2.1,8.2-4.6,16.2-7,24.4c-0.8,2.9-1.6,5.9-2.4,9.1H313.1z"/>
<path id="path30" class="st0" d="M250.8,427.6c-31.5,0-62.9,0-94.4,0c-12.4,0-19-6.6-18.7-18.8c1-55.7,44.7-101.9,102.3-108.1
	c64.5-7,123.7,45.1,123.9,109.1c0,11.1-6.6,17.8-17.7,17.8C314.4,427.6,282.6,427.6,250.8,427.6z M329.1,395.4
	c-4.8-29.3-34.1-64.4-80.6-63.5c-36.4,0.8-73.1,31.5-75.6,63.5H329.1z"/>
<path id="path32" class="st0" d="M305.7,222.8c-0.1,29.5-24.8,53.9-54.7,54c-30.4,0.1-55-24-55.2-54s24.3-54.3,54.7-54.5
	c30.4-0.2,55,24,55.2,54C305.8,222.5,305.8,222.6,305.7,222.8L305.7,222.8z M273.4,222.6c0-12.9-9.5-22.3-22.4-22.3
	c-13.1,0-22.5,9.3-22.6,22.2c-0.1,12.8,9.6,22.4,22.4,22.4C263.6,244.9,273.4,235.4,273.4,222.6L273.4,222.6z"/>
</svg>
